<svg version="1.1" xmlns="http://www.w3.org/2000/svg" xmlns:xlink="http://www.w3.org/1999/xlink" stroke-linecap="round" stroke-linejoin="round" stroke-width="0" fill-rule="evenodd" clip-rule="evenodd" id="BSuIYQjz-3fz4EOIxKik_bottom" viewBox="-45001.18 -45999.39 91500.95 74899.51" width="91.50095mm" height="74.89950999999999mm" class="w-100 h-100"><defs><style>.BSuIYQjz-3fz4EOIxKik_fr4 {color: #666666;}
.BSuIYQjz-3fz4EOIxKik_cu {color: #cccccc;}
.BSuIYQjz-3fz4EOIxKik_cf {color: #cc9933;}
.BSuIYQjz-3fz4EOIxKik_sm {color: #004200; opacity: 0.75;}
.BSuIYQjz-3fz4EOIxKik_ss {color: #ffffff;}
.BSuIYQjz-3fz4EOIxKik_sp {color: #999999;}
.BSuIYQjz-3fz4EOIxKik_out {color: #000000;}</style><circle cx="0" cy="0" r="800" id="gGWSXRXJmOoKWPzAB0dU_pad-11"/><rect x="-800" y="-800" width="1600" height="1600" id="gGWSXRXJmOoKWPzAB0dU_pad-12"/><circle cx="0" cy="0" r="1270" id="gGWSXRXJmOoKWPzAB0dU_pad-13"/><circle cx="0" cy="0" r="762" id="gGWSXRXJmOoKWPzAB0dU_pad-14"/><rect x="-4049.9919" y="-2125.0021" width="8099.9838" height="4250.0042" rx="2125.0021" ry="2125.0021" id="gGWSXRXJmOoKWPzAB0dU_pad-15"/><rect x="-3199.9936" y="-1125.0041" width="6399.9872" height="2250.0082" rx="1125.0041" ry="1125.0041" id="gGWSXRXJmOoKWPzAB0dU_pad-16"/><rect x="-2625.0011" y="-1125.0041" width="5250.0022" height="2250.0082" rx="1125.0041" ry="1125.0041" id="gGWSXRXJmOoKWPzAB0dU_pad-17"/><g id="gGWSXRXJmOoKWPzAB0dU_pad-18"><circle cx="-2249.1" cy="-1001.4" r="2125"/><circle cx="2249.1" cy="1001.4" r="2125"/><polygon points="-1384.75858,-2942.6725 3113.44142,-939.8725 1384.75858,2942.6725 -3113.44142,939.8725"/></g><g id="gGWSXRXJmOoKWPzAB0dU_pad-19"><circle cx="-2249.1" cy="1001.4" r="2125"/><circle cx="2249.1" cy="-1001.4" r="2125"/><polygon points="-3113.44142,-939.8725 1384.75858,-2942.6725 3113.44142,939.8725 -1384.75858,2942.6725"/></g><g id="gGWSXRXJmOoKWPzAB0dU_pad-20"><circle cx="-2336.1" cy="777.1" r="2125"/><circle cx="2336.1" cy="-777.1" r="2125"/><polygon points="-3006.84096,-1239.26593 1665.35904,-2793.46593 3006.84096,1239.26593 -1665.35904,2793.46593"/></g><g id="gGWSXRXJmOoKWPzAB0dU_pad-21"><circle cx="-2336.1" cy="-777.1" r="2125"/><circle cx="2336.1" cy="777.1" r="2125"/><polygon points="-1665.35904,-2793.46593 3006.84096,-1239.26593 1665.35904,2793.46593 -3006.84096,1239.26593"/></g><circle cx="0" cy="0" r="305" id="gGWSXRXJmOoKWPzAB0dU_pad-22"/><circle cx="0" cy="0" r="850.8" id="vMW8JwG7aajUQTASkVAJ_pad-10"/><g id="vMW8JwG7aajUQTASkVAJ_pad-11"><circle cx="800" cy="800" r="50.8"/><circle cx="800" cy="-800" r="50.8"/><circle cx="-800" cy="-800" r="50.8"/><circle cx="-800" cy="800" r="50.8"/><polygon points="850.8,800 850.8,-800 749.2,-800 749.2,800"/><polygon points="800,-850.8 -800,-850.8 -800,-749.2 800,-749.2"/><polygon points="-749.2,-800 -749.2,800 -850.8,800 -850.8,-800"/><polygon points="-800,749.2 800,749.2 800,850.8 -800,850.8"/><polygon points="800,800 800,-800 -800,-800 -800,800"/></g><circle cx="0" cy="0" r="1320.8" id="vMW8JwG7aajUQTASkVAJ_pad-12"/><circle cx="0" cy="0" r="812.8" id="vMW8JwG7aajUQTASkVAJ_pad-13"/><rect x="-4049.9919" y="-2125.0021" width="8099.9838" height="4250.0042" rx="2125.0021" ry="2125.0021" id="vMW8JwG7aajUQTASkVAJ_pad-14"/><rect x="-3199.9936" y="-1125.0041" width="6399.9872" height="2250.0082" rx="1125.0041" ry="1125.0041" id="vMW8JwG7aajUQTASkVAJ_pad-15"/><rect x="-2625.0011" y="-1125.0041" width="5250.0022" height="2250.0082" rx="1125.0041" ry="1125.0041" id="vMW8JwG7aajUQTASkVAJ_pad-16"/><g id="vMW8JwG7aajUQTASkVAJ_pad-17"><circle cx="-2249.1" cy="-1001.4" r="2125"/><circle cx="2249.1" cy="1001.4" r="2125"/><polygon points="-1384.75858,-2942.6725 3113.44142,-939.8725 1384.75858,2942.6725 -3113.44142,939.8725"/></g><g id="vMW8JwG7aajUQTASkVAJ_pad-18"><circle cx="-2249.1" cy="1001.4" r="2125"/><circle cx="2249.1" cy="-1001.4" r="2125"/><polygon points="-3113.44142,-939.8725 1384.75858,-2942.6725 3113.44142,939.8725 -1384.75858,2942.6725"/></g><g id="vMW8JwG7aajUQTASkVAJ_pad-19"><circle cx="-2336.1" cy="777.1" r="2125"/><circle cx="2336.1" cy="-777.1" r="2125"/><polygon points="-3006.84096,-1239.26593 1665.35904,-2793.46593 3006.84096,1239.26593 -1665.35904,2793.46593"/></g><g id="vMW8JwG7aajUQTASkVAJ_pad-20"><circle cx="-2336.1" cy="-777.1" r="2125"/><circle cx="2336.1" cy="777.1" r="2125"/><polygon points="-1665.35904,-2793.46593 3006.84096,-1239.26593 1665.35904,2793.46593 -3006.84096,1239.26593"/></g><circle cx="0" cy="0" r="153" id="VlfdbhI1scLcO8vCkuV5_pad-1"/><circle cx="0" cy="0" r="457.5" id="VlfdbhI1scLcO8vCkuV5_pad-2"/><circle cx="0" cy="0" r="500" id="VlfdbhI1scLcO8vCkuV5_pad-3"/><circle cx="0" cy="0" r="550.5" id="VlfdbhI1scLcO8vCkuV5_pad-4"/><circle cx="0" cy="0" r="153" id="bBfkz52iLQCs87pPIW2V_pad-1"/><circle cx="0" cy="0" r="850" id="n8r5dvTXpzHy0vVDnYyC_pad-1"/><circle cx="0" cy="0" r="1950" id="n8r5dvTXpzHy0vVDnYyC_pad-3"/><g id="BSuIYQjz-3fz4EOIxKik_bottom_copper"><path d="M -6610.07 -26610.05 -6610.07 -10751.31 -7859.75 -9501.63 -7859.75 588.77 -30999.91 23728.93 -30999.91 26999.94 M -11690.07 -26610.05 -11690.07 1026.15 -32999.9 22335.99 -32999.9 26999.94 M -14230.07 -26610.05 -14230.07 1515.36 -34999.9 22285.19 -34999.9 26999.94 M -16770.07 -26610.05 -16770.07 1744.97 -36999.9 21974.8 -36999.9 26999.94 M 41999.94 -15999.96 24999.97 999.99 24999.97 12999.97 M 41999.94 -15999.96 43999.93 -15999.96 M 41999.94 -15999.96 41999.94 -23500.07 M 2540.02 3919.98 -2539.97 -1160.01 -2539.97 -3919.98 M 3549.92 -26610.05 3549.92 -24882.6 6912.12 -21520.4 6912.12 -452.12 2540.02 3919.98 M 39530.8 -20422.1 39530.8 -15318.23 M 16281.67 -16915.89 16281.67 9105.39 -2351.5 27738.57 M -1530.07 -44389.8 12451.1 -30408.62 12451.1 -20746.46 16281.67 -16915.89 24502.13 -16915.89 31086.32 -23500.07 37999.94 -23500.07 M -32009.81 -26610.05 -32009.81 -24070.81 -40123.33 -15957.29 -40123.33 -327.65 -41450.99 999.99 -41999.89 999.99 M -29469.81 -26610.05 -29419.77 -26560.01 -29419.77 -424.68 M -26929.81 -26610.05 -28185.84 -25354.02 -28185.84 86.61 -33099.22 4999.98 -41999.89 4999.98 M -42999.88 19499.83 -39729.63 16229.58 -39729.63 13193.52 -26745.41 209.29 -26745.41 -18805.65 M -34549.81 -24882.6 -41999.89 -17432.52 -41999.89 -4999.98 M -42999.88 19499.83 -38999.89 23499.82 -38999.89 26999.94 M -34549.81 -26610.05 -34549.81 -24882.6 M -11690.07 -44389.8 -11690.07 -44015.4 2631.21 -29694.12 7996.45 -29694.12 10369.82 -27320.74 10369.82 8305.29 3090.18 15584.93 M -14230.07 -44389.8 -29160.69 -29459.17 -39378.1 -29459.17 -43785 -25052.27 -43785 16214.59 -42999.88 16999.71 M 1009.92 -26610.05 1009.92 -20036.53 3128.79 -17917.66 3128.79 -7220.96 3849.9 -6499.86 M -3809.97 6459.98 -4829.53 5440.42 -4829.53 -6051.54 -3260.06 -7621.01 -3260.06 -24880.06 -1530.07 -26610.05 M 24999.97 18999.96 24999.97 14999.96 M 24999.97 20999.95 24306.3 20999.95 21530.33 18223.99 21530.33 -11563.6" fill="none" stroke-width="254"/><use xlink:href="#gGWSXRXJmOoKWPzAB0dU_pad-11" x="-39629.84" y="-26610.05"/><use xlink:href="#gGWSXRXJmOoKWPzAB0dU_pad-11" x="-37089.84" y="-26610.05"/><use xlink:href="#gGWSXRXJmOoKWPzAB0dU_pad-12" x="-34549.84" y="-26610.05"/><use xlink:href="#gGWSXRXJmOoKWPzAB0dU_pad-11" x="-32009.84" y="-26610.05"/><use xlink:href="#gGWSXRXJmOoKWPzAB0dU_pad-11" x="-29469.84" y="-26610.05"/><use xlink:href="#gGWSXRXJmOoKWPzAB0dU_pad-11" x="-26929.84" y="-26610.05"/><use xlink:href="#gGWSXRXJmOoKWPzAB0dU_pad-11" x="-24389.84" y="-26610.05"/><use xlink:href="#gGWSXRXJmOoKWPzAB0dU_pad-12" x="-21850.09" y="-26610.05"/><use xlink:href="#gGWSXRXJmOoKWPzAB0dU_pad-11" x="-19310.09" y="-26610.05"/><use xlink:href="#gGWSXRXJmOoKWPzAB0dU_pad-11" x="-16770.09" y="-26610.05"/><use xlink:href="#gGWSXRXJmOoKWPzAB0dU_pad-11" x="8629.9" y="-26610.05"/><use xlink:href="#gGWSXRXJmOoKWPzAB0dU_pad-11" x="6089.9" y="-26610.05"/><use xlink:href="#gGWSXRXJmOoKWPzAB0dU_pad-12" x="3549.9" y="-26610.05"/><use xlink:href="#gGWSXRXJmOoKWPzAB0dU_pad-11" x="1009.9" y="-26610.05"/><use xlink:href="#gGWSXRXJmOoKWPzAB0dU_pad-11" x="-1530.09" y="-26610.05"/><use xlink:href="#gGWSXRXJmOoKWPzAB0dU_pad-11" x="-4070.09" y="-26610.05"/><use xlink:href="#gGWSXRXJmOoKWPzAB0dU_pad-11" x="-6610.09" y="-26610.05"/><use xlink:href="#gGWSXRXJmOoKWPzAB0dU_pad-12" x="-9150.09" y="-26610.05"/><use xlink:href="#gGWSXRXJmOoKWPzAB0dU_pad-11" x="-11690.09" y="-26610.05"/><use xlink:href="#gGWSXRXJmOoKWPzAB0dU_pad-11" x="-14230.09" y="-26610.05"/><use xlink:href="#gGWSXRXJmOoKWPzAB0dU_pad-11" x="-14230.09" y="-44389.8"/><use xlink:href="#gGWSXRXJmOoKWPzAB0dU_pad-11" x="-11690.09" y="-44389.8"/><use xlink:href="#gGWSXRXJmOoKWPzAB0dU_pad-12" x="-9150.09" y="-44389.8"/><use xlink:href="#gGWSXRXJmOoKWPzAB0dU_pad-11" x="-6610.09" y="-44389.8"/><use xlink:href="#gGWSXRXJmOoKWPzAB0dU_pad-11" x="-4070.09" y="-44389.8"/><use xlink:href="#gGWSXRXJmOoKWPzAB0dU_pad-11" x="-1530.09" y="-44389.8"/><use xlink:href="#gGWSXRXJmOoKWPzAB0dU_pad-11" x="1009.9" y="-44389.8"/><use xlink:href="#gGWSXRXJmOoKWPzAB0dU_pad-12" x="3549.9" y="-44389.8"/><use xlink:href="#gGWSXRXJmOoKWPzAB0dU_pad-11" x="6089.9" y="-44389.8"/><use xlink:href="#gGWSXRXJmOoKWPzAB0dU_pad-11" x="8629.9" y="-44389.8"/><use xlink:href="#gGWSXRXJmOoKWPzAB0dU_pad-11" x="-16770.09" y="-44389.8"/><use xlink:href="#gGWSXRXJmOoKWPzAB0dU_pad-11" x="-19310.09" y="-44389.8"/><use xlink:href="#gGWSXRXJmOoKWPzAB0dU_pad-12" x="-21850.09" y="-44389.8"/><use xlink:href="#gGWSXRXJmOoKWPzAB0dU_pad-11" x="-24389.84" y="-44389.8"/><use xlink:href="#gGWSXRXJmOoKWPzAB0dU_pad-11" x="-26929.84" y="-44389.8"/><use xlink:href="#gGWSXRXJmOoKWPzAB0dU_pad-11" x="-29469.84" y="-44389.8"/><use xlink:href="#gGWSXRXJmOoKWPzAB0dU_pad-11" x="-32009.84" y="-44389.8"/><use xlink:href="#gGWSXRXJmOoKWPzAB0dU_pad-12" x="-34549.84" y="-44389.8"/><use xlink:href="#gGWSXRXJmOoKWPzAB0dU_pad-11" x="-37089.84" y="-44389.8"/><use xlink:href="#gGWSXRXJmOoKWPzAB0dU_pad-11" x="-39629.84" y="-44389.8"/><use xlink:href="#gGWSXRXJmOoKWPzAB0dU_pad-11" x="43999.91" y="-15999.96"/><use xlink:href="#gGWSXRXJmOoKWPzAB0dU_pad-11" x="43999.91" y="-17999.96"/><use xlink:href="#gGWSXRXJmOoKWPzAB0dU_pad-11" x="43999.91" y="-19999.95"/><use xlink:href="#gGWSXRXJmOoKWPzAB0dU_pad-11" x="41999.91" y="-23500.07"/><use xlink:href="#gGWSXRXJmOoKWPzAB0dU_pad-11" x="39999.91" y="-23500.07"/><use xlink:href="#gGWSXRXJmOoKWPzAB0dU_pad-11" x="37999.92" y="-23500.07"/><use xlink:href="#gGWSXRXJmOoKWPzAB0dU_pad-11" x="-41999.91" y="999.99"/><use xlink:href="#gGWSXRXJmOoKWPzAB0dU_pad-11" x="-41999.91" y="2999.99"/><use xlink:href="#gGWSXRXJmOoKWPzAB0dU_pad-11" x="-41999.91" y="4999.98"/><use xlink:href="#gGWSXRXJmOoKWPzAB0dU_pad-11" x="-41999.91" y="-999.99"/><use xlink:href="#gGWSXRXJmOoKWPzAB0dU_pad-11" x="-41999.91" y="-2999.99"/><use xlink:href="#gGWSXRXJmOoKWPzAB0dU_pad-11" x="-41999.91" y="-4999.98"/><use xlink:href="#gGWSXRXJmOoKWPzAB0dU_pad-11" x="-42999.91" y="24499.82"/><use xlink:href="#gGWSXRXJmOoKWPzAB0dU_pad-11" x="-42999.91" y="21999.7"/><use xlink:href="#gGWSXRXJmOoKWPzAB0dU_pad-11" x="-42999.91" y="19499.83"/><use xlink:href="#gGWSXRXJmOoKWPzAB0dU_pad-11" x="-42999.91" y="16999.71"/><use xlink:href="#gGWSXRXJmOoKWPzAB0dU_pad-13" x="3849.87" y="-6499.86"/><use xlink:href="#gGWSXRXJmOoKWPzAB0dU_pad-13" x="-2540" y="-3919.98"/><use xlink:href="#gGWSXRXJmOoKWPzAB0dU_pad-13" x="-3810" y="6459.98"/><use xlink:href="#gGWSXRXJmOoKWPzAB0dU_pad-13" x="2540" y="3919.98"/><use xlink:href="#gGWSXRXJmOoKWPzAB0dU_pad-14" x="24999.95" y="14999.96"/><use xlink:href="#gGWSXRXJmOoKWPzAB0dU_pad-14" x="24999.95" y="12999.97"/><use xlink:href="#gGWSXRXJmOoKWPzAB0dU_pad-14" x="24999.95" y="20999.95"/><use xlink:href="#gGWSXRXJmOoKWPzAB0dU_pad-14" x="24999.95" y="18999.96"/><use xlink:href="#gGWSXRXJmOoKWPzAB0dU_pad-11" x="-38999.92" y="26999.94"/><use xlink:href="#gGWSXRXJmOoKWPzAB0dU_pad-11" x="-36999.92" y="26999.94"/><use xlink:href="#gGWSXRXJmOoKWPzAB0dU_pad-11" x="-34999.93" y="26999.94"/><use xlink:href="#gGWSXRXJmOoKWPzAB0dU_pad-11" x="-32999.93" y="26999.94"/><use xlink:href="#gGWSXRXJmOoKWPzAB0dU_pad-11" x="-30999.93" y="26999.94"/><use xlink:href="#gGWSXRXJmOoKWPzAB0dU_pad-15" x="-34999.93" y="0"/><use xlink:href="#gGWSXRXJmOoKWPzAB0dU_pad-15" x="34999.93" y="0"/><use xlink:href="#gGWSXRXJmOoKWPzAB0dU_pad-16" x="34999.93" y="15999.96"/><use xlink:href="#gGWSXRXJmOoKWPzAB0dU_pad-16" x="34999.93" y="-15999.96"/><use xlink:href="#gGWSXRXJmOoKWPzAB0dU_pad-17" x="-35499.8" y="-15999.96"/><use xlink:href="#gGWSXRXJmOoKWPzAB0dU_pad-17" x="-35499.8" y="15999.96"/><use xlink:href="#gGWSXRXJmOoKWPzAB0dU_pad-11" x="43999.91" y="-13999.97"/><use xlink:href="#gGWSXRXJmOoKWPzAB0dU_pad-18" x="20249.89" y="23499.82"/><use xlink:href="#gGWSXRXJmOoKWPzAB0dU_pad-19" x="-22249.89" y="23499.82"/><use xlink:href="#gGWSXRXJmOoKWPzAB0dU_pad-20" x="20249.89" y="-20750.02"/><use xlink:href="#gGWSXRXJmOoKWPzAB0dU_pad-21" x="-22249.89" y="-20750.02"/><use xlink:href="#gGWSXRXJmOoKWPzAB0dU_pad-22" x="39530.78" y="-20422.1"/><use xlink:href="#gGWSXRXJmOoKWPzAB0dU_pad-22" x="39530.78" y="-15318.23"/><use xlink:href="#gGWSXRXJmOoKWPzAB0dU_pad-22" x="-2351.53" y="27738.57"/><use xlink:href="#gGWSXRXJmOoKWPzAB0dU_pad-22" x="-29419.8" y="-424.68"/><use xlink:href="#gGWSXRXJmOoKWPzAB0dU_pad-22" x="-26745.43" y="-18805.65"/><use xlink:href="#gGWSXRXJmOoKWPzAB0dU_pad-22" x="3090.16" y="15584.93"/><use xlink:href="#gGWSXRXJmOoKWPzAB0dU_pad-22" x="21530.31" y="-11563.6"/></g><g id="BSuIYQjz-3fz4EOIxKik_bottom_soldermask"><use xlink:href="#vMW8JwG7aajUQTASkVAJ_pad-10" x="-39629.84" y="-26610.05"/><use xlink:href="#vMW8JwG7aajUQTASkVAJ_pad-10" x="-37089.84" y="-26610.05"/><use xlink:href="#vMW8JwG7aajUQTASkVAJ_pad-11" x="-34549.94" y="-26609.95"/><use xlink:href="#vMW8JwG7aajUQTASkVAJ_pad-10" x="-32009.84" y="-26610.05"/><use xlink:href="#vMW8JwG7aajUQTASkVAJ_pad-10" x="-29469.84" y="-26610.05"/><use xlink:href="#vMW8JwG7aajUQTASkVAJ_pad-10" x="-26929.84" y="-26610.05"/><use xlink:href="#vMW8JwG7aajUQTASkVAJ_pad-10" x="-24389.84" y="-26610.05"/><use xlink:href="#vMW8JwG7aajUQTASkVAJ_pad-11" x="-21849.96" y="-26609.95"/><use xlink:href="#vMW8JwG7aajUQTASkVAJ_pad-10" x="-19310.09" y="-26610.05"/><use xlink:href="#vMW8JwG7aajUQTASkVAJ_pad-10" x="-16770.09" y="-26610.05"/><use xlink:href="#vMW8JwG7aajUQTASkVAJ_pad-10" x="8629.9" y="-26610.05"/><use xlink:href="#vMW8JwG7aajUQTASkVAJ_pad-10" x="6089.9" y="-26610.05"/><use xlink:href="#vMW8JwG7aajUQTASkVAJ_pad-11" x="3549.98" y="-26609.95"/><use xlink:href="#vMW8JwG7aajUQTASkVAJ_pad-10" x="1009.9" y="-26610.05"/><use xlink:href="#vMW8JwG7aajUQTASkVAJ_pad-10" x="-1530.09" y="-26610.05"/><use xlink:href="#vMW8JwG7aajUQTASkVAJ_pad-10" x="-4070.09" y="-26610.05"/><use xlink:href="#vMW8JwG7aajUQTASkVAJ_pad-10" x="-6610.09" y="-26610.05"/><use xlink:href="#vMW8JwG7aajUQTASkVAJ_pad-11" x="-9149.99" y="-26609.95"/><use xlink:href="#vMW8JwG7aajUQTASkVAJ_pad-10" x="-11690.09" y="-26610.05"/><use xlink:href="#vMW8JwG7aajUQTASkVAJ_pad-10" x="-14230.09" y="-26610.05"/><use xlink:href="#vMW8JwG7aajUQTASkVAJ_pad-10" x="-14230.09" y="-44389.8"/><use xlink:href="#vMW8JwG7aajUQTASkVAJ_pad-10" x="-11690.09" y="-44389.8"/><use xlink:href="#vMW8JwG7aajUQTASkVAJ_pad-11" x="-9149.99" y="-44389.9"/><use xlink:href="#vMW8JwG7aajUQTASkVAJ_pad-10" x="-6610.09" y="-44389.8"/><use xlink:href="#vMW8JwG7aajUQTASkVAJ_pad-10" x="-4070.09" y="-44389.8"/><use xlink:href="#vMW8JwG7aajUQTASkVAJ_pad-10" x="-1530.09" y="-44389.8"/><use xlink:href="#vMW8JwG7aajUQTASkVAJ_pad-10" x="1009.9" y="-44389.8"/><use xlink:href="#vMW8JwG7aajUQTASkVAJ_pad-11" x="3549.98" y="-44389.9"/><use xlink:href="#vMW8JwG7aajUQTASkVAJ_pad-10" x="6089.9" y="-44389.8"/><use xlink:href="#vMW8JwG7aajUQTASkVAJ_pad-10" x="8629.9" y="-44389.8"/><use xlink:href="#vMW8JwG7aajUQTASkVAJ_pad-10" x="-16770.09" y="-44389.8"/><use xlink:href="#vMW8JwG7aajUQTASkVAJ_pad-10" x="-19310.09" y="-44389.8"/><use xlink:href="#vMW8JwG7aajUQTASkVAJ_pad-11" x="-21849.96" y="-44389.9"/><use xlink:href="#vMW8JwG7aajUQTASkVAJ_pad-10" x="-24389.84" y="-44389.8"/><use xlink:href="#vMW8JwG7aajUQTASkVAJ_pad-10" x="-26929.84" y="-44389.8"/><use xlink:href="#vMW8JwG7aajUQTASkVAJ_pad-10" x="-29469.84" y="-44389.8"/><use xlink:href="#vMW8JwG7aajUQTASkVAJ_pad-10" x="-32009.84" y="-44389.8"/><use xlink:href="#vMW8JwG7aajUQTASkVAJ_pad-11" x="-34549.94" y="-44389.9"/><use xlink:href="#vMW8JwG7aajUQTASkVAJ_pad-10" x="-37089.84" y="-44389.8"/><use xlink:href="#vMW8JwG7aajUQTASkVAJ_pad-10" x="-39629.84" y="-44389.8"/><use xlink:href="#vMW8JwG7aajUQTASkVAJ_pad-10" x="43999.91" y="-15999.96"/><use xlink:href="#vMW8JwG7aajUQTASkVAJ_pad-10" x="43999.91" y="-17999.96"/><use xlink:href="#vMW8JwG7aajUQTASkVAJ_pad-10" x="43999.91" y="-19999.95"/><use xlink:href="#vMW8JwG7aajUQTASkVAJ_pad-10" x="41999.91" y="-23500.07"/><use xlink:href="#vMW8JwG7aajUQTASkVAJ_pad-10" x="39999.91" y="-23500.07"/><use xlink:href="#vMW8JwG7aajUQTASkVAJ_pad-10" x="37999.92" y="-23500.07"/><use xlink:href="#vMW8JwG7aajUQTASkVAJ_pad-10" x="-41999.91" y="999.99"/><use xlink:href="#vMW8JwG7aajUQTASkVAJ_pad-10" x="-41999.91" y="2999.99"/><use xlink:href="#vMW8JwG7aajUQTASkVAJ_pad-10" x="-41999.91" y="4999.98"/><use xlink:href="#vMW8JwG7aajUQTASkVAJ_pad-10" x="-41999.91" y="-999.99"/><use xlink:href="#vMW8JwG7aajUQTASkVAJ_pad-10" x="-41999.91" y="-2999.99"/><use xlink:href="#vMW8JwG7aajUQTASkVAJ_pad-10" x="-41999.91" y="-4999.98"/><use xlink:href="#vMW8JwG7aajUQTASkVAJ_pad-10" x="-42999.91" y="24499.82"/><use xlink:href="#vMW8JwG7aajUQTASkVAJ_pad-10" x="-42999.91" y="21999.7"/><use xlink:href="#vMW8JwG7aajUQTASkVAJ_pad-10" x="-42999.91" y="19499.83"/><use xlink:href="#vMW8JwG7aajUQTASkVAJ_pad-10" x="-42999.91" y="16999.71"/><use xlink:href="#vMW8JwG7aajUQTASkVAJ_pad-12" x="3849.87" y="-6499.86"/><use xlink:href="#vMW8JwG7aajUQTASkVAJ_pad-12" x="-2540" y="-3919.98"/><use xlink:href="#vMW8JwG7aajUQTASkVAJ_pad-12" x="-3810" y="6459.98"/><use xlink:href="#vMW8JwG7aajUQTASkVAJ_pad-12" x="2540" y="3919.98"/><use xlink:href="#vMW8JwG7aajUQTASkVAJ_pad-13" x="24999.95" y="14999.96"/><use xlink:href="#vMW8JwG7aajUQTASkVAJ_pad-13" x="24999.95" y="12999.97"/><use xlink:href="#vMW8JwG7aajUQTASkVAJ_pad-13" x="24999.95" y="20999.95"/><use xlink:href="#vMW8JwG7aajUQTASkVAJ_pad-13" x="24999.95" y="18999.96"/><use xlink:href="#vMW8JwG7aajUQTASkVAJ_pad-10" x="-38999.92" y="26999.94"/><use xlink:href="#vMW8JwG7aajUQTASkVAJ_pad-10" x="-36999.92" y="26999.94"/><use xlink:href="#vMW8JwG7aajUQTASkVAJ_pad-10" x="-34999.93" y="26999.94"/><use xlink:href="#vMW8JwG7aajUQTASkVAJ_pad-10" x="-32999.93" y="26999.94"/><use xlink:href="#vMW8JwG7aajUQTASkVAJ_pad-10" x="-30999.93" y="26999.94"/><use xlink:href="#vMW8JwG7aajUQTASkVAJ_pad-14" x="-34999.93" y="0"/><use xlink:href="#vMW8JwG7aajUQTASkVAJ_pad-14" x="34999.93" y="0"/><use xlink:href="#vMW8JwG7aajUQTASkVAJ_pad-15" x="34999.93" y="15999.96"/><use xlink:href="#vMW8JwG7aajUQTASkVAJ_pad-15" x="34999.93" y="-15999.96"/><use xlink:href="#vMW8JwG7aajUQTASkVAJ_pad-16" x="-35499.8" y="-15999.96"/><use xlink:href="#vMW8JwG7aajUQTASkVAJ_pad-16" x="-35499.8" y="15999.96"/><use xlink:href="#vMW8JwG7aajUQTASkVAJ_pad-10" x="43999.91" y="-13999.97"/><use xlink:href="#vMW8JwG7aajUQTASkVAJ_pad-17" x="20249.89" y="23499.82"/><use xlink:href="#vMW8JwG7aajUQTASkVAJ_pad-18" x="-22249.89" y="23499.82"/><use xlink:href="#vMW8JwG7aajUQTASkVAJ_pad-19" x="20249.89" y="-20750.02"/><use xlink:href="#vMW8JwG7aajUQTASkVAJ_pad-20" x="-22249.89" y="-20750.02"/></g><g id="BSuIYQjz-3fz4EOIxKik_bottom_drill1"><use xlink:href="#VlfdbhI1scLcO8vCkuV5_pad-1" x="39531" y="-20422"/><use xlink:href="#VlfdbhI1scLcO8vCkuV5_pad-1" x="39531" y="-15318"/><use xlink:href="#VlfdbhI1scLcO8vCkuV5_pad-1" x="-2352" y="27739"/><use xlink:href="#VlfdbhI1scLcO8vCkuV5_pad-1" x="-29420" y="-425"/><use xlink:href="#VlfdbhI1scLcO8vCkuV5_pad-1" x="-26745" y="-18806"/><use xlink:href="#VlfdbhI1scLcO8vCkuV5_pad-1" x="3090" y="15585"/><use xlink:href="#VlfdbhI1scLcO8vCkuV5_pad-1" x="21530" y="-11564"/><use xlink:href="#VlfdbhI1scLcO8vCkuV5_pad-2" x="25000" y="15000"/><use xlink:href="#VlfdbhI1scLcO8vCkuV5_pad-2" x="25000" y="13000"/><use xlink:href="#VlfdbhI1scLcO8vCkuV5_pad-2" x="25000" y="21000"/><use xlink:href="#VlfdbhI1scLcO8vCkuV5_pad-2" x="25000" y="19000"/><use xlink:href="#VlfdbhI1scLcO8vCkuV5_pad-3" x="-39630" y="-26610"/><use xlink:href="#VlfdbhI1scLcO8vCkuV5_pad-3" x="-37090" y="-26610"/><use xlink:href="#VlfdbhI1scLcO8vCkuV5_pad-3" x="-34550" y="-26610"/><use xlink:href="#VlfdbhI1scLcO8vCkuV5_pad-3" x="-32010" y="-26610"/><use xlink:href="#VlfdbhI1scLcO8vCkuV5_pad-3" x="-29470" y="-26610"/><use xlink:href="#VlfdbhI1scLcO8vCkuV5_pad-3" x="-26930" y="-26610"/><use xlink:href="#VlfdbhI1scLcO8vCkuV5_pad-3" x="-24390" y="-26610"/><use xlink:href="#VlfdbhI1scLcO8vCkuV5_pad-3" x="-21850" y="-26610"/><use xlink:href="#VlfdbhI1scLcO8vCkuV5_pad-3" x="-19310" y="-26610"/><use xlink:href="#VlfdbhI1scLcO8vCkuV5_pad-3" x="-16770" y="-26610"/><use xlink:href="#VlfdbhI1scLcO8vCkuV5_pad-3" x="8630" y="-26610"/><use xlink:href="#VlfdbhI1scLcO8vCkuV5_pad-3" x="6090" y="-26610"/><use xlink:href="#VlfdbhI1scLcO8vCkuV5_pad-3" x="3550" y="-26610"/><use xlink:href="#VlfdbhI1scLcO8vCkuV5_pad-3" x="1010" y="-26610"/><use xlink:href="#VlfdbhI1scLcO8vCkuV5_pad-3" x="-1530" y="-26610"/><use xlink:href="#VlfdbhI1scLcO8vCkuV5_pad-3" x="-4070" y="-26610"/><use xlink:href="#VlfdbhI1scLcO8vCkuV5_pad-3" x="-6610" y="-26610"/><use xlink:href="#VlfdbhI1scLcO8vCkuV5_pad-3" x="-9150" y="-26610"/><use xlink:href="#VlfdbhI1scLcO8vCkuV5_pad-3" x="-11690" y="-26610"/><use xlink:href="#VlfdbhI1scLcO8vCkuV5_pad-3" x="-14230" y="-26610"/><use xlink:href="#VlfdbhI1scLcO8vCkuV5_pad-3" x="-14230" y="-44390"/><use xlink:href="#VlfdbhI1scLcO8vCkuV5_pad-3" x="-11690" y="-44390"/><use xlink:href="#VlfdbhI1scLcO8vCkuV5_pad-3" x="-9150" y="-44390"/><use xlink:href="#VlfdbhI1scLcO8vCkuV5_pad-3" x="-6610" y="-44390"/><use xlink:href="#VlfdbhI1scLcO8vCkuV5_pad-3" x="-4070" y="-44390"/><use xlink:href="#VlfdbhI1scLcO8vCkuV5_pad-3" x="-1530" y="-44390"/><use xlink:href="#VlfdbhI1scLcO8vCkuV5_pad-3" x="1010" y="-44390"/><use xlink:href="#VlfdbhI1scLcO8vCkuV5_pad-3" x="3550" y="-44390"/><use xlink:href="#VlfdbhI1scLcO8vCkuV5_pad-3" x="6090" y="-44390"/><use xlink:href="#VlfdbhI1scLcO8vCkuV5_pad-3" x="8630" y="-44390"/><use xlink:href="#VlfdbhI1scLcO8vCkuV5_pad-3" x="-16770" y="-44390"/><use xlink:href="#VlfdbhI1scLcO8vCkuV5_pad-3" x="-19310" y="-44390"/><use xlink:href="#VlfdbhI1scLcO8vCkuV5_pad-3" x="-21850" y="-44390"/><use xlink:href="#VlfdbhI1scLcO8vCkuV5_pad-3" x="-24390" y="-44390"/><use xlink:href="#VlfdbhI1scLcO8vCkuV5_pad-3" x="-26930" y="-44390"/><use xlink:href="#VlfdbhI1scLcO8vCkuV5_pad-3" x="-29470" y="-44390"/><use xlink:href="#VlfdbhI1scLcO8vCkuV5_pad-3" x="-32010" y="-44390"/><use xlink:href="#VlfdbhI1scLcO8vCkuV5_pad-3" x="-34550" y="-44390"/><use xlink:href="#VlfdbhI1scLcO8vCkuV5_pad-3" x="-37090" y="-44390"/><use xlink:href="#VlfdbhI1scLcO8vCkuV5_pad-3" x="-39630" y="-44390"/><use xlink:href="#VlfdbhI1scLcO8vCkuV5_pad-4" x="44000" y="-16000"/><use xlink:href="#VlfdbhI1scLcO8vCkuV5_pad-4" x="44000" y="-18000"/><use xlink:href="#VlfdbhI1scLcO8vCkuV5_pad-4" x="44000" y="-20000"/><use xlink:href="#VlfdbhI1scLcO8vCkuV5_pad-4" x="42000" y="-23500"/><use xlink:href="#VlfdbhI1scLcO8vCkuV5_pad-4" x="40000" y="-23500"/><use xlink:href="#VlfdbhI1scLcO8vCkuV5_pad-4" x="38000" y="-23500"/><use xlink:href="#VlfdbhI1scLcO8vCkuV5_pad-4" x="-42000" y="1000"/><use xlink:href="#VlfdbhI1scLcO8vCkuV5_pad-4" x="-42000" y="3000"/><use xlink:href="#VlfdbhI1scLcO8vCkuV5_pad-4" x="-42000" y="5000"/><use xlink:href="#VlfdbhI1scLcO8vCkuV5_pad-4" x="-42000" y="-1000"/><use xlink:href="#VlfdbhI1scLcO8vCkuV5_pad-4" x="-42000" y="-3000"/><use xlink:href="#VlfdbhI1scLcO8vCkuV5_pad-4" x="-42000" y="-5000"/><use xlink:href="#VlfdbhI1scLcO8vCkuV5_pad-4" x="-43000" y="24500"/><use xlink:href="#VlfdbhI1scLcO8vCkuV5_pad-4" x="-43000" y="22000"/><use xlink:href="#VlfdbhI1scLcO8vCkuV5_pad-4" x="-43000" y="19500"/><use xlink:href="#VlfdbhI1scLcO8vCkuV5_pad-4" x="-43000" y="17000"/><use xlink:href="#VlfdbhI1scLcO8vCkuV5_pad-4" x="-39000" y="27000"/><use xlink:href="#VlfdbhI1scLcO8vCkuV5_pad-4" x="-37000" y="27000"/><use xlink:href="#VlfdbhI1scLcO8vCkuV5_pad-4" x="-35000" y="27000"/><use xlink:href="#VlfdbhI1scLcO8vCkuV5_pad-4" x="-33000" y="27000"/><use xlink:href="#VlfdbhI1scLcO8vCkuV5_pad-4" x="-31000" y="27000"/><use xlink:href="#VlfdbhI1scLcO8vCkuV5_pad-4" x="44000" y="-14000"/><path d="M 3847 -6500 3852 -6500 M -2543 -3920 -2537 -3920 M -3807 6460 -3813 6460 M 2543 3920 2537 3920" fill="none" stroke-width="1524"/></g><g id="BSuIYQjz-3fz4EOIxKik_bottom_drill2"><use xlink:href="#bBfkz52iLQCs87pPIW2V_pad-1" x="39531" y="-20422"/><use xlink:href="#bBfkz52iLQCs87pPIW2V_pad-1" x="39531" y="-15318"/><use xlink:href="#bBfkz52iLQCs87pPIW2V_pad-1" x="-2352" y="27739"/><use xlink:href="#bBfkz52iLQCs87pPIW2V_pad-1" x="-29420" y="-425"/><use xlink:href="#bBfkz52iLQCs87pPIW2V_pad-1" x="-26745" y="-18806"/><use xlink:href="#bBfkz52iLQCs87pPIW2V_pad-1" x="3090" y="15585"/><use xlink:href="#bBfkz52iLQCs87pPIW2V_pad-1" x="21530" y="-11564"/></g><g id="BSuIYQjz-3fz4EOIxKik_bottom_drill3"><use xlink:href="#n8r5dvTXpzHy0vVDnYyC_pad-1" x="5080" y="-9000"/><use xlink:href="#n8r5dvTXpzHy0vVDnYyC_pad-1" x="-5080" y="-9000"/><use xlink:href="#n8r5dvTXpzHy0vVDnYyC_pad-1" x="-5080" y="9000"/><use xlink:href="#n8r5dvTXpzHy0vVDnYyC_pad-1" x="5080" y="9000"/><path d="M 32925 16000 37075 16000 M 32925 -16000 37075 -16000 M -37000 -16000 -34000 -16000 M -37000 16000 -34000 16000" fill="none" stroke-width="2250"/><use xlink:href="#n8r5dvTXpzHy0vVDnYyC_pad-3" x="0" y="-9000"/><use xlink:href="#n8r5dvTXpzHy0vVDnYyC_pad-3" x="0" y="9000"/><path d="M -33075 0 -36925 0 M 33075 0 36925 0 M 18001 22499 22499 24501 M -24499 24501 -20001 22499 M 17914 -19973 22586 -21527 M -24586 -21527 -19914 -19973" fill="none" stroke-width="4250"/></g><clipPath id="BSuIYQjz-3fz4EOIxKik_bottom_outline"><path d="M -45001.18 0 -45001.18 28900.12 46499.77 28900.12 46499.77 -25001.21 14998.7 -25001.21 14998.7 -45999.39 -28999.18 -45999.39 -45001.18 -45999.39 -45001.18 0" fill="none" stroke-width="254"/></clipPath><mask id="BSuIYQjz-3fz4EOIxKik_bottom_mech-mask"><g fill="#000" stroke="#000"><rect x="-45001.18" y="-45999.39" width="91500.95" height="74899.51" fill="#fff"/><use xlink:href="#BSuIYQjz-3fz4EOIxKik_bottom_drill1"/><use xlink:href="#BSuIYQjz-3fz4EOIxKik_bottom_drill2"/><use xlink:href="#BSuIYQjz-3fz4EOIxKik_bottom_drill3"/></g></mask><mask id="BSuIYQjz-3fz4EOIxKik_bottom_cf-mask"><g fill="#fff" stroke="#fff"><use xlink:href="#BSuIYQjz-3fz4EOIxKik_bottom_soldermask"/></g></mask><mask id="BSuIYQjz-3fz4EOIxKik_bottom_sm-mask"><g fill="#000" stroke="#000"><rect x="-45001.18" y="-45999.39" width="91500.95" height="74899.51" fill="#fff"/><use xlink:href="#BSuIYQjz-3fz4EOIxKik_bottom_soldermask"/></g></mask></defs><g transform="translate(0,-17099.270000000004) scale(1,-1)"><g mask="url(#BSuIYQjz-3fz4EOIxKik_bottom_mech-mask)" clip-path="url(#BSuIYQjz-3fz4EOIxKik_bottom_outline)" transform="translate(1498.5899999999965,0) scale(-1,1)"><rect x="-45001.18" y="-45999.39" width="91500.95" height="74899.51" fill="currentColor" class="BSuIYQjz-3fz4EOIxKik_fr4"/><use xlink:href="#BSuIYQjz-3fz4EOIxKik_bottom_copper" fill="currentColor" stroke="currentColor" class="BSuIYQjz-3fz4EOIxKik_cu"/><use xlink:href="#BSuIYQjz-3fz4EOIxKik_bottom_copper" fill="currentColor" stroke="currentColor" class="BSuIYQjz-3fz4EOIxKik_cf" mask="url(#BSuIYQjz-3fz4EOIxKik_bottom_cf-mask)"/><g mask="url(#BSuIYQjz-3fz4EOIxKik_bottom_sm-mask)"><rect x="-45001.18" y="-45999.39" width="91500.95" height="74899.51" fill="currentColor" class="BSuIYQjz-3fz4EOIxKik_sm"/></g></g></g></svg>