<svg version="1.1" xmlns="http://www.w3.org/2000/svg" xmlns:xlink="http://www.w3.org/1999/xlink" stroke-linecap="round" stroke-linejoin="round" stroke-width="0" fill-rule="evenodd" clip-rule="evenodd" id="RRTcLEg_bZOXothQBwo5_bottom" viewBox="-45001.18 -47999.9 91500.95 76900.02" width="91.50095mm" height="76.90002mm" class="w-100 h-100"><defs><style>.RRTcLEg_bZOXothQBwo5_fr4 {color: #666666;}
.RRTcLEg_bZOXothQBwo5_cu {color: #cccccc;}
.RRTcLEg_bZOXothQBwo5_cf {color: #cc9933;}
.RRTcLEg_bZOXothQBwo5_sm {color: #004200; opacity: 0.75;}
.RRTcLEg_bZOXothQBwo5_ss {color: #ffffff;}
.RRTcLEg_bZOXothQBwo5_sp {color: #999999;}
.RRTcLEg_bZOXothQBwo5_out {color: #000000;}</style><circle cx="0" cy="0" r="800" id="B81IzEbpcjnlBKKyHT3y_pad-11"/><rect x="-800" y="-800" width="1600" height="1600" id="B81IzEbpcjnlBKKyHT3y_pad-12"/><circle cx="0" cy="0" r="1270" id="B81IzEbpcjnlBKKyHT3y_pad-13"/><circle cx="0" cy="0" r="762" id="B81IzEbpcjnlBKKyHT3y_pad-14"/><rect x="-4049.9919" y="-2125.0021" width="8099.9838" height="4250.0042" rx="2125.0021" ry="2125.0021" id="B81IzEbpcjnlBKKyHT3y_pad-15"/><rect x="-3199.9936" y="-1125.0041" width="6399.9872" height="2250.0082" rx="1125.0041" ry="1125.0041" id="B81IzEbpcjnlBKKyHT3y_pad-16"/><rect x="-2625.0011" y="-1125.0041" width="5250.0022" height="2250.0082" rx="1125.0041" ry="1125.0041" id="B81IzEbpcjnlBKKyHT3y_pad-17"/><g id="B81IzEbpcjnlBKKyHT3y_pad-18"><circle cx="-2249.1" cy="-1001.4" r="2125"/><circle cx="2249.1" cy="1001.4" r="2125"/><polygon points="-1384.75858,-2942.6725 3113.44142,-939.8725 1384.75858,2942.6725 -3113.44142,939.8725"/></g><g id="B81IzEbpcjnlBKKyHT3y_pad-19"><circle cx="-2249.1" cy="1001.4" r="2125"/><circle cx="2249.1" cy="-1001.4" r="2125"/><polygon points="-3113.44142,-939.8725 1384.75858,-2942.6725 3113.44142,939.8725 -1384.75858,2942.6725"/></g><g id="B81IzEbpcjnlBKKyHT3y_pad-20"><circle cx="-2336.1" cy="777.1" r="2125"/><circle cx="2336.1" cy="-777.1" r="2125"/><polygon points="-3006.84096,-1239.26593 1665.35904,-2793.46593 3006.84096,1239.26593 -1665.35904,2793.46593"/></g><g id="B81IzEbpcjnlBKKyHT3y_pad-21"><circle cx="-2336.1" cy="-777.1" r="2125"/><circle cx="2336.1" cy="777.1" r="2125"/><polygon points="-1665.35904,-2793.46593 3006.84096,-1239.26593 1665.35904,2793.46593 -3006.84096,1239.26593"/></g><circle cx="0" cy="0" r="850.8" id="GoS6VNkOb50oLVHEwgIf_pad-10"/><g id="GoS6VNkOb50oLVHEwgIf_pad-11"><circle cx="800" cy="800" r="50.8"/><circle cx="800" cy="-800" r="50.8"/><circle cx="-800" cy="-800" r="50.8"/><circle cx="-800" cy="800" r="50.8"/><polygon points="850.8,800 850.8,-800 749.2,-800 749.2,800"/><polygon points="800,-850.8 -800,-850.8 -800,-749.2 800,-749.2"/><polygon points="-749.2,-800 -749.2,800 -850.8,800 -850.8,-800"/><polygon points="-800,749.2 800,749.2 800,850.8 -800,850.8"/><polygon points="800,800 800,-800 -800,-800 -800,800"/></g><circle cx="0" cy="0" r="1320.8" id="GoS6VNkOb50oLVHEwgIf_pad-12"/><circle cx="0" cy="0" r="812.8" id="GoS6VNkOb50oLVHEwgIf_pad-13"/><rect x="-4049.9919" y="-2125.0021" width="8099.9838" height="4250.0042" rx="2125.0021" ry="2125.0021" id="GoS6VNkOb50oLVHEwgIf_pad-14"/><rect x="-3199.9936" y="-1125.0041" width="6399.9872" height="2250.0082" rx="1125.0041" ry="1125.0041" id="GoS6VNkOb50oLVHEwgIf_pad-15"/><rect x="-2625.0011" y="-1125.0041" width="5250.0022" height="2250.0082" rx="1125.0041" ry="1125.0041" id="GoS6VNkOb50oLVHEwgIf_pad-16"/><g id="GoS6VNkOb50oLVHEwgIf_pad-17"><circle cx="-2249.1" cy="-1001.4" r="2125"/><circle cx="2249.1" cy="1001.4" r="2125"/><polygon points="-1384.75858,-2942.6725 3113.44142,-939.8725 1384.75858,2942.6725 -3113.44142,939.8725"/></g><g id="GoS6VNkOb50oLVHEwgIf_pad-18"><circle cx="-2249.1" cy="1001.4" r="2125"/><circle cx="2249.1" cy="-1001.4" r="2125"/><polygon points="-3113.44142,-939.8725 1384.75858,-2942.6725 3113.44142,939.8725 -1384.75858,2942.6725"/></g><g id="GoS6VNkOb50oLVHEwgIf_pad-19"><circle cx="-2336.1" cy="777.1" r="2125"/><circle cx="2336.1" cy="-777.1" r="2125"/><polygon points="-3006.84096,-1239.26593 1665.35904,-2793.46593 3006.84096,1239.26593 -1665.35904,2793.46593"/></g><g id="GoS6VNkOb50oLVHEwgIf_pad-20"><circle cx="-2336.1" cy="-777.1" r="2125"/><circle cx="2336.1" cy="777.1" r="2125"/><polygon points="-1665.35904,-2793.46593 3006.84096,-1239.26593 1665.35904,2793.46593 -3006.84096,1239.26593"/></g><circle cx="0" cy="0" r="457.5" id="ZVwqj5ZcDdY_CMdrX9Gh_pad-1"/><circle cx="0" cy="0" r="500" id="ZVwqj5ZcDdY_CMdrX9Gh_pad-2"/><circle cx="0" cy="0" r="550.5" id="ZVwqj5ZcDdY_CMdrX9Gh_pad-3"/><circle cx="0" cy="0" r="850" id="aYYswbiR1Db68iiE1P1z_pad-1"/><circle cx="0" cy="0" r="1950" id="aYYswbiR1Db68iiE1P1z_pad-3"/><g id="RRTcLEg_bZOXothQBwo5_bottom_copper"><path d="M -3570.19 -28610.05 -2395.95 -29784.29 -543.78 -29784.29 239.8 -29000.7 239.8 -28171.13 2866.92 -25544.01 2866.92 -7868.92 922.29 -5924.29 922.29 4593.08 3199.91 6870.7 19870.69 6870.7 24999.97 11999.97 M 24999.97 9999.97 24999.97 5999.98 M -1030.19 -28610.05 2414.29 -25165.55 2414.29 -8019.03 -689.07 -4915.66 -689.07 3339.08 -3809.97 6459.98 M 1509.8 -28610.05 -188.44 -30308.29 -3611.09 -30308.29 -4738.34 -29181.04 -4738.34 -10498.32 -2539.97 -8299.95 -2539.97 -3919.98 M -42999.88 16999.71 -28070.02 2069.84 -28070.02 -23721.31 -25159.94 -26631.39 -25159.94 -34960.05 -13730.19 -46389.79 M -11190.19 -46389.79 -17416.24 -40163.75 -17416.24 -25470.35 -16337.76 -24391.87 -16337.76 -8818.37 -41854.6 16698.46 -41854.6 20854.41 -42999.88 21999.7 M -34049.94 -28610.05 -35189.38 -28610.05 -35189.38 -28894.78 -36045.62 -29751.02 -39737.51 -29751.02 -41999.89 -27488.64 -41999.89 -4999.98 -44188.86 -2811.01 -44188.86 18310.86 -42999.88 19499.83 -44198.51 20698.45 -44198.51 22460.45 -43409.33 23249.63 -42527.44 23249.63 -38999.89 26777.18 -38999.89 26999.94 M -39129.94 -28610.05 -40838.09 -26901.9 -40838.09 -4161.79 -41999.89 -2999.99 M -41999.89 -999.99 -40088.79 -2911.09 -40088.79 -25111.2 -36589.94 -28610.05 M -26429.94 -28610.05 -28496.23 -26543.76 -28496.23 1056.13 -32440.09 4999.98 -41999.89 4999.98 M -28969.94 -28610.05 -28969.94 818.13 -31634.91 3483.1 -41516.78 3483.1 -41999.89 2999.99 M -41999.89 999.99 -40775.1 -224.79 -40775.1 -1517.14 -31509.94 -10782.29 -31509.94 -28610.05 M -1030.19 -46389.79 -1030.19 -42440.09 15005.07 -26404.82 36195.02 -26404.82 37999.94 -24599.89 M -1030.19 -46389.79 -2273.78 -47633.38 -14164.53 -47633.38 -15000.19 -46797.72 -15000.19 -46045.88 -29329.86 -31716.21 -38392.32 -31716.21 -44624.72 -25483.81 -44624.72 22874.98 -42999.88 24499.82 M -6110.19 -46389.79 14300.98 -25978.61 34763.98 -25978.61 37285.95 -23456.64 38856.69 -23456.64 39999.94 -24599.89 M 6589.8 -28610.05 10203.2 -24996.64 31288.5 -24996.64 36285.19 -19999.95 43999.93 -19999.95 M 43999.93 -13999.97 42823.4 -15176.5 42823.4 -18823.43 43999.93 -19999.95 M 9129.8 -28610.05 12187.45 -25552.39 32273.01 -25552.39 35867.87 -21957.53 43727.9 -21957.53 45157.92 -20527.51 45157.92 -19157.95 43999.93 -17999.96 M 24999.97 3999.99 2620.03 3999.99 2540.02 3919.98 3849.9 2610.1 3849.9 -6499.86 3849.9 -27270.7 4049.8 -27470.6 M 4049.8 -28610.05 4049.8 -27470.6 M 41999.94 -24599.89 45787.58 -20812.25 45787.58 -17787.62 43999.93 -15999.96 45258.76 -14741.14 45258.76 -13489.43 35957.28 -4187.95 32293.33 -4187.95 24999.97 3105.4 24999.97 3999.99 M -16270.19 -28610.05 -15886.65 -28226.51 -15886.65 5886.7 -36999.9 26999.94 M -13730.19 -28610.05 -13730.19 5730.23 -34999.9 26999.94 M -11190.19 -28610.05 -11190.19 5190.23 -32999.9 26999.94 M -6110.19 -28610.05 -9421.08 -25299.16 -9421.08 4060.19 -30999.91 25639.01 -30999.91 26999.94" fill="none" stroke-width="170"/><use xlink:href="#B81IzEbpcjnlBKKyHT3y_pad-11" x="-39129.84" y="-28610.05"/><use xlink:href="#B81IzEbpcjnlBKKyHT3y_pad-11" x="-36589.84" y="-28610.05"/><use xlink:href="#B81IzEbpcjnlBKKyHT3y_pad-12" x="-34049.84" y="-28610.05"/><use xlink:href="#B81IzEbpcjnlBKKyHT3y_pad-11" x="-31509.84" y="-28610.05"/><use xlink:href="#B81IzEbpcjnlBKKyHT3y_pad-11" x="-28969.84" y="-28610.05"/><use xlink:href="#B81IzEbpcjnlBKKyHT3y_pad-11" x="-26429.84" y="-28610.05"/><use xlink:href="#B81IzEbpcjnlBKKyHT3y_pad-11" x="-23889.84" y="-28610.05"/><use xlink:href="#B81IzEbpcjnlBKKyHT3y_pad-12" x="-21350.09" y="-28610.05"/><use xlink:href="#B81IzEbpcjnlBKKyHT3y_pad-11" x="-18810.09" y="-28610.05"/><use xlink:href="#B81IzEbpcjnlBKKyHT3y_pad-11" x="-16270.09" y="-28610.05"/><use xlink:href="#B81IzEbpcjnlBKKyHT3y_pad-11" x="9129.9" y="-28610.05"/><use xlink:href="#B81IzEbpcjnlBKKyHT3y_pad-11" x="6589.9" y="-28610.05"/><use xlink:href="#B81IzEbpcjnlBKKyHT3y_pad-12" x="4049.9" y="-28610.05"/><use xlink:href="#B81IzEbpcjnlBKKyHT3y_pad-11" x="1509.9" y="-28610.05"/><use xlink:href="#B81IzEbpcjnlBKKyHT3y_pad-11" x="-1030.09" y="-28610.05"/><use xlink:href="#B81IzEbpcjnlBKKyHT3y_pad-11" x="-3570.09" y="-28610.05"/><use xlink:href="#B81IzEbpcjnlBKKyHT3y_pad-11" x="-6110.09" y="-28610.05"/><use xlink:href="#B81IzEbpcjnlBKKyHT3y_pad-12" x="-8650.09" y="-28610.05"/><use xlink:href="#B81IzEbpcjnlBKKyHT3y_pad-11" x="-11190.09" y="-28610.05"/><use xlink:href="#B81IzEbpcjnlBKKyHT3y_pad-11" x="-13730.09" y="-28610.05"/><use xlink:href="#B81IzEbpcjnlBKKyHT3y_pad-11" x="-13730.09" y="-46389.79"/><use xlink:href="#B81IzEbpcjnlBKKyHT3y_pad-11" x="-11190.09" y="-46389.79"/><use xlink:href="#B81IzEbpcjnlBKKyHT3y_pad-12" x="-8650.09" y="-46389.79"/><use xlink:href="#B81IzEbpcjnlBKKyHT3y_pad-11" x="-6110.09" y="-46389.79"/><use xlink:href="#B81IzEbpcjnlBKKyHT3y_pad-11" x="-3570.09" y="-46389.79"/><use xlink:href="#B81IzEbpcjnlBKKyHT3y_pad-11" x="-1030.09" y="-46389.79"/><use xlink:href="#B81IzEbpcjnlBKKyHT3y_pad-11" x="1509.9" y="-46389.79"/><use xlink:href="#B81IzEbpcjnlBKKyHT3y_pad-12" x="4049.9" y="-46389.79"/><use xlink:href="#B81IzEbpcjnlBKKyHT3y_pad-11" x="6589.9" y="-46389.79"/><use xlink:href="#B81IzEbpcjnlBKKyHT3y_pad-11" x="9129.9" y="-46389.79"/><use xlink:href="#B81IzEbpcjnlBKKyHT3y_pad-11" x="-16270.09" y="-46389.79"/><use xlink:href="#B81IzEbpcjnlBKKyHT3y_pad-11" x="-18810.09" y="-46389.79"/><use xlink:href="#B81IzEbpcjnlBKKyHT3y_pad-12" x="-21350.09" y="-46389.79"/><use xlink:href="#B81IzEbpcjnlBKKyHT3y_pad-11" x="-23889.84" y="-46389.79"/><use xlink:href="#B81IzEbpcjnlBKKyHT3y_pad-11" x="-26429.84" y="-46389.79"/><use xlink:href="#B81IzEbpcjnlBKKyHT3y_pad-11" x="-28969.84" y="-46389.79"/><use xlink:href="#B81IzEbpcjnlBKKyHT3y_pad-11" x="-31509.84" y="-46389.79"/><use xlink:href="#B81IzEbpcjnlBKKyHT3y_pad-12" x="-34049.84" y="-46389.79"/><use xlink:href="#B81IzEbpcjnlBKKyHT3y_pad-11" x="-36589.84" y="-46389.79"/><use xlink:href="#B81IzEbpcjnlBKKyHT3y_pad-11" x="-39129.84" y="-46389.79"/><use xlink:href="#B81IzEbpcjnlBKKyHT3y_pad-11" x="43999.91" y="-15999.96"/><use xlink:href="#B81IzEbpcjnlBKKyHT3y_pad-11" x="43999.91" y="-17999.96"/><use xlink:href="#B81IzEbpcjnlBKKyHT3y_pad-11" x="43999.91" y="-19999.95"/><use xlink:href="#B81IzEbpcjnlBKKyHT3y_pad-11" x="41999.91" y="-24599.89"/><use xlink:href="#B81IzEbpcjnlBKKyHT3y_pad-11" x="39999.91" y="-24599.89"/><use xlink:href="#B81IzEbpcjnlBKKyHT3y_pad-11" x="37999.92" y="-24599.89"/><use xlink:href="#B81IzEbpcjnlBKKyHT3y_pad-11" x="-41999.91" y="999.99"/><use xlink:href="#B81IzEbpcjnlBKKyHT3y_pad-11" x="-41999.91" y="2999.99"/><use xlink:href="#B81IzEbpcjnlBKKyHT3y_pad-11" x="-41999.91" y="4999.98"/><use xlink:href="#B81IzEbpcjnlBKKyHT3y_pad-11" x="-41999.91" y="-999.99"/><use xlink:href="#B81IzEbpcjnlBKKyHT3y_pad-11" x="-41999.91" y="-2999.99"/><use xlink:href="#B81IzEbpcjnlBKKyHT3y_pad-11" x="-41999.91" y="-4999.98"/><use xlink:href="#B81IzEbpcjnlBKKyHT3y_pad-11" x="-42999.91" y="24499.82"/><use xlink:href="#B81IzEbpcjnlBKKyHT3y_pad-11" x="-42999.91" y="21999.7"/><use xlink:href="#B81IzEbpcjnlBKKyHT3y_pad-11" x="-42999.91" y="19499.83"/><use xlink:href="#B81IzEbpcjnlBKKyHT3y_pad-11" x="-42999.91" y="16999.71"/><use xlink:href="#B81IzEbpcjnlBKKyHT3y_pad-13" x="3849.87" y="-6499.86"/><use xlink:href="#B81IzEbpcjnlBKKyHT3y_pad-13" x="-2540" y="-3919.98"/><use xlink:href="#B81IzEbpcjnlBKKyHT3y_pad-13" x="-3810" y="6459.98"/><use xlink:href="#B81IzEbpcjnlBKKyHT3y_pad-13" x="2540" y="3919.98"/><use xlink:href="#B81IzEbpcjnlBKKyHT3y_pad-14" x="24999.95" y="5999.98"/><use xlink:href="#B81IzEbpcjnlBKKyHT3y_pad-14" x="24999.95" y="3999.99"/><use xlink:href="#B81IzEbpcjnlBKKyHT3y_pad-14" x="24999.95" y="11999.97"/><use xlink:href="#B81IzEbpcjnlBKKyHT3y_pad-14" x="24999.95" y="9999.97"/><use xlink:href="#B81IzEbpcjnlBKKyHT3y_pad-11" x="-38999.92" y="26999.94"/><use xlink:href="#B81IzEbpcjnlBKKyHT3y_pad-11" x="-36999.92" y="26999.94"/><use xlink:href="#B81IzEbpcjnlBKKyHT3y_pad-11" x="-34999.93" y="26999.94"/><use xlink:href="#B81IzEbpcjnlBKKyHT3y_pad-11" x="-32999.93" y="26999.94"/><use xlink:href="#B81IzEbpcjnlBKKyHT3y_pad-11" x="-30999.93" y="26999.94"/><use xlink:href="#B81IzEbpcjnlBKKyHT3y_pad-15" x="34999.93" y="0"/><use xlink:href="#B81IzEbpcjnlBKKyHT3y_pad-16" x="34999.93" y="15999.96"/><use xlink:href="#B81IzEbpcjnlBKKyHT3y_pad-16" x="34999.93" y="-15999.96"/><use xlink:href="#B81IzEbpcjnlBKKyHT3y_pad-17" x="-35499.8" y="-15999.96"/><use xlink:href="#B81IzEbpcjnlBKKyHT3y_pad-17" x="-35499.8" y="15999.96"/><use xlink:href="#B81IzEbpcjnlBKKyHT3y_pad-11" x="43999.91" y="-13999.97"/><use xlink:href="#B81IzEbpcjnlBKKyHT3y_pad-18" x="20249.89" y="23499.82"/><use xlink:href="#B81IzEbpcjnlBKKyHT3y_pad-19" x="-22249.89" y="23499.82"/><use xlink:href="#B81IzEbpcjnlBKKyHT3y_pad-20" x="20249.89" y="-20750.02"/><use xlink:href="#B81IzEbpcjnlBKKyHT3y_pad-21" x="-22249.89" y="-20750.02"/><use xlink:href="#B81IzEbpcjnlBKKyHT3y_pad-15" x="-34999.93" y="0"/></g><g id="RRTcLEg_bZOXothQBwo5_bottom_soldermask"><use xlink:href="#GoS6VNkOb50oLVHEwgIf_pad-10" x="-39129.84" y="-28610.05"/><use xlink:href="#GoS6VNkOb50oLVHEwgIf_pad-10" x="-36589.84" y="-28610.05"/><use xlink:href="#GoS6VNkOb50oLVHEwgIf_pad-11" x="-34049.94" y="-28609.95"/><use xlink:href="#GoS6VNkOb50oLVHEwgIf_pad-10" x="-31509.84" y="-28610.05"/><use xlink:href="#GoS6VNkOb50oLVHEwgIf_pad-10" x="-28969.84" y="-28610.05"/><use xlink:href="#GoS6VNkOb50oLVHEwgIf_pad-10" x="-26429.84" y="-28610.05"/><use xlink:href="#GoS6VNkOb50oLVHEwgIf_pad-10" x="-23889.84" y="-28610.05"/><use xlink:href="#GoS6VNkOb50oLVHEwgIf_pad-11" x="-21349.97" y="-28609.95"/><use xlink:href="#GoS6VNkOb50oLVHEwgIf_pad-10" x="-18810.09" y="-28610.05"/><use xlink:href="#GoS6VNkOb50oLVHEwgIf_pad-10" x="-16270.09" y="-28610.05"/><use xlink:href="#GoS6VNkOb50oLVHEwgIf_pad-10" x="9129.9" y="-28610.05"/><use xlink:href="#GoS6VNkOb50oLVHEwgIf_pad-10" x="6589.9" y="-28610.05"/><use xlink:href="#GoS6VNkOb50oLVHEwgIf_pad-11" x="4049.97" y="-28609.95"/><use xlink:href="#GoS6VNkOb50oLVHEwgIf_pad-10" x="1509.9" y="-28610.05"/><use xlink:href="#GoS6VNkOb50oLVHEwgIf_pad-10" x="-1030.09" y="-28610.05"/><use xlink:href="#GoS6VNkOb50oLVHEwgIf_pad-10" x="-3570.09" y="-28610.05"/><use xlink:href="#GoS6VNkOb50oLVHEwgIf_pad-10" x="-6110.09" y="-28610.05"/><use xlink:href="#GoS6VNkOb50oLVHEwgIf_pad-11" x="-8649.99" y="-28609.95"/><use xlink:href="#GoS6VNkOb50oLVHEwgIf_pad-10" x="-11190.09" y="-28610.05"/><use xlink:href="#GoS6VNkOb50oLVHEwgIf_pad-10" x="-13730.09" y="-28610.05"/><use xlink:href="#GoS6VNkOb50oLVHEwgIf_pad-10" x="-13730.09" y="-46389.79"/><use xlink:href="#GoS6VNkOb50oLVHEwgIf_pad-10" x="-11190.09" y="-46389.79"/><use xlink:href="#GoS6VNkOb50oLVHEwgIf_pad-11" x="-8649.99" y="-46389.89"/><use xlink:href="#GoS6VNkOb50oLVHEwgIf_pad-10" x="-6110.09" y="-46389.79"/><use xlink:href="#GoS6VNkOb50oLVHEwgIf_pad-10" x="-3570.09" y="-46389.79"/><use xlink:href="#GoS6VNkOb50oLVHEwgIf_pad-10" x="-1030.09" y="-46389.79"/><use xlink:href="#GoS6VNkOb50oLVHEwgIf_pad-10" x="1509.9" y="-46389.79"/><use xlink:href="#GoS6VNkOb50oLVHEwgIf_pad-11" x="4049.97" y="-46389.89"/><use xlink:href="#GoS6VNkOb50oLVHEwgIf_pad-10" x="6589.9" y="-46389.79"/><use xlink:href="#GoS6VNkOb50oLVHEwgIf_pad-10" x="9129.9" y="-46389.79"/><use xlink:href="#GoS6VNkOb50oLVHEwgIf_pad-10" x="-16270.09" y="-46389.79"/><use xlink:href="#GoS6VNkOb50oLVHEwgIf_pad-10" x="-18810.09" y="-46389.79"/><use xlink:href="#GoS6VNkOb50oLVHEwgIf_pad-11" x="-21349.97" y="-46389.89"/><use xlink:href="#GoS6VNkOb50oLVHEwgIf_pad-10" x="-23889.84" y="-46389.79"/><use xlink:href="#GoS6VNkOb50oLVHEwgIf_pad-10" x="-26429.84" y="-46389.79"/><use xlink:href="#GoS6VNkOb50oLVHEwgIf_pad-10" x="-28969.84" y="-46389.79"/><use xlink:href="#GoS6VNkOb50oLVHEwgIf_pad-10" x="-31509.84" y="-46389.79"/><use xlink:href="#GoS6VNkOb50oLVHEwgIf_pad-11" x="-34049.94" y="-46389.89"/><use xlink:href="#GoS6VNkOb50oLVHEwgIf_pad-10" x="-36589.84" y="-46389.79"/><use xlink:href="#GoS6VNkOb50oLVHEwgIf_pad-10" x="-39129.84" y="-46389.79"/><use xlink:href="#GoS6VNkOb50oLVHEwgIf_pad-10" x="43999.91" y="-15999.96"/><use xlink:href="#GoS6VNkOb50oLVHEwgIf_pad-10" x="43999.91" y="-17999.96"/><use xlink:href="#GoS6VNkOb50oLVHEwgIf_pad-10" x="43999.91" y="-19999.95"/><use xlink:href="#GoS6VNkOb50oLVHEwgIf_pad-10" x="41999.91" y="-24599.89"/><use xlink:href="#GoS6VNkOb50oLVHEwgIf_pad-10" x="39999.91" y="-24599.89"/><use xlink:href="#GoS6VNkOb50oLVHEwgIf_pad-10" x="37999.92" y="-24599.89"/><use xlink:href="#GoS6VNkOb50oLVHEwgIf_pad-10" x="-41999.91" y="999.99"/><use xlink:href="#GoS6VNkOb50oLVHEwgIf_pad-10" x="-41999.91" y="2999.99"/><use xlink:href="#GoS6VNkOb50oLVHEwgIf_pad-10" x="-41999.91" y="4999.98"/><use xlink:href="#GoS6VNkOb50oLVHEwgIf_pad-10" x="-41999.91" y="-999.99"/><use xlink:href="#GoS6VNkOb50oLVHEwgIf_pad-10" x="-41999.91" y="-2999.99"/><use xlink:href="#GoS6VNkOb50oLVHEwgIf_pad-10" x="-41999.91" y="-4999.98"/><use xlink:href="#GoS6VNkOb50oLVHEwgIf_pad-10" x="-42999.91" y="24499.82"/><use xlink:href="#GoS6VNkOb50oLVHEwgIf_pad-10" x="-42999.91" y="21999.7"/><use xlink:href="#GoS6VNkOb50oLVHEwgIf_pad-10" x="-42999.91" y="19499.83"/><use xlink:href="#GoS6VNkOb50oLVHEwgIf_pad-10" x="-42999.91" y="16999.71"/><use xlink:href="#GoS6VNkOb50oLVHEwgIf_pad-12" x="3849.87" y="-6499.86"/><use xlink:href="#GoS6VNkOb50oLVHEwgIf_pad-12" x="-2540" y="-3919.98"/><use xlink:href="#GoS6VNkOb50oLVHEwgIf_pad-12" x="-3810" y="6459.98"/><use xlink:href="#GoS6VNkOb50oLVHEwgIf_pad-12" x="2540" y="3919.98"/><use xlink:href="#GoS6VNkOb50oLVHEwgIf_pad-13" x="24999.95" y="5999.98"/><use xlink:href="#GoS6VNkOb50oLVHEwgIf_pad-13" x="24999.95" y="3999.99"/><use xlink:href="#GoS6VNkOb50oLVHEwgIf_pad-13" x="24999.95" y="11999.97"/><use xlink:href="#GoS6VNkOb50oLVHEwgIf_pad-13" x="24999.95" y="9999.97"/><use xlink:href="#GoS6VNkOb50oLVHEwgIf_pad-10" x="-38999.92" y="26999.94"/><use xlink:href="#GoS6VNkOb50oLVHEwgIf_pad-10" x="-36999.92" y="26999.94"/><use xlink:href="#GoS6VNkOb50oLVHEwgIf_pad-10" x="-34999.93" y="26999.94"/><use xlink:href="#GoS6VNkOb50oLVHEwgIf_pad-10" x="-32999.93" y="26999.94"/><use xlink:href="#GoS6VNkOb50oLVHEwgIf_pad-10" x="-30999.93" y="26999.94"/><use xlink:href="#GoS6VNkOb50oLVHEwgIf_pad-14" x="34999.93" y="0"/><use xlink:href="#GoS6VNkOb50oLVHEwgIf_pad-15" x="34999.93" y="15999.96"/><use xlink:href="#GoS6VNkOb50oLVHEwgIf_pad-15" x="34999.93" y="-15999.96"/><use xlink:href="#GoS6VNkOb50oLVHEwgIf_pad-16" x="-35499.8" y="-15999.96"/><use xlink:href="#GoS6VNkOb50oLVHEwgIf_pad-16" x="-35499.8" y="15999.96"/><use xlink:href="#GoS6VNkOb50oLVHEwgIf_pad-10" x="43999.91" y="-13999.97"/><use xlink:href="#GoS6VNkOb50oLVHEwgIf_pad-17" x="20249.89" y="23499.82"/><use xlink:href="#GoS6VNkOb50oLVHEwgIf_pad-18" x="-22249.89" y="23499.82"/><use xlink:href="#GoS6VNkOb50oLVHEwgIf_pad-19" x="20249.89" y="-20750.02"/><use xlink:href="#GoS6VNkOb50oLVHEwgIf_pad-20" x="-22249.89" y="-20750.02"/><use xlink:href="#GoS6VNkOb50oLVHEwgIf_pad-14" x="-34999.93" y="0"/></g><g id="RRTcLEg_bZOXothQBwo5_bottom_drill1"><use xlink:href="#ZVwqj5ZcDdY_CMdrX9Gh_pad-1" x="25000" y="6000"/><use xlink:href="#ZVwqj5ZcDdY_CMdrX9Gh_pad-1" x="25000" y="4000"/><use xlink:href="#ZVwqj5ZcDdY_CMdrX9Gh_pad-1" x="25000" y="12000"/><use xlink:href="#ZVwqj5ZcDdY_CMdrX9Gh_pad-1" x="25000" y="10000"/><use xlink:href="#ZVwqj5ZcDdY_CMdrX9Gh_pad-2" x="-39130" y="-28610"/><use xlink:href="#ZVwqj5ZcDdY_CMdrX9Gh_pad-2" x="-36590" y="-28610"/><use xlink:href="#ZVwqj5ZcDdY_CMdrX9Gh_pad-2" x="-34050" y="-28610"/><use xlink:href="#ZVwqj5ZcDdY_CMdrX9Gh_pad-2" x="-31510" y="-28610"/><use xlink:href="#ZVwqj5ZcDdY_CMdrX9Gh_pad-2" x="-28970" y="-28610"/><use xlink:href="#ZVwqj5ZcDdY_CMdrX9Gh_pad-2" x="-26430" y="-28610"/><use xlink:href="#ZVwqj5ZcDdY_CMdrX9Gh_pad-2" x="-23890" y="-28610"/><use xlink:href="#ZVwqj5ZcDdY_CMdrX9Gh_pad-2" x="-21350" y="-28610"/><use xlink:href="#ZVwqj5ZcDdY_CMdrX9Gh_pad-2" x="-18810" y="-28610"/><use xlink:href="#ZVwqj5ZcDdY_CMdrX9Gh_pad-2" x="-16270" y="-28610"/><use xlink:href="#ZVwqj5ZcDdY_CMdrX9Gh_pad-2" x="9130" y="-28610"/><use xlink:href="#ZVwqj5ZcDdY_CMdrX9Gh_pad-2" x="6590" y="-28610"/><use xlink:href="#ZVwqj5ZcDdY_CMdrX9Gh_pad-2" x="4050" y="-28610"/><use xlink:href="#ZVwqj5ZcDdY_CMdrX9Gh_pad-2" x="1510" y="-28610"/><use xlink:href="#ZVwqj5ZcDdY_CMdrX9Gh_pad-2" x="-1030" y="-28610"/><use xlink:href="#ZVwqj5ZcDdY_CMdrX9Gh_pad-2" x="-3570" y="-28610"/><use xlink:href="#ZVwqj5ZcDdY_CMdrX9Gh_pad-2" x="-6110" y="-28610"/><use xlink:href="#ZVwqj5ZcDdY_CMdrX9Gh_pad-2" x="-8650" y="-28610"/><use xlink:href="#ZVwqj5ZcDdY_CMdrX9Gh_pad-2" x="-11190" y="-28610"/><use xlink:href="#ZVwqj5ZcDdY_CMdrX9Gh_pad-2" x="-13730" y="-28610"/><use xlink:href="#ZVwqj5ZcDdY_CMdrX9Gh_pad-2" x="-13730" y="-46390"/><use xlink:href="#ZVwqj5ZcDdY_CMdrX9Gh_pad-2" x="-11190" y="-46390"/><use xlink:href="#ZVwqj5ZcDdY_CMdrX9Gh_pad-2" x="-8650" y="-46390"/><use xlink:href="#ZVwqj5ZcDdY_CMdrX9Gh_pad-2" x="-6110" y="-46390"/><use xlink:href="#ZVwqj5ZcDdY_CMdrX9Gh_pad-2" x="-3570" y="-46390"/><use xlink:href="#ZVwqj5ZcDdY_CMdrX9Gh_pad-2" x="-1030" y="-46390"/><use xlink:href="#ZVwqj5ZcDdY_CMdrX9Gh_pad-2" x="1510" y="-46390"/><use xlink:href="#ZVwqj5ZcDdY_CMdrX9Gh_pad-2" x="4050" y="-46390"/><use xlink:href="#ZVwqj5ZcDdY_CMdrX9Gh_pad-2" x="6590" y="-46390"/><use xlink:href="#ZVwqj5ZcDdY_CMdrX9Gh_pad-2" x="9130" y="-46390"/><use xlink:href="#ZVwqj5ZcDdY_CMdrX9Gh_pad-2" x="-16270" y="-46390"/><use xlink:href="#ZVwqj5ZcDdY_CMdrX9Gh_pad-2" x="-18810" y="-46390"/><use xlink:href="#ZVwqj5ZcDdY_CMdrX9Gh_pad-2" x="-21350" y="-46390"/><use xlink:href="#ZVwqj5ZcDdY_CMdrX9Gh_pad-2" x="-23890" y="-46390"/><use xlink:href="#ZVwqj5ZcDdY_CMdrX9Gh_pad-2" x="-26430" y="-46390"/><use xlink:href="#ZVwqj5ZcDdY_CMdrX9Gh_pad-2" x="-28970" y="-46390"/><use xlink:href="#ZVwqj5ZcDdY_CMdrX9Gh_pad-2" x="-31510" y="-46390"/><use xlink:href="#ZVwqj5ZcDdY_CMdrX9Gh_pad-2" x="-34050" y="-46390"/><use xlink:href="#ZVwqj5ZcDdY_CMdrX9Gh_pad-2" x="-36590" y="-46390"/><use xlink:href="#ZVwqj5ZcDdY_CMdrX9Gh_pad-2" x="-39130" y="-46390"/><use xlink:href="#ZVwqj5ZcDdY_CMdrX9Gh_pad-3" x="44000" y="-16000"/><use xlink:href="#ZVwqj5ZcDdY_CMdrX9Gh_pad-3" x="44000" y="-18000"/><use xlink:href="#ZVwqj5ZcDdY_CMdrX9Gh_pad-3" x="44000" y="-20000"/><use xlink:href="#ZVwqj5ZcDdY_CMdrX9Gh_pad-3" x="42000" y="-24600"/><use xlink:href="#ZVwqj5ZcDdY_CMdrX9Gh_pad-3" x="40000" y="-24600"/><use xlink:href="#ZVwqj5ZcDdY_CMdrX9Gh_pad-3" x="38000" y="-24600"/><use xlink:href="#ZVwqj5ZcDdY_CMdrX9Gh_pad-3" x="-42000" y="1000"/><use xlink:href="#ZVwqj5ZcDdY_CMdrX9Gh_pad-3" x="-42000" y="3000"/><use xlink:href="#ZVwqj5ZcDdY_CMdrX9Gh_pad-3" x="-42000" y="5000"/><use xlink:href="#ZVwqj5ZcDdY_CMdrX9Gh_pad-3" x="-42000" y="-1000"/><use xlink:href="#ZVwqj5ZcDdY_CMdrX9Gh_pad-3" x="-42000" y="-3000"/><use xlink:href="#ZVwqj5ZcDdY_CMdrX9Gh_pad-3" x="-42000" y="-5000"/><use xlink:href="#ZVwqj5ZcDdY_CMdrX9Gh_pad-3" x="-43000" y="24500"/><use xlink:href="#ZVwqj5ZcDdY_CMdrX9Gh_pad-3" x="-43000" y="22000"/><use xlink:href="#ZVwqj5ZcDdY_CMdrX9Gh_pad-3" x="-43000" y="19500"/><use xlink:href="#ZVwqj5ZcDdY_CMdrX9Gh_pad-3" x="-43000" y="17000"/><use xlink:href="#ZVwqj5ZcDdY_CMdrX9Gh_pad-3" x="-39000" y="27000"/><use xlink:href="#ZVwqj5ZcDdY_CMdrX9Gh_pad-3" x="-37000" y="27000"/><use xlink:href="#ZVwqj5ZcDdY_CMdrX9Gh_pad-3" x="-35000" y="27000"/><use xlink:href="#ZVwqj5ZcDdY_CMdrX9Gh_pad-3" x="-33000" y="27000"/><use xlink:href="#ZVwqj5ZcDdY_CMdrX9Gh_pad-3" x="-31000" y="27000"/><use xlink:href="#ZVwqj5ZcDdY_CMdrX9Gh_pad-3" x="44000" y="-14000"/><path d="M 3847 -6500 3852 -6500 M -2543 -3920 -2537 -3920 M -3807 6460 -3813 6460 M 2543 3920 2537 3920" fill="none" stroke-width="1524"/></g><g id="RRTcLEg_bZOXothQBwo5_bottom_drill2"><use xlink:href="#aYYswbiR1Db68iiE1P1z_pad-1" x="5080" y="-9000"/><use xlink:href="#aYYswbiR1Db68iiE1P1z_pad-1" x="-5080" y="-9000"/><use xlink:href="#aYYswbiR1Db68iiE1P1z_pad-1" x="-5080" y="9000"/><use xlink:href="#aYYswbiR1Db68iiE1P1z_pad-1" x="5080" y="9000"/><path d="M 32925 16000 37075 16000 M 32925 -16000 37075 -16000 M -37000 -16000 -34000 -16000 M -37000 16000 -34000 16000" fill="none" stroke-width="2250"/><use xlink:href="#aYYswbiR1Db68iiE1P1z_pad-3" x="0" y="-9000"/><use xlink:href="#aYYswbiR1Db68iiE1P1z_pad-3" x="0" y="9000"/><path d="M 33075 0 36925 0 M 18001 22499 22499 24501 M -24499 24501 -20001 22499 M 17914 -19973 22586 -21527 M -24586 -21527 -19914 -19973 M -36925 0 -33075 0" fill="none" stroke-width="4250"/></g><clipPath id="RRTcLEg_bZOXothQBwo5_bottom_outline"><path d="M -45001.18 0 -45001.18 28900.12 46499.77 28900.12 46499.77 -27000.2 14998.7 -27000.2 14999.96 -47999.9 -28999.94 -47999.9 -44999.9 -47999.9 -45001.18 0" fill="none" stroke-width="254"/></clipPath><mask id="RRTcLEg_bZOXothQBwo5_bottom_mech-mask"><g fill="#000" stroke="#000"><rect x="-45001.18" y="-47999.9" width="91500.95" height="76900.02" fill="#fff"/><use xlink:href="#RRTcLEg_bZOXothQBwo5_bottom_drill1"/><use xlink:href="#RRTcLEg_bZOXothQBwo5_bottom_drill2"/></g></mask><mask id="RRTcLEg_bZOXothQBwo5_bottom_cf-mask"><g fill="#fff" stroke="#fff"><use xlink:href="#RRTcLEg_bZOXothQBwo5_bottom_soldermask"/></g></mask><mask id="RRTcLEg_bZOXothQBwo5_bottom_sm-mask"><g fill="#000" stroke="#000"><rect x="-45001.18" y="-47999.9" width="91500.95" height="76900.02" fill="#fff"/><use xlink:href="#RRTcLEg_bZOXothQBwo5_bottom_soldermask"/></g></mask></defs><g transform="translate(0,-19099.78) scale(1,-1)"><g mask="url(#RRTcLEg_bZOXothQBwo5_bottom_mech-mask)" clip-path="url(#RRTcLEg_bZOXothQBwo5_bottom_outline)" transform="translate(1498.5899999999965,0) scale(-1,1)"><rect x="-45001.18" y="-47999.9" width="91500.95" height="76900.02" fill="currentColor" class="RRTcLEg_bZOXothQBwo5_fr4"/><use xlink:href="#RRTcLEg_bZOXothQBwo5_bottom_copper" fill="currentColor" stroke="currentColor" class="RRTcLEg_bZOXothQBwo5_cu"/><use xlink:href="#RRTcLEg_bZOXothQBwo5_bottom_copper" fill="currentColor" stroke="currentColor" class="RRTcLEg_bZOXothQBwo5_cf" mask="url(#RRTcLEg_bZOXothQBwo5_bottom_cf-mask)"/><g mask="url(#RRTcLEg_bZOXothQBwo5_bottom_sm-mask)"><rect x="-45001.18" y="-47999.9" width="91500.95" height="76900.02" fill="currentColor" class="RRTcLEg_bZOXothQBwo5_sm"/></g></g></g></svg>