<svg version="1.1" xmlns="http://www.w3.org/2000/svg" xmlns:xlink="http://www.w3.org/1999/xlink" stroke-linecap="round" stroke-linejoin="round" stroke-width="0" fill-rule="evenodd" width="78.1mm" height="50.278mm" viewBox="-39050 -23652 78100 50278" id="n8r5dvTXpzHy0vVDnYyC"><defs><circle cx="0" cy="0" r="850" id="n8r5dvTXpzHy0vVDnYyC_pad-1"/><circle cx="0" cy="0" r="1950" id="n8r5dvTXpzHy0vVDnYyC_pad-3"/></defs><g transform="translate(0,2974) scale(1,-1)" fill="currentColor" stroke="currentColor"><use xlink:href="#n8r5dvTXpzHy0vVDnYyC_pad-1" x="5080" y="-9000"/><use xlink:href="#n8r5dvTXpzHy0vVDnYyC_pad-1" x="-5080" y="-9000"/><use xlink:href="#n8r5dvTXpzHy0vVDnYyC_pad-1" x="-5080" y="9000"/><use xlink:href="#n8r5dvTXpzHy0vVDnYyC_pad-1" x="5080" y="9000"/><path d="M 32925 16000 37075 16000 M 32925 -16000 37075 -16000 M -37000 -16000 -34000 -16000 M -37000 16000 -34000 16000" fill="none" stroke-width="2250"/><use xlink:href="#n8r5dvTXpzHy0vVDnYyC_pad-3" x="0" y="-9000"/><use xlink:href="#n8r5dvTXpzHy0vVDnYyC_pad-3" x="0" y="9000"/><path d="M -33075 0 -36925 0 M 33075 0 36925 0 M 18001 22499 22499 24501 M -24499 24501 -20001 22499 M 17914 -19973 22586 -21527 M -24586 -21527 -19914 -19973" fill="none" stroke-width="4250"/></g></svg>