<svg version="1.1" xmlns="http://www.w3.org/2000/svg" xmlns:xlink="http://www.w3.org/1999/xlink" stroke-linecap="round" stroke-linejoin="round" stroke-width="0" fill-rule="evenodd" width="88.101mm" height="74.4405mm" viewBox="-43550.5 -46890 88101 74440.5" id="ZVwqj5ZcDdY_CMdrX9Gh"><defs><circle cx="0" cy="0" r="457.5" id="ZVwqj5ZcDdY_CMdrX9Gh_pad-1"/><circle cx="0" cy="0" r="500" id="ZVwqj5ZcDdY_CMdrX9Gh_pad-2"/><circle cx="0" cy="0" r="550.5" id="ZVwqj5ZcDdY_CMdrX9Gh_pad-3"/></defs><g transform="translate(0,-19339.5) scale(1,-1)" fill="currentColor" stroke="currentColor"><use xlink:href="#ZVwqj5ZcDdY_CMdrX9Gh_pad-1" x="25000" y="6000"/><use xlink:href="#ZVwqj5ZcDdY_CMdrX9Gh_pad-1" x="25000" y="4000"/><use xlink:href="#ZVwqj5ZcDdY_CMdrX9Gh_pad-1" x="25000" y="12000"/><use xlink:href="#ZVwqj5ZcDdY_CMdrX9Gh_pad-1" x="25000" y="10000"/><use xlink:href="#ZVwqj5ZcDdY_CMdrX9Gh_pad-2" x="-39130" y="-28610"/><use xlink:href="#ZVwqj5ZcDdY_CMdrX9Gh_pad-2" x="-36590" y="-28610"/><use xlink:href="#ZVwqj5ZcDdY_CMdrX9Gh_pad-2" x="-34050" y="-28610"/><use xlink:href="#ZVwqj5ZcDdY_CMdrX9Gh_pad-2" x="-31510" y="-28610"/><use xlink:href="#ZVwqj5ZcDdY_CMdrX9Gh_pad-2" x="-28970" y="-28610"/><use xlink:href="#ZVwqj5ZcDdY_CMdrX9Gh_pad-2" x="-26430" y="-28610"/><use xlink:href="#ZVwqj5ZcDdY_CMdrX9Gh_pad-2" x="-23890" y="-28610"/><use xlink:href="#ZVwqj5ZcDdY_CMdrX9Gh_pad-2" x="-21350" y="-28610"/><use xlink:href="#ZVwqj5ZcDdY_CMdrX9Gh_pad-2" x="-18810" y="-28610"/><use xlink:href="#ZVwqj5ZcDdY_CMdrX9Gh_pad-2" x="-16270" y="-28610"/><use xlink:href="#ZVwqj5ZcDdY_CMdrX9Gh_pad-2" x="9130" y="-28610"/><use xlink:href="#ZVwqj5ZcDdY_CMdrX9Gh_pad-2" x="6590" y="-28610"/><use xlink:href="#ZVwqj5ZcDdY_CMdrX9Gh_pad-2" x="4050" y="-28610"/><use xlink:href="#ZVwqj5ZcDdY_CMdrX9Gh_pad-2" x="1510" y="-28610"/><use xlink:href="#ZVwqj5ZcDdY_CMdrX9Gh_pad-2" x="-1030" y="-28610"/><use xlink:href="#ZVwqj5ZcDdY_CMdrX9Gh_pad-2" x="-3570" y="-28610"/><use xlink:href="#ZVwqj5ZcDdY_CMdrX9Gh_pad-2" x="-6110" y="-28610"/><use xlink:href="#ZVwqj5ZcDdY_CMdrX9Gh_pad-2" x="-8650" y="-28610"/><use xlink:href="#ZVwqj5ZcDdY_CMdrX9Gh_pad-2" x="-11190" y="-28610"/><use xlink:href="#ZVwqj5ZcDdY_CMdrX9Gh_pad-2" x="-13730" y="-28610"/><use xlink:href="#ZVwqj5ZcDdY_CMdrX9Gh_pad-2" x="-13730" y="-46390"/><use xlink:href="#ZVwqj5ZcDdY_CMdrX9Gh_pad-2" x="-11190" y="-46390"/><use xlink:href="#ZVwqj5ZcDdY_CMdrX9Gh_pad-2" x="-8650" y="-46390"/><use xlink:href="#ZVwqj5ZcDdY_CMdrX9Gh_pad-2" x="-6110" y="-46390"/><use xlink:href="#ZVwqj5ZcDdY_CMdrX9Gh_pad-2" x="-3570" y="-46390"/><use xlink:href="#ZVwqj5ZcDdY_CMdrX9Gh_pad-2" x="-1030" y="-46390"/><use xlink:href="#ZVwqj5ZcDdY_CMdrX9Gh_pad-2" x="1510" y="-46390"/><use xlink:href="#ZVwqj5ZcDdY_CMdrX9Gh_pad-2" x="4050" y="-46390"/><use xlink:href="#ZVwqj5ZcDdY_CMdrX9Gh_pad-2" x="6590" y="-46390"/><use xlink:href="#ZVwqj5ZcDdY_CMdrX9Gh_pad-2" x="9130" y="-46390"/><use xlink:href="#ZVwqj5ZcDdY_CMdrX9Gh_pad-2" x="-16270" y="-46390"/><use xlink:href="#ZVwqj5ZcDdY_CMdrX9Gh_pad-2" x="-18810" y="-46390"/><use xlink:href="#ZVwqj5ZcDdY_CMdrX9Gh_pad-2" x="-21350" y="-46390"/><use xlink:href="#ZVwqj5ZcDdY_CMdrX9Gh_pad-2" x="-23890" y="-46390"/><use xlink:href="#ZVwqj5ZcDdY_CMdrX9Gh_pad-2" x="-26430" y="-46390"/><use xlink:href="#ZVwqj5ZcDdY_CMdrX9Gh_pad-2" x="-28970" y="-46390"/><use xlink:href="#ZVwqj5ZcDdY_CMdrX9Gh_pad-2" x="-31510" y="-46390"/><use xlink:href="#ZVwqj5ZcDdY_CMdrX9Gh_pad-2" x="-34050" y="-46390"/><use xlink:href="#ZVwqj5ZcDdY_CMdrX9Gh_pad-2" x="-36590" y="-46390"/><use xlink:href="#ZVwqj5ZcDdY_CMdrX9Gh_pad-2" x="-39130" y="-46390"/><use xlink:href="#ZVwqj5ZcDdY_CMdrX9Gh_pad-3" x="44000" y="-16000"/><use xlink:href="#ZVwqj5ZcDdY_CMdrX9Gh_pad-3" x="44000" y="-18000"/><use xlink:href="#ZVwqj5ZcDdY_CMdrX9Gh_pad-3" x="44000" y="-20000"/><use xlink:href="#ZVwqj5ZcDdY_CMdrX9Gh_pad-3" x="42000" y="-24600"/><use xlink:href="#ZVwqj5ZcDdY_CMdrX9Gh_pad-3" x="40000" y="-24600"/><use xlink:href="#ZVwqj5ZcDdY_CMdrX9Gh_pad-3" x="38000" y="-24600"/><use xlink:href="#ZVwqj5ZcDdY_CMdrX9Gh_pad-3" x="-42000" y="1000"/><use xlink:href="#ZVwqj5ZcDdY_CMdrX9Gh_pad-3" x="-42000" y="3000"/><use xlink:href="#ZVwqj5ZcDdY_CMdrX9Gh_pad-3" x="-42000" y="5000"/><use xlink:href="#ZVwqj5ZcDdY_CMdrX9Gh_pad-3" x="-42000" y="-1000"/><use xlink:href="#ZVwqj5ZcDdY_CMdrX9Gh_pad-3" x="-42000" y="-3000"/><use xlink:href="#ZVwqj5ZcDdY_CMdrX9Gh_pad-3" x="-42000" y="-5000"/><use xlink:href="#ZVwqj5ZcDdY_CMdrX9Gh_pad-3" x="-43000" y="24500"/><use xlink:href="#ZVwqj5ZcDdY_CMdrX9Gh_pad-3" x="-43000" y="22000"/><use xlink:href="#ZVwqj5ZcDdY_CMdrX9Gh_pad-3" x="-43000" y="19500"/><use xlink:href="#ZVwqj5ZcDdY_CMdrX9Gh_pad-3" x="-43000" y="17000"/><use xlink:href="#ZVwqj5ZcDdY_CMdrX9Gh_pad-3" x="-39000" y="27000"/><use xlink:href="#ZVwqj5ZcDdY_CMdrX9Gh_pad-3" x="-37000" y="27000"/><use xlink:href="#ZVwqj5ZcDdY_CMdrX9Gh_pad-3" x="-35000" y="27000"/><use xlink:href="#ZVwqj5ZcDdY_CMdrX9Gh_pad-3" x="-33000" y="27000"/><use xlink:href="#ZVwqj5ZcDdY_CMdrX9Gh_pad-3" x="-31000" y="27000"/><use xlink:href="#ZVwqj5ZcDdY_CMdrX9Gh_pad-3" x="44000" y="-14000"/><path d="M 3847 -6500 3852 -6500 M -2543 -3920 -2537 -3920 M -3807 6460 -3813 6460 M 2543 3920 2537 3920" fill="none" stroke-width="1524"/></g></svg>