<svg version="1.1" xmlns="http://www.w3.org/2000/svg" xmlns:xlink="http://www.w3.org/1999/xlink" stroke-linecap="round" stroke-linejoin="round" stroke-width="0" fill-rule="evenodd" width="88.101mm" height="72.782mm" viewBox="-43550.5 -44890 88101 72782" id="VlfdbhI1scLcO8vCkuV5"><defs><circle cx="0" cy="0" r="153" id="VlfdbhI1scLcO8vCkuV5_pad-1"/><circle cx="0" cy="0" r="457.5" id="VlfdbhI1scLcO8vCkuV5_pad-2"/><circle cx="0" cy="0" r="500" id="VlfdbhI1scLcO8vCkuV5_pad-3"/><circle cx="0" cy="0" r="550.5" id="VlfdbhI1scLcO8vCkuV5_pad-4"/></defs><g transform="translate(0,-16998) scale(1,-1)" fill="currentColor" stroke="currentColor"><use xlink:href="#VlfdbhI1scLcO8vCkuV5_pad-1" x="39531" y="-20422"/><use xlink:href="#VlfdbhI1scLcO8vCkuV5_pad-1" x="39531" y="-15318"/><use xlink:href="#VlfdbhI1scLcO8vCkuV5_pad-1" x="-2352" y="27739"/><use xlink:href="#VlfdbhI1scLcO8vCkuV5_pad-1" x="-29420" y="-425"/><use xlink:href="#VlfdbhI1scLcO8vCkuV5_pad-1" x="-26745" y="-18806"/><use xlink:href="#VlfdbhI1scLcO8vCkuV5_pad-1" x="3090" y="15585"/><use xlink:href="#VlfdbhI1scLcO8vCkuV5_pad-1" x="21530" y="-11564"/><use xlink:href="#VlfdbhI1scLcO8vCkuV5_pad-2" x="25000" y="15000"/><use xlink:href="#VlfdbhI1scLcO8vCkuV5_pad-2" x="25000" y="13000"/><use xlink:href="#VlfdbhI1scLcO8vCkuV5_pad-2" x="25000" y="21000"/><use xlink:href="#VlfdbhI1scLcO8vCkuV5_pad-2" x="25000" y="19000"/><use xlink:href="#VlfdbhI1scLcO8vCkuV5_pad-3" x="-39630" y="-26610"/><use xlink:href="#VlfdbhI1scLcO8vCkuV5_pad-3" x="-37090" y="-26610"/><use xlink:href="#VlfdbhI1scLcO8vCkuV5_pad-3" x="-34550" y="-26610"/><use xlink:href="#VlfdbhI1scLcO8vCkuV5_pad-3" x="-32010" y="-26610"/><use xlink:href="#VlfdbhI1scLcO8vCkuV5_pad-3" x="-29470" y="-26610"/><use xlink:href="#VlfdbhI1scLcO8vCkuV5_pad-3" x="-26930" y="-26610"/><use xlink:href="#VlfdbhI1scLcO8vCkuV5_pad-3" x="-24390" y="-26610"/><use xlink:href="#VlfdbhI1scLcO8vCkuV5_pad-3" x="-21850" y="-26610"/><use xlink:href="#VlfdbhI1scLcO8vCkuV5_pad-3" x="-19310" y="-26610"/><use xlink:href="#VlfdbhI1scLcO8vCkuV5_pad-3" x="-16770" y="-26610"/><use xlink:href="#VlfdbhI1scLcO8vCkuV5_pad-3" x="8630" y="-26610"/><use xlink:href="#VlfdbhI1scLcO8vCkuV5_pad-3" x="6090" y="-26610"/><use xlink:href="#VlfdbhI1scLcO8vCkuV5_pad-3" x="3550" y="-26610"/><use xlink:href="#VlfdbhI1scLcO8vCkuV5_pad-3" x="1010" y="-26610"/><use xlink:href="#VlfdbhI1scLcO8vCkuV5_pad-3" x="-1530" y="-26610"/><use xlink:href="#VlfdbhI1scLcO8vCkuV5_pad-3" x="-4070" y="-26610"/><use xlink:href="#VlfdbhI1scLcO8vCkuV5_pad-3" x="-6610" y="-26610"/><use xlink:href="#VlfdbhI1scLcO8vCkuV5_pad-3" x="-9150" y="-26610"/><use xlink:href="#VlfdbhI1scLcO8vCkuV5_pad-3" x="-11690" y="-26610"/><use xlink:href="#VlfdbhI1scLcO8vCkuV5_pad-3" x="-14230" y="-26610"/><use xlink:href="#VlfdbhI1scLcO8vCkuV5_pad-3" x="-14230" y="-44390"/><use xlink:href="#VlfdbhI1scLcO8vCkuV5_pad-3" x="-11690" y="-44390"/><use xlink:href="#VlfdbhI1scLcO8vCkuV5_pad-3" x="-9150" y="-44390"/><use xlink:href="#VlfdbhI1scLcO8vCkuV5_pad-3" x="-6610" y="-44390"/><use xlink:href="#VlfdbhI1scLcO8vCkuV5_pad-3" x="-4070" y="-44390"/><use xlink:href="#VlfdbhI1scLcO8vCkuV5_pad-3" x="-1530" y="-44390"/><use xlink:href="#VlfdbhI1scLcO8vCkuV5_pad-3" x="1010" y="-44390"/><use xlink:href="#VlfdbhI1scLcO8vCkuV5_pad-3" x="3550" y="-44390"/><use xlink:href="#VlfdbhI1scLcO8vCkuV5_pad-3" x="6090" y="-44390"/><use xlink:href="#VlfdbhI1scLcO8vCkuV5_pad-3" x="8630" y="-44390"/><use xlink:href="#VlfdbhI1scLcO8vCkuV5_pad-3" x="-16770" y="-44390"/><use xlink:href="#VlfdbhI1scLcO8vCkuV5_pad-3" x="-19310" y="-44390"/><use xlink:href="#VlfdbhI1scLcO8vCkuV5_pad-3" x="-21850" y="-44390"/><use xlink:href="#VlfdbhI1scLcO8vCkuV5_pad-3" x="-24390" y="-44390"/><use xlink:href="#VlfdbhI1scLcO8vCkuV5_pad-3" x="-26930" y="-44390"/><use xlink:href="#VlfdbhI1scLcO8vCkuV5_pad-3" x="-29470" y="-44390"/><use xlink:href="#VlfdbhI1scLcO8vCkuV5_pad-3" x="-32010" y="-44390"/><use xlink:href="#VlfdbhI1scLcO8vCkuV5_pad-3" x="-34550" y="-44390"/><use xlink:href="#VlfdbhI1scLcO8vCkuV5_pad-3" x="-37090" y="-44390"/><use xlink:href="#VlfdbhI1scLcO8vCkuV5_pad-3" x="-39630" y="-44390"/><use xlink:href="#VlfdbhI1scLcO8vCkuV5_pad-4" x="44000" y="-16000"/><use xlink:href="#VlfdbhI1scLcO8vCkuV5_pad-4" x="44000" y="-18000"/><use xlink:href="#VlfdbhI1scLcO8vCkuV5_pad-4" x="44000" y="-20000"/><use xlink:href="#VlfdbhI1scLcO8vCkuV5_pad-4" x="42000" y="-23500"/><use xlink:href="#VlfdbhI1scLcO8vCkuV5_pad-4" x="40000" y="-23500"/><use xlink:href="#VlfdbhI1scLcO8vCkuV5_pad-4" x="38000" y="-23500"/><use xlink:href="#VlfdbhI1scLcO8vCkuV5_pad-4" x="-42000" y="1000"/><use xlink:href="#VlfdbhI1scLcO8vCkuV5_pad-4" x="-42000" y="3000"/><use xlink:href="#VlfdbhI1scLcO8vCkuV5_pad-4" x="-42000" y="5000"/><use xlink:href="#VlfdbhI1scLcO8vCkuV5_pad-4" x="-42000" y="-1000"/><use xlink:href="#VlfdbhI1scLcO8vCkuV5_pad-4" x="-42000" y="-3000"/><use xlink:href="#VlfdbhI1scLcO8vCkuV5_pad-4" x="-42000" y="-5000"/><use xlink:href="#VlfdbhI1scLcO8vCkuV5_pad-4" x="-43000" y="24500"/><use xlink:href="#VlfdbhI1scLcO8vCkuV5_pad-4" x="-43000" y="22000"/><use xlink:href="#VlfdbhI1scLcO8vCkuV5_pad-4" x="-43000" y="19500"/><use xlink:href="#VlfdbhI1scLcO8vCkuV5_pad-4" x="-43000" y="17000"/><use xlink:href="#VlfdbhI1scLcO8vCkuV5_pad-4" x="-39000" y="27000"/><use xlink:href="#VlfdbhI1scLcO8vCkuV5_pad-4" x="-37000" y="27000"/><use xlink:href="#VlfdbhI1scLcO8vCkuV5_pad-4" x="-35000" y="27000"/><use xlink:href="#VlfdbhI1scLcO8vCkuV5_pad-4" x="-33000" y="27000"/><use xlink:href="#VlfdbhI1scLcO8vCkuV5_pad-4" x="-31000" y="27000"/><use xlink:href="#VlfdbhI1scLcO8vCkuV5_pad-4" x="44000" y="-14000"/><path d="M 3847 -6500 3852 -6500 M -2543 -3920 -2537 -3920 M -3807 6460 -3813 6460 M 2543 3920 2537 3920" fill="none" stroke-width="1524"/></g></svg>