<svg version="1.1" xmlns="http://www.w3.org/2000/svg" xmlns:xlink="http://www.w3.org/1999/xlink" stroke-linecap="round" stroke-linejoin="round" stroke-width="0" fill-rule="evenodd" width="88.70142mm" height="75.09142999999999mm" viewBox="-43850.71 -47240.69 88701.42 75091.43" id="ve1-HGf-hpZtAsdj30wh"><defs><circle cx="0" cy="0" r="850.8" id="ve1-HGf-hpZtAsdj30wh_pad-10"/><g id="ve1-HGf-hpZtAsdj30wh_pad-11"><circle cx="800" cy="800" r="50.8"/><circle cx="800" cy="-800" r="50.8"/><circle cx="-800" cy="-800" r="50.8"/><circle cx="-800" cy="800" r="50.8"/><polygon points="850.8,800 850.8,-800 749.2,-800 749.2,800"/><polygon points="800,-850.8 -800,-850.8 -800,-749.2 800,-749.2"/><polygon points="-749.2,-800 -749.2,800 -850.8,800 -850.8,-800"/><polygon points="-800,749.2 800,749.2 800,850.8 -800,850.8"/><polygon points="800,800 800,-800 -800,-800 -800,800"/></g><circle cx="0" cy="0" r="1320.8" id="ve1-HGf-hpZtAsdj30wh_pad-12"/><circle cx="0" cy="0" r="812.8" id="ve1-HGf-hpZtAsdj30wh_pad-13"/><rect x="-4049.9919" y="-2125.0021" width="8099.9838" height="4250.0042" rx="2125.0021" ry="2125.0021" id="ve1-HGf-hpZtAsdj30wh_pad-14"/><rect x="-3199.9936" y="-1125.0041" width="6399.9872" height="2250.0082" rx="1125.0041" ry="1125.0041" id="ve1-HGf-hpZtAsdj30wh_pad-15"/><rect x="-2625.0011" y="-1125.0041" width="5250.0022" height="2250.0082" rx="1125.0041" ry="1125.0041" id="ve1-HGf-hpZtAsdj30wh_pad-16"/><g id="ve1-HGf-hpZtAsdj30wh_pad-17"><circle cx="-2249.1" cy="-1001.4" r="2125"/><circle cx="2249.1" cy="1001.4" r="2125"/><polygon points="-1384.75858,-2942.6725 3113.44142,-939.8725 1384.75858,2942.6725 -3113.44142,939.8725"/></g><g id="ve1-HGf-hpZtAsdj30wh_pad-18"><circle cx="-2249.1" cy="1001.4" r="2125"/><circle cx="2249.1" cy="-1001.4" r="2125"/><polygon points="-3113.44142,-939.8725 1384.75858,-2942.6725 3113.44142,939.8725 -1384.75858,2942.6725"/></g><g id="ve1-HGf-hpZtAsdj30wh_pad-19"><circle cx="-2336.1" cy="777.1" r="2125"/><circle cx="2336.1" cy="-777.1" r="2125"/><polygon points="-3006.84096,-1239.26593 1665.35904,-2793.46593 3006.84096,1239.26593 -1665.35904,2793.46593"/></g><g id="ve1-HGf-hpZtAsdj30wh_pad-20"><circle cx="-2336.1" cy="-777.1" r="2125"/><circle cx="2336.1" cy="777.1" r="2125"/><polygon points="-1665.35904,-2793.46593 3006.84096,-1239.26593 1665.35904,2793.46593 -3006.84096,1239.26593"/></g></defs><g transform="translate(0,-19389.95000000001) scale(1,-1)" fill="currentColor" stroke="currentColor"><use xlink:href="#ve1-HGf-hpZtAsdj30wh_pad-10" x="-39129.84" y="-28610.05"/><use xlink:href="#ve1-HGf-hpZtAsdj30wh_pad-10" x="-36589.84" y="-28610.05"/><use xlink:href="#ve1-HGf-hpZtAsdj30wh_pad-11" x="-34049.94" y="-28609.95"/><use xlink:href="#ve1-HGf-hpZtAsdj30wh_pad-10" x="-31509.84" y="-28610.05"/><use xlink:href="#ve1-HGf-hpZtAsdj30wh_pad-10" x="-28969.84" y="-28610.05"/><use xlink:href="#ve1-HGf-hpZtAsdj30wh_pad-10" x="-26429.84" y="-28610.05"/><use xlink:href="#ve1-HGf-hpZtAsdj30wh_pad-10" x="-23889.84" y="-28610.05"/><use xlink:href="#ve1-HGf-hpZtAsdj30wh_pad-11" x="-21349.97" y="-28609.95"/><use xlink:href="#ve1-HGf-hpZtAsdj30wh_pad-10" x="-18810.09" y="-28610.05"/><use xlink:href="#ve1-HGf-hpZtAsdj30wh_pad-10" x="-16270.09" y="-28610.05"/><use xlink:href="#ve1-HGf-hpZtAsdj30wh_pad-10" x="9129.9" y="-28610.05"/><use xlink:href="#ve1-HGf-hpZtAsdj30wh_pad-10" x="6589.9" y="-28610.05"/><use xlink:href="#ve1-HGf-hpZtAsdj30wh_pad-11" x="4049.97" y="-28609.95"/><use xlink:href="#ve1-HGf-hpZtAsdj30wh_pad-10" x="1509.9" y="-28610.05"/><use xlink:href="#ve1-HGf-hpZtAsdj30wh_pad-10" x="-1030.09" y="-28610.05"/><use xlink:href="#ve1-HGf-hpZtAsdj30wh_pad-10" x="-3570.09" y="-28610.05"/><use xlink:href="#ve1-HGf-hpZtAsdj30wh_pad-10" x="-6110.09" y="-28610.05"/><use xlink:href="#ve1-HGf-hpZtAsdj30wh_pad-11" x="-8649.99" y="-28609.95"/><use xlink:href="#ve1-HGf-hpZtAsdj30wh_pad-10" x="-11190.09" y="-28610.05"/><use xlink:href="#ve1-HGf-hpZtAsdj30wh_pad-10" x="-13730.09" y="-28610.05"/><use xlink:href="#ve1-HGf-hpZtAsdj30wh_pad-10" x="-13730.09" y="-46389.79"/><use xlink:href="#ve1-HGf-hpZtAsdj30wh_pad-10" x="-11190.09" y="-46389.79"/><use xlink:href="#ve1-HGf-hpZtAsdj30wh_pad-11" x="-8649.99" y="-46389.89"/><use xlink:href="#ve1-HGf-hpZtAsdj30wh_pad-10" x="-6110.09" y="-46389.79"/><use xlink:href="#ve1-HGf-hpZtAsdj30wh_pad-10" x="-3570.09" y="-46389.79"/><use xlink:href="#ve1-HGf-hpZtAsdj30wh_pad-10" x="-1030.09" y="-46389.79"/><use xlink:href="#ve1-HGf-hpZtAsdj30wh_pad-10" x="1509.9" y="-46389.79"/><use xlink:href="#ve1-HGf-hpZtAsdj30wh_pad-11" x="4049.97" y="-46389.89"/><use xlink:href="#ve1-HGf-hpZtAsdj30wh_pad-10" x="6589.9" y="-46389.79"/><use xlink:href="#ve1-HGf-hpZtAsdj30wh_pad-10" x="9129.9" y="-46389.79"/><use xlink:href="#ve1-HGf-hpZtAsdj30wh_pad-10" x="-16270.09" y="-46389.79"/><use xlink:href="#ve1-HGf-hpZtAsdj30wh_pad-10" x="-18810.09" y="-46389.79"/><use xlink:href="#ve1-HGf-hpZtAsdj30wh_pad-11" x="-21349.97" y="-46389.89"/><use xlink:href="#ve1-HGf-hpZtAsdj30wh_pad-10" x="-23889.84" y="-46389.79"/><use xlink:href="#ve1-HGf-hpZtAsdj30wh_pad-10" x="-26429.84" y="-46389.79"/><use xlink:href="#ve1-HGf-hpZtAsdj30wh_pad-10" x="-28969.84" y="-46389.79"/><use xlink:href="#ve1-HGf-hpZtAsdj30wh_pad-10" x="-31509.84" y="-46389.79"/><use xlink:href="#ve1-HGf-hpZtAsdj30wh_pad-11" x="-34049.94" y="-46389.89"/><use xlink:href="#ve1-HGf-hpZtAsdj30wh_pad-10" x="-36589.84" y="-46389.79"/><use xlink:href="#ve1-HGf-hpZtAsdj30wh_pad-10" x="-39129.84" y="-46389.79"/><use xlink:href="#ve1-HGf-hpZtAsdj30wh_pad-10" x="43999.91" y="-15999.96"/><use xlink:href="#ve1-HGf-hpZtAsdj30wh_pad-10" x="43999.91" y="-17999.96"/><use xlink:href="#ve1-HGf-hpZtAsdj30wh_pad-10" x="43999.91" y="-19999.95"/><use xlink:href="#ve1-HGf-hpZtAsdj30wh_pad-10" x="41999.91" y="-24599.89"/><use xlink:href="#ve1-HGf-hpZtAsdj30wh_pad-10" x="39999.91" y="-24599.89"/><use xlink:href="#ve1-HGf-hpZtAsdj30wh_pad-10" x="37999.92" y="-24599.89"/><use xlink:href="#ve1-HGf-hpZtAsdj30wh_pad-10" x="-41999.91" y="999.99"/><use xlink:href="#ve1-HGf-hpZtAsdj30wh_pad-10" x="-41999.91" y="2999.99"/><use xlink:href="#ve1-HGf-hpZtAsdj30wh_pad-10" x="-41999.91" y="4999.98"/><use xlink:href="#ve1-HGf-hpZtAsdj30wh_pad-10" x="-41999.91" y="-999.99"/><use xlink:href="#ve1-HGf-hpZtAsdj30wh_pad-10" x="-41999.91" y="-2999.99"/><use xlink:href="#ve1-HGf-hpZtAsdj30wh_pad-10" x="-41999.91" y="-4999.98"/><use xlink:href="#ve1-HGf-hpZtAsdj30wh_pad-10" x="-42999.91" y="24499.82"/><use xlink:href="#ve1-HGf-hpZtAsdj30wh_pad-10" x="-42999.91" y="21999.7"/><use xlink:href="#ve1-HGf-hpZtAsdj30wh_pad-10" x="-42999.91" y="19499.83"/><use xlink:href="#ve1-HGf-hpZtAsdj30wh_pad-10" x="-42999.91" y="16999.71"/><use xlink:href="#ve1-HGf-hpZtAsdj30wh_pad-12" x="3849.87" y="-6499.86"/><use xlink:href="#ve1-HGf-hpZtAsdj30wh_pad-12" x="-2540" y="-3919.98"/><use xlink:href="#ve1-HGf-hpZtAsdj30wh_pad-12" x="-3810" y="6459.98"/><use xlink:href="#ve1-HGf-hpZtAsdj30wh_pad-12" x="2540" y="3919.98"/><use xlink:href="#ve1-HGf-hpZtAsdj30wh_pad-13" x="24999.95" y="5999.98"/><use xlink:href="#ve1-HGf-hpZtAsdj30wh_pad-13" x="24999.95" y="3999.99"/><use xlink:href="#ve1-HGf-hpZtAsdj30wh_pad-13" x="24999.95" y="11999.97"/><use xlink:href="#ve1-HGf-hpZtAsdj30wh_pad-13" x="24999.95" y="9999.97"/><use xlink:href="#ve1-HGf-hpZtAsdj30wh_pad-10" x="-38999.92" y="26999.94"/><use xlink:href="#ve1-HGf-hpZtAsdj30wh_pad-10" x="-36999.92" y="26999.94"/><use xlink:href="#ve1-HGf-hpZtAsdj30wh_pad-10" x="-34999.93" y="26999.94"/><use xlink:href="#ve1-HGf-hpZtAsdj30wh_pad-10" x="-32999.93" y="26999.94"/><use xlink:href="#ve1-HGf-hpZtAsdj30wh_pad-10" x="-30999.93" y="26999.94"/><use xlink:href="#ve1-HGf-hpZtAsdj30wh_pad-14" x="34999.93" y="0"/><use xlink:href="#ve1-HGf-hpZtAsdj30wh_pad-15" x="34999.93" y="15999.96"/><use xlink:href="#ve1-HGf-hpZtAsdj30wh_pad-15" x="34999.93" y="-15999.96"/><use xlink:href="#ve1-HGf-hpZtAsdj30wh_pad-16" x="-35499.8" y="-15999.96"/><use xlink:href="#ve1-HGf-hpZtAsdj30wh_pad-16" x="-35499.8" y="15999.96"/><use xlink:href="#ve1-HGf-hpZtAsdj30wh_pad-10" x="43999.91" y="-13999.97"/><use xlink:href="#ve1-HGf-hpZtAsdj30wh_pad-17" x="20249.89" y="23499.82"/><use xlink:href="#ve1-HGf-hpZtAsdj30wh_pad-18" x="-22249.89" y="23499.82"/><use xlink:href="#ve1-HGf-hpZtAsdj30wh_pad-19" x="20249.89" y="-20750.02"/><use xlink:href="#ve1-HGf-hpZtAsdj30wh_pad-20" x="-22249.89" y="-20750.02"/><use xlink:href="#ve1-HGf-hpZtAsdj30wh_pad-14" x="-34999.93" y="0"/></g></svg>