<svg version="1.1" xmlns="http://www.w3.org/2000/svg" xmlns:xlink="http://www.w3.org/1999/xlink" stroke-linecap="round" stroke-linejoin="round" stroke-width="0" fill-rule="evenodd" width="88.70142mm" height="73.09144mm" viewBox="-43850.71 -45240.7 88701.42 73091.44" id="vMW8JwG7aajUQTASkVAJ"><defs><circle cx="0" cy="0" r="850.8" id="vMW8JwG7aajUQTASkVAJ_pad-10"/><g id="vMW8JwG7aajUQTASkVAJ_pad-11"><circle cx="800" cy="800" r="50.8"/><circle cx="800" cy="-800" r="50.8"/><circle cx="-800" cy="-800" r="50.8"/><circle cx="-800" cy="800" r="50.8"/><polygon points="850.8,800 850.8,-800 749.2,-800 749.2,800"/><polygon points="800,-850.8 -800,-850.8 -800,-749.2 800,-749.2"/><polygon points="-749.2,-800 -749.2,800 -850.8,800 -850.8,-800"/><polygon points="-800,749.2 800,749.2 800,850.8 -800,850.8"/><polygon points="800,800 800,-800 -800,-800 -800,800"/></g><circle cx="0" cy="0" r="1320.8" id="vMW8JwG7aajUQTASkVAJ_pad-12"/><circle cx="0" cy="0" r="812.8" id="vMW8JwG7aajUQTASkVAJ_pad-13"/><rect x="-4049.9919" y="-2125.0021" width="8099.9838" height="4250.0042" rx="2125.0021" ry="2125.0021" id="vMW8JwG7aajUQTASkVAJ_pad-14"/><rect x="-3199.9936" y="-1125.0041" width="6399.9872" height="2250.0082" rx="1125.0041" ry="1125.0041" id="vMW8JwG7aajUQTASkVAJ_pad-15"/><rect x="-2625.0011" y="-1125.0041" width="5250.0022" height="2250.0082" rx="1125.0041" ry="1125.0041" id="vMW8JwG7aajUQTASkVAJ_pad-16"/><g id="vMW8JwG7aajUQTASkVAJ_pad-17"><circle cx="-2249.1" cy="-1001.4" r="2125"/><circle cx="2249.1" cy="1001.4" r="2125"/><polygon points="-1384.75858,-2942.6725 3113.44142,-939.8725 1384.75858,2942.6725 -3113.44142,939.8725"/></g><g id="vMW8JwG7aajUQTASkVAJ_pad-18"><circle cx="-2249.1" cy="1001.4" r="2125"/><circle cx="2249.1" cy="-1001.4" r="2125"/><polygon points="-3113.44142,-939.8725 1384.75858,-2942.6725 3113.44142,939.8725 -1384.75858,2942.6725"/></g><g id="vMW8JwG7aajUQTASkVAJ_pad-19"><circle cx="-2336.1" cy="777.1" r="2125"/><circle cx="2336.1" cy="-777.1" r="2125"/><polygon points="-3006.84096,-1239.26593 1665.35904,-2793.46593 3006.84096,1239.26593 -1665.35904,2793.46593"/></g><g id="vMW8JwG7aajUQTASkVAJ_pad-20"><circle cx="-2336.1" cy="-777.1" r="2125"/><circle cx="2336.1" cy="777.1" r="2125"/><polygon points="-1665.35904,-2793.46593 3006.84096,-1239.26593 1665.35904,2793.46593 -3006.84096,1239.26593"/></g></defs><g transform="translate(0,-17389.959999999992) scale(1,-1)" fill="currentColor" stroke="currentColor"><use xlink:href="#vMW8JwG7aajUQTASkVAJ_pad-10" x="-39629.84" y="-26610.05"/><use xlink:href="#vMW8JwG7aajUQTASkVAJ_pad-10" x="-37089.84" y="-26610.05"/><use xlink:href="#vMW8JwG7aajUQTASkVAJ_pad-11" x="-34549.94" y="-26609.95"/><use xlink:href="#vMW8JwG7aajUQTASkVAJ_pad-10" x="-32009.84" y="-26610.05"/><use xlink:href="#vMW8JwG7aajUQTASkVAJ_pad-10" x="-29469.84" y="-26610.05"/><use xlink:href="#vMW8JwG7aajUQTASkVAJ_pad-10" x="-26929.84" y="-26610.05"/><use xlink:href="#vMW8JwG7aajUQTASkVAJ_pad-10" x="-24389.84" y="-26610.05"/><use xlink:href="#vMW8JwG7aajUQTASkVAJ_pad-11" x="-21849.96" y="-26609.95"/><use xlink:href="#vMW8JwG7aajUQTASkVAJ_pad-10" x="-19310.09" y="-26610.05"/><use xlink:href="#vMW8JwG7aajUQTASkVAJ_pad-10" x="-16770.09" y="-26610.05"/><use xlink:href="#vMW8JwG7aajUQTASkVAJ_pad-10" x="8629.9" y="-26610.05"/><use xlink:href="#vMW8JwG7aajUQTASkVAJ_pad-10" x="6089.9" y="-26610.05"/><use xlink:href="#vMW8JwG7aajUQTASkVAJ_pad-11" x="3549.98" y="-26609.95"/><use xlink:href="#vMW8JwG7aajUQTASkVAJ_pad-10" x="1009.9" y="-26610.05"/><use xlink:href="#vMW8JwG7aajUQTASkVAJ_pad-10" x="-1530.09" y="-26610.05"/><use xlink:href="#vMW8JwG7aajUQTASkVAJ_pad-10" x="-4070.09" y="-26610.05"/><use xlink:href="#vMW8JwG7aajUQTASkVAJ_pad-10" x="-6610.09" y="-26610.05"/><use xlink:href="#vMW8JwG7aajUQTASkVAJ_pad-11" x="-9149.99" y="-26609.95"/><use xlink:href="#vMW8JwG7aajUQTASkVAJ_pad-10" x="-11690.09" y="-26610.05"/><use xlink:href="#vMW8JwG7aajUQTASkVAJ_pad-10" x="-14230.09" y="-26610.05"/><use xlink:href="#vMW8JwG7aajUQTASkVAJ_pad-10" x="-14230.09" y="-44389.8"/><use xlink:href="#vMW8JwG7aajUQTASkVAJ_pad-10" x="-11690.09" y="-44389.8"/><use xlink:href="#vMW8JwG7aajUQTASkVAJ_pad-11" x="-9149.99" y="-44389.9"/><use xlink:href="#vMW8JwG7aajUQTASkVAJ_pad-10" x="-6610.09" y="-44389.8"/><use xlink:href="#vMW8JwG7aajUQTASkVAJ_pad-10" x="-4070.09" y="-44389.8"/><use xlink:href="#vMW8JwG7aajUQTASkVAJ_pad-10" x="-1530.09" y="-44389.8"/><use xlink:href="#vMW8JwG7aajUQTASkVAJ_pad-10" x="1009.9" y="-44389.8"/><use xlink:href="#vMW8JwG7aajUQTASkVAJ_pad-11" x="3549.98" y="-44389.9"/><use xlink:href="#vMW8JwG7aajUQTASkVAJ_pad-10" x="6089.9" y="-44389.8"/><use xlink:href="#vMW8JwG7aajUQTASkVAJ_pad-10" x="8629.9" y="-44389.8"/><use xlink:href="#vMW8JwG7aajUQTASkVAJ_pad-10" x="-16770.09" y="-44389.8"/><use xlink:href="#vMW8JwG7aajUQTASkVAJ_pad-10" x="-19310.09" y="-44389.8"/><use xlink:href="#vMW8JwG7aajUQTASkVAJ_pad-11" x="-21849.96" y="-44389.9"/><use xlink:href="#vMW8JwG7aajUQTASkVAJ_pad-10" x="-24389.84" y="-44389.8"/><use xlink:href="#vMW8JwG7aajUQTASkVAJ_pad-10" x="-26929.84" y="-44389.8"/><use xlink:href="#vMW8JwG7aajUQTASkVAJ_pad-10" x="-29469.84" y="-44389.8"/><use xlink:href="#vMW8JwG7aajUQTASkVAJ_pad-10" x="-32009.84" y="-44389.8"/><use xlink:href="#vMW8JwG7aajUQTASkVAJ_pad-11" x="-34549.94" y="-44389.9"/><use xlink:href="#vMW8JwG7aajUQTASkVAJ_pad-10" x="-37089.84" y="-44389.8"/><use xlink:href="#vMW8JwG7aajUQTASkVAJ_pad-10" x="-39629.84" y="-44389.8"/><use xlink:href="#vMW8JwG7aajUQTASkVAJ_pad-10" x="43999.91" y="-15999.96"/><use xlink:href="#vMW8JwG7aajUQTASkVAJ_pad-10" x="43999.91" y="-17999.96"/><use xlink:href="#vMW8JwG7aajUQTASkVAJ_pad-10" x="43999.91" y="-19999.95"/><use xlink:href="#vMW8JwG7aajUQTASkVAJ_pad-10" x="41999.91" y="-23500.07"/><use xlink:href="#vMW8JwG7aajUQTASkVAJ_pad-10" x="39999.91" y="-23500.07"/><use xlink:href="#vMW8JwG7aajUQTASkVAJ_pad-10" x="37999.92" y="-23500.07"/><use xlink:href="#vMW8JwG7aajUQTASkVAJ_pad-10" x="-41999.91" y="999.99"/><use xlink:href="#vMW8JwG7aajUQTASkVAJ_pad-10" x="-41999.91" y="2999.99"/><use xlink:href="#vMW8JwG7aajUQTASkVAJ_pad-10" x="-41999.91" y="4999.98"/><use xlink:href="#vMW8JwG7aajUQTASkVAJ_pad-10" x="-41999.91" y="-999.99"/><use xlink:href="#vMW8JwG7aajUQTASkVAJ_pad-10" x="-41999.91" y="-2999.99"/><use xlink:href="#vMW8JwG7aajUQTASkVAJ_pad-10" x="-41999.91" y="-4999.98"/><use xlink:href="#vMW8JwG7aajUQTASkVAJ_pad-10" x="-42999.91" y="24499.82"/><use xlink:href="#vMW8JwG7aajUQTASkVAJ_pad-10" x="-42999.91" y="21999.7"/><use xlink:href="#vMW8JwG7aajUQTASkVAJ_pad-10" x="-42999.91" y="19499.83"/><use xlink:href="#vMW8JwG7aajUQTASkVAJ_pad-10" x="-42999.91" y="16999.71"/><use xlink:href="#vMW8JwG7aajUQTASkVAJ_pad-12" x="3849.87" y="-6499.86"/><use xlink:href="#vMW8JwG7aajUQTASkVAJ_pad-12" x="-2540" y="-3919.98"/><use xlink:href="#vMW8JwG7aajUQTASkVAJ_pad-12" x="-3810" y="6459.98"/><use xlink:href="#vMW8JwG7aajUQTASkVAJ_pad-12" x="2540" y="3919.98"/><use xlink:href="#vMW8JwG7aajUQTASkVAJ_pad-13" x="24999.95" y="14999.96"/><use xlink:href="#vMW8JwG7aajUQTASkVAJ_pad-13" x="24999.95" y="12999.97"/><use xlink:href="#vMW8JwG7aajUQTASkVAJ_pad-13" x="24999.95" y="20999.95"/><use xlink:href="#vMW8JwG7aajUQTASkVAJ_pad-13" x="24999.95" y="18999.96"/><use xlink:href="#vMW8JwG7aajUQTASkVAJ_pad-10" x="-38999.92" y="26999.94"/><use xlink:href="#vMW8JwG7aajUQTASkVAJ_pad-10" x="-36999.92" y="26999.94"/><use xlink:href="#vMW8JwG7aajUQTASkVAJ_pad-10" x="-34999.93" y="26999.94"/><use xlink:href="#vMW8JwG7aajUQTASkVAJ_pad-10" x="-32999.93" y="26999.94"/><use xlink:href="#vMW8JwG7aajUQTASkVAJ_pad-10" x="-30999.93" y="26999.94"/><use xlink:href="#vMW8JwG7aajUQTASkVAJ_pad-14" x="-34999.93" y="0"/><use xlink:href="#vMW8JwG7aajUQTASkVAJ_pad-14" x="34999.93" y="0"/><use xlink:href="#vMW8JwG7aajUQTASkVAJ_pad-15" x="34999.93" y="15999.96"/><use xlink:href="#vMW8JwG7aajUQTASkVAJ_pad-15" x="34999.93" y="-15999.96"/><use xlink:href="#vMW8JwG7aajUQTASkVAJ_pad-16" x="-35499.8" y="-15999.96"/><use xlink:href="#vMW8JwG7aajUQTASkVAJ_pad-16" x="-35499.8" y="15999.96"/><use xlink:href="#vMW8JwG7aajUQTASkVAJ_pad-10" x="43999.91" y="-13999.97"/><use xlink:href="#vMW8JwG7aajUQTASkVAJ_pad-17" x="20249.89" y="23499.82"/><use xlink:href="#vMW8JwG7aajUQTASkVAJ_pad-18" x="-22249.89" y="23499.82"/><use xlink:href="#vMW8JwG7aajUQTASkVAJ_pad-19" x="20249.89" y="-20750.02"/><use xlink:href="#vMW8JwG7aajUQTASkVAJ_pad-20" x="-22249.89" y="-20750.02"/></g></svg>