<svg version="1.1" xmlns="http://www.w3.org/2000/svg" xmlns:xlink="http://www.w3.org/1999/xlink" stroke-linecap="round" stroke-linejoin="round" stroke-width="0" fill-rule="evenodd" width="88.71191mm" height="73.23337mm" viewBox="-43912 -45189.8 88711.91 73233.37" id="gGWSXRXJmOoKWPzAB0dU"><defs><circle cx="0" cy="0" r="800" id="gGWSXRXJmOoKWPzAB0dU_pad-11"/><rect x="-800" y="-800" width="1600" height="1600" id="gGWSXRXJmOoKWPzAB0dU_pad-12"/><circle cx="0" cy="0" r="1270" id="gGWSXRXJmOoKWPzAB0dU_pad-13"/><circle cx="0" cy="0" r="762" id="gGWSXRXJmOoKWPzAB0dU_pad-14"/><rect x="-4049.9919" y="-2125.0021" width="8099.9838" height="4250.0042" rx="2125.0021" ry="2125.0021" id="gGWSXRXJmOoKWPzAB0dU_pad-15"/><rect x="-3199.9936" y="-1125.0041" width="6399.9872" height="2250.0082" rx="1125.0041" ry="1125.0041" id="gGWSXRXJmOoKWPzAB0dU_pad-16"/><rect x="-2625.0011" y="-1125.0041" width="5250.0022" height="2250.0082" rx="1125.0041" ry="1125.0041" id="gGWSXRXJmOoKWPzAB0dU_pad-17"/><g id="gGWSXRXJmOoKWPzAB0dU_pad-18"><circle cx="-2249.1" cy="-1001.4" r="2125"/><circle cx="2249.1" cy="1001.4" r="2125"/><polygon points="-1384.75858,-2942.6725 3113.44142,-939.8725 1384.75858,2942.6725 -3113.44142,939.8725"/></g><g id="gGWSXRXJmOoKWPzAB0dU_pad-19"><circle cx="-2249.1" cy="1001.4" r="2125"/><circle cx="2249.1" cy="-1001.4" r="2125"/><polygon points="-3113.44142,-939.8725 1384.75858,-2942.6725 3113.44142,939.8725 -1384.75858,2942.6725"/></g><g id="gGWSXRXJmOoKWPzAB0dU_pad-20"><circle cx="-2336.1" cy="777.1" r="2125"/><circle cx="2336.1" cy="-777.1" r="2125"/><polygon points="-3006.84096,-1239.26593 1665.35904,-2793.46593 3006.84096,1239.26593 -1665.35904,2793.46593"/></g><g id="gGWSXRXJmOoKWPzAB0dU_pad-21"><circle cx="-2336.1" cy="-777.1" r="2125"/><circle cx="2336.1" cy="777.1" r="2125"/><polygon points="-1665.35904,-2793.46593 3006.84096,-1239.26593 1665.35904,2793.46593 -3006.84096,1239.26593"/></g><circle cx="0" cy="0" r="305" id="gGWSXRXJmOoKWPzAB0dU_pad-22"/></defs><g transform="translate(0,-17146.23000000001) scale(1,-1)" fill="currentColor" stroke="currentColor"><path d="M -6610.07 -26610.05 -6610.07 -10751.31 -7859.75 -9501.63 -7859.75 588.77 -30999.91 23728.93 -30999.91 26999.94 M -11690.07 -26610.05 -11690.07 1026.15 -32999.9 22335.99 -32999.9 26999.94 M -14230.07 -26610.05 -14230.07 1515.36 -34999.9 22285.19 -34999.9 26999.94 M -16770.07 -26610.05 -16770.07 1744.97 -36999.9 21974.8 -36999.9 26999.94 M 41999.94 -15999.96 24999.97 999.99 24999.97 12999.97 M 41999.94 -15999.96 43999.93 -15999.96 M 41999.94 -15999.96 41999.94 -23500.07 M 2540.02 3919.98 -2539.97 -1160.01 -2539.97 -3919.98 M 3549.92 -26610.05 3549.92 -24882.6 6912.12 -21520.4 6912.12 -452.12 2540.02 3919.98 M 39530.8 -20422.1 39530.8 -15318.23 M 16281.67 -16915.89 16281.67 9105.39 -2351.5 27738.57 M -1530.07 -44389.8 12451.1 -30408.62 12451.1 -20746.46 16281.67 -16915.89 24502.13 -16915.89 31086.32 -23500.07 37999.94 -23500.07 M -32009.81 -26610.05 -32009.81 -24070.81 -40123.33 -15957.29 -40123.33 -327.65 -41450.99 999.99 -41999.89 999.99 M -29469.81 -26610.05 -29419.77 -26560.01 -29419.77 -424.68 M -26929.81 -26610.05 -28185.84 -25354.02 -28185.84 86.61 -33099.22 4999.98 -41999.89 4999.98 M -42999.88 19499.83 -39729.63 16229.58 -39729.63 13193.52 -26745.41 209.29 -26745.41 -18805.65 M -34549.81 -24882.6 -41999.89 -17432.52 -41999.89 -4999.98 M -42999.88 19499.83 -38999.89 23499.82 -38999.89 26999.94 M -34549.81 -26610.05 -34549.81 -24882.6 M -11690.07 -44389.8 -11690.07 -44015.4 2631.21 -29694.12 7996.45 -29694.12 10369.82 -27320.74 10369.82 8305.29 3090.18 15584.93 M -14230.07 -44389.8 -29160.69 -29459.17 -39378.1 -29459.17 -43785 -25052.27 -43785 16214.59 -42999.88 16999.71 M 1009.92 -26610.05 1009.92 -20036.53 3128.79 -17917.66 3128.79 -7220.96 3849.9 -6499.86 M -3809.97 6459.98 -4829.53 5440.42 -4829.53 -6051.54 -3260.06 -7621.01 -3260.06 -24880.06 -1530.07 -26610.05 M 24999.97 18999.96 24999.97 14999.96 M 24999.97 20999.95 24306.3 20999.95 21530.33 18223.99 21530.33 -11563.6" fill="none" stroke-width="254"/><use xlink:href="#gGWSXRXJmOoKWPzAB0dU_pad-11" x="-39629.84" y="-26610.05"/><use xlink:href="#gGWSXRXJmOoKWPzAB0dU_pad-11" x="-37089.84" y="-26610.05"/><use xlink:href="#gGWSXRXJmOoKWPzAB0dU_pad-12" x="-34549.84" y="-26610.05"/><use xlink:href="#gGWSXRXJmOoKWPzAB0dU_pad-11" x="-32009.84" y="-26610.05"/><use xlink:href="#gGWSXRXJmOoKWPzAB0dU_pad-11" x="-29469.84" y="-26610.05"/><use xlink:href="#gGWSXRXJmOoKWPzAB0dU_pad-11" x="-26929.84" y="-26610.05"/><use xlink:href="#gGWSXRXJmOoKWPzAB0dU_pad-11" x="-24389.84" y="-26610.05"/><use xlink:href="#gGWSXRXJmOoKWPzAB0dU_pad-12" x="-21850.09" y="-26610.05"/><use xlink:href="#gGWSXRXJmOoKWPzAB0dU_pad-11" x="-19310.09" y="-26610.05"/><use xlink:href="#gGWSXRXJmOoKWPzAB0dU_pad-11" x="-16770.09" y="-26610.05"/><use xlink:href="#gGWSXRXJmOoKWPzAB0dU_pad-11" x="8629.9" y="-26610.05"/><use xlink:href="#gGWSXRXJmOoKWPzAB0dU_pad-11" x="6089.9" y="-26610.05"/><use xlink:href="#gGWSXRXJmOoKWPzAB0dU_pad-12" x="3549.9" y="-26610.05"/><use xlink:href="#gGWSXRXJmOoKWPzAB0dU_pad-11" x="1009.9" y="-26610.05"/><use xlink:href="#gGWSXRXJmOoKWPzAB0dU_pad-11" x="-1530.09" y="-26610.05"/><use xlink:href="#gGWSXRXJmOoKWPzAB0dU_pad-11" x="-4070.09" y="-26610.05"/><use xlink:href="#gGWSXRXJmOoKWPzAB0dU_pad-11" x="-6610.09" y="-26610.05"/><use xlink:href="#gGWSXRXJmOoKWPzAB0dU_pad-12" x="-9150.09" y="-26610.05"/><use xlink:href="#gGWSXRXJmOoKWPzAB0dU_pad-11" x="-11690.09" y="-26610.05"/><use xlink:href="#gGWSXRXJmOoKWPzAB0dU_pad-11" x="-14230.09" y="-26610.05"/><use xlink:href="#gGWSXRXJmOoKWPzAB0dU_pad-11" x="-14230.09" y="-44389.8"/><use xlink:href="#gGWSXRXJmOoKWPzAB0dU_pad-11" x="-11690.09" y="-44389.8"/><use xlink:href="#gGWSXRXJmOoKWPzAB0dU_pad-12" x="-9150.09" y="-44389.8"/><use xlink:href="#gGWSXRXJmOoKWPzAB0dU_pad-11" x="-6610.09" y="-44389.8"/><use xlink:href="#gGWSXRXJmOoKWPzAB0dU_pad-11" x="-4070.09" y="-44389.8"/><use xlink:href="#gGWSXRXJmOoKWPzAB0dU_pad-11" x="-1530.09" y="-44389.8"/><use xlink:href="#gGWSXRXJmOoKWPzAB0dU_pad-11" x="1009.9" y="-44389.8"/><use xlink:href="#gGWSXRXJmOoKWPzAB0dU_pad-12" x="3549.9" y="-44389.8"/><use xlink:href="#gGWSXRXJmOoKWPzAB0dU_pad-11" x="6089.9" y="-44389.8"/><use xlink:href="#gGWSXRXJmOoKWPzAB0dU_pad-11" x="8629.9" y="-44389.8"/><use xlink:href="#gGWSXRXJmOoKWPzAB0dU_pad-11" x="-16770.09" y="-44389.8"/><use xlink:href="#gGWSXRXJmOoKWPzAB0dU_pad-11" x="-19310.09" y="-44389.8"/><use xlink:href="#gGWSXRXJmOoKWPzAB0dU_pad-12" x="-21850.09" y="-44389.8"/><use xlink:href="#gGWSXRXJmOoKWPzAB0dU_pad-11" x="-24389.84" y="-44389.8"/><use xlink:href="#gGWSXRXJmOoKWPzAB0dU_pad-11" x="-26929.84" y="-44389.8"/><use xlink:href="#gGWSXRXJmOoKWPzAB0dU_pad-11" x="-29469.84" y="-44389.8"/><use xlink:href="#gGWSXRXJmOoKWPzAB0dU_pad-11" x="-32009.84" y="-44389.8"/><use xlink:href="#gGWSXRXJmOoKWPzAB0dU_pad-12" x="-34549.84" y="-44389.8"/><use xlink:href="#gGWSXRXJmOoKWPzAB0dU_pad-11" x="-37089.84" y="-44389.8"/><use xlink:href="#gGWSXRXJmOoKWPzAB0dU_pad-11" x="-39629.84" y="-44389.8"/><use xlink:href="#gGWSXRXJmOoKWPzAB0dU_pad-11" x="43999.91" y="-15999.96"/><use xlink:href="#gGWSXRXJmOoKWPzAB0dU_pad-11" x="43999.91" y="-17999.96"/><use xlink:href="#gGWSXRXJmOoKWPzAB0dU_pad-11" x="43999.91" y="-19999.95"/><use xlink:href="#gGWSXRXJmOoKWPzAB0dU_pad-11" x="41999.91" y="-23500.07"/><use xlink:href="#gGWSXRXJmOoKWPzAB0dU_pad-11" x="39999.91" y="-23500.07"/><use xlink:href="#gGWSXRXJmOoKWPzAB0dU_pad-11" x="37999.92" y="-23500.07"/><use xlink:href="#gGWSXRXJmOoKWPzAB0dU_pad-11" x="-41999.91" y="999.99"/><use xlink:href="#gGWSXRXJmOoKWPzAB0dU_pad-11" x="-41999.91" y="2999.99"/><use xlink:href="#gGWSXRXJmOoKWPzAB0dU_pad-11" x="-41999.91" y="4999.98"/><use xlink:href="#gGWSXRXJmOoKWPzAB0dU_pad-11" x="-41999.91" y="-999.99"/><use xlink:href="#gGWSXRXJmOoKWPzAB0dU_pad-11" x="-41999.91" y="-2999.99"/><use xlink:href="#gGWSXRXJmOoKWPzAB0dU_pad-11" x="-41999.91" y="-4999.98"/><use xlink:href="#gGWSXRXJmOoKWPzAB0dU_pad-11" x="-42999.91" y="24499.82"/><use xlink:href="#gGWSXRXJmOoKWPzAB0dU_pad-11" x="-42999.91" y="21999.7"/><use xlink:href="#gGWSXRXJmOoKWPzAB0dU_pad-11" x="-42999.91" y="19499.83"/><use xlink:href="#gGWSXRXJmOoKWPzAB0dU_pad-11" x="-42999.91" y="16999.71"/><use xlink:href="#gGWSXRXJmOoKWPzAB0dU_pad-13" x="3849.87" y="-6499.86"/><use xlink:href="#gGWSXRXJmOoKWPzAB0dU_pad-13" x="-2540" y="-3919.98"/><use xlink:href="#gGWSXRXJmOoKWPzAB0dU_pad-13" x="-3810" y="6459.98"/><use xlink:href="#gGWSXRXJmOoKWPzAB0dU_pad-13" x="2540" y="3919.98"/><use xlink:href="#gGWSXRXJmOoKWPzAB0dU_pad-14" x="24999.95" y="14999.96"/><use xlink:href="#gGWSXRXJmOoKWPzAB0dU_pad-14" x="24999.95" y="12999.97"/><use xlink:href="#gGWSXRXJmOoKWPzAB0dU_pad-14" x="24999.95" y="20999.95"/><use xlink:href="#gGWSXRXJmOoKWPzAB0dU_pad-14" x="24999.95" y="18999.96"/><use xlink:href="#gGWSXRXJmOoKWPzAB0dU_pad-11" x="-38999.92" y="26999.94"/><use xlink:href="#gGWSXRXJmOoKWPzAB0dU_pad-11" x="-36999.92" y="26999.94"/><use xlink:href="#gGWSXRXJmOoKWPzAB0dU_pad-11" x="-34999.93" y="26999.94"/><use xlink:href="#gGWSXRXJmOoKWPzAB0dU_pad-11" x="-32999.93" y="26999.94"/><use xlink:href="#gGWSXRXJmOoKWPzAB0dU_pad-11" x="-30999.93" y="26999.94"/><use xlink:href="#gGWSXRXJmOoKWPzAB0dU_pad-15" x="-34999.93" y="0"/><use xlink:href="#gGWSXRXJmOoKWPzAB0dU_pad-15" x="34999.93" y="0"/><use xlink:href="#gGWSXRXJmOoKWPzAB0dU_pad-16" x="34999.93" y="15999.96"/><use xlink:href="#gGWSXRXJmOoKWPzAB0dU_pad-16" x="34999.93" y="-15999.96"/><use xlink:href="#gGWSXRXJmOoKWPzAB0dU_pad-17" x="-35499.8" y="-15999.96"/><use xlink:href="#gGWSXRXJmOoKWPzAB0dU_pad-17" x="-35499.8" y="15999.96"/><use xlink:href="#gGWSXRXJmOoKWPzAB0dU_pad-11" x="43999.91" y="-13999.97"/><use xlink:href="#gGWSXRXJmOoKWPzAB0dU_pad-18" x="20249.89" y="23499.82"/><use xlink:href="#gGWSXRXJmOoKWPzAB0dU_pad-19" x="-22249.89" y="23499.82"/><use xlink:href="#gGWSXRXJmOoKWPzAB0dU_pad-20" x="20249.89" y="-20750.02"/><use xlink:href="#gGWSXRXJmOoKWPzAB0dU_pad-21" x="-22249.89" y="-20750.02"/><use xlink:href="#gGWSXRXJmOoKWPzAB0dU_pad-22" x="39530.78" y="-20422.1"/><use xlink:href="#gGWSXRXJmOoKWPzAB0dU_pad-22" x="39530.78" y="-15318.23"/><use xlink:href="#gGWSXRXJmOoKWPzAB0dU_pad-22" x="-2351.53" y="27738.57"/><use xlink:href="#gGWSXRXJmOoKWPzAB0dU_pad-22" x="-29419.8" y="-424.68"/><use xlink:href="#gGWSXRXJmOoKWPzAB0dU_pad-22" x="-26745.43" y="-18805.65"/><use xlink:href="#gGWSXRXJmOoKWPzAB0dU_pad-22" x="3090.16" y="15584.93"/><use xlink:href="#gGWSXRXJmOoKWPzAB0dU_pad-22" x="21530.31" y="-11563.6"/></g></svg>