<svg version="1.1" xmlns="http://www.w3.org/2000/svg" xmlns:xlink="http://www.w3.org/1999/xlink" stroke-linecap="round" stroke-linejoin="round" stroke-width="0" fill-rule="evenodd" width="84.868mm" height="74.02117999999999mm" viewBox="-41973.5 -48126.9 84868 74021.18" id="syfVRlTHxNFNM4r7GUW2"><g transform="translate(0,-22232.62000000001) scale(1,-1)" fill="currentColor" stroke="currentColor"><path d="M -41554.9 22273.26 -41668.34 21940.52 -41608.24 21940.52 -41563.03 22076.66 -41521.88 22219.92 -41519.34 22219.92 -41432.98 21940.52 -41668.34 21940.52 -41745.4 21714.46 -41681.9 21714.46 -41623.48 21889.72 -41415.2 21889.72 -41359.32 21714.46 -41293.28 21714.46 -41483.78 22273.26"/><path d="M -41554.9 17273.01 -41668.34 16940.27 -41608.24 16940.27 -41563.03 17076.42 -41521.88 17219.67 -41519.34 17219.67 -41432.98 16940.27 -41668.34 16940.27 -41745.4 16714.21 -41681.9 16714.21 -41623.48 16889.47 -41415.2 16889.47 -41359.32 16714.21 -41293.28 16714.21 -41483.78 17273.01"/><path d="M -40643.04 -4697.98 -40695.87 -4703.06 -40744.14 -4717.79 -40787.32 -4742.68 -40823.89 -4775.7 -40853.36 -4817.36 -40875.71 -4867.14 -40889.42 -4924.04 -40894.5 -4987.54 -40889.42 -5051.55 -40876.22 -5108.44 -40854.37 -5158.23 -40824.91 -5199.88 -40788.84 -5232.9 -40746.17 -5257.29 -40698.42 -5272.02 -40645.58 -5277.1 -40592.75 -5272.02 -40546.01 -5258.3 -40506.39 -5238.49 -40475.4 -5213.6 -40475.4 -4982.46 -40655.74 -4982.46 -40655.74 -5033.26 -40533.82 -5033.26 -40533.82 -5185.66 -40554.14 -5200.9 -40580.05 -5212.08 -40609.51 -5218.68 -40640.5 -5221.22 -40721.28 -5204.46 -40781.22 -5157.72 -40818.3 -5084.06 -40831 -4987.54 -40817.29 -4890 -40779.19 -4816.34 -40719.24 -4769.61 -40640.5 -4753.86 -40600.37 -4757.92 -40567.86 -4770.12 -40540.94 -4786.88 -40518.58 -4807.2 -40483.02 -4766.56 -40510.46 -4741.67 -40545.51 -4719.82 -40589.2 -4704.08"/><path d="M -40340.78 -4708.14 -40340.78 -5266.94 -40282.36 -5266.94 -40282.87 -4918.45 -40289.98 -4791.96 -40284.9 -4791.96 -40223.94 -4906.26 -40015.66 -5266.94 -39949.62 -5266.94 -39949.62 -4708.14 -40010.58 -4708.14 -40009.57 -5054.59 -40000.42 -5185.66 -40005.5 -5185.66 -40066.46 -5071.36 -40277.28 -4708.14"/><path d="M -39794.68 -4708.14 -39794.68 -4761.48 -39662.6 -4761.48 -39614.34 -4765.04 -39573.2 -4776.21 -39538.65 -4794.5 -39510.71 -4819.9 -39488.87 -4851.4 -39473.63 -4890 -39464.48 -4934.2 -39461.94 -4985 -39464.48 -5035.8 -39473.63 -5081.01 -39488.87 -5120.64 -39510.71 -5153.66 -39538.65 -5180.58 -39573.2 -5199.88 -39614.34 -5212.08 -39662.6 -5216.14 -39731.18 -5216.14 -39731.18 -4761.48 -39794.68 -4761.48 -39794.68 -5266.94 -39654.98 -5266.94 -39594.53 -5261.86 -39542.72 -5247.13 -39498.01 -5223.76 -39461.44 -5191.76 -39432.99 -5151.12 -39412.16 -5102.85 -39399.97 -5047.48 -39395.9 -4985 -39399.97 -4922.51 -39412.16 -4867.65 -39432.99 -4820.41 -39461.94 -4780.78 -39498.52 -4749.29 -39543.73 -4726.43 -39596.56 -4712.71 -39657.52 -4708.14"/><path d="M -41692.57 19752.05 -41745.91 19746.97 -41794.17 19732.24 -41837.35 19707.35 -41873.93 19674.33 -41903.39 19632.67 -41925.74 19582.89 -41939.46 19525.99 -41944.54 19462.49 -41939.46 19398.48 -41926.25 19341.59 -41904.41 19291.8 -41874.94 19250.15 -41838.87 19217.13 -41796.2 19193.25 -41748.45 19178.01 -41695.62 19172.93 -41642.79 19178.01 -41596.05 19191.73 -41556.43 19211.54 -41525.44 19236.43 -41525.44 19467.57 -41705.78 19467.57 -41705.78 19416.77 -41583.86 19416.77 -41583.86 19264.37 -41604.18 19249.64 -41630.09 19238.46 -41659.55 19231.35 -41690.54 19228.81 -41771.31 19245.57 -41831.26 19292.31 -41868.34 19365.97 -41881.04 19462.49 -41867.32 19560.54 -41829.22 19633.69 -41769.28 19680.42 -41690.54 19696.17 -41650.41 19692.11 -41617.9 19680.42 -41590.97 19663.15 -41568.62 19642.83 -41532.55 19683.47 -41560.49 19708.36 -41595.54 19730.21 -41639.23 19745.96"/><path d="M -41390.31 19741.89 -41390.31 19183.09 -41331.89 19183.09 -41332.91 19531.58 -41340.02 19658.07 -41334.94 19658.07 -41273.47 19543.77 -41065.7 19183.09 -40999.15 19183.09 -40999.15 19741.89 -41060.62 19741.89 -41059.6 19395.43 -41049.95 19264.37 -41055.54 19264.37 -41115.99 19378.67 -41326.81 19741.89"/><path d="M -40844.21 19741.89 -40844.21 19688.55 -40712.13 19688.55 -40664.38 19685 -40623.23 19673.82 -40588.69 19655.53 -40560.75 19630.13 -40538.9 19598.64 -40523.66 19560.03 -40514.52 19515.83 -40511.47 19465.03 -40514.52 19414.74 -40523.66 19369.02 -40538.9 19329.39 -40560.75 19296.38 -40588.69 19269.96 -40623.23 19250.15 -40664.38 19238.46 -40712.13 19233.89 -40780.71 19233.89 -40780.71 19688.55 -40844.21 19688.55 -40844.21 19183.09 -40705.02 19183.09 -40644.57 19188.17 -40592.24 19202.9 -40548.05 19226.27 -40511.47 19258.78 -40483.02 19298.92 -40462.2 19347.18 -40450 19403.06 -40445.94 19465.03 -40450 19527.52 -40462.2 19582.38 -40483.02 19630.13 -40511.47 19669.25 -40548.56 19700.74 -40593.77 19723.6 -40646.6 19737.32 -40707.05 19741.89"/><path d="M 26357.07 4302.25 26303.73 4297.17 26255.47 4281.93 26212.8 4257.54 26176.22 4224.01 26146.25 4182.36 26124.4 4133.08 26110.18 4076.19 26105.61 4012.69 26110.18 3948.17 26123.9 3891.28 26145.74 3841.49 26174.7 3800.34 26210.76 3767.32 26253.44 3742.94 26301.7 3728.21 26354.53 3723.13 26407.36 3728.21 26454.1 3741.42 26493.21 3761.74 26524.71 3786.63 26524.71 4017.77 26344.37 4017.77 26344.37 3966.97 26466.29 3966.97 26466.29 3814.57 26445.46 3799.33 26419.55 3788.15 26390.09 3781.04 26359.61 3779.01 26278.33 3795.26 26218.38 3842.51 26181.81 3916.17 26169.11 4012.69 26182.32 4110.22 26220.42 4183.88 26280.36 4230.11 26359.61 4246.37 26399.23 4241.8 26431.74 4230.11 26458.67 4212.84 26481.53 4193.03 26517.09 4233.67 26489.15 4258.05 26454.1 4280.4 26410.41 4296.15"/><path d="M 26659.33 4292.09 26659.33 3733.29 26717.75 3733.29 26716.73 4081.27 26710.13 4208.27 26715.21 4208.27 26776.17 4093.97 26984.45 3733.29 27050.49 3733.29 27050.49 4292.09 26989.53 4292.09 26990.54 3945.63 26999.69 3814.57 26994.61 3814.57 26933.65 3928.87 26722.83 4292.09"/><path d="M 27205.43 4292.09 27205.43 4238.75 27337.51 4238.75 27385.26 4234.68 27426.92 4223.51 27461.46 4205.22 27489.4 4180.33 27510.74 4148.32 27525.98 4110.22 27535.12 4065.52 27538.17 4015.23 27535.12 3964.43 27525.98 3919.22 27510.74 3879.59 27489.4 3846.06 27461.46 3819.65 27426.92 3800.34 27385.26 3788.15 27337.51 3784.09 27268.93 3784.09 27268.93 4238.75 27205.43 4238.75 27205.43 3733.29 27345.13 3733.29 27405.07 3738.37 27457.4 3752.59 27502.1 3775.96 27538.68 3808.47 27567.12 3849.11 27587.44 3897.37 27600.14 3952.74 27604.21 4015.23 27600.14 4077.2 27587.44 4132.58 27567.12 4179.82 27538.17 4219.44 27501.08 4250.43 27456.38 4273.29 27403.55 4287.51 27342.59 4292.09"/><path d="M 42645.58 -15723.1 42592.75 -15728.18 42546.01 -15741.39 42506.39 -15761.71 42475.4 -15786.6 42475.4 -16017.74 42655.74 -16017.74 42655.74 -15966.94 42533.82 -15966.94 42533.82 -15814.54 42554.14 -15799.3 42580.05 -15788.13 42609.51 -15781.02 42640.5 -15778.98 42721.27 -15795.24 42781.22 -15842.48 42818.3 -15916.14 42831 -16012.66 42817.28 -16110.2 42779.18 -16183.86 42719.24 -16230.09 42640.5 -16246.34 42600.37 -16241.77 42567.86 -16230.09 42540.93 -16212.82 42518.58 -16193 42483.02 -16233.64 42510.45 -16258.03 42545.5 -16280.38 42589.19 -16296.13 42643.04 -16302.22 42695.87 -16297.14 42744.13 -16281.9 42787.31 -16257.52 42823.89 -16223.99 42853.35 -16182.34 42875.7 -16133.06 42889.42 -16076.16 42894.5 -16012.66 42889.42 -15948.15 42876.21 -15891.25 42854.37 -15841.47 42824.9 -15800.32 42788.84 -15767.3 42746.16 -15742.92 42698.41 -15728.18"/><path d="M 41949.62 -15733.26 41949.62 -16292.06 42010.58 -16292.06 42009.56 -15945.61 42000.42 -15814.54 42005.5 -15814.54 42066.46 -15928.84 42277.28 -16292.06 42340.78 -16292.06 42340.78 -15733.26 42282.36 -15733.26 42282.87 -16081.24 42289.98 -16208.24 42284.9 -16208.24 42223.94 -16093.94 42015.66 -15733.26"/><path d="M 41654.98 -15733.26 41594.53 -15738.34 41542.71 -15752.57 41498.01 -15775.94 41461.43 -15808.45 41432.98 -15849.09 41412.15 -15897.35 41399.96 -15952.72 41395.9 -16015.2 41461.94 -16015.2 41464.48 -15964.4 41473.62 -15919.19 41488.86 -15879.57 41510.71 -15846.04 41538.65 -15819.62 41573.19 -15800.32 41614.34 -15788.13 41662.6 -15784.06 41731.18 -15784.06 41731.18 -16238.72 41662.6 -16238.72 41614.34 -16234.66 41573.19 -16223.48 41538.65 -16205.2 41510.71 -16180.3 41488.86 -16148.3 41473.62 -16110.2 41464.48 -16065.5 41461.94 -16015.2 41395.9 -16015.2 41399.96 -16077.18 41412.15 -16132.55 41432.98 -16179.8 41461.94 -16219.42 41498.51 -16250.41 41543.73 -16273.27 41596.56 -16287.49 41657.52 -16292.06 41794.68 -16292.06 41794.68 -15733.26"/><path d="M 41984.67 -21995.38 41922.7 -21999.95 41867.32 -22012.14 41820.08 -22032.97 41780.46 -22061.42 41749.47 -22098.5 41726.61 -22143.21 41712.38 -22196.55 41707.81 -22257 41707.81 -22330.66 41761.15 -22330.66 41761.15 -22262.08 41765.22 -22214.33 41776.39 -22173.18 41794.68 -22138.64 41819.57 -22110.7 41851.58 -22088.85 41889.68 -22073.61 41934.38 -22064.47 41984.67 -22061.42 42035.47 -22064.47 42080.68 -22073.61 42120.31 -22088.85 42153.84 -22110.7 42180.25 -22138.64 42199.56 -22173.18 42211.75 -22214.33 42215.81 -22262.08 42215.81 -22330.66 41707.81 -22330.66 41707.81 -22394.16 42266.61 -22394.16 42266.61 -22254.46 42261.53 -22194.52 42247.31 -22142.19 42223.94 -22098 42191.43 -22061.42 42150.79 -22032.46 42102.53 -22012.14 42047.16 -21999.95"/><path d="M 41707.81 -22549.1 41707.81 -22610.06 42054.27 -22609.55 42185.33 -22599.9 42185.33 -22604.98 42071.03 -22665.94 41707.81 -22876.76 41707.81 -22940.26 42266.61 -22940.26 42266.61 -22881.84 41918.63 -22882.86 41791.63 -22889.46 41791.63 -22884.38 41905.93 -22823.42 42266.61 -22615.14 42266.61 -22549.1"/><path d="M 41982.13 -23074.88 41982.13 -23255.22 42032.93 -23255.22 42032.93 -23133.3 42185.33 -23133.3 42200.57 -23154.13 42211.75 -23180.04 42218.86 -23209.5 42220.89 -23239.98 42204.64 -23321.26 42157.39 -23381.2 42083.73 -23418.29 41987.21 -23430.48 41889.68 -23417.27 41816.01 -23379.17 41769.79 -23319.23 41753.53 -23239.98 41758.1 -23200.36 41769.79 -23167.84 41787.06 -23140.92 41806.87 -23118.06 41766.23 -23082.5 41741.85 -23110.44 41719.5 -23145.49 41703.75 -23189.18 41697.65 -23242.52 41702.73 -23295.86 41717.97 -23344.12 41742.36 -23386.79 41775.88 -23423.88 41817.54 -23453.34 41866.82 -23475.69 41923.71 -23489.41 41987.21 -23493.98 42051.73 -23489.41 42108.62 -23476.2 42158.41 -23454.36 42199.56 -23424.89 42232.58 -23388.82 42256.96 -23346.15 42271.69 -23298.4 42276.77 -23245.06 42271.69 -23192.74 42258.48 -23146 42238.16 -23106.38 42213.27 -23074.88"/><path d="M 40285.41 -22893.02 39726.61 -23083.52 39726.61 -23121.62 39779.95 -23121.62 39779.95 -23119.08 40059.35 -23032.72 40059.35 -23207.98 39923.21 -23162.76 39779.95 -23121.62 39726.61 -23121.62 39726.61 -23154.64 40285.41 -23345.14 40285.41 -23281.64 40110.15 -23223.22 40110.15 -23014.94 40285.41 -22959.06"/><path d="M 42529.76 -19727.67 42444.41 -19738.34 42377.86 -19769.32 42334.18 -19821.14 42318.94 -19892.77 42379.9 -19892.77 42391.07 -19841.97 42422.57 -19806.41 42473.37 -19785.58 42539.92 -19778.47 42641.52 -19778.47 42641.52 -19999.45 42539.92 -19999.45 42471.84 -19993.35 42422.06 -19974.05 42390.56 -19940.52 42379.9 -19892.77 42318.94 -19892.77 42327.57 -19944.07 42351.45 -19982.68 42388.53 -20009.61 42435.78 -20024.85 42435.78 -20029.93 42400.22 -20047.2 42373.8 -20074.63 42357.54 -20109.18 42353.02 -20141.69 42415.46 -20141.69 42423.58 -20102.57 42447.97 -20073.11 42491.66 -20054.31 42555.16 -20047.71 42641.52 -20047.71 42641.52 -20235.67 42552.62 -20235.67 42492.67 -20230.59 42450 -20214.33 42424.09 -20185.38 42415.46 -20141.69 42353.02 -20141.69 42351.96 -20149.31 42365.67 -20211.79 42404.28 -20253.96 42464.22 -20278.85 42542.46 -20286.47 42705.02 -20286.47 42705.02 -19727.67"/><path d="M 42641.52 -17761.71 42641.52 -17985.23 42547.54 -17985.23 42462.7 -17995.89 42398.18 -18027.9 42356.53 -18081.75 42341.8 -18157.95 42405.3 -18157.95 42414.44 -18104.1 42442.38 -18067.02 42489.12 -18045.68 42555.16 -18038.57 42641.52 -18038.57 42641.52 -18267.17 42557.7 -18267.17 42491.15 -18262.09 42443.4 -18244.31 42414.95 -18210.27 42405.3 -18157.95 42341.8 -18157.95 42356.53 -18233.64 42398.18 -18282.92 42463.72 -18309.84 42550.08 -18317.97 42705.02 -18317.97 42705.02 -17761.71"/><path d="M -40431.72 5384.8 -40482.01 5361.94 -40511.98 5353.3 -40546.01 5346.7 -40546.01 5306.06 -40446.96 5306.06 -40446.96 4876.8 -40571.42 4876.8 -40571.42 4826 -40271.7 4826 -40271.7 4876.8 -40386 4876.8 -40386 5384.8"/><path d="M -40446.96 3362.96 -40494.71 3356.86 -40536.87 3340.1 -40574.46 3313.68 -40609.51 3279.14 -40573.96 3246.12 -40548.05 3271.52 -40519.09 3292.34 -40488.1 3307.08 -40454.58 3312.16 -40406.82 3303.01 -40373.8 3278.63 -40353.99 3241.54 -40347.9 3195.32 -40351.45 3158.23 -40363.14 3119.62 -40382.44 3078.98 -40409.36 3035.8 -40444.92 2989.58 -40489.12 2940.81 -40542.46 2887.98 -40604.44 2832.1 -40604.44 2794 -40261.54 2794 -40261.54 2847.34 -40443.4 2846.83 -40513 2842.26 -40463.72 2890.01 -40420.03 2936.74 -40381.42 2982.46 -40348.4 3026.66 -40322.5 3070.35 -40303.19 3113.53 -40291 3155.69 -40286.94 3197.86 -40298.11 3265.42 -40329.61 3317.74 -40380.41 3351.27"/><path d="M -40441.87 1330.96 -40487.09 1325.88 -40527.73 1311.14 -40564.3 1290.32 -40596.82 1264.92 -40561.26 1224.28 -40536.36 1245.61 -40508.42 1262.88 -40477.44 1274.57 -40444.42 1280.16 -40403.78 1272.03 -40373.29 1253.23 -40354.5 1224.28 -40347.9 1186.18 -40356.02 1143.5 -40382.95 1108.45 -40431.72 1085.59 -40505.37 1076.96 -40505.37 1028.7 -40423.08 1020.06 -40367.71 996.18 -40337.23 959.1 -40327.58 911.86 -40336.21 867.15 -40360.09 832.61 -40397.17 810.26 -40444.42 802.64 -40489.63 808.22 -40527.73 823.46 -40558.72 844.29 -40584.12 868.68 -40617.14 828.04 -40586.65 800.1 -40548.05 775.71 -40499.79 758.44 -40439.34 751.84 -40371.26 763.01 -40315.38 794.51 -40277.79 845.31 -40264.08 911.86 -40273.22 964.18 -40299.13 1005.84 -40336.72 1036.32 -40383.46 1054.1 -40383.46 1056.64 -40343.32 1076.45 -40311.83 1105.91 -40291.51 1144.01 -40284.4 1191.26 -40296.08 1250.69 -40329.1 1294.38 -40378.88 1321.81"/><path d="M -40388.54 -711.2 -40618.15 -1064.26 -40558.72 -1064.26 -40424.1 -866.14 -40380.92 -784.86 -40375.84 -784.86 -40380.92 -883.92 -40380.92 -1064.26 -40618.15 -1064.26 -40624.76 -1074.42 -40624.76 -1115.06 -40380.92 -1115.06 -40380.92 -1270 -40322.5 -1270 -40322.5 -1115.06 -40246.29 -1115.06 -40246.29 -1064.26 -40322.5 -1064.26 -40322.5 -711.2"/><path d="M -40556.18 -2743.2 -40573.96 -3002.28 -40538.4 -3025.14 -40516.04 -3010.4 -40494.2 -3000.24 -40470.83 -2994.15 -40444.42 -2992.12 -40395.65 -3000.75 -40358.06 -3026.66 -40333.67 -3068.32 -40325.04 -3124.2 -40334.69 -3181.09 -40361.1 -3224.27 -40400.22 -3251.7 -40446.96 -3261.36 -40493.18 -3256.28 -40531.28 -3242.05 -40561.76 -3221.73 -40586.65 -3197.86 -40619.68 -3238.5 -40588.18 -3264.91 -40550.08 -3288.79 -40501.82 -3305.55 -40441.87 -3312.16 -40375.33 -3299.46 -40317.42 -3262.88 -40276.78 -3202.94 -40261.54 -3121.66 -40274.74 -3041.39 -40310.81 -2986.02 -40364.15 -2954.02 -40429.18 -2943.86 -40454.07 -2945.38 -40476.42 -2949.44 -40496.23 -2956.56 -40515.54 -2966.72 -40500.29 -2796.54 -40289.48 -2796.54 -40289.48 -2743.2"/><path d="M 4257.04 3802.38 4204.2 3796.79 4155.43 3782.06 4112.76 3757.67 4076.19 3724.14 4046.22 3682.49 4024.37 3632.7 4010.15 3576.32 4005.58 3512.82 4010.15 3448.3 4023.86 3391.4 4045.71 3341.62 4074.66 3299.96 4111.24 3266.94 4153.4 3243.07 4201.66 3228.34 4254.5 3223.26 4307.33 3227.83 4354.06 3241.54 4393.69 3261.86 4424.68 3286.76 4424.68 3517.9 4244.34 3517.9 4244.34 3467.1 4366.26 3467.1 4366.26 3314.7 4345.93 3299.46 4319.52 3288.28 4290.06 3281.17 4259.58 3279.14 4178.3 3295.39 4118.86 3342.64 4081.78 3416.3 4069.08 3512.82 4082.28 3610.35 4120.38 3683.5 4180.33 3730.24 4259.58 3746.5 4299.2 3741.92 4332.22 3730.24 4359.14 3712.97 4381.5 3693.16 4417.06 3733.8 4389.12 3758.18 4354.06 3780.02 4310.88 3796.28"/><path d="M 4559.3 3792.22 4559.3 3233.42 4617.72 3233.42 4616.7 3581.4 4610.09 3708.4 4615.18 3708.4 4676.14 3594.1 4884.42 3233.42 4950.46 3233.42 4950.46 3792.22 4889.5 3792.22 4890.51 3445.76 4899.66 3314.7 4894.58 3314.7 4833.62 3429 4622.8 3792.22"/><path d="M 5105.4 3792.22 5105.4 3738.88 5237.48 3738.88 5285.74 3734.81 5326.88 3723.64 5361.43 3705.35 5389.37 3680.46 5410.7 3648.45 5425.94 3609.84 5435.09 3565.65 5438.14 3515.36 5435.09 3464.56 5425.94 3418.84 5410.7 3379.72 5389.37 3346.19 5361.43 3319.78 5326.88 3299.96 5285.74 3288.28 5237.48 3284.22 5168.9 3284.22 5168.9 3738.88 5105.4 3738.88 5105.4 3233.42 5245.1 3233.42 5305.04 3237.99 5357.36 3252.72 5402.07 3276.09 5438.64 3308.6 5467.09 3348.73 5487.92 3396.99 5500.11 3452.87 5504.18 3515.36 5500.11 3577.33 5487.41 3632.2 5467.09 3679.95 5438.14 3719.06 5401.05 3750.56 5356.35 3773.42 5303.52 3787.14 5242.56 3792.22"/><path d="M 5466.08 -5631.18 5397.5 -5642.35 5342.63 -5673.34 5306.56 -5720.08 5293.36 -5778.5 5304.02 -5831.84 5330.44 -5871.46 5367.52 -5899.91 5407.66 -5920.74 5526.02 -5973.06 5555.99 -5992.87 5575.8 -6019.29 5582.92 -6057.9 5574.79 -6097.52 5550.91 -6128 5512.3 -6147.3 5461 -6154.42 5417.82 -6149.34 5375.65 -6135.11 5337.04 -6112.25 5303.52 -6083.3 5265.42 -6126.48 5305.04 -6161.02 5350.76 -6187.44 5403.08 -6204.2 5461 -6210.3 5538.21 -6198.1 5596.63 -6164.58 5633.72 -6114.79 5646.42 -6052.82 5637.78 -5999.48 5613.4 -5958.84 5576.82 -5928.86 5532.12 -5905.5 5417.82 -5855.2 5387.84 -5836.92 5365.49 -5810.5 5356.86 -5773.42 5364.98 -5737.35 5387.84 -5709.92 5422.39 -5692.64 5466.08 -5687.06 5504.18 -5691.12 5537.7 -5702.3 5568.18 -5719.06 5595.62 -5740.4 5628.64 -5699.76 5596.63 -5672.83 5558.02 -5650.99 5514.34 -5636.26"/><path d="M 5872.48 -5631.18 5824.72 -5636.76 5783.07 -5654.04 5745.98 -5680.45 5712.46 -5715 5748.02 -5748.02 5773.92 -5722.62 5801.86 -5701.28 5833.36 -5687.06 5867.4 -5681.98 5913.62 -5690.61 5946.14 -5715.5 5965.44 -5752.59 5971.54 -5798.82 5967.98 -5835.39 5956.8 -5874.51 5937.5 -5915.15 5910.07 -5958.33 5874.51 -6004.56 5830.31 -6053.32 5776.97 -6105.65 5715 -6162.04 5715 -6200.14 6060.44 -6200.14 6060.44 -6146.8 5878.57 -6147.3 5808.98 -6151.88 5858.25 -6103.62 5901.94 -6057.39 5940.04 -6011.67 5972.04 -5967.47 5997.95 -5923.78 6016.75 -5880.6 6028.43 -5837.93 6032.5 -5796.28 6021.32 -5728.71 5989.82 -5676.39 5939.53 -5642.86"/><path d="M -4034.53 4401.82 -4069.08 4362.19 -4095.49 4316.47 -4112.26 4265.16 -4118.35 4208.78 -4106.16 4130.04 -4072.63 4071.11 -4022.85 4033.52 -3960.87 4020.82 -3907.53 4029.45 -3866.89 4054.34 -3836.92 4091.43 -3813.55 4137.66 -3763.26 4249.42 -3743.96 4279.39 -3717.54 4301.74 -3681.47 4310.38 -3645.4 4302.25 -3617.97 4280.4 -3600.7 4245.86 -3595.11 4201.16 -3598.67 4163.56 -3609.34 4130.04 -3626.1 4100.06 -3648.45 4074.16 -3607.81 4038.6 -3580.89 4070.6 -3559.04 4109.21 -3544.31 4152.9 -3539.23 4201.16 -3549.9 4269.74 -3580.38 4324.6 -3627.12 4360.67 -3686.55 4373.88 -3739.89 4363.21 -3779.52 4336.79 -3807.96 4299.71 -3828.79 4259.58 -3881.12 4143.24 -3900.42 4112.26 -3927.34 4091.94 -3965.95 4084.32 -4005.58 4092.44 -4036.06 4116.32 -4055.36 4154.93 -4062.47 4206.24 -4057.39 4250.94 -4042.66 4292.59 -4020.31 4330.19 -3991.35 4363.72"/><path d="M -4108.19 3919.22 -4108.19 3619.5 -4057.39 3619.5 -4057.39 3733.8 -3549.39 3733.8 -3549.39 3779.52 -3572.25 3829.81 -3587.49 3893.82 -3628.13 3893.82 -3628.13 3794.76 -4057.39 3794.76 -4057.39 3919.22"/><path d="M -2626.36 -4836.16 -2690.36 -4840.73 -2747.77 -4854.44 -2797.04 -4876.8 -2838.7 -4906.26 -2871.72 -4942.84 -2896.1 -4985 -2910.84 -5032.75 -2915.92 -5085.08 -2910.84 -5138.92 -2897.63 -5185.66 -2877.31 -5224.27 -2852.42 -5255.26 -2618.74 -5255.26 -2618.74 -5077.46 -2672.08 -5077.46 -2672.08 -5196.84 -2824.48 -5196.84 -2839.72 -5176.51 -2850.89 -5151.62 -2857.5 -5122.67 -2860.04 -5092.7 -2843.78 -5011.42 -2796.54 -4951.98 -2722.88 -4914.9 -2626.36 -4902.2 -2528.82 -4915.4 -2455.16 -4953.5 -2408.93 -5013.45 -2392.67 -5092.7 -2397.25 -5131.3 -2408.93 -5164.32 -2425.7 -5191.76 -2446.02 -5214.62 -2405.38 -5250.18 -2380.48 -5221.73 -2358.64 -5186.17 -2342.89 -5142.48 -2336.79 -5090.16 -2341.88 -5036.82 -2357.12 -4988.56 -2381.5 -4944.87 -2415.03 -4907.78 -2456.68 -4877.81 -2505.96 -4854.95 -2562.86 -4841.24"/><path d="M -2905.76 -5389.88 -2905.76 -5450.84 -2557.78 -5449.82 -2430.78 -5443.22 -2430.78 -5445.76 -2545.08 -5506.72 -2905.76 -5717.54 -2905.76 -5783.58 -2346.96 -5783.58 -2346.96 -5722.62 -2693.41 -5723.63 -2824.48 -5730.24 -2824.48 -5727.7 -2710.18 -5666.74 -2346.96 -5455.92 -2346.96 -5389.88"/><path d="M -2905.76 -5938.52 -2905.76 -6002.02 -2400.29 -6002.02 -2400.29 -6070.6 -2403.85 -6117.84 -2415.03 -6158.99 -2433.32 -6193.02 -2458.71 -6221.47 -2490.72 -6243.32 -2528.82 -6259.06 -2573.52 -6268.21 -2623.82 -6271.26 -2674.62 -6268.21 -2719.83 -6259.06 -2759.45 -6243.32 -2792.47 -6221.47 -2819.4 -6193.02 -2838.7 -6158.99 -2850.89 -6117.84 -2854.96 -6070.6 -2854.96 -6002.02 -2905.76 -6002.02 -2905.76 -6078.22 -2900.68 -6137.14 -2886.45 -6188.96 -2862.58 -6233.16 -2830.57 -6269.22 -2789.93 -6297.67 -2741.67 -6317.99 -2686.3 -6330.69 -2623.82 -6334.76 -2561.84 -6330.69 -2506.47 -6317.99 -2459.22 -6297.67 -2419.6 -6269.22 -2388.1 -6232.65 -2365.75 -6187.94 -2351.53 -6135.62 -2346.96 -6075.68 -2346.96 -5938.52"/><path d="M 38080.18 -22319.48 38026.84 -22328.63 37985.19 -22354.54 37955.72 -22392.13 37937.94 -22438.86 37932.86 -22438.86 37913.05 -22398.73 37883.59 -22367.24 37845.49 -22346.92 37798.24 -22339.8 37739.32 -22351.49 37696.64 -22384.51 37670.23 -22434.29 37661.08 -22497.28 37666.16 -22542.5 37679.88 -22583.14 37699.69 -22619.71 37724.58 -22652.22 37765.22 -22616.66 37744.4 -22591.77 37727.12 -22563.83 37714.93 -22532.84 37709.34 -22499.82 37717.47 -22459.18 37736.27 -22428.7 37765.73 -22409.91 37803.32 -22403.3 37846.5 -22411.43 37881.05 -22438.36 37904.42 -22487.12 37912.54 -22560.78 37960.8 -22560.78 37969.44 -22478.49 37993.82 -22423.12 38030.4 -22392.64 38077.64 -22382.98 38122.86 -22391.62 38157.4 -22415.5 38179.24 -22452.58 38186.86 -22499.82 38181.28 -22545.04 38166.54 -22582.12 38145.21 -22613.11 38120.82 -22639.52 38161.46 -22672.54 38189.4 -22642.06 38213.79 -22603.46 38231.06 -22555.2 38237.66 -22494.74 38227 -22426.67 38196.01 -22370.79 38146.73 -22333.2"/><path d="M 37671.24 -22695.4 37671.24 -22758.9 38115.74 -22893.02 38161.46 -22908.76 38161.46 -22911.3 37978.58 -22964.64 37671.24 -23058.62 37671.24 -23124.66 38227.5 -22946.86 38227.5 -22873.2"/><path d="M 38080.18 -23170.38 38026.84 -23179.53 37985.19 -23205.44 37955.72 -23243.03 37937.94 -23289.76 37932.86 -23289.76 37913.05 -23249.63 37883.59 -23218.14 37845.49 -23197.82 37798.24 -23190.7 37739.32 -23202.39 37696.64 -23234.9 37670.23 -23285.19 37661.08 -23348.18 37666.16 -23392.89 37679.88 -23433.02 37699.69 -23469.6 37724.58 -23503.12 37765.22 -23467.56 37744.4 -23442.67 37727.12 -23414.73 37714.93 -23383.74 37709.34 -23350.72 37717.47 -23310.08 37736.27 -23279.6 37765.73 -23260.81 37803.32 -23254.2 37846.5 -23261.82 37881.05 -23287.73 37904.42 -23335.48 37912.54 -23409.14 37960.8 -23409.14 37969.44 -23327.36 37993.82 -23273 38030.4 -23243.03 38077.64 -23233.88 38122.86 -23242.52 38157.4 -23266.4 38179.24 -23303.48 38186.86 -23350.72 38181.28 -23395.94 38166.54 -23433.02 38145.21 -23464.01 38120.82 -23490.42 38161.46 -23523.44 38189.4 -23492.96 38213.79 -23453.34 38231.06 -23405.08 38237.66 -23345.64 38227 -23277.57 38196.01 -23221.69 38146.73 -23184.1"/><path d="M -41798.24 24788.87 -41843.45 24783.79 -41883.58 24770.58 -41919.65 24750.26 -41953.18 24725.37 -41917.62 24684.73 -41893.23 24706.07 -41864.78 24722.83 -41834.3 24735.02 -41800.78 24740.61 -41760.14 24732.48 -41729.65 24713.69 -41710.86 24684.22 -41704.26 24646.63 -41711.87 24603.96 -41737.78 24568.91 -41785.54 24546.05 -41859.2 24537.41 -41859.2 24489.15 -41777.41 24480.52 -41723.05 24456.13 -41693.08 24419.56 -41683.94 24372.31 -41692.57 24327.1 -41716.45 24293.06 -41753.53 24270.71 -41800.78 24263.09 -41845.99 24268.68 -41883.07 24283.41 -41914.06 24304.75 -41940.48 24329.13 -41973.5 24288.49 -41943.01 24260.55 -41903.9 24236.17 -41855.13 24218.9 -41795.7 24212.29 -41727.62 24222.96 -41671.74 24253.95 -41634.15 24303.22 -41620.44 24369.77 -41630.09 24423.11 -41655.49 24464.77 -41693.59 24494.23 -41739.82 24512.01 -41739.82 24517.09 -41699.68 24536.9 -41668.19 24566.37 -41647.87 24604.47 -41640.76 24651.71 -41652.44 24710.64 -41685.46 24753.31 -41735.24 24779.73"/><path d="M -40947.34 24788.87 -40992.55 24783.79 -41033.19 24770.58 -41069.76 24750.26 -41102.28 24725.37 -41066.72 24684.73 -41042.33 24706.07 -41013.88 24722.83 -40983.4 24735.02 -40949.87 24740.61 -40909.24 24732.48 -40878.76 24713.69 -40859.96 24684.22 -40853.36 24646.63 -40861.48 24603.96 -40888.41 24568.91 -40937.18 24546.05 -41010.84 24537.41 -41010.84 24489.15 -40928.54 24480.52 -40873.17 24456.13 -40842.69 24419.56 -40833.04 24372.31 -40841.67 24327.1 -40865.55 24293.06 -40902.63 24270.71 -40949.87 24263.09 -40995.09 24268.68 -41032.17 24283.41 -41063.16 24304.75 -41089.58 24329.13 -41122.6 24288.49 -41092.12 24260.55 -41053.51 24236.17 -41005.25 24218.9 -40944.79 24212.29 -40876.72 24222.96 -40820.84 24253.95 -40783.25 24303.22 -40769.54 24369.77 -40779.19 24423.11 -40804.59 24464.77 -40842.69 24494.23 -40888.92 24512.01 -40888.92 24517.09 -40848.78 24536.9 -40817.29 24566.37 -40796.97 24604.47 -40789.86 24651.71 -40801.54 24710.64 -40834.56 24753.31 -40884.34 24779.73"/><path d="M -41574.72 24778.71 -41396.92 24222.45 -41323.26 24222.45 -41145.46 24778.71 -41208.96 24778.71 -41358.82 24288.49 -41361.36 24288.49 -41414.7 24471.37 -41508.68 24778.71"/><path d="M -38987.47 25894.28 -39051.48 25889.71 -39108.37 25876.5 -39158.16 25854.66 -39199.82 25825.19 -39232.84 25789.12 -39257.22 25746.45 -39271.95 25698.7 -39277.03 25645.36 -39271.95 25593.04 -39258.24 25546.3 -39238.42 25506.68 -39213.53 25475.18 -38982.39 25475.18 -38982.39 25655.52 -39033.19 25655.52 -39033.19 25533.6 -39185.59 25533.6 -39200.83 25554.43 -39212.01 25580.34 -39218.61 25609.8 -39221.15 25640.28 -39204.39 25721.56 -39157.65 25781.5 -39083.99 25818.08 -38987.47 25830.78 -38889.94 25817.57 -38816.28 25779.47 -38769.54 25719.53 -38753.79 25640.28 -38757.86 25600.66 -38770.05 25568.14 -38786.81 25541.22 -38807.13 25518.36 -38766.49 25482.8 -38741.6 25510.74 -38719.76 25545.79 -38704.01 25589.48 -38697.91 25642.82 -38702.99 25696.16 -38717.72 25744.42 -38742.62 25787.09 -38775.64 25824.18 -38817.29 25853.64 -38867.08 25875.99 -38923.97 25889.71"/><path d="M -39266.87 25340.56 -39266.87 25282.14 -38918.38 25283.16 -38791.89 25289.76 -38791.89 25284.68 -38906.19 25223.72 -39266.87 25015.44 -39266.87 24949.4 -38708.07 24949.4 -38708.07 25010.36 -39054.53 25009.85 -39185.59 25000.2 -39185.59 25005.28 -39071.29 25066.24 -38708.07 25277.06 -38708.07 25340.56"/><path d="M -39266.87 24794.46 -39266.87 24730.96 -38761.41 24730.96 -38761.41 24662.38 -38764.97 24614.63 -38776.14 24573.48 -38794.43 24538.94 -38819.83 24511 -38851.33 24489.15 -38889.94 24473.91 -38934.13 24464.77 -38984.93 24461.72 -39035.73 24464.77 -39080.94 24473.91 -39120.57 24489.15 -39153.59 24511 -39180.51 24538.94 -39199.82 24573.48 -39212.01 24614.63 -39216.07 24662.38 -39216.07 24730.96 -39266.87 24730.96 -39266.87 24654.76 -39261.79 24594.82 -39247.06 24542.49 -39223.69 24498.3 -39191.69 24461.72 -39151.05 24432.76 -39102.79 24412.44 -39047.42 24399.74 -38984.93 24395.68 -38922.45 24399.74 -38867.58 24412.44 -38820.34 24433.27 -38780.72 24461.72 -38749.22 24498.8 -38726.36 24543.51 -38712.64 24596.85 -38708.07 24657.3 -38708.07 24794.46"/><path d="M -37142.92 25768.8 -37142.92 25703.27 -37094.66 25703.27 -36874.7 25556.97 -36812.72 25522.93 -36812.72 25519.88 -36911.78 25522.93 -37094.66 25522.93 -37094.66 25703.27 -37142.92 25703.27 -37142.92 25522.93 -37297.86 25522.93 -37297.86 25464.51 -37142.92 25464.51 -37142.92 25387.8 -37094.66 25387.8 -37094.66 25464.51 -36741.6 25464.51 -36741.6 25530.04 -37102.28 25768.8"/><path d="M -35232.84 25728.67 -35260.78 25697.68 -35285.17 25658.57 -35302.44 25609.8 -35309.04 25550.36 -35298.37 25482.29 -35267.39 25426.92 -35218.11 25389.33 -35151.56 25375.1 -35097.72 25384.76 -35055.55 25410.16 -35024.56 25448.26 -35006.78 25494.99 -35004.24 25494.99 -34984.43 25454.86 -34954.97 25423.36 -34916.87 25403.04 -34869.62 25395.93 -34810.7 25407.62 -34767.51 25440.13 -34741.61 25489.91 -34732.46 25553.41 -34737.54 25598.62 -34750.75 25639.26 -34771.07 25675.84 -34795.96 25708.35 -34836.6 25672.28 -34815.27 25647.9 -34798 25619.96 -34786.31 25588.97 -34780.72 25555.44 -34788.85 25514.8 -34807.65 25484.83 -34836.6 25465.53 -34874.7 25459.43 -34917.37 25467.56 -34951.92 25493.98 -34975.29 25541.73 -34983.92 25613.86 -35032.18 25613.86 -35040.82 25532.08 -35064.7 25477.72 -35101.78 25448.26 -35149.02 25438.6 -35193.73 25447.24 -35228.27 25471.62 -35250.62 25508.71 -35258.24 25555.44 -35252.65 25600.66 -35237.42 25637.74 -35216.59 25668.73 -35192.2 25695.65"/><path d="M -32812.22 25687.52 -32847.78 25651.96 -32821.37 25626.06 -32800.54 25597.1 -32786.82 25566.11 -32781.74 25533.09 -32790.38 25486.36 -32814.26 25452.83 -32850.32 25433.02 -32896.04 25426.41 -32933.13 25429.97 -32972.24 25441.65 -33013.39 25461.46 -33057.08 25488.9 -33103.31 25524.96 -33153.09 25569.67 -33205.42 25623.01 -33261.8 25685.49 -33299.9 25685.49 -33299.9 25339.54 -33246.56 25339.54 -33247.58 25568.14 -33249.1 25591.51 -33156.14 25498.04 -33110.93 25459.43 -33066.73 25426.92 -33022.54 25400.5 -32979.36 25381.2 -32936.18 25369.52 -32893.5 25364.94 -32826.45 25376.12 -32775.14 25408.12 -32742.63 25458.42 -32730.94 25524.96 -32737.04 25574.75 -32753.29 25616.91 -32779.2 25654"/><path d="M -31298.38 25618.94 -31298.38 25319.73 -31247.58 25319.73 -31247.58 25431.49 -30742.12 25431.49 -30742.12 25479.75 -30754.32 25502.1 -30772.6 25558.49 -30780.22 25591.51 -30820.86 25591.51 -30820.86 25494.99 -31247.58 25494.99 -31247.58 25618.94"/><path d="M 28636.46 5291.32 28585.16 5282.18 28548.58 5255.26 28526.74 5213.09 28519.62 5156.7 28519.62 5085.58 28463.74 5083.04 28463.74 5034.78 28519.62 5034.78 28519.62 4674.1 28583.12 4674.1 28583.12 5034.78 28672.02 5034.78 28672.02 5085.58 28583.12 5085.58 28583.12 5156.7 28587.19 5192.26 28598.36 5218.68 28617.67 5234.93 28644.08 5240.52 28665.93 5236.97 28689.8 5227.82 28702.5 5276.08 28672.53 5287.26"/><path d="M 27099.76 5281.16 27099.76 5118.6 27102.3 5047.48 27075.89 5067.8 27048.96 5083.04 27018.99 5092.19 26985.46 5095.74 26916.88 5080.5 26858.97 5037.32 26819.86 4969.25 26805.12 4879.84 26871.16 4879.84 26880.82 4945.88 26906.72 4997.19 26946.35 5030.72 26995.62 5042.4 27021.53 5039.86 27046.93 5032.24 27072.33 5018.53 27099.76 4999.22 27099.76 4775.7 27073.35 4750.3 27045.92 4732.01 27017.47 4720.84 26988 4717.28 26937.71 4728.46 26901.14 4760.46 26878.78 4811.26 26871.16 4879.84 26805.12 4879.84 26817.32 4788.4 26851.35 4720.33 26904.69 4678.17 26975.3 4663.94 27011.88 4668.51 27045.41 4681.72 27075.89 4701.54 27102.3 4724.9 27104.84 4724.9 27109.92 4674.1 27160.72 4674.1 27160.72 5281.16"/><path d="M 30168.08 5281.16 30168.08 4750.3 30172.15 4713.22 30184.34 4686.3 30205.68 4669.53 30236.66 4663.94 30258.51 4665.47 30272.22 4669.02 30264.6 4717.28 30255.97 4714.74 30242.25 4716.78 30236.66 4722.36 30233.11 4732.01 30231.58 4745.22 30231.58 5281.16"/><path d="M 26662.88 5258.3 26645.61 5255.26 26631.9 5247.64 26622.75 5234.43 26619.7 5217.66 26622.75 5198.87 26631.9 5185.66 26645.61 5177.02 26662.88 5174.48 26680.66 5177.02 26693.87 5185.66 26703.02 5198.87 26706.06 5217.66 26703.02 5234.43 26693.87 5247.64 26680.66 5255.26"/><path d="M 28339.28 5258.3 28320.49 5255.26 28306.26 5247.64 28297.12 5234.43 28293.56 5217.66 28297.12 5198.87 28306.26 5185.66 28320.49 5177.02 28339.28 5174.48 28355.54 5177.02 28368.24 5185.66 28376.88 5198.87 28379.92 5217.66 28376.88 5234.43 28368.24 5247.64 28355.54 5255.26"/><path d="M 29995.36 5258.3 29978.09 5255.26 29964.38 5247.64 29955.23 5234.43 29952.18 5217.66 29955.23 5198.87 29964.38 5185.66 29978.09 5177.02 29995.36 5174.48 30013.14 5177.02 30026.35 5185.66 30035.5 5198.87 30038.54 5217.66 30035.5 5234.43 30026.35 5247.64 30013.14 5255.26"/><path d="M 25852.62 5232.9 25852.62 5182.1 26005.02 5182.1 26063.95 5177.02 26107.13 5160.77 26133.55 5131.81 26142.18 5088.12 26134.56 5048.5 26109.16 5018.02 26064.97 4998.21 25999.94 4991.6 25916.12 4991.6 25916.12 5182.1 25852.62 5182.1 25852.62 4943.34 26015.18 4943.34 26083.26 4937.25 26133.55 4917.94 26164.54 4885.43 26175.2 4839.2 26164.03 4787.9 26132.53 4752.34 26082.24 4731.51 26015.18 4724.9 25916.12 4724.9 25916.12 4943.34 25852.62 4943.34 25852.62 4674.1 26025.34 4674.1 26110.69 4684.26 26177.74 4714.24 26220.92 4765.04 26236.16 4836.66 26228.04 4887.97 26204.67 4927.59 26167.58 4955.54 26119.32 4971.28 26119.32 4973.82 26154.88 4992.62 26181.3 5020.56 26197.56 5055.61 26203.14 5095.74 26189.43 5157.72 26150.82 5200.39 26090.88 5224.78 26012.64 5232.9"/><path d="M 29058.1 5232.9 29035.24 5220.2 28979.36 5201.41 28946.34 5194.8 28946.34 5154.16 29042.86 5154.16 29042.86 4724.9 28918.4 4724.9 28918.4 4674.1 29218.12 4674.1 29218.12 4724.9 29106.36 4724.9 29106.36 5232.9"/><path d="M 29464.5 5232.9 29464.5 5179.56 29632.14 5179.56 29632.14 4674.1 29698.18 4674.1 29698.18 5179.56 29868.36 5179.56 29868.36 5232.9"/><path d="M 30401.76 5202.42 30394.14 5085.58 30330.64 5083.04 30330.64 5034.78 30394.14 5034.78 30394.14 4798.56 30399.73 4743.19 30417.51 4700.52 30452.06 4673.59 30505.9 4663.94 30542.99 4668.51 30579.56 4679.18 30566.86 4727.44 30544 4718.3 30518.6 4714.74 30488.63 4720.33 30468.82 4736.08 30458.15 4761.99 30455.1 4796.02 30455.1 5034.78 30569.4 5034.78 30569.4 5085.58 30455.1 5085.58 30455.1 5202.42"/><path d="M 26518.1 5095.74 26484.58 5089.65 26453.08 5072.38 26425.14 5045.45 26401.26 5009.38 26398.72 5009.38 26393.64 5085.58 26342.84 5085.58 26342.84 4674.1 26403.8 4674.1 26403.8 4943.34 26428.19 4988.56 26455.11 5018.02 26483.05 5034.78 26510.48 5039.86 26530.8 5037.83 26548.58 5032.24 26561.28 5088.12 26541.47 5093.71"/><path d="M 27440.12 5095.74 27382.21 5085.08 27333.44 5055.61 27300.42 5009.89 27287.72 4950.96 27348.68 4950.96 27355.8 4992.11 27375.61 5023.1 27404.56 5042.91 27440.12 5050.02 27476.19 5042.91 27506.16 5023.1 27526.48 4992.11 27534.1 4950.96 27526.48 4907.78 27506.16 4874.76 27476.19 4853.93 27440.12 4846.82 27405.58 4853.93 27376.62 4874.76 27356.3 4907.78 27348.68 4950.96 27287.72 4950.96 27292.8 4914.9 27305 4883.4 27322.27 4858 27341.06 4839.2 27341.06 4836.66 27325.32 4822.95 27310.58 4805.17 27299.92 4783.83 27295.34 4760.46 27298.39 4737.6 27307.03 4718.3 27319.22 4703.06 27333.44 4691.88 27333.44 4689.34 27308.04 4668.51 27288.74 4644.64 27276.55 4619.24 27274.05 4602.98 27328.36 4602.98 27330.9 4620.76 27338.52 4639.56 27352.24 4658.86 27371.54 4676.64 27401.01 4671.06 27424.88 4669.02 27501.08 4669.02 27538.17 4666.48 27565.09 4657.34 27581.86 4641.08 27587.44 4615.68 27577.79 4582.66 27550.36 4554.22 27507.18 4534.4 27450.28 4526.78 27398.98 4531.86 27360.88 4546.59 27337 4570.47 27328.36 4602.98 27274.05 4602.98 27272.48 4592.82 27284.68 4546.59 27319.73 4512.56 27373.07 4490.72 27442.66 4483.6 27527.5 4494.78 27592.52 4525.77 27633.67 4570.47 27648.4 4623.3 27639.26 4667.5 27612.84 4698.49 27568.14 4716.27 27506.16 4722.36 27422.34 4722.36 27387.8 4725.41 27365.96 4734.56 27354.78 4749.29 27351.22 4768.08 27353.26 4784.85 27359.35 4798.06 27376.62 4818.88 27408.63 4807.2 27440.12 4803.64 27499.05 4813.8 27546.8 4843.78 27578.3 4889.5 27589.98 4948.42 27587.44 4975.35 27579.82 4999.22 27568.65 5020.05 27554.42 5037.32 27640.78 5037.32 27640.78 5085.58 27498.54 5085.58 27472.13 5092.7"/><path d="M 27869.38 5095.74 27801.31 5081.01 27742.89 5038.34 27701.74 4970.27 27692.07 4912.86 27747.46 4912.86 27761.69 4968.74 27789.63 5010.4 27827.73 5035.8 27871.92 5044.94 27916.63 5036.31 27950.16 5011.42 27971.49 4969.76 27978.6 4912.86 27692.07 4912.86 27686.5 4879.84 27701.74 4789.42 27743.4 4721.35 27805.38 4678.68 27882.08 4663.94 27921.71 4667.5 27957.27 4676.64 27988.76 4690.87 28016.7 4707.12 27993.84 4747.76 27970.48 4734.05 27945.58 4723.38 27919.17 4716.78 27889.7 4714.74 27832.81 4725.41 27789.12 4756.4 27760.16 4804.66 27747.46 4867.14 28029.4 4867.14 28031.94 4883.91 28031.94 4902.7 28021.28 4982.97 27989.78 5043.93 27938.98 5082.54"/><path d="M 26632.4 5085.58 26632.4 4674.1 26693.36 4674.1 26693.36 5085.58"/><path d="M 28306.26 5085.58 28306.26 4674.1 28369.76 4674.1 28369.76 5085.58"/><path d="M 29964.88 5085.58 29964.88 4674.1 30025.84 4674.1 30025.84 5085.58"/><path d="M 26179.27 12270.74 26179.27 12217.4 26349.45 12217.4 26349.45 11711.94 26412.95 11711.94 26412.95 12217.4 26583.13 12217.4 26583.13 12270.74"/><path d="M 26814.27 12270.74 26763.98 12247.88 26734 12239.24 26699.97 12232.64 26699.97 12192 26799.03 12192 26799.03 11762.74 26674.57 11762.74 26674.57 11711.94 26974.29 11711.94 26974.29 11762.74 26859.99 11762.74 26859.99 12270.74"/><path d="M 10499.97 -26999.94 10499.97 -47999.9 M -40499.91 -47999.9 10499.97 -47999.9 M -40499.91 -26999.94 -40499.91 -47999.9 M -40499.91 -26999.94 10499.97 -26999.94 M 11799.95 -33500.05 11799.95 -41500.04 5799.96 -41500.04 5799.96 -33500.05 11799.95 -33500.05" fill="none" stroke-width="254"/></g></svg>