<svg version="1.1" xmlns="http://www.w3.org/2000/svg" xmlns:xlink="http://www.w3.org/1999/xlink" stroke-linecap="round" stroke-linejoin="round" stroke-width="0" fill-rule="evenodd" width="88.69616mm" height="73.23337mm" viewBox="-43896.25 -45189.8 88696.16 73233.37" id="xQC2v4cmfL5CQpBPCFMW"><defs><circle cx="0" cy="0" r="800" id="xQC2v4cmfL5CQpBPCFMW_pad-11"/><rect x="-800" y="-800" width="1600" height="1600" id="xQC2v4cmfL5CQpBPCFMW_pad-12"/><circle cx="0" cy="0" r="1270" id="xQC2v4cmfL5CQpBPCFMW_pad-13"/><circle cx="0" cy="0" r="762" id="xQC2v4cmfL5CQpBPCFMW_pad-14"/><rect x="-4049.9919" y="-2125.0021" width="8099.9838" height="4250.0042" rx="2125.0021" ry="2125.0021" id="xQC2v4cmfL5CQpBPCFMW_pad-15"/><rect x="-3199.9936" y="-1125.0041" width="6399.9872" height="2250.0082" rx="1125.0041" ry="1125.0041" id="xQC2v4cmfL5CQpBPCFMW_pad-16"/><rect x="-2625.0011" y="-1125.0041" width="5250.0022" height="2250.0082" rx="1125.0041" ry="1125.0041" id="xQC2v4cmfL5CQpBPCFMW_pad-17"/><g id="xQC2v4cmfL5CQpBPCFMW_pad-18"><circle cx="-2249.1" cy="-1001.4" r="2125"/><circle cx="2249.1" cy="1001.4" r="2125"/><polygon points="-1384.75858,-2942.6725 3113.44142,-939.8725 1384.75858,2942.6725 -3113.44142,939.8725"/></g><g id="xQC2v4cmfL5CQpBPCFMW_pad-19"><circle cx="-2249.1" cy="1001.4" r="2125"/><circle cx="2249.1" cy="-1001.4" r="2125"/><polygon points="-3113.44142,-939.8725 1384.75858,-2942.6725 3113.44142,939.8725 -1384.75858,2942.6725"/></g><g id="xQC2v4cmfL5CQpBPCFMW_pad-20"><circle cx="-2336.1" cy="777.1" r="2125"/><circle cx="2336.1" cy="-777.1" r="2125"/><polygon points="-3006.84096,-1239.26593 1665.35904,-2793.46593 3006.84096,1239.26593 -1665.35904,2793.46593"/></g><g id="xQC2v4cmfL5CQpBPCFMW_pad-21"><circle cx="-2336.1" cy="-777.1" r="2125"/><circle cx="2336.1" cy="777.1" r="2125"/><polygon points="-1665.35904,-2793.46593 3006.84096,-1239.26593 1665.35904,2793.46593 -3006.84096,1239.26593"/></g><circle cx="0" cy="0" r="305" id="xQC2v4cmfL5CQpBPCFMW_pad-22"/></defs><g transform="translate(0,-17146.23000000001) scale(1,-1)" fill="currentColor" stroke="currentColor"><path d="M 24999.97 12999.97 15919.98 3919.98 2540.02 3919.98 M 8629.92 -26610.05 8629.92 -23379.43 16269.74 -15739.61 27158.72 -15739.61 29554.44 -18135.34 43864.55 -18135.34 43999.93 -17999.96 M 6089.92 -26610.05 6089.92 -24377.9 16594.09 -13873.73 38086.3 -13873.73 39530.8 -15318.23 M 43999.93 -13999.97 40849.06 -13999.97 39530.8 -15318.23 M 39530.8 -20422.1 43577.78 -20422.1 43999.93 -19999.95 M -6610.07 -44389.8 12430.78 -25348.94 12430.78 -21094.95 16726.94 -16798.79 25178.53 -16798.79 28775.43 -20395.69 37477.97 -20395.69 39999.94 -22917.65 39999.94 -23500.07 M -42999.88 24499.82 -30659.04 24499.82 -27420.29 27738.57 -2351.5 27738.57 M -29419.77 -424.68 -29419.77 880.61 -31674.53 3135.37 -41864.5 3135.37 -41999.89 2999.99 M -41999.89 -999.99 -41457.09 -999.99 -40255.67 -2201.41 -40255.67 -23444.2 -37089.81 -26610.05 M -39629.81 -26610.05 -43769.25 -22470.61 -43769.25 -4103.11 -42666.13 -2999.99 -41999.89 -2999.99 M -34549.81 -26610.05 -26745.41 -18805.65 M -42999.88 21999.7 -29863.77 21999.7 -23449 15584.93 3090.18 15584.93 M 21530.33 -11563.6 10976.38 -11563.6 -4070.07 -26610.05" fill="none" stroke-width="254"/><use xlink:href="#xQC2v4cmfL5CQpBPCFMW_pad-11" x="-39629.84" y="-26610.05"/><use xlink:href="#xQC2v4cmfL5CQpBPCFMW_pad-11" x="-37089.84" y="-26610.05"/><use xlink:href="#xQC2v4cmfL5CQpBPCFMW_pad-12" x="-34549.84" y="-26610.05"/><use xlink:href="#xQC2v4cmfL5CQpBPCFMW_pad-11" x="-32009.84" y="-26610.05"/><use xlink:href="#xQC2v4cmfL5CQpBPCFMW_pad-11" x="-29469.84" y="-26610.05"/><use xlink:href="#xQC2v4cmfL5CQpBPCFMW_pad-11" x="-26929.84" y="-26610.05"/><use xlink:href="#xQC2v4cmfL5CQpBPCFMW_pad-11" x="-24389.84" y="-26610.05"/><use xlink:href="#xQC2v4cmfL5CQpBPCFMW_pad-12" x="-21850.09" y="-26610.05"/><use xlink:href="#xQC2v4cmfL5CQpBPCFMW_pad-11" x="-19310.09" y="-26610.05"/><use xlink:href="#xQC2v4cmfL5CQpBPCFMW_pad-11" x="-16770.09" y="-26610.05"/><use xlink:href="#xQC2v4cmfL5CQpBPCFMW_pad-11" x="8629.9" y="-26610.05"/><use xlink:href="#xQC2v4cmfL5CQpBPCFMW_pad-11" x="6089.9" y="-26610.05"/><use xlink:href="#xQC2v4cmfL5CQpBPCFMW_pad-12" x="3549.9" y="-26610.05"/><use xlink:href="#xQC2v4cmfL5CQpBPCFMW_pad-11" x="1009.9" y="-26610.05"/><use xlink:href="#xQC2v4cmfL5CQpBPCFMW_pad-11" x="-1530.09" y="-26610.05"/><use xlink:href="#xQC2v4cmfL5CQpBPCFMW_pad-11" x="-4070.09" y="-26610.05"/><use xlink:href="#xQC2v4cmfL5CQpBPCFMW_pad-11" x="-6610.09" y="-26610.05"/><use xlink:href="#xQC2v4cmfL5CQpBPCFMW_pad-12" x="-9150.09" y="-26610.05"/><use xlink:href="#xQC2v4cmfL5CQpBPCFMW_pad-11" x="-11690.09" y="-26610.05"/><use xlink:href="#xQC2v4cmfL5CQpBPCFMW_pad-11" x="-14230.09" y="-26610.05"/><use xlink:href="#xQC2v4cmfL5CQpBPCFMW_pad-11" x="-14230.09" y="-44389.8"/><use xlink:href="#xQC2v4cmfL5CQpBPCFMW_pad-11" x="-11690.09" y="-44389.8"/><use xlink:href="#xQC2v4cmfL5CQpBPCFMW_pad-12" x="-9150.09" y="-44389.8"/><use xlink:href="#xQC2v4cmfL5CQpBPCFMW_pad-11" x="-6610.09" y="-44389.8"/><use xlink:href="#xQC2v4cmfL5CQpBPCFMW_pad-11" x="-4070.09" y="-44389.8"/><use xlink:href="#xQC2v4cmfL5CQpBPCFMW_pad-11" x="-1530.09" y="-44389.8"/><use xlink:href="#xQC2v4cmfL5CQpBPCFMW_pad-11" x="1009.9" y="-44389.8"/><use xlink:href="#xQC2v4cmfL5CQpBPCFMW_pad-12" x="3549.9" y="-44389.8"/><use xlink:href="#xQC2v4cmfL5CQpBPCFMW_pad-11" x="6089.9" y="-44389.8"/><use xlink:href="#xQC2v4cmfL5CQpBPCFMW_pad-11" x="8629.9" y="-44389.8"/><use xlink:href="#xQC2v4cmfL5CQpBPCFMW_pad-11" x="-16770.09" y="-44389.8"/><use xlink:href="#xQC2v4cmfL5CQpBPCFMW_pad-11" x="-19310.09" y="-44389.8"/><use xlink:href="#xQC2v4cmfL5CQpBPCFMW_pad-12" x="-21850.09" y="-44389.8"/><use xlink:href="#xQC2v4cmfL5CQpBPCFMW_pad-11" x="-24389.84" y="-44389.8"/><use xlink:href="#xQC2v4cmfL5CQpBPCFMW_pad-11" x="-26929.84" y="-44389.8"/><use xlink:href="#xQC2v4cmfL5CQpBPCFMW_pad-11" x="-29469.84" y="-44389.8"/><use xlink:href="#xQC2v4cmfL5CQpBPCFMW_pad-11" x="-32009.84" y="-44389.8"/><use xlink:href="#xQC2v4cmfL5CQpBPCFMW_pad-12" x="-34549.84" y="-44389.8"/><use xlink:href="#xQC2v4cmfL5CQpBPCFMW_pad-11" x="-37089.84" y="-44389.8"/><use xlink:href="#xQC2v4cmfL5CQpBPCFMW_pad-11" x="-39629.84" y="-44389.8"/><use xlink:href="#xQC2v4cmfL5CQpBPCFMW_pad-11" x="43999.91" y="-15999.96"/><use xlink:href="#xQC2v4cmfL5CQpBPCFMW_pad-11" x="43999.91" y="-17999.96"/><use xlink:href="#xQC2v4cmfL5CQpBPCFMW_pad-11" x="43999.91" y="-19999.95"/><use xlink:href="#xQC2v4cmfL5CQpBPCFMW_pad-11" x="41999.91" y="-23500.07"/><use xlink:href="#xQC2v4cmfL5CQpBPCFMW_pad-11" x="39999.91" y="-23500.07"/><use xlink:href="#xQC2v4cmfL5CQpBPCFMW_pad-11" x="37999.92" y="-23500.07"/><use xlink:href="#xQC2v4cmfL5CQpBPCFMW_pad-11" x="-41999.91" y="999.99"/><use xlink:href="#xQC2v4cmfL5CQpBPCFMW_pad-11" x="-41999.91" y="2999.99"/><use xlink:href="#xQC2v4cmfL5CQpBPCFMW_pad-11" x="-41999.91" y="4999.98"/><use xlink:href="#xQC2v4cmfL5CQpBPCFMW_pad-11" x="-41999.91" y="-999.99"/><use xlink:href="#xQC2v4cmfL5CQpBPCFMW_pad-11" x="-41999.91" y="-2999.99"/><use xlink:href="#xQC2v4cmfL5CQpBPCFMW_pad-11" x="-41999.91" y="-4999.98"/><use xlink:href="#xQC2v4cmfL5CQpBPCFMW_pad-11" x="-42999.91" y="24499.82"/><use xlink:href="#xQC2v4cmfL5CQpBPCFMW_pad-11" x="-42999.91" y="21999.7"/><use xlink:href="#xQC2v4cmfL5CQpBPCFMW_pad-11" x="-42999.91" y="19499.83"/><use xlink:href="#xQC2v4cmfL5CQpBPCFMW_pad-11" x="-42999.91" y="16999.71"/><use xlink:href="#xQC2v4cmfL5CQpBPCFMW_pad-13" x="3849.87" y="-6499.86"/><use xlink:href="#xQC2v4cmfL5CQpBPCFMW_pad-13" x="-2540" y="-3919.98"/><use xlink:href="#xQC2v4cmfL5CQpBPCFMW_pad-13" x="-3810" y="6459.98"/><use xlink:href="#xQC2v4cmfL5CQpBPCFMW_pad-13" x="2540" y="3919.98"/><use xlink:href="#xQC2v4cmfL5CQpBPCFMW_pad-14" x="24999.95" y="14999.96"/><use xlink:href="#xQC2v4cmfL5CQpBPCFMW_pad-14" x="24999.95" y="12999.97"/><use xlink:href="#xQC2v4cmfL5CQpBPCFMW_pad-14" x="24999.95" y="20999.95"/><use xlink:href="#xQC2v4cmfL5CQpBPCFMW_pad-14" x="24999.95" y="18999.96"/><use xlink:href="#xQC2v4cmfL5CQpBPCFMW_pad-11" x="-38999.92" y="26999.94"/><use xlink:href="#xQC2v4cmfL5CQpBPCFMW_pad-11" x="-36999.92" y="26999.94"/><use xlink:href="#xQC2v4cmfL5CQpBPCFMW_pad-11" x="-34999.93" y="26999.94"/><use xlink:href="#xQC2v4cmfL5CQpBPCFMW_pad-11" x="-32999.93" y="26999.94"/><use xlink:href="#xQC2v4cmfL5CQpBPCFMW_pad-11" x="-30999.93" y="26999.94"/><use xlink:href="#xQC2v4cmfL5CQpBPCFMW_pad-15" x="-34999.93" y="0"/><use xlink:href="#xQC2v4cmfL5CQpBPCFMW_pad-15" x="34999.93" y="0"/><use xlink:href="#xQC2v4cmfL5CQpBPCFMW_pad-16" x="34999.93" y="15999.96"/><use xlink:href="#xQC2v4cmfL5CQpBPCFMW_pad-16" x="34999.93" y="-15999.96"/><use xlink:href="#xQC2v4cmfL5CQpBPCFMW_pad-17" x="-35499.8" y="-15999.96"/><use xlink:href="#xQC2v4cmfL5CQpBPCFMW_pad-17" x="-35499.8" y="15999.96"/><use xlink:href="#xQC2v4cmfL5CQpBPCFMW_pad-11" x="43999.91" y="-13999.97"/><use xlink:href="#xQC2v4cmfL5CQpBPCFMW_pad-18" x="20249.89" y="23499.82"/><use xlink:href="#xQC2v4cmfL5CQpBPCFMW_pad-19" x="-22249.89" y="23499.82"/><use xlink:href="#xQC2v4cmfL5CQpBPCFMW_pad-20" x="20249.89" y="-20750.02"/><use xlink:href="#xQC2v4cmfL5CQpBPCFMW_pad-21" x="-22249.89" y="-20750.02"/><use xlink:href="#xQC2v4cmfL5CQpBPCFMW_pad-22" x="39530.78" y="-20422.1"/><use xlink:href="#xQC2v4cmfL5CQpBPCFMW_pad-22" x="39530.78" y="-15318.23"/><use xlink:href="#xQC2v4cmfL5CQpBPCFMW_pad-22" x="-2351.53" y="27738.57"/><use xlink:href="#xQC2v4cmfL5CQpBPCFMW_pad-22" x="-29419.8" y="-424.68"/><use xlink:href="#xQC2v4cmfL5CQpBPCFMW_pad-22" x="-26745.43" y="-18805.65"/><use xlink:href="#xQC2v4cmfL5CQpBPCFMW_pad-22" x="3090.16" y="15584.93"/><use xlink:href="#xQC2v4cmfL5CQpBPCFMW_pad-22" x="21530.31" y="-11563.6"/></g></svg>