<svg version="1.1" xmlns="http://www.w3.org/2000/svg" xmlns:xlink="http://www.w3.org/1999/xlink" stroke-linecap="round" stroke-linejoin="round" stroke-width="0" fill-rule="evenodd" width="88.59982000000001mm" height="74.98973mm" viewBox="-43799.91 -47189.79 88599.82 74989.73" id="O8QN1zsBN2TBUpawm9sT"><defs><circle cx="0" cy="0" r="800" id="O8QN1zsBN2TBUpawm9sT_pad-10"/><rect x="-800" y="-800" width="1600" height="1600" id="O8QN1zsBN2TBUpawm9sT_pad-11"/><circle cx="0" cy="0" r="1270" id="O8QN1zsBN2TBUpawm9sT_pad-12"/><circle cx="0" cy="0" r="762" id="O8QN1zsBN2TBUpawm9sT_pad-13"/><rect x="-4049.9919" y="-2125.0021" width="8099.9838" height="4250.0042" rx="2125.0021" ry="2125.0021" id="O8QN1zsBN2TBUpawm9sT_pad-14"/><rect x="-3199.9936" y="-1125.0041" width="6399.9872" height="2250.0082" rx="1125.0041" ry="1125.0041" id="O8QN1zsBN2TBUpawm9sT_pad-15"/><rect x="-2625.0011" y="-1125.0041" width="5250.0022" height="2250.0082" rx="1125.0041" ry="1125.0041" id="O8QN1zsBN2TBUpawm9sT_pad-16"/><g id="O8QN1zsBN2TBUpawm9sT_pad-17"><circle cx="-2249.1" cy="-1001.4" r="2125"/><circle cx="2249.1" cy="1001.4" r="2125"/><polygon points="-1384.75858,-2942.6725 3113.44142,-939.8725 1384.75858,2942.6725 -3113.44142,939.8725"/></g><g id="O8QN1zsBN2TBUpawm9sT_pad-18"><circle cx="-2249.1" cy="1001.4" r="2125"/><circle cx="2249.1" cy="-1001.4" r="2125"/><polygon points="-3113.44142,-939.8725 1384.75858,-2942.6725 3113.44142,939.8725 -1384.75858,2942.6725"/></g><g id="O8QN1zsBN2TBUpawm9sT_pad-19"><circle cx="-2336.1" cy="777.1" r="2125"/><circle cx="2336.1" cy="-777.1" r="2125"/><polygon points="-3006.84096,-1239.26593 1665.35904,-2793.46593 3006.84096,1239.26593 -1665.35904,2793.46593"/></g><g id="O8QN1zsBN2TBUpawm9sT_pad-20"><circle cx="-2336.1" cy="-777.1" r="2125"/><circle cx="2336.1" cy="777.1" r="2125"/><polygon points="-1665.35904,-2793.46593 3006.84096,-1239.26593 1665.35904,2793.46593 -3006.84096,1239.26593"/></g></defs><g transform="translate(0,-19389.850000000006) scale(1,-1)" fill="currentColor" stroke="currentColor"><use xlink:href="#O8QN1zsBN2TBUpawm9sT_pad-10" x="-39129.84" y="-28610.05"/><use xlink:href="#O8QN1zsBN2TBUpawm9sT_pad-10" x="-36589.84" y="-28610.05"/><use xlink:href="#O8QN1zsBN2TBUpawm9sT_pad-11" x="-34049.84" y="-28610.05"/><use xlink:href="#O8QN1zsBN2TBUpawm9sT_pad-10" x="-31509.84" y="-28610.05"/><use xlink:href="#O8QN1zsBN2TBUpawm9sT_pad-10" x="-28969.84" y="-28610.05"/><use xlink:href="#O8QN1zsBN2TBUpawm9sT_pad-10" x="-26429.84" y="-28610.05"/><use xlink:href="#O8QN1zsBN2TBUpawm9sT_pad-10" x="-23889.84" y="-28610.05"/><use xlink:href="#O8QN1zsBN2TBUpawm9sT_pad-11" x="-21350.09" y="-28610.05"/><use xlink:href="#O8QN1zsBN2TBUpawm9sT_pad-10" x="-18810.09" y="-28610.05"/><use xlink:href="#O8QN1zsBN2TBUpawm9sT_pad-10" x="-16270.09" y="-28610.05"/><use xlink:href="#O8QN1zsBN2TBUpawm9sT_pad-10" x="9129.9" y="-28610.05"/><use xlink:href="#O8QN1zsBN2TBUpawm9sT_pad-10" x="6589.9" y="-28610.05"/><use xlink:href="#O8QN1zsBN2TBUpawm9sT_pad-11" x="4049.9" y="-28610.05"/><use xlink:href="#O8QN1zsBN2TBUpawm9sT_pad-10" x="1509.9" y="-28610.05"/><use xlink:href="#O8QN1zsBN2TBUpawm9sT_pad-10" x="-1030.09" y="-28610.05"/><use xlink:href="#O8QN1zsBN2TBUpawm9sT_pad-10" x="-3570.09" y="-28610.05"/><use xlink:href="#O8QN1zsBN2TBUpawm9sT_pad-10" x="-6110.09" y="-28610.05"/><use xlink:href="#O8QN1zsBN2TBUpawm9sT_pad-11" x="-8650.09" y="-28610.05"/><use xlink:href="#O8QN1zsBN2TBUpawm9sT_pad-10" x="-11190.09" y="-28610.05"/><use xlink:href="#O8QN1zsBN2TBUpawm9sT_pad-10" x="-13730.09" y="-28610.05"/><use xlink:href="#O8QN1zsBN2TBUpawm9sT_pad-10" x="-13730.09" y="-46389.79"/><use xlink:href="#O8QN1zsBN2TBUpawm9sT_pad-10" x="-11190.09" y="-46389.79"/><use xlink:href="#O8QN1zsBN2TBUpawm9sT_pad-11" x="-8650.09" y="-46389.79"/><use xlink:href="#O8QN1zsBN2TBUpawm9sT_pad-10" x="-6110.09" y="-46389.79"/><use xlink:href="#O8QN1zsBN2TBUpawm9sT_pad-10" x="-3570.09" y="-46389.79"/><use xlink:href="#O8QN1zsBN2TBUpawm9sT_pad-10" x="-1030.09" y="-46389.79"/><use xlink:href="#O8QN1zsBN2TBUpawm9sT_pad-10" x="1509.9" y="-46389.79"/><use xlink:href="#O8QN1zsBN2TBUpawm9sT_pad-11" x="4049.9" y="-46389.79"/><use xlink:href="#O8QN1zsBN2TBUpawm9sT_pad-10" x="6589.9" y="-46389.79"/><use xlink:href="#O8QN1zsBN2TBUpawm9sT_pad-10" x="9129.9" y="-46389.79"/><use xlink:href="#O8QN1zsBN2TBUpawm9sT_pad-10" x="-16270.09" y="-46389.79"/><use xlink:href="#O8QN1zsBN2TBUpawm9sT_pad-10" x="-18810.09" y="-46389.79"/><use xlink:href="#O8QN1zsBN2TBUpawm9sT_pad-11" x="-21350.09" y="-46389.79"/><use xlink:href="#O8QN1zsBN2TBUpawm9sT_pad-10" x="-23889.84" y="-46389.79"/><use xlink:href="#O8QN1zsBN2TBUpawm9sT_pad-10" x="-26429.84" y="-46389.79"/><use xlink:href="#O8QN1zsBN2TBUpawm9sT_pad-10" x="-28969.84" y="-46389.79"/><use xlink:href="#O8QN1zsBN2TBUpawm9sT_pad-10" x="-31509.84" y="-46389.79"/><use xlink:href="#O8QN1zsBN2TBUpawm9sT_pad-11" x="-34049.84" y="-46389.79"/><use xlink:href="#O8QN1zsBN2TBUpawm9sT_pad-10" x="-36589.84" y="-46389.79"/><use xlink:href="#O8QN1zsBN2TBUpawm9sT_pad-10" x="-39129.84" y="-46389.79"/><use xlink:href="#O8QN1zsBN2TBUpawm9sT_pad-10" x="43999.91" y="-15999.96"/><use xlink:href="#O8QN1zsBN2TBUpawm9sT_pad-10" x="43999.91" y="-17999.96"/><use xlink:href="#O8QN1zsBN2TBUpawm9sT_pad-10" x="43999.91" y="-19999.95"/><use xlink:href="#O8QN1zsBN2TBUpawm9sT_pad-10" x="41999.91" y="-24599.89"/><use xlink:href="#O8QN1zsBN2TBUpawm9sT_pad-10" x="39999.91" y="-24599.89"/><use xlink:href="#O8QN1zsBN2TBUpawm9sT_pad-10" x="37999.92" y="-24599.89"/><use xlink:href="#O8QN1zsBN2TBUpawm9sT_pad-10" x="-41999.91" y="999.99"/><use xlink:href="#O8QN1zsBN2TBUpawm9sT_pad-10" x="-41999.91" y="2999.99"/><use xlink:href="#O8QN1zsBN2TBUpawm9sT_pad-10" x="-41999.91" y="4999.98"/><use xlink:href="#O8QN1zsBN2TBUpawm9sT_pad-10" x="-41999.91" y="-999.99"/><use xlink:href="#O8QN1zsBN2TBUpawm9sT_pad-10" x="-41999.91" y="-2999.99"/><use xlink:href="#O8QN1zsBN2TBUpawm9sT_pad-10" x="-41999.91" y="-4999.98"/><use xlink:href="#O8QN1zsBN2TBUpawm9sT_pad-10" x="-42999.91" y="24499.82"/><use xlink:href="#O8QN1zsBN2TBUpawm9sT_pad-10" x="-42999.91" y="21999.7"/><use xlink:href="#O8QN1zsBN2TBUpawm9sT_pad-10" x="-42999.91" y="19499.83"/><use xlink:href="#O8QN1zsBN2TBUpawm9sT_pad-10" x="-42999.91" y="16999.71"/><use xlink:href="#O8QN1zsBN2TBUpawm9sT_pad-12" x="3849.87" y="-6499.86"/><use xlink:href="#O8QN1zsBN2TBUpawm9sT_pad-12" x="-2540" y="-3919.98"/><use xlink:href="#O8QN1zsBN2TBUpawm9sT_pad-12" x="-3810" y="6459.98"/><use xlink:href="#O8QN1zsBN2TBUpawm9sT_pad-12" x="2540" y="3919.98"/><use xlink:href="#O8QN1zsBN2TBUpawm9sT_pad-13" x="24999.95" y="5999.98"/><use xlink:href="#O8QN1zsBN2TBUpawm9sT_pad-13" x="24999.95" y="3999.99"/><use xlink:href="#O8QN1zsBN2TBUpawm9sT_pad-13" x="24999.95" y="11999.97"/><use xlink:href="#O8QN1zsBN2TBUpawm9sT_pad-13" x="24999.95" y="9999.97"/><use xlink:href="#O8QN1zsBN2TBUpawm9sT_pad-10" x="-38999.92" y="26999.94"/><use xlink:href="#O8QN1zsBN2TBUpawm9sT_pad-10" x="-36999.92" y="26999.94"/><use xlink:href="#O8QN1zsBN2TBUpawm9sT_pad-10" x="-34999.93" y="26999.94"/><use xlink:href="#O8QN1zsBN2TBUpawm9sT_pad-10" x="-32999.93" y="26999.94"/><use xlink:href="#O8QN1zsBN2TBUpawm9sT_pad-10" x="-30999.93" y="26999.94"/><use xlink:href="#O8QN1zsBN2TBUpawm9sT_pad-14" x="34999.93" y="0"/><use xlink:href="#O8QN1zsBN2TBUpawm9sT_pad-15" x="34999.93" y="15999.96"/><use xlink:href="#O8QN1zsBN2TBUpawm9sT_pad-15" x="34999.93" y="-15999.96"/><use xlink:href="#O8QN1zsBN2TBUpawm9sT_pad-16" x="-35499.8" y="-15999.96"/><use xlink:href="#O8QN1zsBN2TBUpawm9sT_pad-16" x="-35499.8" y="15999.96"/><use xlink:href="#O8QN1zsBN2TBUpawm9sT_pad-10" x="43999.91" y="-13999.97"/><use xlink:href="#O8QN1zsBN2TBUpawm9sT_pad-17" x="20249.89" y="23499.82"/><use xlink:href="#O8QN1zsBN2TBUpawm9sT_pad-18" x="-22249.89" y="23499.82"/><use xlink:href="#O8QN1zsBN2TBUpawm9sT_pad-19" x="20249.89" y="-20750.02"/><use xlink:href="#O8QN1zsBN2TBUpawm9sT_pad-20" x="-22249.89" y="-20750.02"/><use xlink:href="#O8QN1zsBN2TBUpawm9sT_pad-14" x="-34999.93" y="0"/></g></svg>