<svg version="1.1" xmlns="http://www.w3.org/2000/svg" xmlns:xlink="http://www.w3.org/1999/xlink" stroke-linecap="round" stroke-linejoin="round" stroke-width="0" fill-rule="evenodd" clip-rule="evenodd" id="v9nb7kaPTJ4ZKr0uQ6fA_bottom" viewBox="-44449.92 -50799.92 88900.05 76580.87" width="88.90005000000001mm" height="76.58086999999999mm" class="w-100 h-100"><defs><style>.v9nb7kaPTJ4ZKr0uQ6fA_fr4 {color: #666666;}
.v9nb7kaPTJ4ZKr0uQ6fA_cu {color: #cccccc;}
.v9nb7kaPTJ4ZKr0uQ6fA_cf {color: #cc9933;}
.v9nb7kaPTJ4ZKr0uQ6fA_sm {color: #004200; opacity: 0.75;}
.v9nb7kaPTJ4ZKr0uQ6fA_ss {color: #ffffff;}
.v9nb7kaPTJ4ZKr0uQ6fA_sp {color: #999999;}
.v9nb7kaPTJ4ZKr0uQ6fA_out {color: #000000;}</style><circle cx="0" cy="0" r="1201.55" id="D93kbn3IejGOqiomoZpT_pad-10"/><circle cx="0" cy="0" r="1320.8" id="D93kbn3IejGOqiomoZpT_pad-11"/><circle cx="0" cy="0" r="800" id="D93kbn3IejGOqiomoZpT_pad-12"/><rect x="-800" y="-800" width="1600" height="1600" id="D93kbn3IejGOqiomoZpT_pad-13"/><circle cx="0" cy="0" r="850.8" id="D93kbn3IejGOqiomoZpT_pad-14"/><g id="D93kbn3IejGOqiomoZpT_pad-15"><circle cx="800" cy="800" r="50.8"/><circle cx="800" cy="-800" r="50.8"/><circle cx="-800" cy="-800" r="50.8"/><circle cx="-800" cy="800" r="50.8"/><polygon points="850.8,800 850.8,-800 749.2,-800 749.2,800"/><polygon points="800,-850.8 -800,-850.8 -800,-749.2 800,-749.2"/><polygon points="-749.2,-800 -749.2,800 -850.8,800 -850.8,-800"/><polygon points="-800,749.2 800,749.2 800,850.8 -800,850.8"/><polygon points="800,800 800,-800 -800,-800 -800,800"/></g><rect x="-3999.992" y="-2125.0021" width="7999.984" height="4250.0042" rx="2125.0021" ry="2125.0021" id="D93kbn3IejGOqiomoZpT_pad-16"/><rect x="-2749.9945" y="-1175.004" width="5499.989" height="2350.008" rx="1175.004" ry="1175.004" id="D93kbn3IejGOqiomoZpT_pad-17"/><g id="D93kbn3IejGOqiomoZpT_pad-18"><circle cx="-2124.6" cy="944.2" r="2175"/><circle cx="2124.6" cy="-944.2" r="2175"/><polygon points="-3007.89908,-1043.36326 1241.30092,-2931.76326 3007.89908,1043.36326 -1241.30092,2931.76326"/></g><g id="D93kbn3IejGOqiomoZpT_pad-19"><circle cx="-2124.6" cy="-944.2" r="2175"/><circle cx="2124.6" cy="944.2" r="2175"/><polygon points="-1241.30092,-2931.76326 3007.89908,-1043.36326 1241.30092,2931.76326 -3007.89908,1043.36326"/></g><g id="D93kbn3IejGOqiomoZpT_pad-20"><circle cx="-2205.7" cy="735.2" r="2175"/><circle cx="2205.7" cy="-735.2" r="2175"/><polygon points="-2893.46733,-1328.19553 1517.93267,-2798.59553 2893.46733,1328.19553 -1517.93267,2798.59553"/></g><g id="D93kbn3IejGOqiomoZpT_pad-21"><circle cx="-2205.7" cy="-735.2" r="2175"/><circle cx="2205.7" cy="735.2" r="2175"/><polygon points="-1517.93267,-2798.59553 2893.46733,-1328.19553 1517.93267,2798.59553 -2893.46733,1328.19553"/></g><g id="D93kbn3IejGOqiomoZpT_pad-22"><circle cx="900" cy="900" r="50.8"/><circle cx="900" cy="-900" r="50.8"/><circle cx="-900" cy="-900" r="50.8"/><circle cx="-900" cy="900" r="50.8"/><polygon points="950.8,900 950.8,-900 849.2,-900 849.2,900"/><polygon points="900,-950.8 -900,-950.8 -900,-849.2 900,-849.2"/><polygon points="-849.2,-900 -849.2,900 -950.8,900 -950.8,-900"/><polygon points="-900,849.2 900,849.2 900,950.8 -900,950.8"/><polygon points="900,900 900,-900 -900,-900 -900,900"/></g><circle cx="0" cy="0" r="950.8" id="D93kbn3IejGOqiomoZpT_pad-23"/><circle cx="0" cy="0" r="900" id="D93kbn3IejGOqiomoZpT_pad-24"/><rect x="-900" y="-900" width="1800" height="1800" id="D93kbn3IejGOqiomoZpT_pad-25"/><rect x="-899.9982" y="-899.9982" width="1799.9964" height="1799.9964" rx="899.9982" ry="899.9982" id="D93kbn3IejGOqiomoZpT_pad-26"/><circle cx="0" cy="0" r="1099.95" id="GP07ss5N35L2iUNJIHSC_pad-11"/><circle cx="0" cy="0" r="1270" id="GP07ss5N35L2iUNJIHSC_pad-12"/><circle cx="0" cy="0" r="750" id="GP07ss5N35L2iUNJIHSC_pad-13"/><rect x="-750" y="-750" width="1500" height="1500" id="GP07ss5N35L2iUNJIHSC_pad-14"/><circle cx="0" cy="0" r="800" id="GP07ss5N35L2iUNJIHSC_pad-15"/><rect x="-800" y="-800" width="1600" height="1600" id="GP07ss5N35L2iUNJIHSC_pad-16"/><rect x="-3999.992" y="-2125.0021" width="7999.984" height="4250.0042" rx="2125.0021" ry="2125.0021" id="GP07ss5N35L2iUNJIHSC_pad-17"/><rect x="-2749.9945" y="-1175.004" width="5499.989" height="2350.008" rx="1175.004" ry="1175.004" id="GP07ss5N35L2iUNJIHSC_pad-18"/><g id="GP07ss5N35L2iUNJIHSC_pad-19"><circle cx="-2124.6" cy="944.2" r="2175"/><circle cx="2124.6" cy="-944.2" r="2175"/><polygon points="-3007.89908,-1043.36326 1241.30092,-2931.76326 3007.89908,1043.36326 -1241.30092,2931.76326"/></g><g id="GP07ss5N35L2iUNJIHSC_pad-20"><circle cx="-2124.6" cy="-944.2" r="2175"/><circle cx="2124.6" cy="944.2" r="2175"/><polygon points="-1241.30092,-2931.76326 3007.89908,-1043.36326 1241.30092,2931.76326 -3007.89908,1043.36326"/></g><g id="GP07ss5N35L2iUNJIHSC_pad-21"><circle cx="-2205.7" cy="735.2" r="2175"/><circle cx="2205.7" cy="-735.2" r="2175"/><polygon points="-2893.46733,-1328.19553 1517.93267,-2798.59553 2893.46733,1328.19553 -1517.93267,2798.59553"/></g><g id="GP07ss5N35L2iUNJIHSC_pad-22"><circle cx="-2205.7" cy="-735.2" r="2175"/><circle cx="2205.7" cy="735.2" r="2175"/><polygon points="-1517.93267,-2798.59553 2893.46733,-1328.19553 1517.93267,2798.59553 -2893.46733,1328.19553"/></g><rect x="-900" y="-900" width="1800" height="1800" id="GP07ss5N35L2iUNJIHSC_pad-23"/><circle cx="0" cy="0" r="900" id="GP07ss5N35L2iUNJIHSC_pad-24"/><rect x="-899.9982" y="-899.9982" width="1799.9964" height="1799.9964" rx="899.9982" ry="899.9982" id="GP07ss5N35L2iUNJIHSC_pad-25"/><circle cx="0" cy="0" r="310" id="GP07ss5N35L2iUNJIHSC_pad-26"/><circle cx="0" cy="0" r="850" id="VLS3CwLBFxeWZoSHu8Kp_pad-1"/><circle cx="0" cy="0" r="1000" id="VLS3CwLBFxeWZoSHu8Kp_pad-2"/><circle cx="0" cy="0" r="2000" id="VLS3CwLBFxeWZoSHu8Kp_pad-4"/><circle cx="0" cy="0" r="2075.5" id="VLS3CwLBFxeWZoSHu8Kp_pad-5"/><circle cx="0" cy="0" r="155" id="d4F36KNCcHb9hll9jldl_pad-1"/><circle cx="0" cy="0" r="400" id="d4F36KNCcHb9hll9jldl_pad-2"/><circle cx="0" cy="0" r="500" id="d4F36KNCcHb9hll9jldl_pad-3"/><circle cx="0" cy="0" r="600" id="d4F36KNCcHb9hll9jldl_pad-4"/><circle cx="0" cy="0" r="155" id="nxbQDIh4wQYIVTgP30HM_pad-1"/><g id="v9nb7kaPTJ4ZKr0uQ6fA_bottom_soldermask"><use xlink:href="#D93kbn3IejGOqiomoZpT_pad-10" x="-5080" y="-11539.98"/><use xlink:href="#D93kbn3IejGOqiomoZpT_pad-10" x="-2540" y="-5189.98"/><use xlink:href="#D93kbn3IejGOqiomoZpT_pad-10" x="-5080" y="6459.98"/><use xlink:href="#D93kbn3IejGOqiomoZpT_pad-10" x="-2540" y="12809.98"/><use xlink:href="#D93kbn3IejGOqiomoZpT_pad-11" x="4499.86" y="-7000.23"/><use xlink:href="#D93kbn3IejGOqiomoZpT_pad-11" x="3999.99" y="-11999.97"/><use xlink:href="#D93kbn3IejGOqiomoZpT_pad-11" x="3999.99" y="6999.98"/><use xlink:href="#D93kbn3IejGOqiomoZpT_pad-11" x="4499.86" y="11999.72"/><use xlink:href="#D93kbn3IejGOqiomoZpT_pad-12" x="-17780" y="-5009.89"/><use xlink:href="#D93kbn3IejGOqiomoZpT_pad-12" x="-17780" y="-2610.1"/><use xlink:href="#D93kbn3IejGOqiomoZpT_pad-12" x="-17780" y="2610.1"/><use xlink:href="#D93kbn3IejGOqiomoZpT_pad-13" x="-17780" y="5009.89"/><use xlink:href="#D93kbn3IejGOqiomoZpT_pad-14" x="-30479.74" y="-30480"/><use xlink:href="#D93kbn3IejGOqiomoZpT_pad-14" x="-27939.74" y="-30480"/><use xlink:href="#D93kbn3IejGOqiomoZpT_pad-15" x="-25399.77" y="-30479.84"/><use xlink:href="#D93kbn3IejGOqiomoZpT_pad-14" x="-22859.74" y="-30480"/><use xlink:href="#D93kbn3IejGOqiomoZpT_pad-14" x="-20319.74" y="-30480"/><use xlink:href="#D93kbn3IejGOqiomoZpT_pad-14" x="-17779.74" y="-30480"/><use xlink:href="#D93kbn3IejGOqiomoZpT_pad-14" x="-15239.74" y="-30480"/><use xlink:href="#D93kbn3IejGOqiomoZpT_pad-15" x="-12699.79" y="-30479.84"/><use xlink:href="#D93kbn3IejGOqiomoZpT_pad-14" x="-10160" y="-30480"/><use xlink:href="#D93kbn3IejGOqiomoZpT_pad-14" x="-7620" y="-30480"/><use xlink:href="#D93kbn3IejGOqiomoZpT_pad-14" x="17780" y="-30480"/><use xlink:href="#D93kbn3IejGOqiomoZpT_pad-14" x="15240" y="-30480"/><use xlink:href="#D93kbn3IejGOqiomoZpT_pad-15" x="12700.15" y="-30479.84"/><use xlink:href="#D93kbn3IejGOqiomoZpT_pad-14" x="10160" y="-30480"/><use xlink:href="#D93kbn3IejGOqiomoZpT_pad-14" x="7620" y="-30480"/><use xlink:href="#D93kbn3IejGOqiomoZpT_pad-14" x="5080" y="-30480"/><use xlink:href="#D93kbn3IejGOqiomoZpT_pad-14" x="2540" y="-30480"/><use xlink:href="#D93kbn3IejGOqiomoZpT_pad-15" x="0.17" y="-30479.84"/><use xlink:href="#D93kbn3IejGOqiomoZpT_pad-14" x="-2540" y="-30480"/><use xlink:href="#D93kbn3IejGOqiomoZpT_pad-14" x="-5080" y="-30480"/><use xlink:href="#D93kbn3IejGOqiomoZpT_pad-14" x="-5080" y="-48259.74"/><use xlink:href="#D93kbn3IejGOqiomoZpT_pad-14" x="-2540" y="-48259.74"/><use xlink:href="#D93kbn3IejGOqiomoZpT_pad-15" x="0.17" y="-48259.79"/><use xlink:href="#D93kbn3IejGOqiomoZpT_pad-14" x="2540" y="-48259.74"/><use xlink:href="#D93kbn3IejGOqiomoZpT_pad-14" x="5080" y="-48259.74"/><use xlink:href="#D93kbn3IejGOqiomoZpT_pad-14" x="7620" y="-48259.74"/><use xlink:href="#D93kbn3IejGOqiomoZpT_pad-14" x="10160" y="-48259.74"/><use xlink:href="#D93kbn3IejGOqiomoZpT_pad-15" x="12700.15" y="-48259.79"/><use xlink:href="#D93kbn3IejGOqiomoZpT_pad-14" x="15240" y="-48259.74"/><use xlink:href="#D93kbn3IejGOqiomoZpT_pad-14" x="17780" y="-48259.74"/><use xlink:href="#D93kbn3IejGOqiomoZpT_pad-14" x="-7620" y="-48259.74"/><use xlink:href="#D93kbn3IejGOqiomoZpT_pad-14" x="-10160" y="-48259.74"/><use xlink:href="#D93kbn3IejGOqiomoZpT_pad-15" x="-12699.79" y="-48259.79"/><use xlink:href="#D93kbn3IejGOqiomoZpT_pad-14" x="-15239.74" y="-48259.74"/><use xlink:href="#D93kbn3IejGOqiomoZpT_pad-14" x="-17779.74" y="-48259.74"/><use xlink:href="#D93kbn3IejGOqiomoZpT_pad-14" x="-20319.74" y="-48259.74"/><use xlink:href="#D93kbn3IejGOqiomoZpT_pad-14" x="-22859.74" y="-48259.74"/><use xlink:href="#D93kbn3IejGOqiomoZpT_pad-15" x="-25399.77" y="-48259.79"/><use xlink:href="#D93kbn3IejGOqiomoZpT_pad-14" x="-27939.74" y="-48259.74"/><use xlink:href="#D93kbn3IejGOqiomoZpT_pad-14" x="-30479.74" y="-48259.74"/><use xlink:href="#D93kbn3IejGOqiomoZpT_pad-16" x="35249.86" y="0"/><use xlink:href="#D93kbn3IejGOqiomoZpT_pad-16" x="-35249.61" y="0"/><use xlink:href="#D93kbn3IejGOqiomoZpT_pad-17" x="-35249.61" y="15999.96"/><use xlink:href="#D93kbn3IejGOqiomoZpT_pad-17" x="-35249.61" y="-15999.96"/><use xlink:href="#D93kbn3IejGOqiomoZpT_pad-17" x="35249.86" y="-15999.96"/><use xlink:href="#D93kbn3IejGOqiomoZpT_pad-17" x="35249.86" y="15999.96"/><use xlink:href="#D93kbn3IejGOqiomoZpT_pad-18" x="-21249.89" y="22124.92"/><use xlink:href="#D93kbn3IejGOqiomoZpT_pad-19" x="21250.14" y="22124.92"/><use xlink:href="#D93kbn3IejGOqiomoZpT_pad-20" x="21250.14" y="-22124.92"/><use xlink:href="#D93kbn3IejGOqiomoZpT_pad-21" x="-21249.89" y="-22124.92"/><use xlink:href="#D93kbn3IejGOqiomoZpT_pad-22" x="-38099.84" y="-10160"/><use xlink:href="#D93kbn3IejGOqiomoZpT_pad-23" x="-38100" y="-7620"/><use xlink:href="#D93kbn3IejGOqiomoZpT_pad-23" x="-38100" y="-5080"/><use xlink:href="#D93kbn3IejGOqiomoZpT_pad-23" x="-38100" y="5080"/><use xlink:href="#D93kbn3IejGOqiomoZpT_pad-23" x="-38100" y="7620"/><use xlink:href="#D93kbn3IejGOqiomoZpT_pad-23" x="-38100" y="10160"/><use xlink:href="#D93kbn3IejGOqiomoZpT_pad-24" x="-39370" y="24130"/><use xlink:href="#D93kbn3IejGOqiomoZpT_pad-24" x="-34290" y="24130"/><use xlink:href="#D93kbn3IejGOqiomoZpT_pad-24" x="-36830" y="24130"/><use xlink:href="#D93kbn3IejGOqiomoZpT_pad-25" x="-31750" y="24130"/><use xlink:href="#D93kbn3IejGOqiomoZpT_pad-25" x="-13970" y="24130"/><use xlink:href="#D93kbn3IejGOqiomoZpT_pad-24" x="-11430" y="24130"/><use xlink:href="#D93kbn3IejGOqiomoZpT_pad-24" x="-8890" y="24130"/><use xlink:href="#D93kbn3IejGOqiomoZpT_pad-24" x="-6350" y="24130"/><use xlink:href="#D93kbn3IejGOqiomoZpT_pad-25" x="41910" y="-19050"/><use xlink:href="#D93kbn3IejGOqiomoZpT_pad-24" x="41910" y="-21590"/><use xlink:href="#D93kbn3IejGOqiomoZpT_pad-24" x="41910" y="-24130"/><use xlink:href="#D93kbn3IejGOqiomoZpT_pad-25" x="41910" y="-12700"/><use xlink:href="#D93kbn3IejGOqiomoZpT_pad-24" x="39370" y="24130"/><use xlink:href="#D93kbn3IejGOqiomoZpT_pad-24" x="36830" y="24130"/><use xlink:href="#D93kbn3IejGOqiomoZpT_pad-24" x="34290" y="24130"/><use xlink:href="#D93kbn3IejGOqiomoZpT_pad-25" x="31750" y="24130"/><use xlink:href="#D93kbn3IejGOqiomoZpT_pad-24" x="41910" y="-10160"/><use xlink:href="#D93kbn3IejGOqiomoZpT_pad-24" x="41910" y="-7620"/><use xlink:href="#D93kbn3IejGOqiomoZpT_pad-24" x="41910" y="-5080"/><use xlink:href="#D93kbn3IejGOqiomoZpT_pad-26" x="41910" y="24130"/><use xlink:href="#D93kbn3IejGOqiomoZpT_pad-14" x="-39370" y="-39370"/><use xlink:href="#D93kbn3IejGOqiomoZpT_pad-14" x="-39370" y="-36830"/><use xlink:href="#D93kbn3IejGOqiomoZpT_pad-14" x="-39370" y="-34290"/><use xlink:href="#D93kbn3IejGOqiomoZpT_pad-14" x="-39370" y="-31750"/><use xlink:href="#D93kbn3IejGOqiomoZpT_pad-14" x="-39370" y="-29210"/><use xlink:href="#D93kbn3IejGOqiomoZpT_pad-15" x="-39369.94" y="-26670.05"/></g><g id="v9nb7kaPTJ4ZKr0uQ6fA_bottom_copper"><path d="M -27939.74 -30480 -29209.79 -29209.94 -39369.92 -29209.94 M -22859.74 -30480 -24129.69 -31749.94 -39369.92 -31749.94 M -20319.74 -30480 -24129.74 -34290 -39370 -34290 M -17779.74 -30480 -24129.74 -36830 -39370 -36830 M -39370 -39370 -24129.74 -39370 -15239.74 -30480 M -25399.74 -30479.74 -29209.49 -26670 -39370 -26670 M -13970 24130 -12700 25400 7620 25400 20320 12700 24130 12700 31750 20320 31750 24130 M 41910 -19050 38100 -22860 38100 -33020 36830 -34290 13970 -34290 12700 -33020 12700 -30480 M 41910 -5080 43179.92 -6349.92 43179.92 -8889.97 41910 -10159.89 M -36830 24130 -36830 22860 -37592 22098 -41402 22098 -43180 20320 -43180 -43180 -40640 -45720 6350 -45720 7620 -44450 7620 -30480 M -34290 24130 -34290 22860 -35560 21590 -41275 21590 -42545 20320 -42545 -41275 -39370 -44450 -3810 -44450 -2540 -43180 -2540 -30480 M -39370 24130 -40640 24130 -43815 20955 -43815 -45085 -41910 -46990 16510 -46990 17780 -48260 M 41910 -19050 41910 -12700 M 4499.86 11999.72 3689.6 12809.98 -2540 12809.98 M 3999.99 6999.98 3459.98 6459.98 -5080 6459.98 M 4499.86 -7000.23 2689.6 -5189.98 -2540 -5189.98 M 3999.99 -11999.97 3539.99 -11539.98 -5080 -11539.98 M 17780 -30480 17780 -29210 13334.97 -24129.94 13335 -18415 21590 -10160 21590 3810 22908.25 5128.26 36878.25 5128.26 41910 10160 41910 24130 M 34290 24130 34290 22166.57 17780 5656.57 17780 -6350 11430 -12700 11429.97 -24129.94 5080 -30480 M 36830 24130 19050 6350 19050 -7620 12065 -14605 12065 -24765 10160 -26670 10160 -30480 M 39370 24130 40640 22860 40640 10160 36830 6350 22860 6350 20320 3810 20320 -8890 12700 -16510 12699.97 -24891.94 15240 -27940 15240 -30480 M -11430 24130 -11430 16510 -15875 12065 -15875 -12192 -13970 -14097 -13970 -33020 -8890 -38100 -5080 -38100 M -8890 24130 -8890 22860 -10795 20955 -10795 16510 -15240 12065 -15240 -11430 -11430 -15240 -11430 -31750 -7620 -35560 -3810 -35560" fill="none" stroke-width="254"/><use xlink:href="#GP07ss5N35L2iUNJIHSC_pad-11" x="-5080" y="-11539.98"/><use xlink:href="#GP07ss5N35L2iUNJIHSC_pad-11" x="-2540" y="-5189.98"/><use xlink:href="#GP07ss5N35L2iUNJIHSC_pad-11" x="-5080" y="6459.98"/><use xlink:href="#GP07ss5N35L2iUNJIHSC_pad-11" x="-2540" y="12809.98"/><use xlink:href="#GP07ss5N35L2iUNJIHSC_pad-12" x="4499.86" y="-7000.23"/><use xlink:href="#GP07ss5N35L2iUNJIHSC_pad-12" x="3999.99" y="-11999.97"/><use xlink:href="#GP07ss5N35L2iUNJIHSC_pad-12" x="3999.99" y="6999.98"/><use xlink:href="#GP07ss5N35L2iUNJIHSC_pad-12" x="4499.86" y="11999.72"/><use xlink:href="#GP07ss5N35L2iUNJIHSC_pad-13" x="-17780" y="-5009.89"/><use xlink:href="#GP07ss5N35L2iUNJIHSC_pad-13" x="-17780" y="-2610.1"/><use xlink:href="#GP07ss5N35L2iUNJIHSC_pad-13" x="-17780" y="2610.1"/><use xlink:href="#GP07ss5N35L2iUNJIHSC_pad-14" x="-17780" y="5009.89"/><use xlink:href="#GP07ss5N35L2iUNJIHSC_pad-15" x="-30479.74" y="-30480"/><use xlink:href="#GP07ss5N35L2iUNJIHSC_pad-15" x="-27939.74" y="-30480"/><use xlink:href="#GP07ss5N35L2iUNJIHSC_pad-16" x="-25399.74" y="-30479.74"/><use xlink:href="#GP07ss5N35L2iUNJIHSC_pad-15" x="-22859.74" y="-30480"/><use xlink:href="#GP07ss5N35L2iUNJIHSC_pad-15" x="-20319.74" y="-30480"/><use xlink:href="#GP07ss5N35L2iUNJIHSC_pad-15" x="-17779.74" y="-30480"/><use xlink:href="#GP07ss5N35L2iUNJIHSC_pad-15" x="-15239.74" y="-30480"/><use xlink:href="#GP07ss5N35L2iUNJIHSC_pad-16" x="-12699.74" y="-30479.74"/><use xlink:href="#GP07ss5N35L2iUNJIHSC_pad-15" x="-10160" y="-30480"/><use xlink:href="#GP07ss5N35L2iUNJIHSC_pad-15" x="-7620" y="-30480"/><use xlink:href="#GP07ss5N35L2iUNJIHSC_pad-15" x="17780" y="-30480"/><use xlink:href="#GP07ss5N35L2iUNJIHSC_pad-15" x="15240" y="-30480"/><use xlink:href="#GP07ss5N35L2iUNJIHSC_pad-16" x="12700.25" y="-30479.74"/><use xlink:href="#GP07ss5N35L2iUNJIHSC_pad-15" x="10160" y="-30480"/><use xlink:href="#GP07ss5N35L2iUNJIHSC_pad-15" x="7620" y="-30480"/><use xlink:href="#GP07ss5N35L2iUNJIHSC_pad-15" x="5080" y="-30480"/><use xlink:href="#GP07ss5N35L2iUNJIHSC_pad-15" x="2540" y="-30480"/><use xlink:href="#GP07ss5N35L2iUNJIHSC_pad-16" x="0.25" y="-30479.74"/><use xlink:href="#GP07ss5N35L2iUNJIHSC_pad-15" x="-2540" y="-30480"/><use xlink:href="#GP07ss5N35L2iUNJIHSC_pad-15" x="-5080" y="-30480"/><use xlink:href="#GP07ss5N35L2iUNJIHSC_pad-15" x="-5080" y="-48259.74"/><use xlink:href="#GP07ss5N35L2iUNJIHSC_pad-15" x="-2540" y="-48259.74"/><use xlink:href="#GP07ss5N35L2iUNJIHSC_pad-16" x="0.25" y="-48259.74"/><use xlink:href="#GP07ss5N35L2iUNJIHSC_pad-15" x="2540" y="-48259.74"/><use xlink:href="#GP07ss5N35L2iUNJIHSC_pad-15" x="5080" y="-48259.74"/><use xlink:href="#GP07ss5N35L2iUNJIHSC_pad-15" x="7620" y="-48259.74"/><use xlink:href="#GP07ss5N35L2iUNJIHSC_pad-15" x="10160" y="-48259.74"/><use xlink:href="#GP07ss5N35L2iUNJIHSC_pad-16" x="12700.25" y="-48259.74"/><use xlink:href="#GP07ss5N35L2iUNJIHSC_pad-15" x="15240" y="-48259.74"/><use xlink:href="#GP07ss5N35L2iUNJIHSC_pad-15" x="17780" y="-48259.74"/><use xlink:href="#GP07ss5N35L2iUNJIHSC_pad-15" x="-7620" y="-48259.74"/><use xlink:href="#GP07ss5N35L2iUNJIHSC_pad-15" x="-10160" y="-48259.74"/><use xlink:href="#GP07ss5N35L2iUNJIHSC_pad-16" x="-12699.74" y="-48259.74"/><use xlink:href="#GP07ss5N35L2iUNJIHSC_pad-15" x="-15239.74" y="-48259.74"/><use xlink:href="#GP07ss5N35L2iUNJIHSC_pad-15" x="-17779.74" y="-48259.74"/><use xlink:href="#GP07ss5N35L2iUNJIHSC_pad-15" x="-20319.74" y="-48259.74"/><use xlink:href="#GP07ss5N35L2iUNJIHSC_pad-15" x="-22859.74" y="-48259.74"/><use xlink:href="#GP07ss5N35L2iUNJIHSC_pad-16" x="-25399.74" y="-48259.74"/><use xlink:href="#GP07ss5N35L2iUNJIHSC_pad-15" x="-27939.74" y="-48259.74"/><use xlink:href="#GP07ss5N35L2iUNJIHSC_pad-15" x="-30479.74" y="-48259.74"/><use xlink:href="#GP07ss5N35L2iUNJIHSC_pad-17" x="35249.86" y="0"/><use xlink:href="#GP07ss5N35L2iUNJIHSC_pad-17" x="-35249.61" y="0"/><use xlink:href="#GP07ss5N35L2iUNJIHSC_pad-18" x="-35249.61" y="15999.96"/><use xlink:href="#GP07ss5N35L2iUNJIHSC_pad-18" x="-35249.61" y="-15999.96"/><use xlink:href="#GP07ss5N35L2iUNJIHSC_pad-18" x="35249.86" y="-15999.96"/><use xlink:href="#GP07ss5N35L2iUNJIHSC_pad-18" x="35249.86" y="15999.96"/><use xlink:href="#GP07ss5N35L2iUNJIHSC_pad-19" x="-21249.89" y="22124.92"/><use xlink:href="#GP07ss5N35L2iUNJIHSC_pad-20" x="21250.14" y="22124.92"/><use xlink:href="#GP07ss5N35L2iUNJIHSC_pad-21" x="21250.14" y="-22124.92"/><use xlink:href="#GP07ss5N35L2iUNJIHSC_pad-22" x="-21249.89" y="-22124.92"/><use xlink:href="#GP07ss5N35L2iUNJIHSC_pad-23" x="-38099.74" y="-10160"/><use xlink:href="#GP07ss5N35L2iUNJIHSC_pad-24" x="-38100" y="-7620"/><use xlink:href="#GP07ss5N35L2iUNJIHSC_pad-24" x="-38100" y="-5080"/><use xlink:href="#GP07ss5N35L2iUNJIHSC_pad-24" x="-38100" y="5080"/><use xlink:href="#GP07ss5N35L2iUNJIHSC_pad-24" x="-38100" y="7620"/><use xlink:href="#GP07ss5N35L2iUNJIHSC_pad-24" x="-38100" y="10160"/><use xlink:href="#GP07ss5N35L2iUNJIHSC_pad-24" x="-39370" y="24130"/><use xlink:href="#GP07ss5N35L2iUNJIHSC_pad-24" x="-34290" y="24130"/><use xlink:href="#GP07ss5N35L2iUNJIHSC_pad-24" x="-36830" y="24130"/><use xlink:href="#GP07ss5N35L2iUNJIHSC_pad-23" x="-31750" y="24130"/><use xlink:href="#GP07ss5N35L2iUNJIHSC_pad-23" x="-13970" y="24130"/><use xlink:href="#GP07ss5N35L2iUNJIHSC_pad-24" x="-11430" y="24130"/><use xlink:href="#GP07ss5N35L2iUNJIHSC_pad-24" x="-8890" y="24130"/><use xlink:href="#GP07ss5N35L2iUNJIHSC_pad-24" x="-6350" y="24130"/><use xlink:href="#GP07ss5N35L2iUNJIHSC_pad-23" x="41910" y="-19050"/><use xlink:href="#GP07ss5N35L2iUNJIHSC_pad-24" x="41910" y="-21590"/><use xlink:href="#GP07ss5N35L2iUNJIHSC_pad-24" x="41910" y="-24130"/><use xlink:href="#GP07ss5N35L2iUNJIHSC_pad-23" x="41910" y="-12700"/><use xlink:href="#GP07ss5N35L2iUNJIHSC_pad-24" x="39370" y="24130"/><use xlink:href="#GP07ss5N35L2iUNJIHSC_pad-24" x="36830" y="24130"/><use xlink:href="#GP07ss5N35L2iUNJIHSC_pad-24" x="34290" y="24130"/><use xlink:href="#GP07ss5N35L2iUNJIHSC_pad-23" x="31750" y="24130"/><use xlink:href="#GP07ss5N35L2iUNJIHSC_pad-24" x="41910" y="-10160"/><use xlink:href="#GP07ss5N35L2iUNJIHSC_pad-24" x="41910" y="-7620"/><use xlink:href="#GP07ss5N35L2iUNJIHSC_pad-24" x="41910" y="-5080"/><use xlink:href="#GP07ss5N35L2iUNJIHSC_pad-25" x="41910" y="24130"/><use xlink:href="#GP07ss5N35L2iUNJIHSC_pad-15" x="-39370" y="-39370"/><use xlink:href="#GP07ss5N35L2iUNJIHSC_pad-15" x="-39370" y="-36830"/><use xlink:href="#GP07ss5N35L2iUNJIHSC_pad-15" x="-39370" y="-34290"/><use xlink:href="#GP07ss5N35L2iUNJIHSC_pad-15" x="-39370" y="-31750"/><use xlink:href="#GP07ss5N35L2iUNJIHSC_pad-15" x="-39370" y="-29210"/><use xlink:href="#GP07ss5N35L2iUNJIHSC_pad-16" x="-39370" y="-26670"/><use xlink:href="#GP07ss5N35L2iUNJIHSC_pad-26" x="-3810" y="-35560"/><use xlink:href="#GP07ss5N35L2iUNJIHSC_pad-26" x="-5080" y="-38100"/></g><g id="v9nb7kaPTJ4ZKr0uQ6fA_bottom_silkscreen"><path d="M -5828.18 11624.94 -3919.09 11624.94 M -5828.18 11624.94 -3919.09 10897.66 M -5828.18 10170.41 -3919.09 10897.66 M -5828.18 10170.41 -3919.09 10170.41 M -5828.18 9570.41 -3919.09 8297.67 M -5828.18 8297.67 -3919.09 9570.41 M -5828.18 -6375.01 -3919.09 -6375.01 M -5828.18 -6375.01 -3919.09 -7102.29 M -5828.18 -7829.54 -3919.09 -7102.29 M -5828.18 -7829.54 -3919.09 -7829.54 M -5828.18 -8429.54 -3919.09 -9702.29 M -5828.18 -9702.29 -3919.09 -8429.54" fill="none" stroke-width="200"/><path d="M -6985.02 -2014.98 -6985.02 -15984.98 6984.97 -15984.98 6984.97 -2014.98 -6985.02 -2014.98 M -6985.02 15984.98 -6985.02 2014.98 6984.97 2014.98 6984.97 15984.98 -6985.02 15984.98" fill="none" stroke-width="119.9"/></g><g id="v9nb7kaPTJ4ZKr0uQ6fA_bottom_drill1"><use xlink:href="#VLS3CwLBFxeWZoSHu8Kp_pad-1" x="0" y="-3920"/><use xlink:href="#VLS3CwLBFxeWZoSHu8Kp_pad-1" x="0" y="-14080"/><use xlink:href="#VLS3CwLBFxeWZoSHu8Kp_pad-1" x="0" y="14080"/><use xlink:href="#VLS3CwLBFxeWZoSHu8Kp_pad-1" x="0" y="3920"/><use xlink:href="#VLS3CwLBFxeWZoSHu8Kp_pad-2" x="144950" y="-16000"/><use xlink:href="#VLS3CwLBFxeWZoSHu8Kp_pad-2" x="141450" y="-16000"/><use xlink:href="#VLS3CwLBFxeWZoSHu8Kp_pad-2" x="144950" y="16000"/><use xlink:href="#VLS3CwLBFxeWZoSHu8Kp_pad-2" x="141450" y="16000"/><path d="M -33675 16000 -36825 16000 M -33675 -16000 -36825 -16000 M 36825 -16000 33675 -16000 M 36825 16000 33675 16000" fill="none" stroke-width="2351"/><use xlink:href="#VLS3CwLBFxeWZoSHu8Kp_pad-4" x="0" y="-9000"/><use xlink:href="#VLS3CwLBFxeWZoSHu8Kp_pad-4" x="0" y="9000"/><use xlink:href="#VLS3CwLBFxeWZoSHu8Kp_pad-4" x="144950" y="0"/><use xlink:href="#VLS3CwLBFxeWZoSHu8Kp_pad-4" x="141450" y="0"/><use xlink:href="#VLS3CwLBFxeWZoSHu8Kp_pad-5" x="10500" y="0"/><use xlink:href="#VLS3CwLBFxeWZoSHu8Kp_pad-5" x="0" y="-21500"/><use xlink:href="#VLS3CwLBFxeWZoSHu8Kp_pad-5" x="-10500" y="0"/><use xlink:href="#VLS3CwLBFxeWZoSHu8Kp_pad-5" x="0" y="21500"/><path d="M 33375 0 37125 0 M -33375 0 -37125 0" fill="none" stroke-width="4250"/><path d="M -19125 21181 -23375 23069 M 19125 21181 23375 23069 M 19044 -21390 23456 -22860 M -19044 -21390 -23456 -22860" fill="none" stroke-width="4351"/></g><g id="v9nb7kaPTJ4ZKr0uQ6fA_bottom_drill2"><use xlink:href="#d4F36KNCcHb9hll9jldl_pad-1" x="-3810" y="-35560"/><use xlink:href="#d4F36KNCcHb9hll9jldl_pad-1" x="-5080" y="-38100"/><use xlink:href="#d4F36KNCcHb9hll9jldl_pad-2" x="-17780" y="-5010"/><use xlink:href="#d4F36KNCcHb9hll9jldl_pad-2" x="-17780" y="-2610"/><use xlink:href="#d4F36KNCcHb9hll9jldl_pad-2" x="-17780" y="2610"/><use xlink:href="#d4F36KNCcHb9hll9jldl_pad-2" x="-17780" y="5010"/><use xlink:href="#d4F36KNCcHb9hll9jldl_pad-3" x="-30480" y="-30480"/><use xlink:href="#d4F36KNCcHb9hll9jldl_pad-3" x="-27940" y="-30480"/><use xlink:href="#d4F36KNCcHb9hll9jldl_pad-3" x="-25400" y="-30480"/><use xlink:href="#d4F36KNCcHb9hll9jldl_pad-3" x="-22860" y="-30480"/><use xlink:href="#d4F36KNCcHb9hll9jldl_pad-3" x="-20320" y="-30480"/><use xlink:href="#d4F36KNCcHb9hll9jldl_pad-3" x="-17780" y="-30480"/><use xlink:href="#d4F36KNCcHb9hll9jldl_pad-3" x="-15240" y="-30480"/><use xlink:href="#d4F36KNCcHb9hll9jldl_pad-3" x="-12700" y="-30480"/><use xlink:href="#d4F36KNCcHb9hll9jldl_pad-3" x="-10160" y="-30480"/><use xlink:href="#d4F36KNCcHb9hll9jldl_pad-3" x="-7620" y="-30480"/><use xlink:href="#d4F36KNCcHb9hll9jldl_pad-3" x="17780" y="-30480"/><use xlink:href="#d4F36KNCcHb9hll9jldl_pad-3" x="15240" y="-30480"/><use xlink:href="#d4F36KNCcHb9hll9jldl_pad-3" x="12700" y="-30480"/><use xlink:href="#d4F36KNCcHb9hll9jldl_pad-3" x="10160" y="-30480"/><use xlink:href="#d4F36KNCcHb9hll9jldl_pad-3" x="7620" y="-30480"/><use xlink:href="#d4F36KNCcHb9hll9jldl_pad-3" x="5080" y="-30480"/><use xlink:href="#d4F36KNCcHb9hll9jldl_pad-3" x="2540" y="-30480"/><use xlink:href="#d4F36KNCcHb9hll9jldl_pad-3" x="0" y="-30480"/><use xlink:href="#d4F36KNCcHb9hll9jldl_pad-3" x="-2540" y="-30480"/><use xlink:href="#d4F36KNCcHb9hll9jldl_pad-3" x="-5080" y="-30480"/><use xlink:href="#d4F36KNCcHb9hll9jldl_pad-3" x="-5080" y="-48260"/><use xlink:href="#d4F36KNCcHb9hll9jldl_pad-3" x="-2540" y="-48260"/><use xlink:href="#d4F36KNCcHb9hll9jldl_pad-3" x="0" y="-48260"/><use xlink:href="#d4F36KNCcHb9hll9jldl_pad-3" x="2540" y="-48260"/><use xlink:href="#d4F36KNCcHb9hll9jldl_pad-3" x="5080" y="-48260"/><use xlink:href="#d4F36KNCcHb9hll9jldl_pad-3" x="7620" y="-48260"/><use xlink:href="#d4F36KNCcHb9hll9jldl_pad-3" x="10160" y="-48260"/><use xlink:href="#d4F36KNCcHb9hll9jldl_pad-3" x="12700" y="-48260"/><use xlink:href="#d4F36KNCcHb9hll9jldl_pad-3" x="15240" y="-48260"/><use xlink:href="#d4F36KNCcHb9hll9jldl_pad-3" x="17780" y="-48260"/><use xlink:href="#d4F36KNCcHb9hll9jldl_pad-3" x="-7620" y="-48260"/><use xlink:href="#d4F36KNCcHb9hll9jldl_pad-3" x="-10160" y="-48260"/><use xlink:href="#d4F36KNCcHb9hll9jldl_pad-3" x="-12700" y="-48260"/><use xlink:href="#d4F36KNCcHb9hll9jldl_pad-3" x="-15240" y="-48260"/><use xlink:href="#d4F36KNCcHb9hll9jldl_pad-3" x="-17780" y="-48260"/><use xlink:href="#d4F36KNCcHb9hll9jldl_pad-3" x="-20320" y="-48260"/><use xlink:href="#d4F36KNCcHb9hll9jldl_pad-3" x="-22860" y="-48260"/><use xlink:href="#d4F36KNCcHb9hll9jldl_pad-3" x="-25400" y="-48260"/><use xlink:href="#d4F36KNCcHb9hll9jldl_pad-3" x="-27940" y="-48260"/><use xlink:href="#d4F36KNCcHb9hll9jldl_pad-3" x="-30480" y="-48260"/><use xlink:href="#d4F36KNCcHb9hll9jldl_pad-3" x="-39370" y="-39370"/><use xlink:href="#d4F36KNCcHb9hll9jldl_pad-3" x="-39370" y="-36830"/><use xlink:href="#d4F36KNCcHb9hll9jldl_pad-3" x="-39370" y="-34290"/><use xlink:href="#d4F36KNCcHb9hll9jldl_pad-3" x="-39370" y="-31750"/><use xlink:href="#d4F36KNCcHb9hll9jldl_pad-3" x="-39370" y="-29210"/><use xlink:href="#d4F36KNCcHb9hll9jldl_pad-3" x="-39370" y="-26670"/><use xlink:href="#d4F36KNCcHb9hll9jldl_pad-4" x="-38100" y="-10160"/><use xlink:href="#d4F36KNCcHb9hll9jldl_pad-4" x="-38100" y="-7620"/><use xlink:href="#d4F36KNCcHb9hll9jldl_pad-4" x="-38100" y="-5080"/><use xlink:href="#d4F36KNCcHb9hll9jldl_pad-4" x="-38100" y="5080"/><use xlink:href="#d4F36KNCcHb9hll9jldl_pad-4" x="-38100" y="7620"/><use xlink:href="#d4F36KNCcHb9hll9jldl_pad-4" x="-38100" y="10160"/><use xlink:href="#d4F36KNCcHb9hll9jldl_pad-4" x="-39370" y="24130"/><use xlink:href="#d4F36KNCcHb9hll9jldl_pad-4" x="-34290" y="24130"/><use xlink:href="#d4F36KNCcHb9hll9jldl_pad-4" x="-36830" y="24130"/><use xlink:href="#d4F36KNCcHb9hll9jldl_pad-4" x="-31750" y="24130"/><use xlink:href="#d4F36KNCcHb9hll9jldl_pad-4" x="-13970" y="24130"/><use xlink:href="#d4F36KNCcHb9hll9jldl_pad-4" x="-11430" y="24130"/><use xlink:href="#d4F36KNCcHb9hll9jldl_pad-4" x="-8890" y="24130"/><use xlink:href="#d4F36KNCcHb9hll9jldl_pad-4" x="-6350" y="24130"/><use xlink:href="#d4F36KNCcHb9hll9jldl_pad-4" x="41910" y="-19050"/><use xlink:href="#d4F36KNCcHb9hll9jldl_pad-4" x="41910" y="-21590"/><use xlink:href="#d4F36KNCcHb9hll9jldl_pad-4" x="41910" y="-24130"/><use xlink:href="#d4F36KNCcHb9hll9jldl_pad-4" x="41910" y="-12700"/><use xlink:href="#d4F36KNCcHb9hll9jldl_pad-4" x="39370" y="24130"/><use xlink:href="#d4F36KNCcHb9hll9jldl_pad-4" x="36830" y="24130"/><use xlink:href="#d4F36KNCcHb9hll9jldl_pad-4" x="34290" y="24130"/><use xlink:href="#d4F36KNCcHb9hll9jldl_pad-4" x="31750" y="24130"/><use xlink:href="#d4F36KNCcHb9hll9jldl_pad-4" x="41910" y="-10160"/><use xlink:href="#d4F36KNCcHb9hll9jldl_pad-4" x="41910" y="-7620"/><use xlink:href="#d4F36KNCcHb9hll9jldl_pad-4" x="41910" y="-5080"/><use xlink:href="#d4F36KNCcHb9hll9jldl_pad-4" x="41910" y="24130"/><path d="M 4500 -6998 4500 -7003 M 4000 -11997 4000 -12002 M 4000 7003 4000 6998 M 4500 12002 4500 11997" fill="none" stroke-width="1300"/><path d="M -5080 -11540 -5080 -11540 M -2540 -5190 -2540 -5190 M -5080 6460 -5080 6460 M -2540 12810 -2540 12810" fill="none" stroke-width="1501"/></g><g id="v9nb7kaPTJ4ZKr0uQ6fA_bottom_drill3"><use xlink:href="#nxbQDIh4wQYIVTgP30HM_pad-1" x="-3810" y="-35560"/><use xlink:href="#nxbQDIh4wQYIVTgP30HM_pad-1" x="-5080" y="-38100"/></g><clipPath id="v9nb7kaPTJ4ZKr0uQ6fA_bottom_outline"><path d="M 44450.13 23244.1 44449.95 -48259.92 A 2540 2540 0 0 0 41909.95 -50799.92 L -41909.92 -50799.9 A 2540.0000002 2540.0000002 0 0 0 -44446.72 -48386.75 L -44449.92 23240.95 A 2540 2540 0 0 0 -41909.92 25780.95 L 42036.92 25780.95 A 2539.9964868 2539.9964868 0 0 0 44450.13 23244.1" fill="none" stroke-width="254"/></clipPath><mask id="v9nb7kaPTJ4ZKr0uQ6fA_bottom_mech-mask"><g fill="#000" stroke="#000"><rect x="-44449.92" y="-50799.92" width="88900.05" height="76580.87" fill="#fff"/><use xlink:href="#v9nb7kaPTJ4ZKr0uQ6fA_bottom_drill1"/><use xlink:href="#v9nb7kaPTJ4ZKr0uQ6fA_bottom_drill2"/><use xlink:href="#v9nb7kaPTJ4ZKr0uQ6fA_bottom_drill3"/></g></mask><mask id="v9nb7kaPTJ4ZKr0uQ6fA_bottom_cf-mask"><g fill="#fff" stroke="#fff"><use xlink:href="#v9nb7kaPTJ4ZKr0uQ6fA_bottom_soldermask"/></g></mask><mask id="v9nb7kaPTJ4ZKr0uQ6fA_bottom_sm-mask"><g fill="#000" stroke="#000"><rect x="-44449.92" y="-50799.92" width="88900.05" height="76580.87" fill="#fff"/><use xlink:href="#v9nb7kaPTJ4ZKr0uQ6fA_bottom_soldermask"/></g></mask></defs><g transform="translate(0,-25018.97) scale(1,-1)"><g mask="url(#v9nb7kaPTJ4ZKr0uQ6fA_bottom_mech-mask)" clip-path="url(#v9nb7kaPTJ4ZKr0uQ6fA_bottom_outline)" transform="translate(0.21000000000640284,0) scale(-1,1)"><rect x="-44449.92" y="-50799.92" width="88900.05" height="76580.87" fill="currentColor" class="v9nb7kaPTJ4ZKr0uQ6fA_fr4"/><use xlink:href="#v9nb7kaPTJ4ZKr0uQ6fA_bottom_copper" fill="currentColor" stroke="currentColor" class="v9nb7kaPTJ4ZKr0uQ6fA_cu"/><use xlink:href="#v9nb7kaPTJ4ZKr0uQ6fA_bottom_copper" fill="currentColor" stroke="currentColor" class="v9nb7kaPTJ4ZKr0uQ6fA_cf" mask="url(#v9nb7kaPTJ4ZKr0uQ6fA_bottom_cf-mask)"/><g mask="url(#v9nb7kaPTJ4ZKr0uQ6fA_bottom_sm-mask)"><rect x="-44449.92" y="-50799.92" width="88900.05" height="76580.87" fill="currentColor" class="v9nb7kaPTJ4ZKr0uQ6fA_sm"/><use xlink:href="#v9nb7kaPTJ4ZKr0uQ6fA_bottom_silkscreen" fill="currentColor" stroke="currentColor" class="v9nb7kaPTJ4ZKr0uQ6fA_ss"/></g></g></g></svg>