<svg version="1.1" xmlns="http://www.w3.org/2000/svg" xmlns:xlink="http://www.w3.org/1999/xlink" stroke-linecap="round" stroke-linejoin="round" stroke-width="0" fill-rule="evenodd" width="82.48mm" height="73.49mm" viewBox="-39970 -48760 82480 73490" id="d4F36KNCcHb9hll9jldl"><defs><circle cx="0" cy="0" r="155" id="d4F36KNCcHb9hll9jldl_pad-1"/><circle cx="0" cy="0" r="400" id="d4F36KNCcHb9hll9jldl_pad-2"/><circle cx="0" cy="0" r="500" id="d4F36KNCcHb9hll9jldl_pad-3"/><circle cx="0" cy="0" r="600" id="d4F36KNCcHb9hll9jldl_pad-4"/></defs><g transform="translate(0,-24030) scale(1,-1)" fill="currentColor" stroke="currentColor"><use xlink:href="#d4F36KNCcHb9hll9jldl_pad-1" x="-3810" y="-35560"/><use xlink:href="#d4F36KNCcHb9hll9jldl_pad-1" x="-5080" y="-38100"/><use xlink:href="#d4F36KNCcHb9hll9jldl_pad-2" x="-17780" y="-5010"/><use xlink:href="#d4F36KNCcHb9hll9jldl_pad-2" x="-17780" y="-2610"/><use xlink:href="#d4F36KNCcHb9hll9jldl_pad-2" x="-17780" y="2610"/><use xlink:href="#d4F36KNCcHb9hll9jldl_pad-2" x="-17780" y="5010"/><use xlink:href="#d4F36KNCcHb9hll9jldl_pad-3" x="-30480" y="-30480"/><use xlink:href="#d4F36KNCcHb9hll9jldl_pad-3" x="-27940" y="-30480"/><use xlink:href="#d4F36KNCcHb9hll9jldl_pad-3" x="-25400" y="-30480"/><use xlink:href="#d4F36KNCcHb9hll9jldl_pad-3" x="-22860" y="-30480"/><use xlink:href="#d4F36KNCcHb9hll9jldl_pad-3" x="-20320" y="-30480"/><use xlink:href="#d4F36KNCcHb9hll9jldl_pad-3" x="-17780" y="-30480"/><use xlink:href="#d4F36KNCcHb9hll9jldl_pad-3" x="-15240" y="-30480"/><use xlink:href="#d4F36KNCcHb9hll9jldl_pad-3" x="-12700" y="-30480"/><use xlink:href="#d4F36KNCcHb9hll9jldl_pad-3" x="-10160" y="-30480"/><use xlink:href="#d4F36KNCcHb9hll9jldl_pad-3" x="-7620" y="-30480"/><use xlink:href="#d4F36KNCcHb9hll9jldl_pad-3" x="17780" y="-30480"/><use xlink:href="#d4F36KNCcHb9hll9jldl_pad-3" x="15240" y="-30480"/><use xlink:href="#d4F36KNCcHb9hll9jldl_pad-3" x="12700" y="-30480"/><use xlink:href="#d4F36KNCcHb9hll9jldl_pad-3" x="10160" y="-30480"/><use xlink:href="#d4F36KNCcHb9hll9jldl_pad-3" x="7620" y="-30480"/><use xlink:href="#d4F36KNCcHb9hll9jldl_pad-3" x="5080" y="-30480"/><use xlink:href="#d4F36KNCcHb9hll9jldl_pad-3" x="2540" y="-30480"/><use xlink:href="#d4F36KNCcHb9hll9jldl_pad-3" x="0" y="-30480"/><use xlink:href="#d4F36KNCcHb9hll9jldl_pad-3" x="-2540" y="-30480"/><use xlink:href="#d4F36KNCcHb9hll9jldl_pad-3" x="-5080" y="-30480"/><use xlink:href="#d4F36KNCcHb9hll9jldl_pad-3" x="-5080" y="-48260"/><use xlink:href="#d4F36KNCcHb9hll9jldl_pad-3" x="-2540" y="-48260"/><use xlink:href="#d4F36KNCcHb9hll9jldl_pad-3" x="0" y="-48260"/><use xlink:href="#d4F36KNCcHb9hll9jldl_pad-3" x="2540" y="-48260"/><use xlink:href="#d4F36KNCcHb9hll9jldl_pad-3" x="5080" y="-48260"/><use xlink:href="#d4F36KNCcHb9hll9jldl_pad-3" x="7620" y="-48260"/><use xlink:href="#d4F36KNCcHb9hll9jldl_pad-3" x="10160" y="-48260"/><use xlink:href="#d4F36KNCcHb9hll9jldl_pad-3" x="12700" y="-48260"/><use xlink:href="#d4F36KNCcHb9hll9jldl_pad-3" x="15240" y="-48260"/><use xlink:href="#d4F36KNCcHb9hll9jldl_pad-3" x="17780" y="-48260"/><use xlink:href="#d4F36KNCcHb9hll9jldl_pad-3" x="-7620" y="-48260"/><use xlink:href="#d4F36KNCcHb9hll9jldl_pad-3" x="-10160" y="-48260"/><use xlink:href="#d4F36KNCcHb9hll9jldl_pad-3" x="-12700" y="-48260"/><use xlink:href="#d4F36KNCcHb9hll9jldl_pad-3" x="-15240" y="-48260"/><use xlink:href="#d4F36KNCcHb9hll9jldl_pad-3" x="-17780" y="-48260"/><use xlink:href="#d4F36KNCcHb9hll9jldl_pad-3" x="-20320" y="-48260"/><use xlink:href="#d4F36KNCcHb9hll9jldl_pad-3" x="-22860" y="-48260"/><use xlink:href="#d4F36KNCcHb9hll9jldl_pad-3" x="-25400" y="-48260"/><use xlink:href="#d4F36KNCcHb9hll9jldl_pad-3" x="-27940" y="-48260"/><use xlink:href="#d4F36KNCcHb9hll9jldl_pad-3" x="-30480" y="-48260"/><use xlink:href="#d4F36KNCcHb9hll9jldl_pad-3" x="-39370" y="-39370"/><use xlink:href="#d4F36KNCcHb9hll9jldl_pad-3" x="-39370" y="-36830"/><use xlink:href="#d4F36KNCcHb9hll9jldl_pad-3" x="-39370" y="-34290"/><use xlink:href="#d4F36KNCcHb9hll9jldl_pad-3" x="-39370" y="-31750"/><use xlink:href="#d4F36KNCcHb9hll9jldl_pad-3" x="-39370" y="-29210"/><use xlink:href="#d4F36KNCcHb9hll9jldl_pad-3" x="-39370" y="-26670"/><use xlink:href="#d4F36KNCcHb9hll9jldl_pad-4" x="-38100" y="-10160"/><use xlink:href="#d4F36KNCcHb9hll9jldl_pad-4" x="-38100" y="-7620"/><use xlink:href="#d4F36KNCcHb9hll9jldl_pad-4" x="-38100" y="-5080"/><use xlink:href="#d4F36KNCcHb9hll9jldl_pad-4" x="-38100" y="5080"/><use xlink:href="#d4F36KNCcHb9hll9jldl_pad-4" x="-38100" y="7620"/><use xlink:href="#d4F36KNCcHb9hll9jldl_pad-4" x="-38100" y="10160"/><use xlink:href="#d4F36KNCcHb9hll9jldl_pad-4" x="-39370" y="24130"/><use xlink:href="#d4F36KNCcHb9hll9jldl_pad-4" x="-34290" y="24130"/><use xlink:href="#d4F36KNCcHb9hll9jldl_pad-4" x="-36830" y="24130"/><use xlink:href="#d4F36KNCcHb9hll9jldl_pad-4" x="-31750" y="24130"/><use xlink:href="#d4F36KNCcHb9hll9jldl_pad-4" x="-13970" y="24130"/><use xlink:href="#d4F36KNCcHb9hll9jldl_pad-4" x="-11430" y="24130"/><use xlink:href="#d4F36KNCcHb9hll9jldl_pad-4" x="-8890" y="24130"/><use xlink:href="#d4F36KNCcHb9hll9jldl_pad-4" x="-6350" y="24130"/><use xlink:href="#d4F36KNCcHb9hll9jldl_pad-4" x="41910" y="-19050"/><use xlink:href="#d4F36KNCcHb9hll9jldl_pad-4" x="41910" y="-21590"/><use xlink:href="#d4F36KNCcHb9hll9jldl_pad-4" x="41910" y="-24130"/><use xlink:href="#d4F36KNCcHb9hll9jldl_pad-4" x="41910" y="-12700"/><use xlink:href="#d4F36KNCcHb9hll9jldl_pad-4" x="39370" y="24130"/><use xlink:href="#d4F36KNCcHb9hll9jldl_pad-4" x="36830" y="24130"/><use xlink:href="#d4F36KNCcHb9hll9jldl_pad-4" x="34290" y="24130"/><use xlink:href="#d4F36KNCcHb9hll9jldl_pad-4" x="31750" y="24130"/><use xlink:href="#d4F36KNCcHb9hll9jldl_pad-4" x="41910" y="-10160"/><use xlink:href="#d4F36KNCcHb9hll9jldl_pad-4" x="41910" y="-7620"/><use xlink:href="#d4F36KNCcHb9hll9jldl_pad-4" x="41910" y="-5080"/><use xlink:href="#d4F36KNCcHb9hll9jldl_pad-4" x="41910" y="24130"/><path d="M 4500 -6998 4500 -7003 M 4000 -11997 4000 -12002 M 4000 7003 4000 6998 M 4500 12002 4500 11997" fill="none" stroke-width="1300"/><path d="M -5080 -11540 -5080 -11540 M -2540 -5190 -2540 -5190 M -5080 6460 -5080 6460 M -2540 12810 -2540 12810" fill="none" stroke-width="1501"/></g></svg>