<svg version="1.1" xmlns="http://www.w3.org/2000/svg" xmlns:xlink="http://www.w3.org/1999/xlink" stroke-linecap="round" stroke-linejoin="round" stroke-width="0" fill-rule="evenodd" width="186.2mm" height="50.28mm" viewBox="-39250 -25035.5 186200 50280" id="VLS3CwLBFxeWZoSHu8Kp"><defs><circle cx="0" cy="0" r="850" id="VLS3CwLBFxeWZoSHu8Kp_pad-1"/><circle cx="0" cy="0" r="1000" id="VLS3CwLBFxeWZoSHu8Kp_pad-2"/><circle cx="0" cy="0" r="2000" id="VLS3CwLBFxeWZoSHu8Kp_pad-4"/><circle cx="0" cy="0" r="2075.5" id="VLS3CwLBFxeWZoSHu8Kp_pad-5"/></defs><g transform="translate(0,209) scale(1,-1)" fill="currentColor" stroke="currentColor"><use xlink:href="#VLS3CwLBFxeWZoSHu8Kp_pad-1" x="0" y="-3920"/><use xlink:href="#VLS3CwLBFxeWZoSHu8Kp_pad-1" x="0" y="-14080"/><use xlink:href="#VLS3CwLBFxeWZoSHu8Kp_pad-1" x="0" y="14080"/><use xlink:href="#VLS3CwLBFxeWZoSHu8Kp_pad-1" x="0" y="3920"/><use xlink:href="#VLS3CwLBFxeWZoSHu8Kp_pad-2" x="144950" y="-16000"/><use xlink:href="#VLS3CwLBFxeWZoSHu8Kp_pad-2" x="141450" y="-16000"/><use xlink:href="#VLS3CwLBFxeWZoSHu8Kp_pad-2" x="144950" y="16000"/><use xlink:href="#VLS3CwLBFxeWZoSHu8Kp_pad-2" x="141450" y="16000"/><path d="M -33675 16000 -36825 16000 M -33675 -16000 -36825 -16000 M 36825 -16000 33675 -16000 M 36825 16000 33675 16000" fill="none" stroke-width="2351"/><use xlink:href="#VLS3CwLBFxeWZoSHu8Kp_pad-4" x="0" y="-9000"/><use xlink:href="#VLS3CwLBFxeWZoSHu8Kp_pad-4" x="0" y="9000"/><use xlink:href="#VLS3CwLBFxeWZoSHu8Kp_pad-4" x="144950" y="0"/><use xlink:href="#VLS3CwLBFxeWZoSHu8Kp_pad-4" x="141450" y="0"/><use xlink:href="#VLS3CwLBFxeWZoSHu8Kp_pad-5" x="10500" y="0"/><use xlink:href="#VLS3CwLBFxeWZoSHu8Kp_pad-5" x="0" y="-21500"/><use xlink:href="#VLS3CwLBFxeWZoSHu8Kp_pad-5" x="-10500" y="0"/><use xlink:href="#VLS3CwLBFxeWZoSHu8Kp_pad-5" x="0" y="21500"/><path d="M 33375 0 37125 0 M -33375 0 -37125 0" fill="none" stroke-width="4250"/><path d="M -19125 21181 -23375 23069 M 19125 21181 23375 23069 M 19044 -21390 23456 -22860 M -19044 -21390 -23456 -22860" fill="none" stroke-width="4351"/></g></svg>