<svg version="1.1" xmlns="http://www.w3.org/2000/svg" xmlns:xlink="http://www.w3.org/1999/xlink" stroke-linecap="round" stroke-linejoin="round" stroke-width="0" fill-rule="evenodd" width="14.089889999999999mm" height="32.08986mm" viewBox="-7044.97 -16044.93 14089.89 32089.86" id="IvYrUrwI0mPDW87VIzrf"><g transform="translate(0,0) scale(1,-1)" fill="currentColor" stroke="currentColor"><path d="M -5828.18 11624.94 -3919.09 11624.94 M -5828.18 11624.94 -3919.09 10897.66 M -5828.18 10170.41 -3919.09 10897.66 M -5828.18 10170.41 -3919.09 10170.41 M -5828.18 9570.41 -3919.09 8297.67 M -5828.18 8297.67 -3919.09 9570.41 M -5828.18 -6375.01 -3919.09 -6375.01 M -5828.18 -6375.01 -3919.09 -7102.29 M -5828.18 -7829.54 -3919.09 -7102.29 M -5828.18 -7829.54 -3919.09 -7829.54 M -5828.18 -8429.54 -3919.09 -9702.29 M -5828.18 -9702.29 -3919.09 -8429.54" fill="none" stroke-width="200"/><path d="M -6985.02 -2014.98 -6985.02 -15984.98 6984.97 -15984.98 6984.97 -2014.98 -6985.02 -2014.98 M -6985.02 15984.98 -6985.02 2014.98 6984.97 2014.98 6984.97 15984.98 -6985.02 15984.98" fill="none" stroke-width="119.9"/></g></svg>