<svg version="1.1" xmlns="http://www.w3.org/2000/svg" xmlns:xlink="http://www.w3.org/1999/xlink" stroke-linecap="round" stroke-linejoin="round" stroke-width="0" fill-rule="evenodd" width="87.249mm" height="74.90101mm" viewBox="-43942 -49656.89 87249 74901.01" id="FmN-q5xRt01AJAqWIZdu"><defs><circle cx="0" cy="0" r="1099.95" id="FmN-q5xRt01AJAqWIZdu_pad-11"/><circle cx="0" cy="0" r="1270" id="FmN-q5xRt01AJAqWIZdu_pad-12"/><circle cx="0" cy="0" r="750" id="FmN-q5xRt01AJAqWIZdu_pad-13"/><rect x="-750" y="-750" width="1500" height="1500" id="FmN-q5xRt01AJAqWIZdu_pad-14"/><circle cx="0" cy="0" r="800" id="FmN-q5xRt01AJAqWIZdu_pad-15"/><rect x="-800" y="-800" width="1600" height="1600" id="FmN-q5xRt01AJAqWIZdu_pad-16"/><rect x="-3999.992" y="-2125.0021" width="7999.984" height="4250.0042" rx="2125.0021" ry="2125.0021" id="FmN-q5xRt01AJAqWIZdu_pad-17"/><rect x="-2749.9945" y="-1175.004" width="5499.989" height="2350.008" rx="1175.004" ry="1175.004" id="FmN-q5xRt01AJAqWIZdu_pad-18"/><g id="FmN-q5xRt01AJAqWIZdu_pad-19"><circle cx="-2124.6" cy="944.2" r="2175"/><circle cx="2124.6" cy="-944.2" r="2175"/><polygon points="-3007.89908,-1043.36326 1241.30092,-2931.76326 3007.89908,1043.36326 -1241.30092,2931.76326"/></g><g id="FmN-q5xRt01AJAqWIZdu_pad-20"><circle cx="-2124.6" cy="-944.2" r="2175"/><circle cx="2124.6" cy="944.2" r="2175"/><polygon points="-1241.30092,-2931.76326 3007.89908,-1043.36326 1241.30092,2931.76326 -3007.89908,1043.36326"/></g><g id="FmN-q5xRt01AJAqWIZdu_pad-21"><circle cx="-2205.7" cy="735.2" r="2175"/><circle cx="2205.7" cy="-735.2" r="2175"/><polygon points="-2893.46733,-1328.19553 1517.93267,-2798.59553 2893.46733,1328.19553 -1517.93267,2798.59553"/></g><g id="FmN-q5xRt01AJAqWIZdu_pad-22"><circle cx="-2205.7" cy="-735.2" r="2175"/><circle cx="2205.7" cy="735.2" r="2175"/><polygon points="-1517.93267,-2798.59553 2893.46733,-1328.19553 1517.93267,2798.59553 -2893.46733,1328.19553"/></g><rect x="-900" y="-900" width="1800" height="1800" id="FmN-q5xRt01AJAqWIZdu_pad-23"/><circle cx="0" cy="0" r="900" id="FmN-q5xRt01AJAqWIZdu_pad-24"/><rect x="-899.9982" y="-899.9982" width="1799.9964" height="1799.9964" rx="899.9982" ry="899.9982" id="FmN-q5xRt01AJAqWIZdu_pad-25"/><circle cx="0" cy="0" r="310" id="FmN-q5xRt01AJAqWIZdu_pad-26"/></defs><g transform="translate(0,-24412.770000000004) scale(1,-1)" fill="currentColor" stroke="currentColor"><path d="M -6350 24130 -6350 17780 -5080 16510 10160 16510 17780 8890 40640 8890 43180 6350 43180 -22860 41910 -24130 M 41910 -7620 39878 -9652 30988 -9652 28702 -11937.94 28702 -30988 25400 -34289.94 M -7620 -30480 -7620 -31750 -4572 -34798 25527 -34798 29210 -31115 29210 -12065 31115 -10160 41910 -10160 M -5080 -30480 -5080 -33019.92 -3810 -34289.92 25399.94 -34289.92 M -12699.74 -30479.74 -12699.97 -13969.97 -15239.97 -11429.97 -15239.97 5080 -7509.99 12809.98 -2540 12809.98 M 2540 -48260 3810 -46990 38100 -46990 39370 -45720 39370 -22859.94 40640 -21590 41910 -21590 M -5080 -38100 -5080 -48259.74 M -2540 -48259.74 -3810 -46989.74 -3810 -35560 M -17780 2610.1 -17780 -2610.1 M -13970 24130 -2649.98 12809.98 -2540 12809.98 M -17780 5009.89 -17709.89 5080 -15239.97 5080 M 0 -30480 7620 -22860 7620 -10119.36 4500.87 -7000.23 M 7620 -48259.74 8890.15 -49529.89 41909.92 -49529.89 43179.92 -48259.89 43179.92 -25399.92 41910 -24130 M -17780 5009.89 -17780 10160 -31750 24130 M -30479.74 -30480 -30479.94 -20319.94 -17780 -7620 -17780 -5009.89 M -5080 6459.21 -5080 -8890 -11430 -15240 -11430 -46990 -10160 -48260 M -20319.74 -48259.74 -22859.59 -45719.89 -40639.94 -45719.89 -41909.92 -44449.92 -41909.92 -6350 -40639.92 -5080 -38099.92 -5080 M -38100 10160 -41910 10160 -43815 8255 -43815 -45085 -40640 -48260 -30480 -48260 M -38100 5080 -40640 5080 -42545 3175 -42545 -44450 -40640 -46355 -24765 -46355 -22860 -48260 M -27940 -48260 -29210 -46990 -40640 -46990 -43180 -44450 -43180 6350 -41910 7620 -38100 7620 M -5080 -11539.21 -10160 -16619.21 -10160 -30480 M -38100 -10160 -39370 -10160 -40640 -11430 -40640 -43180 -39370 -44450 -16510 -44450 -12700 -48260 M -17780 -48260 -20955 -45085 -40005 -45085 -41402 -43688 -41402 -8382 -40640 -7620 -38100 -7620" fill="none" stroke-width="254"/><use xlink:href="#FmN-q5xRt01AJAqWIZdu_pad-11" x="-5080" y="-11539.98"/><use xlink:href="#FmN-q5xRt01AJAqWIZdu_pad-11" x="-2540" y="-5189.98"/><use xlink:href="#FmN-q5xRt01AJAqWIZdu_pad-11" x="-5080" y="6459.98"/><use xlink:href="#FmN-q5xRt01AJAqWIZdu_pad-11" x="-2540" y="12809.98"/><use xlink:href="#FmN-q5xRt01AJAqWIZdu_pad-12" x="4499.86" y="-7000.23"/><use xlink:href="#FmN-q5xRt01AJAqWIZdu_pad-12" x="3999.99" y="-11999.97"/><use xlink:href="#FmN-q5xRt01AJAqWIZdu_pad-12" x="3999.99" y="6999.98"/><use xlink:href="#FmN-q5xRt01AJAqWIZdu_pad-12" x="4499.86" y="11999.72"/><use xlink:href="#FmN-q5xRt01AJAqWIZdu_pad-13" x="-17780" y="-5009.89"/><use xlink:href="#FmN-q5xRt01AJAqWIZdu_pad-13" x="-17780" y="-2610.1"/><use xlink:href="#FmN-q5xRt01AJAqWIZdu_pad-13" x="-17780" y="2610.1"/><use xlink:href="#FmN-q5xRt01AJAqWIZdu_pad-14" x="-17780" y="5009.89"/><use xlink:href="#FmN-q5xRt01AJAqWIZdu_pad-15" x="-30479.74" y="-30480"/><use xlink:href="#FmN-q5xRt01AJAqWIZdu_pad-15" x="-27939.74" y="-30480"/><use xlink:href="#FmN-q5xRt01AJAqWIZdu_pad-16" x="-25399.74" y="-30479.74"/><use xlink:href="#FmN-q5xRt01AJAqWIZdu_pad-15" x="-22859.74" y="-30480"/><use xlink:href="#FmN-q5xRt01AJAqWIZdu_pad-15" x="-20319.74" y="-30480"/><use xlink:href="#FmN-q5xRt01AJAqWIZdu_pad-15" x="-17779.74" y="-30480"/><use xlink:href="#FmN-q5xRt01AJAqWIZdu_pad-15" x="-15239.74" y="-30480"/><use xlink:href="#FmN-q5xRt01AJAqWIZdu_pad-16" x="-12699.74" y="-30479.74"/><use xlink:href="#FmN-q5xRt01AJAqWIZdu_pad-15" x="-10160" y="-30480"/><use xlink:href="#FmN-q5xRt01AJAqWIZdu_pad-15" x="-7620" y="-30480"/><use xlink:href="#FmN-q5xRt01AJAqWIZdu_pad-15" x="17780" y="-30480"/><use xlink:href="#FmN-q5xRt01AJAqWIZdu_pad-15" x="15240" y="-30480"/><use xlink:href="#FmN-q5xRt01AJAqWIZdu_pad-16" x="12700.25" y="-30479.74"/><use xlink:href="#FmN-q5xRt01AJAqWIZdu_pad-15" x="10160" y="-30480"/><use xlink:href="#FmN-q5xRt01AJAqWIZdu_pad-15" x="7620" y="-30480"/><use xlink:href="#FmN-q5xRt01AJAqWIZdu_pad-15" x="5080" y="-30480"/><use xlink:href="#FmN-q5xRt01AJAqWIZdu_pad-15" x="2540" y="-30480"/><use xlink:href="#FmN-q5xRt01AJAqWIZdu_pad-16" x="0.25" y="-30479.74"/><use xlink:href="#FmN-q5xRt01AJAqWIZdu_pad-15" x="-2540" y="-30480"/><use xlink:href="#FmN-q5xRt01AJAqWIZdu_pad-15" x="-5080" y="-30480"/><use xlink:href="#FmN-q5xRt01AJAqWIZdu_pad-15" x="-5080" y="-48259.74"/><use xlink:href="#FmN-q5xRt01AJAqWIZdu_pad-15" x="-2540" y="-48259.74"/><use xlink:href="#FmN-q5xRt01AJAqWIZdu_pad-16" x="0.25" y="-48259.74"/><use xlink:href="#FmN-q5xRt01AJAqWIZdu_pad-15" x="2540" y="-48259.74"/><use xlink:href="#FmN-q5xRt01AJAqWIZdu_pad-15" x="5080" y="-48259.74"/><use xlink:href="#FmN-q5xRt01AJAqWIZdu_pad-15" x="7620" y="-48259.74"/><use xlink:href="#FmN-q5xRt01AJAqWIZdu_pad-15" x="10160" y="-48259.74"/><use xlink:href="#FmN-q5xRt01AJAqWIZdu_pad-16" x="12700.25" y="-48259.74"/><use xlink:href="#FmN-q5xRt01AJAqWIZdu_pad-15" x="15240" y="-48259.74"/><use xlink:href="#FmN-q5xRt01AJAqWIZdu_pad-15" x="17780" y="-48259.74"/><use xlink:href="#FmN-q5xRt01AJAqWIZdu_pad-15" x="-7620" y="-48259.74"/><use xlink:href="#FmN-q5xRt01AJAqWIZdu_pad-15" x="-10160" y="-48259.74"/><use xlink:href="#FmN-q5xRt01AJAqWIZdu_pad-16" x="-12699.74" y="-48259.74"/><use xlink:href="#FmN-q5xRt01AJAqWIZdu_pad-15" x="-15239.74" y="-48259.74"/><use xlink:href="#FmN-q5xRt01AJAqWIZdu_pad-15" x="-17779.74" y="-48259.74"/><use xlink:href="#FmN-q5xRt01AJAqWIZdu_pad-15" x="-20319.74" y="-48259.74"/><use xlink:href="#FmN-q5xRt01AJAqWIZdu_pad-15" x="-22859.74" y="-48259.74"/><use xlink:href="#FmN-q5xRt01AJAqWIZdu_pad-16" x="-25399.74" y="-48259.74"/><use xlink:href="#FmN-q5xRt01AJAqWIZdu_pad-15" x="-27939.74" y="-48259.74"/><use xlink:href="#FmN-q5xRt01AJAqWIZdu_pad-15" x="-30479.74" y="-48259.74"/><use xlink:href="#FmN-q5xRt01AJAqWIZdu_pad-17" x="35249.86" y="0"/><use xlink:href="#FmN-q5xRt01AJAqWIZdu_pad-17" x="-35249.61" y="0"/><use xlink:href="#FmN-q5xRt01AJAqWIZdu_pad-18" x="-35249.61" y="15999.96"/><use xlink:href="#FmN-q5xRt01AJAqWIZdu_pad-18" x="-35249.61" y="-15999.96"/><use xlink:href="#FmN-q5xRt01AJAqWIZdu_pad-18" x="35249.86" y="-15999.96"/><use xlink:href="#FmN-q5xRt01AJAqWIZdu_pad-18" x="35249.86" y="15999.96"/><use xlink:href="#FmN-q5xRt01AJAqWIZdu_pad-19" x="-21249.89" y="22124.92"/><use xlink:href="#FmN-q5xRt01AJAqWIZdu_pad-20" x="21250.14" y="22124.92"/><use xlink:href="#FmN-q5xRt01AJAqWIZdu_pad-21" x="21250.14" y="-22124.92"/><use xlink:href="#FmN-q5xRt01AJAqWIZdu_pad-22" x="-21249.89" y="-22124.92"/><use xlink:href="#FmN-q5xRt01AJAqWIZdu_pad-23" x="-38099.74" y="-10160"/><use xlink:href="#FmN-q5xRt01AJAqWIZdu_pad-24" x="-38100" y="-7620"/><use xlink:href="#FmN-q5xRt01AJAqWIZdu_pad-24" x="-38100" y="-5080"/><use xlink:href="#FmN-q5xRt01AJAqWIZdu_pad-24" x="-38100" y="5080"/><use xlink:href="#FmN-q5xRt01AJAqWIZdu_pad-24" x="-38100" y="7620"/><use xlink:href="#FmN-q5xRt01AJAqWIZdu_pad-24" x="-38100" y="10160"/><use xlink:href="#FmN-q5xRt01AJAqWIZdu_pad-24" x="-39370" y="24130"/><use xlink:href="#FmN-q5xRt01AJAqWIZdu_pad-24" x="-34290" y="24130"/><use xlink:href="#FmN-q5xRt01AJAqWIZdu_pad-24" x="-36830" y="24130"/><use xlink:href="#FmN-q5xRt01AJAqWIZdu_pad-23" x="-31750" y="24130"/><use xlink:href="#FmN-q5xRt01AJAqWIZdu_pad-23" x="-13970" y="24130"/><use xlink:href="#FmN-q5xRt01AJAqWIZdu_pad-24" x="-11430" y="24130"/><use xlink:href="#FmN-q5xRt01AJAqWIZdu_pad-24" x="-8890" y="24130"/><use xlink:href="#FmN-q5xRt01AJAqWIZdu_pad-24" x="-6350" y="24130"/><use xlink:href="#FmN-q5xRt01AJAqWIZdu_pad-23" x="41910" y="-19050"/><use xlink:href="#FmN-q5xRt01AJAqWIZdu_pad-24" x="41910" y="-21590"/><use xlink:href="#FmN-q5xRt01AJAqWIZdu_pad-24" x="41910" y="-24130"/><use xlink:href="#FmN-q5xRt01AJAqWIZdu_pad-23" x="41910" y="-12700"/><use xlink:href="#FmN-q5xRt01AJAqWIZdu_pad-24" x="39370" y="24130"/><use xlink:href="#FmN-q5xRt01AJAqWIZdu_pad-24" x="36830" y="24130"/><use xlink:href="#FmN-q5xRt01AJAqWIZdu_pad-24" x="34290" y="24130"/><use xlink:href="#FmN-q5xRt01AJAqWIZdu_pad-23" x="31750" y="24130"/><use xlink:href="#FmN-q5xRt01AJAqWIZdu_pad-24" x="41910" y="-10160"/><use xlink:href="#FmN-q5xRt01AJAqWIZdu_pad-24" x="41910" y="-7620"/><use xlink:href="#FmN-q5xRt01AJAqWIZdu_pad-24" x="41910" y="-5080"/><use xlink:href="#FmN-q5xRt01AJAqWIZdu_pad-25" x="41910" y="24130"/><use xlink:href="#FmN-q5xRt01AJAqWIZdu_pad-15" x="-39370" y="-39370"/><use xlink:href="#FmN-q5xRt01AJAqWIZdu_pad-15" x="-39370" y="-36830"/><use xlink:href="#FmN-q5xRt01AJAqWIZdu_pad-15" x="-39370" y="-34290"/><use xlink:href="#FmN-q5xRt01AJAqWIZdu_pad-15" x="-39370" y="-31750"/><use xlink:href="#FmN-q5xRt01AJAqWIZdu_pad-15" x="-39370" y="-29210"/><use xlink:href="#FmN-q5xRt01AJAqWIZdu_pad-16" x="-39370" y="-26670"/><use xlink:href="#FmN-q5xRt01AJAqWIZdu_pad-26" x="-3810" y="-35560"/><use xlink:href="#FmN-q5xRt01AJAqWIZdu_pad-26" x="-5080" y="-38100"/></g></svg>