<svg version="1.1" xmlns="http://www.w3.org/2000/svg" xmlns:xlink="http://www.w3.org/1999/xlink" stroke-linecap="round" stroke-linejoin="round" stroke-width="0" fill-rule="evenodd" width="83.08mm" height="74.35471000000001mm" viewBox="-40270 -49110.59 83080 74354.71" id="D93kbn3IejGOqiomoZpT"><defs><circle cx="0" cy="0" r="1201.55" id="D93kbn3IejGOqiomoZpT_pad-10"/><circle cx="0" cy="0" r="1320.8" id="D93kbn3IejGOqiomoZpT_pad-11"/><circle cx="0" cy="0" r="800" id="D93kbn3IejGOqiomoZpT_pad-12"/><rect x="-800" y="-800" width="1600" height="1600" id="D93kbn3IejGOqiomoZpT_pad-13"/><circle cx="0" cy="0" r="850.8" id="D93kbn3IejGOqiomoZpT_pad-14"/><g id="D93kbn3IejGOqiomoZpT_pad-15"><circle cx="800" cy="800" r="50.8"/><circle cx="800" cy="-800" r="50.8"/><circle cx="-800" cy="-800" r="50.8"/><circle cx="-800" cy="800" r="50.8"/><polygon points="850.8,800 850.8,-800 749.2,-800 749.2,800"/><polygon points="800,-850.8 -800,-850.8 -800,-749.2 800,-749.2"/><polygon points="-749.2,-800 -749.2,800 -850.8,800 -850.8,-800"/><polygon points="-800,749.2 800,749.2 800,850.8 -800,850.8"/><polygon points="800,800 800,-800 -800,-800 -800,800"/></g><rect x="-3999.992" y="-2125.0021" width="7999.984" height="4250.0042" rx="2125.0021" ry="2125.0021" id="D93kbn3IejGOqiomoZpT_pad-16"/><rect x="-2749.9945" y="-1175.004" width="5499.989" height="2350.008" rx="1175.004" ry="1175.004" id="D93kbn3IejGOqiomoZpT_pad-17"/><g id="D93kbn3IejGOqiomoZpT_pad-18"><circle cx="-2124.6" cy="944.2" r="2175"/><circle cx="2124.6" cy="-944.2" r="2175"/><polygon points="-3007.89908,-1043.36326 1241.30092,-2931.76326 3007.89908,1043.36326 -1241.30092,2931.76326"/></g><g id="D93kbn3IejGOqiomoZpT_pad-19"><circle cx="-2124.6" cy="-944.2" r="2175"/><circle cx="2124.6" cy="944.2" r="2175"/><polygon points="-1241.30092,-2931.76326 3007.89908,-1043.36326 1241.30092,2931.76326 -3007.89908,1043.36326"/></g><g id="D93kbn3IejGOqiomoZpT_pad-20"><circle cx="-2205.7" cy="735.2" r="2175"/><circle cx="2205.7" cy="-735.2" r="2175"/><polygon points="-2893.46733,-1328.19553 1517.93267,-2798.59553 2893.46733,1328.19553 -1517.93267,2798.59553"/></g><g id="D93kbn3IejGOqiomoZpT_pad-21"><circle cx="-2205.7" cy="-735.2" r="2175"/><circle cx="2205.7" cy="735.2" r="2175"/><polygon points="-1517.93267,-2798.59553 2893.46733,-1328.19553 1517.93267,2798.59553 -2893.46733,1328.19553"/></g><g id="D93kbn3IejGOqiomoZpT_pad-22"><circle cx="900" cy="900" r="50.8"/><circle cx="900" cy="-900" r="50.8"/><circle cx="-900" cy="-900" r="50.8"/><circle cx="-900" cy="900" r="50.8"/><polygon points="950.8,900 950.8,-900 849.2,-900 849.2,900"/><polygon points="900,-950.8 -900,-950.8 -900,-849.2 900,-849.2"/><polygon points="-849.2,-900 -849.2,900 -950.8,900 -950.8,-900"/><polygon points="-900,849.2 900,849.2 900,950.8 -900,950.8"/><polygon points="900,900 900,-900 -900,-900 -900,900"/></g><circle cx="0" cy="0" r="950.8" id="D93kbn3IejGOqiomoZpT_pad-23"/><circle cx="0" cy="0" r="900" id="D93kbn3IejGOqiomoZpT_pad-24"/><rect x="-900" y="-900" width="1800" height="1800" id="D93kbn3IejGOqiomoZpT_pad-25"/><rect x="-899.9982" y="-899.9982" width="1799.9964" height="1799.9964" rx="899.9982" ry="899.9982" id="D93kbn3IejGOqiomoZpT_pad-26"/></defs><g transform="translate(0,-23866.469999999987) scale(1,-1)" fill="currentColor" stroke="currentColor"><use xlink:href="#D93kbn3IejGOqiomoZpT_pad-10" x="-5080" y="-11539.98"/><use xlink:href="#D93kbn3IejGOqiomoZpT_pad-10" x="-2540" y="-5189.98"/><use xlink:href="#D93kbn3IejGOqiomoZpT_pad-10" x="-5080" y="6459.98"/><use xlink:href="#D93kbn3IejGOqiomoZpT_pad-10" x="-2540" y="12809.98"/><use xlink:href="#D93kbn3IejGOqiomoZpT_pad-11" x="4499.86" y="-7000.23"/><use xlink:href="#D93kbn3IejGOqiomoZpT_pad-11" x="3999.99" y="-11999.97"/><use xlink:href="#D93kbn3IejGOqiomoZpT_pad-11" x="3999.99" y="6999.98"/><use xlink:href="#D93kbn3IejGOqiomoZpT_pad-11" x="4499.86" y="11999.72"/><use xlink:href="#D93kbn3IejGOqiomoZpT_pad-12" x="-17780" y="-5009.89"/><use xlink:href="#D93kbn3IejGOqiomoZpT_pad-12" x="-17780" y="-2610.1"/><use xlink:href="#D93kbn3IejGOqiomoZpT_pad-12" x="-17780" y="2610.1"/><use xlink:href="#D93kbn3IejGOqiomoZpT_pad-13" x="-17780" y="5009.89"/><use xlink:href="#D93kbn3IejGOqiomoZpT_pad-14" x="-30479.74" y="-30480"/><use xlink:href="#D93kbn3IejGOqiomoZpT_pad-14" x="-27939.74" y="-30480"/><use xlink:href="#D93kbn3IejGOqiomoZpT_pad-15" x="-25399.77" y="-30479.84"/><use xlink:href="#D93kbn3IejGOqiomoZpT_pad-14" x="-22859.74" y="-30480"/><use xlink:href="#D93kbn3IejGOqiomoZpT_pad-14" x="-20319.74" y="-30480"/><use xlink:href="#D93kbn3IejGOqiomoZpT_pad-14" x="-17779.74" y="-30480"/><use xlink:href="#D93kbn3IejGOqiomoZpT_pad-14" x="-15239.74" y="-30480"/><use xlink:href="#D93kbn3IejGOqiomoZpT_pad-15" x="-12699.79" y="-30479.84"/><use xlink:href="#D93kbn3IejGOqiomoZpT_pad-14" x="-10160" y="-30480"/><use xlink:href="#D93kbn3IejGOqiomoZpT_pad-14" x="-7620" y="-30480"/><use xlink:href="#D93kbn3IejGOqiomoZpT_pad-14" x="17780" y="-30480"/><use xlink:href="#D93kbn3IejGOqiomoZpT_pad-14" x="15240" y="-30480"/><use xlink:href="#D93kbn3IejGOqiomoZpT_pad-15" x="12700.15" y="-30479.84"/><use xlink:href="#D93kbn3IejGOqiomoZpT_pad-14" x="10160" y="-30480"/><use xlink:href="#D93kbn3IejGOqiomoZpT_pad-14" x="7620" y="-30480"/><use xlink:href="#D93kbn3IejGOqiomoZpT_pad-14" x="5080" y="-30480"/><use xlink:href="#D93kbn3IejGOqiomoZpT_pad-14" x="2540" y="-30480"/><use xlink:href="#D93kbn3IejGOqiomoZpT_pad-15" x="0.17" y="-30479.84"/><use xlink:href="#D93kbn3IejGOqiomoZpT_pad-14" x="-2540" y="-30480"/><use xlink:href="#D93kbn3IejGOqiomoZpT_pad-14" x="-5080" y="-30480"/><use xlink:href="#D93kbn3IejGOqiomoZpT_pad-14" x="-5080" y="-48259.74"/><use xlink:href="#D93kbn3IejGOqiomoZpT_pad-14" x="-2540" y="-48259.74"/><use xlink:href="#D93kbn3IejGOqiomoZpT_pad-15" x="0.17" y="-48259.79"/><use xlink:href="#D93kbn3IejGOqiomoZpT_pad-14" x="2540" y="-48259.74"/><use xlink:href="#D93kbn3IejGOqiomoZpT_pad-14" x="5080" y="-48259.74"/><use xlink:href="#D93kbn3IejGOqiomoZpT_pad-14" x="7620" y="-48259.74"/><use xlink:href="#D93kbn3IejGOqiomoZpT_pad-14" x="10160" y="-48259.74"/><use xlink:href="#D93kbn3IejGOqiomoZpT_pad-15" x="12700.15" y="-48259.79"/><use xlink:href="#D93kbn3IejGOqiomoZpT_pad-14" x="15240" y="-48259.74"/><use xlink:href="#D93kbn3IejGOqiomoZpT_pad-14" x="17780" y="-48259.74"/><use xlink:href="#D93kbn3IejGOqiomoZpT_pad-14" x="-7620" y="-48259.74"/><use xlink:href="#D93kbn3IejGOqiomoZpT_pad-14" x="-10160" y="-48259.74"/><use xlink:href="#D93kbn3IejGOqiomoZpT_pad-15" x="-12699.79" y="-48259.79"/><use xlink:href="#D93kbn3IejGOqiomoZpT_pad-14" x="-15239.74" y="-48259.74"/><use xlink:href="#D93kbn3IejGOqiomoZpT_pad-14" x="-17779.74" y="-48259.74"/><use xlink:href="#D93kbn3IejGOqiomoZpT_pad-14" x="-20319.74" y="-48259.74"/><use xlink:href="#D93kbn3IejGOqiomoZpT_pad-14" x="-22859.74" y="-48259.74"/><use xlink:href="#D93kbn3IejGOqiomoZpT_pad-15" x="-25399.77" y="-48259.79"/><use xlink:href="#D93kbn3IejGOqiomoZpT_pad-14" x="-27939.74" y="-48259.74"/><use xlink:href="#D93kbn3IejGOqiomoZpT_pad-14" x="-30479.74" y="-48259.74"/><use xlink:href="#D93kbn3IejGOqiomoZpT_pad-16" x="35249.86" y="0"/><use xlink:href="#D93kbn3IejGOqiomoZpT_pad-16" x="-35249.61" y="0"/><use xlink:href="#D93kbn3IejGOqiomoZpT_pad-17" x="-35249.61" y="15999.96"/><use xlink:href="#D93kbn3IejGOqiomoZpT_pad-17" x="-35249.61" y="-15999.96"/><use xlink:href="#D93kbn3IejGOqiomoZpT_pad-17" x="35249.86" y="-15999.96"/><use xlink:href="#D93kbn3IejGOqiomoZpT_pad-17" x="35249.86" y="15999.96"/><use xlink:href="#D93kbn3IejGOqiomoZpT_pad-18" x="-21249.89" y="22124.92"/><use xlink:href="#D93kbn3IejGOqiomoZpT_pad-19" x="21250.14" y="22124.92"/><use xlink:href="#D93kbn3IejGOqiomoZpT_pad-20" x="21250.14" y="-22124.92"/><use xlink:href="#D93kbn3IejGOqiomoZpT_pad-21" x="-21249.89" y="-22124.92"/><use xlink:href="#D93kbn3IejGOqiomoZpT_pad-22" x="-38099.84" y="-10160"/><use xlink:href="#D93kbn3IejGOqiomoZpT_pad-23" x="-38100" y="-7620"/><use xlink:href="#D93kbn3IejGOqiomoZpT_pad-23" x="-38100" y="-5080"/><use xlink:href="#D93kbn3IejGOqiomoZpT_pad-23" x="-38100" y="5080"/><use xlink:href="#D93kbn3IejGOqiomoZpT_pad-23" x="-38100" y="7620"/><use xlink:href="#D93kbn3IejGOqiomoZpT_pad-23" x="-38100" y="10160"/><use xlink:href="#D93kbn3IejGOqiomoZpT_pad-24" x="-39370" y="24130"/><use xlink:href="#D93kbn3IejGOqiomoZpT_pad-24" x="-34290" y="24130"/><use xlink:href="#D93kbn3IejGOqiomoZpT_pad-24" x="-36830" y="24130"/><use xlink:href="#D93kbn3IejGOqiomoZpT_pad-25" x="-31750" y="24130"/><use xlink:href="#D93kbn3IejGOqiomoZpT_pad-25" x="-13970" y="24130"/><use xlink:href="#D93kbn3IejGOqiomoZpT_pad-24" x="-11430" y="24130"/><use xlink:href="#D93kbn3IejGOqiomoZpT_pad-24" x="-8890" y="24130"/><use xlink:href="#D93kbn3IejGOqiomoZpT_pad-24" x="-6350" y="24130"/><use xlink:href="#D93kbn3IejGOqiomoZpT_pad-25" x="41910" y="-19050"/><use xlink:href="#D93kbn3IejGOqiomoZpT_pad-24" x="41910" y="-21590"/><use xlink:href="#D93kbn3IejGOqiomoZpT_pad-24" x="41910" y="-24130"/><use xlink:href="#D93kbn3IejGOqiomoZpT_pad-25" x="41910" y="-12700"/><use xlink:href="#D93kbn3IejGOqiomoZpT_pad-24" x="39370" y="24130"/><use xlink:href="#D93kbn3IejGOqiomoZpT_pad-24" x="36830" y="24130"/><use xlink:href="#D93kbn3IejGOqiomoZpT_pad-24" x="34290" y="24130"/><use xlink:href="#D93kbn3IejGOqiomoZpT_pad-25" x="31750" y="24130"/><use xlink:href="#D93kbn3IejGOqiomoZpT_pad-24" x="41910" y="-10160"/><use xlink:href="#D93kbn3IejGOqiomoZpT_pad-24" x="41910" y="-7620"/><use xlink:href="#D93kbn3IejGOqiomoZpT_pad-24" x="41910" y="-5080"/><use xlink:href="#D93kbn3IejGOqiomoZpT_pad-26" x="41910" y="24130"/><use xlink:href="#D93kbn3IejGOqiomoZpT_pad-14" x="-39370" y="-39370"/><use xlink:href="#D93kbn3IejGOqiomoZpT_pad-14" x="-39370" y="-36830"/><use xlink:href="#D93kbn3IejGOqiomoZpT_pad-14" x="-39370" y="-34290"/><use xlink:href="#D93kbn3IejGOqiomoZpT_pad-14" x="-39370" y="-31750"/><use xlink:href="#D93kbn3IejGOqiomoZpT_pad-14" x="-39370" y="-29210"/><use xlink:href="#D93kbn3IejGOqiomoZpT_pad-15" x="-39369.94" y="-26670.05"/></g></svg>