<svg version="1.1" xmlns="http://www.w3.org/2000/svg" xmlns:xlink="http://www.w3.org/1999/xlink" stroke-linecap="round" stroke-linejoin="round" stroke-width="0" fill-rule="evenodd" clip-rule="evenodd" id="v9nb7kaPTJ4ZKr0uQ6fA_top" viewBox="-44449.92 -50799.92 88900.05 76580.87" width="88.90005000000001mm" height="76.58086999999999mm" class="w-100 h-100"><defs><style>.v9nb7kaPTJ4ZKr0uQ6fA_fr4 {color: #666666;}
.v9nb7kaPTJ4ZKr0uQ6fA_cu {color: #cccccc;}
.v9nb7kaPTJ4ZKr0uQ6fA_cf {color: #cc9933;}
.v9nb7kaPTJ4ZKr0uQ6fA_sm {color: #004200; opacity: 0.75;}
.v9nb7kaPTJ4ZKr0uQ6fA_ss {color: #ffffff;}
.v9nb7kaPTJ4ZKr0uQ6fA_sp {color: #999999;}
.v9nb7kaPTJ4ZKr0uQ6fA_out {color: #000000;}</style><circle cx="0" cy="0" r="1099.95" id="FmN-q5xRt01AJAqWIZdu_pad-11"/><circle cx="0" cy="0" r="1270" id="FmN-q5xRt01AJAqWIZdu_pad-12"/><circle cx="0" cy="0" r="750" id="FmN-q5xRt01AJAqWIZdu_pad-13"/><rect x="-750" y="-750" width="1500" height="1500" id="FmN-q5xRt01AJAqWIZdu_pad-14"/><circle cx="0" cy="0" r="800" id="FmN-q5xRt01AJAqWIZdu_pad-15"/><rect x="-800" y="-800" width="1600" height="1600" id="FmN-q5xRt01AJAqWIZdu_pad-16"/><rect x="-3999.992" y="-2125.0021" width="7999.984" height="4250.0042" rx="2125.0021" ry="2125.0021" id="FmN-q5xRt01AJAqWIZdu_pad-17"/><rect x="-2749.9945" y="-1175.004" width="5499.989" height="2350.008" rx="1175.004" ry="1175.004" id="FmN-q5xRt01AJAqWIZdu_pad-18"/><g id="FmN-q5xRt01AJAqWIZdu_pad-19"><circle cx="-2124.6" cy="944.2" r="2175"/><circle cx="2124.6" cy="-944.2" r="2175"/><polygon points="-3007.89908,-1043.36326 1241.30092,-2931.76326 3007.89908,1043.36326 -1241.30092,2931.76326"/></g><g id="FmN-q5xRt01AJAqWIZdu_pad-20"><circle cx="-2124.6" cy="-944.2" r="2175"/><circle cx="2124.6" cy="944.2" r="2175"/><polygon points="-1241.30092,-2931.76326 3007.89908,-1043.36326 1241.30092,2931.76326 -3007.89908,1043.36326"/></g><g id="FmN-q5xRt01AJAqWIZdu_pad-21"><circle cx="-2205.7" cy="735.2" r="2175"/><circle cx="2205.7" cy="-735.2" r="2175"/><polygon points="-2893.46733,-1328.19553 1517.93267,-2798.59553 2893.46733,1328.19553 -1517.93267,2798.59553"/></g><g id="FmN-q5xRt01AJAqWIZdu_pad-22"><circle cx="-2205.7" cy="-735.2" r="2175"/><circle cx="2205.7" cy="735.2" r="2175"/><polygon points="-1517.93267,-2798.59553 2893.46733,-1328.19553 1517.93267,2798.59553 -2893.46733,1328.19553"/></g><rect x="-900" y="-900" width="1800" height="1800" id="FmN-q5xRt01AJAqWIZdu_pad-23"/><circle cx="0" cy="0" r="900" id="FmN-q5xRt01AJAqWIZdu_pad-24"/><rect x="-899.9982" y="-899.9982" width="1799.9964" height="1799.9964" rx="899.9982" ry="899.9982" id="FmN-q5xRt01AJAqWIZdu_pad-25"/><circle cx="0" cy="0" r="310" id="FmN-q5xRt01AJAqWIZdu_pad-26"/><circle cx="0" cy="0" r="1201.55" id="eoaptyZA5u8xXqG7ZiB-_pad-10"/><circle cx="0" cy="0" r="1320.8" id="eoaptyZA5u8xXqG7ZiB-_pad-11"/><circle cx="0" cy="0" r="800" id="eoaptyZA5u8xXqG7ZiB-_pad-12"/><rect x="-800" y="-800" width="1600" height="1600" id="eoaptyZA5u8xXqG7ZiB-_pad-13"/><circle cx="0" cy="0" r="850.8" id="eoaptyZA5u8xXqG7ZiB-_pad-14"/><g id="eoaptyZA5u8xXqG7ZiB-_pad-15"><circle cx="800" cy="800" r="50.8"/><circle cx="800" cy="-800" r="50.8"/><circle cx="-800" cy="-800" r="50.8"/><circle cx="-800" cy="800" r="50.8"/><polygon points="850.8,800 850.8,-800 749.2,-800 749.2,800"/><polygon points="800,-850.8 -800,-850.8 -800,-749.2 800,-749.2"/><polygon points="-749.2,-800 -749.2,800 -850.8,800 -850.8,-800"/><polygon points="-800,749.2 800,749.2 800,850.8 -800,850.8"/><polygon points="800,800 800,-800 -800,-800 -800,800"/></g><rect x="-3999.992" y="-2125.0021" width="7999.984" height="4250.0042" rx="2125.0021" ry="2125.0021" id="eoaptyZA5u8xXqG7ZiB-_pad-16"/><rect x="-2749.9945" y="-1175.004" width="5499.989" height="2350.008" rx="1175.004" ry="1175.004" id="eoaptyZA5u8xXqG7ZiB-_pad-17"/><g id="eoaptyZA5u8xXqG7ZiB-_pad-18"><circle cx="-2124.6" cy="944.2" r="2175"/><circle cx="2124.6" cy="-944.2" r="2175"/><polygon points="-3007.89908,-1043.36326 1241.30092,-2931.76326 3007.89908,1043.36326 -1241.30092,2931.76326"/></g><g id="eoaptyZA5u8xXqG7ZiB-_pad-19"><circle cx="-2124.6" cy="-944.2" r="2175"/><circle cx="2124.6" cy="944.2" r="2175"/><polygon points="-1241.30092,-2931.76326 3007.89908,-1043.36326 1241.30092,2931.76326 -3007.89908,1043.36326"/></g><g id="eoaptyZA5u8xXqG7ZiB-_pad-20"><circle cx="-2205.7" cy="735.2" r="2175"/><circle cx="2205.7" cy="-735.2" r="2175"/><polygon points="-2893.46733,-1328.19553 1517.93267,-2798.59553 2893.46733,1328.19553 -1517.93267,2798.59553"/></g><g id="eoaptyZA5u8xXqG7ZiB-_pad-21"><circle cx="-2205.7" cy="-735.2" r="2175"/><circle cx="2205.7" cy="735.2" r="2175"/><polygon points="-1517.93267,-2798.59553 2893.46733,-1328.19553 1517.93267,2798.59553 -2893.46733,1328.19553"/></g><g id="eoaptyZA5u8xXqG7ZiB-_pad-22"><circle cx="900" cy="900" r="50.8"/><circle cx="900" cy="-900" r="50.8"/><circle cx="-900" cy="-900" r="50.8"/><circle cx="-900" cy="900" r="50.8"/><polygon points="950.8,900 950.8,-900 849.2,-900 849.2,900"/><polygon points="900,-950.8 -900,-950.8 -900,-849.2 900,-849.2"/><polygon points="-849.2,-900 -849.2,900 -950.8,900 -950.8,-900"/><polygon points="-900,849.2 900,849.2 900,950.8 -900,950.8"/><polygon points="900,900 900,-900 -900,-900 -900,900"/></g><circle cx="0" cy="0" r="950.8" id="eoaptyZA5u8xXqG7ZiB-_pad-23"/><circle cx="0" cy="0" r="900" id="eoaptyZA5u8xXqG7ZiB-_pad-24"/><rect x="-900" y="-900" width="1800" height="1800" id="eoaptyZA5u8xXqG7ZiB-_pad-25"/><rect x="-899.9982" y="-899.9982" width="1799.9964" height="1799.9964" rx="899.9982" ry="899.9982" id="eoaptyZA5u8xXqG7ZiB-_pad-26"/><circle cx="0" cy="0" r="850" id="VLS3CwLBFxeWZoSHu8Kp_pad-1"/><circle cx="0" cy="0" r="1000" id="VLS3CwLBFxeWZoSHu8Kp_pad-2"/><circle cx="0" cy="0" r="2000" id="VLS3CwLBFxeWZoSHu8Kp_pad-4"/><circle cx="0" cy="0" r="2075.5" id="VLS3CwLBFxeWZoSHu8Kp_pad-5"/><circle cx="0" cy="0" r="155" id="d4F36KNCcHb9hll9jldl_pad-1"/><circle cx="0" cy="0" r="400" id="d4F36KNCcHb9hll9jldl_pad-2"/><circle cx="0" cy="0" r="500" id="d4F36KNCcHb9hll9jldl_pad-3"/><circle cx="0" cy="0" r="600" id="d4F36KNCcHb9hll9jldl_pad-4"/><circle cx="0" cy="0" r="155" id="nxbQDIh4wQYIVTgP30HM_pad-1"/><g id="v9nb7kaPTJ4ZKr0uQ6fA_top_copper"><path d="M -6350 24130 -6350 17780 -5080 16510 10160 16510 17780 8890 40640 8890 43180 6350 43180 -22860 41910 -24130 M 41910 -7620 39878 -9652 30988 -9652 28702 -11937.94 28702 -30988 25400 -34289.94 M -7620 -30480 -7620 -31750 -4572 -34798 25527 -34798 29210 -31115 29210 -12065 31115 -10160 41910 -10160 M -5080 -30480 -5080 -33019.92 -3810 -34289.92 25399.94 -34289.92 M -12699.74 -30479.74 -12699.97 -13969.97 -15239.97 -11429.97 -15239.97 5080 -7509.99 12809.98 -2540 12809.98 M 2540 -48260 3810 -46990 38100 -46990 39370 -45720 39370 -22859.94 40640 -21590 41910 -21590 M -5080 -38100 -5080 -48259.74 M -2540 -48259.74 -3810 -46989.74 -3810 -35560 M -17780 2610.1 -17780 -2610.1 M -13970 24130 -2649.98 12809.98 -2540 12809.98 M -17780 5009.89 -17709.89 5080 -15239.97 5080 M 0 -30480 7620 -22860 7620 -10119.36 4500.87 -7000.23 M 7620 -48259.74 8890.15 -49529.89 41909.92 -49529.89 43179.92 -48259.89 43179.92 -25399.92 41910 -24130 M -17780 5009.89 -17780 10160 -31750 24130 M -30479.74 -30480 -30479.94 -20319.94 -17780 -7620 -17780 -5009.89 M -5080 6459.21 -5080 -8890 -11430 -15240 -11430 -46990 -10160 -48260 M -20319.74 -48259.74 -22859.59 -45719.89 -40639.94 -45719.89 -41909.92 -44449.92 -41909.92 -6350 -40639.92 -5080 -38099.92 -5080 M -38100 10160 -41910 10160 -43815 8255 -43815 -45085 -40640 -48260 -30480 -48260 M -38100 5080 -40640 5080 -42545 3175 -42545 -44450 -40640 -46355 -24765 -46355 -22860 -48260 M -27940 -48260 -29210 -46990 -40640 -46990 -43180 -44450 -43180 6350 -41910 7620 -38100 7620 M -5080 -11539.21 -10160 -16619.21 -10160 -30480 M -38100 -10160 -39370 -10160 -40640 -11430 -40640 -43180 -39370 -44450 -16510 -44450 -12700 -48260 M -17780 -48260 -20955 -45085 -40005 -45085 -41402 -43688 -41402 -8382 -40640 -7620 -38100 -7620" fill="none" stroke-width="254"/><use xlink:href="#FmN-q5xRt01AJAqWIZdu_pad-11" x="-5080" y="-11539.98"/><use xlink:href="#FmN-q5xRt01AJAqWIZdu_pad-11" x="-2540" y="-5189.98"/><use xlink:href="#FmN-q5xRt01AJAqWIZdu_pad-11" x="-5080" y="6459.98"/><use xlink:href="#FmN-q5xRt01AJAqWIZdu_pad-11" x="-2540" y="12809.98"/><use xlink:href="#FmN-q5xRt01AJAqWIZdu_pad-12" x="4499.86" y="-7000.23"/><use xlink:href="#FmN-q5xRt01AJAqWIZdu_pad-12" x="3999.99" y="-11999.97"/><use xlink:href="#FmN-q5xRt01AJAqWIZdu_pad-12" x="3999.99" y="6999.98"/><use xlink:href="#FmN-q5xRt01AJAqWIZdu_pad-12" x="4499.86" y="11999.72"/><use xlink:href="#FmN-q5xRt01AJAqWIZdu_pad-13" x="-17780" y="-5009.89"/><use xlink:href="#FmN-q5xRt01AJAqWIZdu_pad-13" x="-17780" y="-2610.1"/><use xlink:href="#FmN-q5xRt01AJAqWIZdu_pad-13" x="-17780" y="2610.1"/><use xlink:href="#FmN-q5xRt01AJAqWIZdu_pad-14" x="-17780" y="5009.89"/><use xlink:href="#FmN-q5xRt01AJAqWIZdu_pad-15" x="-30479.74" y="-30480"/><use xlink:href="#FmN-q5xRt01AJAqWIZdu_pad-15" x="-27939.74" y="-30480"/><use xlink:href="#FmN-q5xRt01AJAqWIZdu_pad-16" x="-25399.74" y="-30479.74"/><use xlink:href="#FmN-q5xRt01AJAqWIZdu_pad-15" x="-22859.74" y="-30480"/><use xlink:href="#FmN-q5xRt01AJAqWIZdu_pad-15" x="-20319.74" y="-30480"/><use xlink:href="#FmN-q5xRt01AJAqWIZdu_pad-15" x="-17779.74" y="-30480"/><use xlink:href="#FmN-q5xRt01AJAqWIZdu_pad-15" x="-15239.74" y="-30480"/><use xlink:href="#FmN-q5xRt01AJAqWIZdu_pad-16" x="-12699.74" y="-30479.74"/><use xlink:href="#FmN-q5xRt01AJAqWIZdu_pad-15" x="-10160" y="-30480"/><use xlink:href="#FmN-q5xRt01AJAqWIZdu_pad-15" x="-7620" y="-30480"/><use xlink:href="#FmN-q5xRt01AJAqWIZdu_pad-15" x="17780" y="-30480"/><use xlink:href="#FmN-q5xRt01AJAqWIZdu_pad-15" x="15240" y="-30480"/><use xlink:href="#FmN-q5xRt01AJAqWIZdu_pad-16" x="12700.25" y="-30479.74"/><use xlink:href="#FmN-q5xRt01AJAqWIZdu_pad-15" x="10160" y="-30480"/><use xlink:href="#FmN-q5xRt01AJAqWIZdu_pad-15" x="7620" y="-30480"/><use xlink:href="#FmN-q5xRt01AJAqWIZdu_pad-15" x="5080" y="-30480"/><use xlink:href="#FmN-q5xRt01AJAqWIZdu_pad-15" x="2540" y="-30480"/><use xlink:href="#FmN-q5xRt01AJAqWIZdu_pad-16" x="0.25" y="-30479.74"/><use xlink:href="#FmN-q5xRt01AJAqWIZdu_pad-15" x="-2540" y="-30480"/><use xlink:href="#FmN-q5xRt01AJAqWIZdu_pad-15" x="-5080" y="-30480"/><use xlink:href="#FmN-q5xRt01AJAqWIZdu_pad-15" x="-5080" y="-48259.74"/><use xlink:href="#FmN-q5xRt01AJAqWIZdu_pad-15" x="-2540" y="-48259.74"/><use xlink:href="#FmN-q5xRt01AJAqWIZdu_pad-16" x="0.25" y="-48259.74"/><use xlink:href="#FmN-q5xRt01AJAqWIZdu_pad-15" x="2540" y="-48259.74"/><use xlink:href="#FmN-q5xRt01AJAqWIZdu_pad-15" x="5080" y="-48259.74"/><use xlink:href="#FmN-q5xRt01AJAqWIZdu_pad-15" x="7620" y="-48259.74"/><use xlink:href="#FmN-q5xRt01AJAqWIZdu_pad-15" x="10160" y="-48259.74"/><use xlink:href="#FmN-q5xRt01AJAqWIZdu_pad-16" x="12700.25" y="-48259.74"/><use xlink:href="#FmN-q5xRt01AJAqWIZdu_pad-15" x="15240" y="-48259.74"/><use xlink:href="#FmN-q5xRt01AJAqWIZdu_pad-15" x="17780" y="-48259.74"/><use xlink:href="#FmN-q5xRt01AJAqWIZdu_pad-15" x="-7620" y="-48259.74"/><use xlink:href="#FmN-q5xRt01AJAqWIZdu_pad-15" x="-10160" y="-48259.74"/><use xlink:href="#FmN-q5xRt01AJAqWIZdu_pad-16" x="-12699.74" y="-48259.74"/><use xlink:href="#FmN-q5xRt01AJAqWIZdu_pad-15" x="-15239.74" y="-48259.74"/><use xlink:href="#FmN-q5xRt01AJAqWIZdu_pad-15" x="-17779.74" y="-48259.74"/><use xlink:href="#FmN-q5xRt01AJAqWIZdu_pad-15" x="-20319.74" y="-48259.74"/><use xlink:href="#FmN-q5xRt01AJAqWIZdu_pad-15" x="-22859.74" y="-48259.74"/><use xlink:href="#FmN-q5xRt01AJAqWIZdu_pad-16" x="-25399.74" y="-48259.74"/><use xlink:href="#FmN-q5xRt01AJAqWIZdu_pad-15" x="-27939.74" y="-48259.74"/><use xlink:href="#FmN-q5xRt01AJAqWIZdu_pad-15" x="-30479.74" y="-48259.74"/><use xlink:href="#FmN-q5xRt01AJAqWIZdu_pad-17" x="35249.86" y="0"/><use xlink:href="#FmN-q5xRt01AJAqWIZdu_pad-17" x="-35249.61" y="0"/><use xlink:href="#FmN-q5xRt01AJAqWIZdu_pad-18" x="-35249.61" y="15999.96"/><use xlink:href="#FmN-q5xRt01AJAqWIZdu_pad-18" x="-35249.61" y="-15999.96"/><use xlink:href="#FmN-q5xRt01AJAqWIZdu_pad-18" x="35249.86" y="-15999.96"/><use xlink:href="#FmN-q5xRt01AJAqWIZdu_pad-18" x="35249.86" y="15999.96"/><use xlink:href="#FmN-q5xRt01AJAqWIZdu_pad-19" x="-21249.89" y="22124.92"/><use xlink:href="#FmN-q5xRt01AJAqWIZdu_pad-20" x="21250.14" y="22124.92"/><use xlink:href="#FmN-q5xRt01AJAqWIZdu_pad-21" x="21250.14" y="-22124.92"/><use xlink:href="#FmN-q5xRt01AJAqWIZdu_pad-22" x="-21249.89" y="-22124.92"/><use xlink:href="#FmN-q5xRt01AJAqWIZdu_pad-23" x="-38099.74" y="-10160"/><use xlink:href="#FmN-q5xRt01AJAqWIZdu_pad-24" x="-38100" y="-7620"/><use xlink:href="#FmN-q5xRt01AJAqWIZdu_pad-24" x="-38100" y="-5080"/><use xlink:href="#FmN-q5xRt01AJAqWIZdu_pad-24" x="-38100" y="5080"/><use xlink:href="#FmN-q5xRt01AJAqWIZdu_pad-24" x="-38100" y="7620"/><use xlink:href="#FmN-q5xRt01AJAqWIZdu_pad-24" x="-38100" y="10160"/><use xlink:href="#FmN-q5xRt01AJAqWIZdu_pad-24" x="-39370" y="24130"/><use xlink:href="#FmN-q5xRt01AJAqWIZdu_pad-24" x="-34290" y="24130"/><use xlink:href="#FmN-q5xRt01AJAqWIZdu_pad-24" x="-36830" y="24130"/><use xlink:href="#FmN-q5xRt01AJAqWIZdu_pad-23" x="-31750" y="24130"/><use xlink:href="#FmN-q5xRt01AJAqWIZdu_pad-23" x="-13970" y="24130"/><use xlink:href="#FmN-q5xRt01AJAqWIZdu_pad-24" x="-11430" y="24130"/><use xlink:href="#FmN-q5xRt01AJAqWIZdu_pad-24" x="-8890" y="24130"/><use xlink:href="#FmN-q5xRt01AJAqWIZdu_pad-24" x="-6350" y="24130"/><use xlink:href="#FmN-q5xRt01AJAqWIZdu_pad-23" x="41910" y="-19050"/><use xlink:href="#FmN-q5xRt01AJAqWIZdu_pad-24" x="41910" y="-21590"/><use xlink:href="#FmN-q5xRt01AJAqWIZdu_pad-24" x="41910" y="-24130"/><use xlink:href="#FmN-q5xRt01AJAqWIZdu_pad-23" x="41910" y="-12700"/><use xlink:href="#FmN-q5xRt01AJAqWIZdu_pad-24" x="39370" y="24130"/><use xlink:href="#FmN-q5xRt01AJAqWIZdu_pad-24" x="36830" y="24130"/><use xlink:href="#FmN-q5xRt01AJAqWIZdu_pad-24" x="34290" y="24130"/><use xlink:href="#FmN-q5xRt01AJAqWIZdu_pad-23" x="31750" y="24130"/><use xlink:href="#FmN-q5xRt01AJAqWIZdu_pad-24" x="41910" y="-10160"/><use xlink:href="#FmN-q5xRt01AJAqWIZdu_pad-24" x="41910" y="-7620"/><use xlink:href="#FmN-q5xRt01AJAqWIZdu_pad-24" x="41910" y="-5080"/><use xlink:href="#FmN-q5xRt01AJAqWIZdu_pad-25" x="41910" y="24130"/><use xlink:href="#FmN-q5xRt01AJAqWIZdu_pad-15" x="-39370" y="-39370"/><use xlink:href="#FmN-q5xRt01AJAqWIZdu_pad-15" x="-39370" y="-36830"/><use xlink:href="#FmN-q5xRt01AJAqWIZdu_pad-15" x="-39370" y="-34290"/><use xlink:href="#FmN-q5xRt01AJAqWIZdu_pad-15" x="-39370" y="-31750"/><use xlink:href="#FmN-q5xRt01AJAqWIZdu_pad-15" x="-39370" y="-29210"/><use xlink:href="#FmN-q5xRt01AJAqWIZdu_pad-16" x="-39370" y="-26670"/><use xlink:href="#FmN-q5xRt01AJAqWIZdu_pad-26" x="-3810" y="-35560"/><use xlink:href="#FmN-q5xRt01AJAqWIZdu_pad-26" x="-5080" y="-38100"/></g><g id="v9nb7kaPTJ4ZKr0uQ6fA_top_soldermask"><use xlink:href="#eoaptyZA5u8xXqG7ZiB-_pad-10" x="-5080" y="-11539.98"/><use xlink:href="#eoaptyZA5u8xXqG7ZiB-_pad-10" x="-2540" y="-5189.98"/><use xlink:href="#eoaptyZA5u8xXqG7ZiB-_pad-10" x="-5080" y="6459.98"/><use xlink:href="#eoaptyZA5u8xXqG7ZiB-_pad-10" x="-2540" y="12809.98"/><use xlink:href="#eoaptyZA5u8xXqG7ZiB-_pad-11" x="4499.86" y="-7000.23"/><use xlink:href="#eoaptyZA5u8xXqG7ZiB-_pad-11" x="3999.99" y="-11999.97"/><use xlink:href="#eoaptyZA5u8xXqG7ZiB-_pad-11" x="3999.99" y="6999.98"/><use xlink:href="#eoaptyZA5u8xXqG7ZiB-_pad-11" x="4499.86" y="11999.72"/><use xlink:href="#eoaptyZA5u8xXqG7ZiB-_pad-12" x="-17780" y="-5009.89"/><use xlink:href="#eoaptyZA5u8xXqG7ZiB-_pad-12" x="-17780" y="-2610.1"/><use xlink:href="#eoaptyZA5u8xXqG7ZiB-_pad-12" x="-17780" y="2610.1"/><use xlink:href="#eoaptyZA5u8xXqG7ZiB-_pad-13" x="-17780" y="5009.89"/><use xlink:href="#eoaptyZA5u8xXqG7ZiB-_pad-14" x="-30479.74" y="-30480"/><use xlink:href="#eoaptyZA5u8xXqG7ZiB-_pad-14" x="-27939.74" y="-30480"/><use xlink:href="#eoaptyZA5u8xXqG7ZiB-_pad-15" x="-25399.77" y="-30479.84"/><use xlink:href="#eoaptyZA5u8xXqG7ZiB-_pad-14" x="-22859.74" y="-30480"/><use xlink:href="#eoaptyZA5u8xXqG7ZiB-_pad-14" x="-20319.74" y="-30480"/><use xlink:href="#eoaptyZA5u8xXqG7ZiB-_pad-14" x="-17779.74" y="-30480"/><use xlink:href="#eoaptyZA5u8xXqG7ZiB-_pad-14" x="-15239.74" y="-30480"/><use xlink:href="#eoaptyZA5u8xXqG7ZiB-_pad-15" x="-12699.79" y="-30479.84"/><use xlink:href="#eoaptyZA5u8xXqG7ZiB-_pad-14" x="-10160" y="-30480"/><use xlink:href="#eoaptyZA5u8xXqG7ZiB-_pad-14" x="-7620" y="-30480"/><use xlink:href="#eoaptyZA5u8xXqG7ZiB-_pad-14" x="17780" y="-30480"/><use xlink:href="#eoaptyZA5u8xXqG7ZiB-_pad-14" x="15240" y="-30480"/><use xlink:href="#eoaptyZA5u8xXqG7ZiB-_pad-15" x="12700.15" y="-30479.84"/><use xlink:href="#eoaptyZA5u8xXqG7ZiB-_pad-14" x="10160" y="-30480"/><use xlink:href="#eoaptyZA5u8xXqG7ZiB-_pad-14" x="7620" y="-30480"/><use xlink:href="#eoaptyZA5u8xXqG7ZiB-_pad-14" x="5080" y="-30480"/><use xlink:href="#eoaptyZA5u8xXqG7ZiB-_pad-14" x="2540" y="-30480"/><use xlink:href="#eoaptyZA5u8xXqG7ZiB-_pad-15" x="0.17" y="-30479.84"/><use xlink:href="#eoaptyZA5u8xXqG7ZiB-_pad-14" x="-2540" y="-30480"/><use xlink:href="#eoaptyZA5u8xXqG7ZiB-_pad-14" x="-5080" y="-30480"/><use xlink:href="#eoaptyZA5u8xXqG7ZiB-_pad-14" x="-5080" y="-48259.74"/><use xlink:href="#eoaptyZA5u8xXqG7ZiB-_pad-14" x="-2540" y="-48259.74"/><use xlink:href="#eoaptyZA5u8xXqG7ZiB-_pad-15" x="0.17" y="-48259.79"/><use xlink:href="#eoaptyZA5u8xXqG7ZiB-_pad-14" x="2540" y="-48259.74"/><use xlink:href="#eoaptyZA5u8xXqG7ZiB-_pad-14" x="5080" y="-48259.74"/><use xlink:href="#eoaptyZA5u8xXqG7ZiB-_pad-14" x="7620" y="-48259.74"/><use xlink:href="#eoaptyZA5u8xXqG7ZiB-_pad-14" x="10160" y="-48259.74"/><use xlink:href="#eoaptyZA5u8xXqG7ZiB-_pad-15" x="12700.15" y="-48259.79"/><use xlink:href="#eoaptyZA5u8xXqG7ZiB-_pad-14" x="15240" y="-48259.74"/><use xlink:href="#eoaptyZA5u8xXqG7ZiB-_pad-14" x="17780" y="-48259.74"/><use xlink:href="#eoaptyZA5u8xXqG7ZiB-_pad-14" x="-7620" y="-48259.74"/><use xlink:href="#eoaptyZA5u8xXqG7ZiB-_pad-14" x="-10160" y="-48259.74"/><use xlink:href="#eoaptyZA5u8xXqG7ZiB-_pad-15" x="-12699.79" y="-48259.79"/><use xlink:href="#eoaptyZA5u8xXqG7ZiB-_pad-14" x="-15239.74" y="-48259.74"/><use xlink:href="#eoaptyZA5u8xXqG7ZiB-_pad-14" x="-17779.74" y="-48259.74"/><use xlink:href="#eoaptyZA5u8xXqG7ZiB-_pad-14" x="-20319.74" y="-48259.74"/><use xlink:href="#eoaptyZA5u8xXqG7ZiB-_pad-14" x="-22859.74" y="-48259.74"/><use xlink:href="#eoaptyZA5u8xXqG7ZiB-_pad-15" x="-25399.77" y="-48259.79"/><use xlink:href="#eoaptyZA5u8xXqG7ZiB-_pad-14" x="-27939.74" y="-48259.74"/><use xlink:href="#eoaptyZA5u8xXqG7ZiB-_pad-14" x="-30479.74" y="-48259.74"/><use xlink:href="#eoaptyZA5u8xXqG7ZiB-_pad-16" x="35249.86" y="0"/><use xlink:href="#eoaptyZA5u8xXqG7ZiB-_pad-16" x="-35249.61" y="0"/><use xlink:href="#eoaptyZA5u8xXqG7ZiB-_pad-17" x="-35249.61" y="15999.96"/><use xlink:href="#eoaptyZA5u8xXqG7ZiB-_pad-17" x="-35249.61" y="-15999.96"/><use xlink:href="#eoaptyZA5u8xXqG7ZiB-_pad-17" x="35249.86" y="-15999.96"/><use xlink:href="#eoaptyZA5u8xXqG7ZiB-_pad-17" x="35249.86" y="15999.96"/><use xlink:href="#eoaptyZA5u8xXqG7ZiB-_pad-18" x="-21249.89" y="22124.92"/><use xlink:href="#eoaptyZA5u8xXqG7ZiB-_pad-19" x="21250.14" y="22124.92"/><use xlink:href="#eoaptyZA5u8xXqG7ZiB-_pad-20" x="21250.14" y="-22124.92"/><use xlink:href="#eoaptyZA5u8xXqG7ZiB-_pad-21" x="-21249.89" y="-22124.92"/><use xlink:href="#eoaptyZA5u8xXqG7ZiB-_pad-22" x="-38099.84" y="-10160"/><use xlink:href="#eoaptyZA5u8xXqG7ZiB-_pad-23" x="-38100" y="-7620"/><use xlink:href="#eoaptyZA5u8xXqG7ZiB-_pad-23" x="-38100" y="-5080"/><use xlink:href="#eoaptyZA5u8xXqG7ZiB-_pad-23" x="-38100" y="5080"/><use xlink:href="#eoaptyZA5u8xXqG7ZiB-_pad-23" x="-38100" y="7620"/><use xlink:href="#eoaptyZA5u8xXqG7ZiB-_pad-23" x="-38100" y="10160"/><use xlink:href="#eoaptyZA5u8xXqG7ZiB-_pad-24" x="-39370" y="24130"/><use xlink:href="#eoaptyZA5u8xXqG7ZiB-_pad-24" x="-34290" y="24130"/><use xlink:href="#eoaptyZA5u8xXqG7ZiB-_pad-24" x="-36830" y="24130"/><use xlink:href="#eoaptyZA5u8xXqG7ZiB-_pad-25" x="-31750" y="24130"/><use xlink:href="#eoaptyZA5u8xXqG7ZiB-_pad-25" x="-13970" y="24130"/><use xlink:href="#eoaptyZA5u8xXqG7ZiB-_pad-24" x="-11430" y="24130"/><use xlink:href="#eoaptyZA5u8xXqG7ZiB-_pad-24" x="-8890" y="24130"/><use xlink:href="#eoaptyZA5u8xXqG7ZiB-_pad-24" x="-6350" y="24130"/><use xlink:href="#eoaptyZA5u8xXqG7ZiB-_pad-25" x="41910" y="-19050"/><use xlink:href="#eoaptyZA5u8xXqG7ZiB-_pad-24" x="41910" y="-21590"/><use xlink:href="#eoaptyZA5u8xXqG7ZiB-_pad-24" x="41910" y="-24130"/><use xlink:href="#eoaptyZA5u8xXqG7ZiB-_pad-25" x="41910" y="-12700"/><use xlink:href="#eoaptyZA5u8xXqG7ZiB-_pad-24" x="39370" y="24130"/><use xlink:href="#eoaptyZA5u8xXqG7ZiB-_pad-24" x="36830" y="24130"/><use xlink:href="#eoaptyZA5u8xXqG7ZiB-_pad-24" x="34290" y="24130"/><use xlink:href="#eoaptyZA5u8xXqG7ZiB-_pad-25" x="31750" y="24130"/><use xlink:href="#eoaptyZA5u8xXqG7ZiB-_pad-24" x="41910" y="-10160"/><use xlink:href="#eoaptyZA5u8xXqG7ZiB-_pad-24" x="41910" y="-7620"/><use xlink:href="#eoaptyZA5u8xXqG7ZiB-_pad-24" x="41910" y="-5080"/><use xlink:href="#eoaptyZA5u8xXqG7ZiB-_pad-26" x="41910" y="24130"/><use xlink:href="#eoaptyZA5u8xXqG7ZiB-_pad-14" x="-39370" y="-39370"/><use xlink:href="#eoaptyZA5u8xXqG7ZiB-_pad-14" x="-39370" y="-36830"/><use xlink:href="#eoaptyZA5u8xXqG7ZiB-_pad-14" x="-39370" y="-34290"/><use xlink:href="#eoaptyZA5u8xXqG7ZiB-_pad-14" x="-39370" y="-31750"/><use xlink:href="#eoaptyZA5u8xXqG7ZiB-_pad-14" x="-39370" y="-29210"/><use xlink:href="#eoaptyZA5u8xXqG7ZiB-_pad-15" x="-39369.94" y="-26670.05"/></g><g id="v9nb7kaPTJ4ZKr0uQ6fA_top_silkscreen"><path d="M -13987.78 22796.5 -14605 21173.44 M -13987.78 22796.5 -13368.02 21173.44 M -14373.86 21714.45 -13601.7 21714.45 M -12857.47 22255.47 -12857.47 21173.44 M -12857.47 21948.13 -12626.34 22179.28 -12471.39 22255.47 -12240.26 22255.47 -12085.31 22179.28 -12009.12 21948.13 -12009.12 21173.44 M -10571.47 22255.47 -10571.47 21173.44 M -10571.47 22024.34 -10726.42 22179.28 -10881.36 22255.47 -11112.5 22255.47 -11267.44 22179.28 -11422.37 22024.34 -11498.57 21793.2 -11498.57 21638.26 -11422.37 21407.12 -11267.44 21252.18 -11112.5 21173.44 -10881.36 21173.44 -10726.42 21252.18 -10571.47 21407.12 M -10060.94 22796.5 -10060.94 21173.44 M -9164.31 22255.47 -9319.26 22179.28 -9474.2 22024.34 -9550.39 21793.2 -9550.39 21638.26 -9474.2 21407.12 -9319.26 21252.18 -9164.31 21173.44 -8933.18 21173.44 -8778.23 21252.18 -8623.29 21407.12 -8547.1 21638.26 -8547.1 21793.2 -8623.29 22024.34 -8778.23 22179.28 -8933.18 22255.47 -9164.31 22255.47 M -7109.45 22255.47 -7109.45 21021.04 -7185.65 20787.36 -7264.39 20711.15 -7419.34 20634.95 -7650.47 20634.95 -7805.42 20711.15 M -7109.45 22024.34 -7264.39 22179.28 -7419.34 22255.47 -7650.47 22255.47 -7805.42 22179.28 -7960.36 22024.34 -8036.55 21793.2 -8036.55 21638.26 -7960.36 21407.12 -7805.42 21252.18 -7650.47 21173.44 -7419.34 21173.44 -7264.39 21252.18 -7109.45 21407.12" fill="none" stroke-width="254"/><path d="M -41464.45 24130.25 -43087.51 24130.25 -43087.51 23203.15 M -41464.45 22692.61 -43087.51 22692.61 M -41464.45 22692.61 -41464.45 21689.31 M -42236.61 22692.61 -42236.61 22075.39 M -43087.51 22692.61 -43087.51 21689.31 M -41464.45 21178.77 -43087.51 21178.77 M -41464.45 21178.77 -41464.45 20637.75 -41540.65 20406.61 -41695.59 20251.67 -41850.53 20172.93 -42081.67 20096.73 -42467.75 20096.73 -42701.43 20172.93 -42856.37 20251.67 -43008.77 20406.61 -43087.51 20637.75 -43087.51 21178.77 M -42236.61 18735.29 -42081.67 18814.03 -42005.47 19045.17 -42005.47 19276.31 -42081.67 19509.99 -42236.61 19586.19 -42391.55 19509.99 -42467.75 19355.05 -42546.49 18968.97 -42622.69 18814.03 -42777.63 18735.29 -42856.37 18735.29 -43008.77 18814.03 -43087.51 19045.17 -43087.51 19276.31 -43008.77 19509.99 -42856.37 19586.19" fill="none" stroke-width="200"/><path d="M -37406.57 19176.97 -36261.04 19176.97 M -37406.57 19176.97 -36261.04 19613.85 M -37406.57 20050.73 -36261.04 19613.85 M -37406.57 20050.73 -36261.04 20050.73 M -37406.57 20736.53 -37350.7 20627.31 -37241.47 20518.09 -37132.26 20464.75 -36969.7 20408.87 -36697.92 20408.87 -36532.81 20464.75 -36423.6 20518.09 -36314.37 20627.31 -36261.04 20736.53 -36261.04 20954.97 -36314.37 21064.19 -36423.6 21173.41 -36532.81 21226.75 -36697.92 21282.63 -36969.7 21282.63 -37132.26 21226.75 -37241.47 21173.41 -37350.7 21064.19 -37406.57 20954.97 -37406.57 20736.53 M -37241.47 22405.31 -37350.7 22296.09 -37406.57 22133.53 -37406.57 21915.09 -37350.7 21752.53 -37241.47 21643.31 -37132.26 21643.31 -37023.04 21696.65 -36969.7 21752.53 -36913.81 21861.75 -36807.13 22186.87 -36751.26 22296.09 -36697.92 22351.97 -36588.7 22405.31 -36423.6 22405.31 -36314.37 22296.09 -36261.04 22133.53 -36261.04 21915.09 -36314.37 21752.53 -36423.6 21643.31 M -37406.57 22765.99 -36261.04 22765.99 M -34701.47 20449.51 -34810.7 20340.29 -34866.57 20175.19 -34866.57 19956.75 -34810.7 19794.19 -34701.47 19684.97 -34592.26 19684.97 -34483.04 19738.31 -34429.7 19794.19 -34373.81 19903.41 -34267.13 20231.07 -34211.26 20340.29 -34157.92 20393.63 -34048.7 20449.51 -33883.6 20449.51 -33774.37 20340.29 -33721.04 20175.19 -33721.04 19956.75 -33774.37 19794.19 -33883.6 19684.97 M -34592.26 21628.07 -34701.47 21572.19 -34810.7 21462.97 -34866.57 21353.75 -34866.57 21135.31 -34810.7 21026.09 -34701.47 20916.87 -34592.26 20863.53 -34429.7 20807.65 -34157.92 20807.65 -33992.81 20863.53 -33883.6 20916.87 -33774.37 21026.09 -33721.04 21135.31 -33721.04 21353.75 -33774.37 21462.97 -33883.6 21572.19 -33992.81 21628.07 M -34866.57 21986.21 -33721.04 21986.21 M -34866.57 22750.75 -34102.04 21986.21 M -34373.81 22260.53 -33721.04 22750.75 M -38920.21 22732.97 -40065.75 22296.09 M -38920.21 21859.21 -40065.75 22296.09 M -38920.21 21501.07 -40065.75 21501.07 M -38920.21 21501.07 -38920.21 21008.31 -38976.09 20845.75 -39029.43 20789.87 -39138.65 20736.53 -39247.87 20736.53 -39357.09 20789.87 -39412.97 20845.75 -39466.31 21008.31 M -39466.31 21501.07 -39466.31 21008.31 -39522.19 20845.75 -39575.53 20789.87 -39684.75 20736.53 -39847.31 20736.53 -39956.53 20789.87 -40012.41 20845.75 -40065.75 21008.31 -40065.75 21501.07 M -39085.31 19613.85 -38976.09 19723.07 -38920.21 19885.63 -38920.21 20104.07 -38976.09 20266.63 -39085.31 20375.85 -39194.53 20375.85 -39303.75 20322.51 -39357.09 20266.63 -39412.97 20157.41 -39522.19 19832.29 -39575.53 19723.07 -39628.87 19667.19 -39738.09 19613.85 -39903.19 19613.85 -40012.41 19723.07 -40065.75 19885.63 -40065.75 20104.07 -40012.41 20266.63 -39903.19 20375.85" fill="none" stroke-width="170"/><path d="M 31750.02 22882.86 31750.02 20459.7 M 31750.02 22882.86 32557.74 22882.86 32905.72 22768.55 33134.32 22537.42 33251.16 22306.28 33365.46 21958.29 33365.46 21381.71 33251.16 21036.28 33134.32 20805.13 32905.72 20574 32557.74 20459.7 31750.02 20459.7 M 34127.46 22882.86 34244.3 22768.55 34358.6 22882.86 34244.3 22999.7 34127.46 22882.86 M 34244.3 22075.13 34244.3 20459.7 M 36507.44 22075.13 36507.44 20228.55 36390.6 19880.57 36276.3 19766.28 36045.16 19649.44 35699.72 19649.44 35468.58 19766.28 M 36507.44 21729.7 36276.3 21958.29 36045.16 22075.13 35699.72 22075.13 35468.58 21958.29 35237.44 21729.7 35120.6 21381.71 35120.6 21150.57 35237.44 20805.13 35468.58 20574 35699.72 20459.7 36045.16 20459.7 36276.3 20574 36507.44 20805.13 M 37269.44 22882.86 37383.74 22768.55 37500.58 22882.86 37383.74 22999.7 37269.44 22882.86 M 37383.74 22075.13 37383.74 20459.7 M 38608.02 22882.86 38608.02 20919.44 38722.32 20574 38953.46 20459.7 39184.6 20459.7 M 38262.58 22075.13 39070.3 22075.13 M 41333.44 22075.13 41333.44 20459.7 M 41333.44 21729.7 41102.3 21958.29 40871.16 22075.13 40525.72 22075.13 40294.58 21958.29 40063.44 21729.7 39946.6 21381.71 39946.6 21150.57 40063.44 20805.13 40294.58 20574 40525.72 20459.7 40871.16 20459.7 41102.3 20574 41333.44 20805.13 M 42095.44 22882.86 42095.44 20459.7 M 34102.04 -9946.63 33947.09 -9791.7 33715.95 -9715.5 33406.08 -9715.5 33174.93 -9791.7 33020 -9946.63 33020 -10101.57 33096.2 -10256.52 33174.93 -10332.71 33329.88 -10408.92 33792.15 -10563.86 33947.09 -10642.6 34023.29 -10718.79 34102.04 -10873.73 34102.04 -11104.87 33947.09 -11259.81 33715.95 -11336.02 33406.08 -11336.02 33174.93 -11259.81 33020 -11104.87 M 34612.58 -10718.79 35539.68 -10718.79 35539.68 -10563.86 35460.93 -10408.92 35384.74 -10332.71 35229.79 -10256.52 34998.65 -10256.52 34843.72 -10332.71 34688.77 -10487.65 34612.58 -10718.79 34612.58 -10873.73 34688.77 -11104.87 34843.72 -11259.81 34998.65 -11336.02 35229.79 -11336.02 35384.74 -11259.81 35539.68 -11104.87 M 36050.22 -9715.5 36050.22 -11336.02 M 36558.22 -10718.79 37485.31 -10718.79 37485.31 -10563.86 37409.11 -10408.92 37332.91 -10332.71 37177.97 -10256.52 36944.29 -10256.52 36791.9 -10332.71 36636.95 -10487.65 36558.22 -10718.79 36558.22 -10873.73 36636.95 -11104.87 36791.9 -11259.81 36944.29 -11336.02 37177.97 -11336.02 37332.91 -11259.81 37485.31 -11104.87 M 38922.95 -10487.65 38768.02 -10332.71 38615.61 -10256.52 38381.93 -10256.52 38227 -10332.71 38074.59 -10487.65 37995.86 -10718.79 37995.86 -10873.73 38074.59 -11104.87 38227 -11259.81 38381.93 -11336.02 38615.61 -11336.02 38768.02 -11259.81 38922.95 -11104.87 M 39664.63 -9715.5 39664.63 -11028.68 39743.38 -11259.81 39898.31 -11336.02 40050.72 -11336.02 M 39433.5 -10256.52 39974.52 -10256.52 M 34102.04 -7406.63 33947.09 -7251.7 33715.95 -7175.5 33406.08 -7175.5 33174.93 -7251.7 33020 -7406.63 33020 -7561.57 33096.2 -7716.52 33174.93 -7792.71 33329.88 -7868.92 33792.15 -8023.86 33947.09 -8102.6 34023.29 -8178.79 34102.04 -8333.73 34102.04 -8564.87 33947.09 -8719.81 33715.95 -8796.02 33406.08 -8796.02 33174.93 -8719.81 33020 -8564.87 M 34843.72 -7175.5 34843.72 -8488.68 34919.91 -8719.81 35074.86 -8796.02 35229.79 -8796.02 M 34612.58 -7716.52 35153.59 -7716.52 M 36667.43 -7716.52 36667.43 -8796.02 M 36667.43 -7947.65 36512.5 -7792.71 36357.56 -7716.52 36126.41 -7716.52 35971.47 -7792.71 35816.54 -7947.65 35740.34 -8178.79 35740.34 -8333.73 35816.54 -8564.87 35971.47 -8719.81 36126.41 -8796.02 36357.56 -8796.02 36512.5 -8719.81 36667.43 -8564.87 M 37177.97 -7716.52 37177.97 -8796.02 M 37177.97 -8178.79 37254.18 -7947.65 37409.11 -7792.71 37564.06 -7716.52 37795.2 -7716.52 M 38536.88 -7175.5 38536.88 -8488.68 38615.61 -8719.81 38768.02 -8796.02 38922.95 -8796.02 M 38305.74 -7716.52 38846.75 -7716.52 M 34102.04 -4866.63 33947.09 -4711.7 33715.95 -4635.5 33406.08 -4635.5 33174.93 -4711.7 33020 -4866.63 33020 -5021.57 33096.2 -5176.52 33174.93 -5252.71 33329.88 -5328.92 33792.15 -5483.86 33947.09 -5562.6 34023.29 -5638.79 34102.04 -5793.73 34102.04 -6024.87 33947.09 -6179.81 33715.95 -6256.02 33406.08 -6256.02 33174.93 -6179.81 33020 -6024.87 M 34612.58 -5638.79 35539.68 -5638.79 35539.68 -5483.86 35460.93 -5328.92 35384.74 -5252.71 35229.79 -5176.52 34998.65 -5176.52 34843.72 -5252.71 34688.77 -5407.65 34612.58 -5638.79 34612.58 -5793.73 34688.77 -6024.87 34843.72 -6179.81 34998.65 -6256.02 35229.79 -6256.02 35384.74 -6179.81 35539.68 -6024.87 M 36050.22 -4635.5 36050.22 -6256.02 M 36558.22 -5638.79 37485.31 -5638.79 37485.31 -5483.86 37409.11 -5328.92 37332.91 -5252.71 37177.97 -5176.52 36944.29 -5176.52 36791.9 -5252.71 36636.95 -5407.65 36558.22 -5638.79 36558.22 -5793.73 36636.95 -6024.87 36791.9 -6179.81 36944.29 -6256.02 37177.97 -6256.02 37332.91 -6179.81 37485.31 -6024.87 M 38922.95 -5407.65 38768.02 -5252.71 38615.61 -5176.52 38381.93 -5176.52 38227 -5252.71 38074.59 -5407.65 37995.86 -5638.79 37995.86 -5793.73 38074.59 -6024.87 38227 -6179.81 38381.93 -6256.02 38615.61 -6256.02 38768.02 -6179.81 38922.95 -6024.87 M 39664.63 -4635.5 39664.63 -5948.68 39743.38 -6179.81 39898.31 -6256.02 40050.72 -6256.02 M 39433.5 -5176.52 39974.52 -5176.52 M -23807.36 -7274.58 -24038.5 -7505.72 -24152.8 -7851.16 -24152.8 -8313.44 -24038.5 -8658.88 -23807.36 -8890.02 -23576.22 -8890.02 -23345.08 -8775.72 -23228.24 -8658.88 -23113.94 -8427.74 -22882.8 -7734.32 -22768.5 -7505.72 -22651.66 -7388.88 -22420.52 -7274.58 -22075.08 -7274.58 -21843.94 -7505.72 -21729.64 -7851.16 -21729.64 -8313.44 -21843.94 -8658.88 -22075.08 -8890.02 M -24152.8 -6512.58 -21729.64 -5933.46 M -24152.8 -5356.88 -21729.64 -5933.46 M -24152.8 -5356.88 -21729.64 -4780.3 M -24152.8 -4203.72 -21729.64 -4780.3 M -22768.5 -3441.72 -22768.5 -1361.46 M -24152.8 784.83 -24152.8 -368.32 -23113.94 -485.16 -23228.24 -368.32 -23345.08 -22.88 -23345.08 322.55 -23228.24 670.53 -22999.64 901.67 -22651.66 1015.97 -22420.52 1015.97 -22075.08 901.67 -21843.94 670.53 -21729.64 322.55 -21729.64 -22.88 -21843.94 -368.32 -21958.24 -485.16 -22189.38 -599.46 M -23576.22 1892.27 -23690.52 1892.27 -23921.66 2009.11 -24038.5 2123.41 -24152.8 2354.55 -24152.8 2816.83 -24038.5 3047.97 -23921.66 3162.27 -23690.52 3279.11 -23459.38 3279.11 -23228.24 3162.27 -22882.8 2933.67 -21729.64 1777.97 -21729.64 3393.41 M -24152.8 4848.83 -24038.5 4503.39 -23690.52 4272.25 -23113.94 4155.41 -22768.5 4155.41 -22189.38 4272.25 -21843.94 4503.39 -21729.64 4848.83 -21729.64 5079.97 -21843.94 5425.41 -22189.38 5656.55 -22768.5 5773.39 -23113.94 5773.39 -23690.52 5656.55 -24038.5 5425.41 -24152.8 5079.97 -24152.8 4848.83 M -24152.8 6535.39 -21729.64 6535.39 M -24152.8 6535.39 -24152.8 7343.11 -24038.5 7688.55 -23807.36 7919.69 -23576.22 8036.53 -23228.24 8150.83 -22651.66 8150.83 -22306.22 8036.53 -22075.08 7919.69 -21843.94 7688.55 -21729.64 7343.11 -21729.64 6535.39 M -38122.7 -38100 -35699.54 -38100 M -38122.7 -38100 -38122.7 -37292.28 -38008.4 -36944.29 -37777.26 -36715.7 -37546.12 -36598.86 -37198.14 -36484.55 -36621.56 -36484.55 -36276.12 -36598.86 -36044.98 -36715.7 -35813.84 -36944.29 -35699.54 -37292.28 -35699.54 -38100 M -38122.7 -35722.55 -38008.4 -35605.71 -38122.7 -35491.42 -38239.54 -35605.71 -38122.7 -35722.55 M -37314.98 -35605.71 -35699.54 -35605.71 M -37314.98 -33342.57 -35468.4 -33342.57 -35120.42 -33459.42 -35006.12 -33573.71 -34889.28 -33804.86 -34889.28 -34150.29 -35006.12 -34381.44 M -36969.54 -33342.57 -37198.14 -33573.71 -37314.98 -33804.86 -37314.98 -34150.29 -37198.14 -34381.44 -36969.54 -34612.57 -36621.56 -34729.42 -36390.42 -34729.42 -36044.98 -34612.57 -35813.84 -34381.44 -35699.54 -34150.29 -35699.54 -33804.86 -35813.84 -33573.71 -36044.98 -33342.57 M -38122.7 -32580.57 -38008.4 -32466.28 -38122.7 -32349.44 -38239.54 -32466.28 -38122.7 -32580.57 M -37314.98 -32466.28 -35699.54 -32466.28 M -38122.7 -31242 -36159.28 -31242 -35813.84 -31127.7 -35699.54 -30896.55 -35699.54 -30665.42 M -37314.98 -31587.44 -37314.98 -30779.71 M -37314.98 -28516.57 -35699.54 -28516.57 M -36969.54 -28516.57 -37198.14 -28747.71 -37314.98 -28978.86 -37314.98 -29324.29 -37198.14 -29555.44 -36969.54 -29786.57 -36621.56 -29903.42 -36390.42 -29903.42 -36044.98 -29786.57 -35813.84 -29555.44 -35699.54 -29324.29 -35699.54 -28978.86 -35813.84 -28747.71 -36044.98 -28516.57 M -38122.7 -27754.57 -35699.54 -27754.57" fill="none" stroke-width="254"/><path d="M -4965.7 24523.7 -4330.7 24523.7 -4676.13 24061.42 -4503.42 24061.42 -4386.57 24003 -4330.7 23944.57 -4272.28 23771.86 -4272.28 23657.55 -4330.7 23482.29 -4445 23368 -4617.71 23309.57 -4790.44 23309.57 -4965.7 23368 -5021.57 23426.42 -5080 23540.71 M -3891.28 24523.7 -3429 23309.57 M -2966.71 24523.7 -3429 23309.57 M 42303.7 -25514.29 42303.7 -26149.29 41841.41 -25803.86 41841.41 -25976.57 41783 -26093.42 41724.58 -26149.29 41551.86 -26207.71 41437.56 -26207.71 41262.29 -26149.29 41148 -26035 41089.58 -25862.28 41089.58 -25689.55 41148 -25514.29 41206.41 -25458.42 41320.72 -25400 M 42303.7 -26588.71 41089.58 -27051 M 42303.7 -27513.28 41089.58 -27051" fill="none" stroke-width="127"/><path d="M 21881.36 -39283.76 21101.58 -39283.76 20946.64 -39334.56 20842.5 -39438.7 20791.7 -39596.18 20791.7 -39700.32 20842.5 -39855.26 20946.64 -39959.4 21101.58 -40010.2 21881.36 -40010.2 M 21673.08 -40353.1 21726.42 -40457.24 21881.36 -40614.72 20791.7 -40614.72" fill="none" stroke-width="152.4"/><path d="M 19150.15 -28869.84 19150.15 -49869.8 M -31849.74 -49869.8 19150.15 -49869.8 M -31849.74 -28869.84 -31849.74 -49869.8 M -31849.74 -28869.84 19150.15 -28869.84 M 20450.12 -35369.95 20450.12 -43369.94 14450.13 -43369.94 14450.13 -35369.95 20450.12 -35369.95 M -15113 -3810 A 2667 2667 0 0 1 -20447 -3810 2667 2667 0 0 1 -15113 -3810 M -15113 3810 A 2667 2667 0 0 1 -20447 3810 2667 2667 0 0 1 -15113 3810" fill="none" stroke-width="254"/></g><g id="v9nb7kaPTJ4ZKr0uQ6fA_top_drill1"><use xlink:href="#VLS3CwLBFxeWZoSHu8Kp_pad-1" x="0" y="-3920"/><use xlink:href="#VLS3CwLBFxeWZoSHu8Kp_pad-1" x="0" y="-14080"/><use xlink:href="#VLS3CwLBFxeWZoSHu8Kp_pad-1" x="0" y="14080"/><use xlink:href="#VLS3CwLBFxeWZoSHu8Kp_pad-1" x="0" y="3920"/><use xlink:href="#VLS3CwLBFxeWZoSHu8Kp_pad-2" x="144950" y="-16000"/><use xlink:href="#VLS3CwLBFxeWZoSHu8Kp_pad-2" x="141450" y="-16000"/><use xlink:href="#VLS3CwLBFxeWZoSHu8Kp_pad-2" x="144950" y="16000"/><use xlink:href="#VLS3CwLBFxeWZoSHu8Kp_pad-2" x="141450" y="16000"/><path d="M -33675 16000 -36825 16000 M -33675 -16000 -36825 -16000 M 36825 -16000 33675 -16000 M 36825 16000 33675 16000" fill="none" stroke-width="2351"/><use xlink:href="#VLS3CwLBFxeWZoSHu8Kp_pad-4" x="0" y="-9000"/><use xlink:href="#VLS3CwLBFxeWZoSHu8Kp_pad-4" x="0" y="9000"/><use xlink:href="#VLS3CwLBFxeWZoSHu8Kp_pad-4" x="144950" y="0"/><use xlink:href="#VLS3CwLBFxeWZoSHu8Kp_pad-4" x="141450" y="0"/><use xlink:href="#VLS3CwLBFxeWZoSHu8Kp_pad-5" x="10500" y="0"/><use xlink:href="#VLS3CwLBFxeWZoSHu8Kp_pad-5" x="0" y="-21500"/><use xlink:href="#VLS3CwLBFxeWZoSHu8Kp_pad-5" x="-10500" y="0"/><use xlink:href="#VLS3CwLBFxeWZoSHu8Kp_pad-5" x="0" y="21500"/><path d="M 33375 0 37125 0 M -33375 0 -37125 0" fill="none" stroke-width="4250"/><path d="M -19125 21181 -23375 23069 M 19125 21181 23375 23069 M 19044 -21390 23456 -22860 M -19044 -21390 -23456 -22860" fill="none" stroke-width="4351"/></g><g id="v9nb7kaPTJ4ZKr0uQ6fA_top_drill2"><use xlink:href="#d4F36KNCcHb9hll9jldl_pad-1" x="-3810" y="-35560"/><use xlink:href="#d4F36KNCcHb9hll9jldl_pad-1" x="-5080" y="-38100"/><use xlink:href="#d4F36KNCcHb9hll9jldl_pad-2" x="-17780" y="-5010"/><use xlink:href="#d4F36KNCcHb9hll9jldl_pad-2" x="-17780" y="-2610"/><use xlink:href="#d4F36KNCcHb9hll9jldl_pad-2" x="-17780" y="2610"/><use xlink:href="#d4F36KNCcHb9hll9jldl_pad-2" x="-17780" y="5010"/><use xlink:href="#d4F36KNCcHb9hll9jldl_pad-3" x="-30480" y="-30480"/><use xlink:href="#d4F36KNCcHb9hll9jldl_pad-3" x="-27940" y="-30480"/><use xlink:href="#d4F36KNCcHb9hll9jldl_pad-3" x="-25400" y="-30480"/><use xlink:href="#d4F36KNCcHb9hll9jldl_pad-3" x="-22860" y="-30480"/><use xlink:href="#d4F36KNCcHb9hll9jldl_pad-3" x="-20320" y="-30480"/><use xlink:href="#d4F36KNCcHb9hll9jldl_pad-3" x="-17780" y="-30480"/><use xlink:href="#d4F36KNCcHb9hll9jldl_pad-3" x="-15240" y="-30480"/><use xlink:href="#d4F36KNCcHb9hll9jldl_pad-3" x="-12700" y="-30480"/><use xlink:href="#d4F36KNCcHb9hll9jldl_pad-3" x="-10160" y="-30480"/><use xlink:href="#d4F36KNCcHb9hll9jldl_pad-3" x="-7620" y="-30480"/><use xlink:href="#d4F36KNCcHb9hll9jldl_pad-3" x="17780" y="-30480"/><use xlink:href="#d4F36KNCcHb9hll9jldl_pad-3" x="15240" y="-30480"/><use xlink:href="#d4F36KNCcHb9hll9jldl_pad-3" x="12700" y="-30480"/><use xlink:href="#d4F36KNCcHb9hll9jldl_pad-3" x="10160" y="-30480"/><use xlink:href="#d4F36KNCcHb9hll9jldl_pad-3" x="7620" y="-30480"/><use xlink:href="#d4F36KNCcHb9hll9jldl_pad-3" x="5080" y="-30480"/><use xlink:href="#d4F36KNCcHb9hll9jldl_pad-3" x="2540" y="-30480"/><use xlink:href="#d4F36KNCcHb9hll9jldl_pad-3" x="0" y="-30480"/><use xlink:href="#d4F36KNCcHb9hll9jldl_pad-3" x="-2540" y="-30480"/><use xlink:href="#d4F36KNCcHb9hll9jldl_pad-3" x="-5080" y="-30480"/><use xlink:href="#d4F36KNCcHb9hll9jldl_pad-3" x="-5080" y="-48260"/><use xlink:href="#d4F36KNCcHb9hll9jldl_pad-3" x="-2540" y="-48260"/><use xlink:href="#d4F36KNCcHb9hll9jldl_pad-3" x="0" y="-48260"/><use xlink:href="#d4F36KNCcHb9hll9jldl_pad-3" x="2540" y="-48260"/><use xlink:href="#d4F36KNCcHb9hll9jldl_pad-3" x="5080" y="-48260"/><use xlink:href="#d4F36KNCcHb9hll9jldl_pad-3" x="7620" y="-48260"/><use xlink:href="#d4F36KNCcHb9hll9jldl_pad-3" x="10160" y="-48260"/><use xlink:href="#d4F36KNCcHb9hll9jldl_pad-3" x="12700" y="-48260"/><use xlink:href="#d4F36KNCcHb9hll9jldl_pad-3" x="15240" y="-48260"/><use xlink:href="#d4F36KNCcHb9hll9jldl_pad-3" x="17780" y="-48260"/><use xlink:href="#d4F36KNCcHb9hll9jldl_pad-3" x="-7620" y="-48260"/><use xlink:href="#d4F36KNCcHb9hll9jldl_pad-3" x="-10160" y="-48260"/><use xlink:href="#d4F36KNCcHb9hll9jldl_pad-3" x="-12700" y="-48260"/><use xlink:href="#d4F36KNCcHb9hll9jldl_pad-3" x="-15240" y="-48260"/><use xlink:href="#d4F36KNCcHb9hll9jldl_pad-3" x="-17780" y="-48260"/><use xlink:href="#d4F36KNCcHb9hll9jldl_pad-3" x="-20320" y="-48260"/><use xlink:href="#d4F36KNCcHb9hll9jldl_pad-3" x="-22860" y="-48260"/><use xlink:href="#d4F36KNCcHb9hll9jldl_pad-3" x="-25400" y="-48260"/><use xlink:href="#d4F36KNCcHb9hll9jldl_pad-3" x="-27940" y="-48260"/><use xlink:href="#d4F36KNCcHb9hll9jldl_pad-3" x="-30480" y="-48260"/><use xlink:href="#d4F36KNCcHb9hll9jldl_pad-3" x="-39370" y="-39370"/><use xlink:href="#d4F36KNCcHb9hll9jldl_pad-3" x="-39370" y="-36830"/><use xlink:href="#d4F36KNCcHb9hll9jldl_pad-3" x="-39370" y="-34290"/><use xlink:href="#d4F36KNCcHb9hll9jldl_pad-3" x="-39370" y="-31750"/><use xlink:href="#d4F36KNCcHb9hll9jldl_pad-3" x="-39370" y="-29210"/><use xlink:href="#d4F36KNCcHb9hll9jldl_pad-3" x="-39370" y="-26670"/><use xlink:href="#d4F36KNCcHb9hll9jldl_pad-4" x="-38100" y="-10160"/><use xlink:href="#d4F36KNCcHb9hll9jldl_pad-4" x="-38100" y="-7620"/><use xlink:href="#d4F36KNCcHb9hll9jldl_pad-4" x="-38100" y="-5080"/><use xlink:href="#d4F36KNCcHb9hll9jldl_pad-4" x="-38100" y="5080"/><use xlink:href="#d4F36KNCcHb9hll9jldl_pad-4" x="-38100" y="7620"/><use xlink:href="#d4F36KNCcHb9hll9jldl_pad-4" x="-38100" y="10160"/><use xlink:href="#d4F36KNCcHb9hll9jldl_pad-4" x="-39370" y="24130"/><use xlink:href="#d4F36KNCcHb9hll9jldl_pad-4" x="-34290" y="24130"/><use xlink:href="#d4F36KNCcHb9hll9jldl_pad-4" x="-36830" y="24130"/><use xlink:href="#d4F36KNCcHb9hll9jldl_pad-4" x="-31750" y="24130"/><use xlink:href="#d4F36KNCcHb9hll9jldl_pad-4" x="-13970" y="24130"/><use xlink:href="#d4F36KNCcHb9hll9jldl_pad-4" x="-11430" y="24130"/><use xlink:href="#d4F36KNCcHb9hll9jldl_pad-4" x="-8890" y="24130"/><use xlink:href="#d4F36KNCcHb9hll9jldl_pad-4" x="-6350" y="24130"/><use xlink:href="#d4F36KNCcHb9hll9jldl_pad-4" x="41910" y="-19050"/><use xlink:href="#d4F36KNCcHb9hll9jldl_pad-4" x="41910" y="-21590"/><use xlink:href="#d4F36KNCcHb9hll9jldl_pad-4" x="41910" y="-24130"/><use xlink:href="#d4F36KNCcHb9hll9jldl_pad-4" x="41910" y="-12700"/><use xlink:href="#d4F36KNCcHb9hll9jldl_pad-4" x="39370" y="24130"/><use xlink:href="#d4F36KNCcHb9hll9jldl_pad-4" x="36830" y="24130"/><use xlink:href="#d4F36KNCcHb9hll9jldl_pad-4" x="34290" y="24130"/><use xlink:href="#d4F36KNCcHb9hll9jldl_pad-4" x="31750" y="24130"/><use xlink:href="#d4F36KNCcHb9hll9jldl_pad-4" x="41910" y="-10160"/><use xlink:href="#d4F36KNCcHb9hll9jldl_pad-4" x="41910" y="-7620"/><use xlink:href="#d4F36KNCcHb9hll9jldl_pad-4" x="41910" y="-5080"/><use xlink:href="#d4F36KNCcHb9hll9jldl_pad-4" x="41910" y="24130"/><path d="M 4500 -6998 4500 -7003 M 4000 -11997 4000 -12002 M 4000 7003 4000 6998 M 4500 12002 4500 11997" fill="none" stroke-width="1300"/><path d="M -5080 -11540 -5080 -11540 M -2540 -5190 -2540 -5190 M -5080 6460 -5080 6460 M -2540 12810 -2540 12810" fill="none" stroke-width="1501"/></g><g id="v9nb7kaPTJ4ZKr0uQ6fA_top_drill3"><use xlink:href="#nxbQDIh4wQYIVTgP30HM_pad-1" x="-3810" y="-35560"/><use xlink:href="#nxbQDIh4wQYIVTgP30HM_pad-1" x="-5080" y="-38100"/></g><clipPath id="v9nb7kaPTJ4ZKr0uQ6fA_top_outline"><path d="M 44450.13 23244.1 44449.95 -48259.92 A 2540 2540 0 0 0 41909.95 -50799.92 L -41909.92 -50799.9 A 2540.0000002 2540.0000002 0 0 0 -44446.72 -48386.75 L -44449.92 23240.95 A 2540 2540 0 0 0 -41909.92 25780.95 L 42036.92 25780.95 A 2539.9964868 2539.9964868 0 0 0 44450.13 23244.1" fill="none" stroke-width="254"/></clipPath><mask id="v9nb7kaPTJ4ZKr0uQ6fA_top_mech-mask"><g fill="#000" stroke="#000"><rect x="-44449.92" y="-50799.92" width="88900.05" height="76580.87" fill="#fff"/><use xlink:href="#v9nb7kaPTJ4ZKr0uQ6fA_top_drill1"/><use xlink:href="#v9nb7kaPTJ4ZKr0uQ6fA_top_drill2"/><use xlink:href="#v9nb7kaPTJ4ZKr0uQ6fA_top_drill3"/></g></mask><mask id="v9nb7kaPTJ4ZKr0uQ6fA_top_cf-mask"><g fill="#fff" stroke="#fff"><use xlink:href="#v9nb7kaPTJ4ZKr0uQ6fA_top_soldermask"/></g></mask><mask id="v9nb7kaPTJ4ZKr0uQ6fA_top_sm-mask"><g fill="#000" stroke="#000"><rect x="-44449.92" y="-50799.92" width="88900.05" height="76580.87" fill="#fff"/><use xlink:href="#v9nb7kaPTJ4ZKr0uQ6fA_top_soldermask"/></g></mask></defs><g transform="translate(0,-25018.97) scale(1,-1)"><g mask="url(#v9nb7kaPTJ4ZKr0uQ6fA_top_mech-mask)" clip-path="url(#v9nb7kaPTJ4ZKr0uQ6fA_top_outline)"><rect x="-44449.92" y="-50799.92" width="88900.05" height="76580.87" fill="currentColor" class="v9nb7kaPTJ4ZKr0uQ6fA_fr4"/><use xlink:href="#v9nb7kaPTJ4ZKr0uQ6fA_top_copper" fill="currentColor" stroke="currentColor" class="v9nb7kaPTJ4ZKr0uQ6fA_cu"/><use xlink:href="#v9nb7kaPTJ4ZKr0uQ6fA_top_copper" fill="currentColor" stroke="currentColor" class="v9nb7kaPTJ4ZKr0uQ6fA_cf" mask="url(#v9nb7kaPTJ4ZKr0uQ6fA_top_cf-mask)"/><g mask="url(#v9nb7kaPTJ4ZKr0uQ6fA_top_sm-mask)"><rect x="-44449.92" y="-50799.92" width="88900.05" height="76580.87" fill="currentColor" class="v9nb7kaPTJ4ZKr0uQ6fA_sm"/><use xlink:href="#v9nb7kaPTJ4ZKr0uQ6fA_top_silkscreen" fill="currentColor" stroke="currentColor" class="v9nb7kaPTJ4ZKr0uQ6fA_ss"/></g></g></g></svg>