<svg version="1.1" xmlns="http://www.w3.org/2000/svg" xmlns:xlink="http://www.w3.org/1999/xlink" stroke-linecap="round" stroke-linejoin="round" stroke-width="0" fill-rule="evenodd" clip-rule="evenodd" id="CdcsRZVs-O34ABsDXoYO_bottom" viewBox="-1000.76 -28000.95 141000.48 27000.96" width="141.00048mm" height="27.00096mm" class="w-100 h-100"><defs><style>.CdcsRZVs-O34ABsDXoYO_fr4 {color: #666666;}
.CdcsRZVs-O34ABsDXoYO_cu {color: #cccccc;}
.CdcsRZVs-O34ABsDXoYO_cf {color: #cc9933;}
.CdcsRZVs-O34ABsDXoYO_sm {color: #004200; opacity: 0.75;}
.CdcsRZVs-O34ABsDXoYO_ss {color: #ffffff;}
.CdcsRZVs-O34ABsDXoYO_sp {color: #999999;}
.CdcsRZVs-O34ABsDXoYO_out {color: #000000;}</style><circle cx="0" cy="0" r="750" id="AfYQvBUaCyI2t9PfkCTQ_pad-12"/><circle cx="0" cy="0" r="1050" id="AfYQvBUaCyI2t9PfkCTQ_pad-13"/><rect x="-3624.9991" y="-2125.0021" width="7249.9982" height="4250.0042" rx="2125.0021" ry="2125.0021" id="AfYQvBUaCyI2t9PfkCTQ_pad-14"/><circle cx="0" cy="0" r="800.8" id="GrvZyJFtR19UH7wuNlCa_pad-10"/><circle cx="0" cy="0" r="1100.8" id="GrvZyJFtR19UH7wuNlCa_pad-11"/><rect x="-3675.7991" y="-2175.8021" width="7351.5982" height="4351.6042" rx="2175.8021" ry="2175.8021" id="GrvZyJFtR19UH7wuNlCa_pad-12"/><circle cx="0" cy="0" r="500" id="AHKR1KPRHBEXIWZPwR6h_pad-1"/><circle cx="0" cy="0" r="650.5" id="AHKR1KPRHBEXIWZPwR6h_pad-2"/><circle cx="0" cy="0" r="1000" id="I3sD_8D4l9fEMTXI3uMK_pad-1"/><circle cx="0" cy="0" r="1750.5" id="I3sD_8D4l9fEMTXI3uMK_pad-2"/><circle cx="0" cy="0" r="2125" id="I3sD_8D4l9fEMTXI3uMK_pad-3"/><g id="CdcsRZVs-O34ABsDXoYO_bottom_silkscreen"><path d="M 133993.63 -2641.09 133954.51 -2645.66 133920.48 -2657.34 133891.52 -2675.12 133866.63 -2696.97 133902.19 -2737.61 133920.99 -2718.81 133942.83 -2705.6 133966.2 -2696.97 133991.09 -2694.43 134046.97 -2706.62 134093.2 -2747.26 134125.2 -2820.92 134138.41 -2933.19 134110.47 -2904.23 134078.47 -2882.9 134044.94 -2869.18 134011.41 -2864.61 133947.4 -2875.28 133898.63 -2908.3 133867.14 -2963.16 133856.47 -3039.87 133914.89 -3039.87 133920.99 -2987.54 133940.29 -2946.4 133973.82 -2919.98 134021.57 -2910.33 134048.5 -2914.39 134077.96 -2928.11 134108.44 -2950.97 134138.41 -2983.99 134126.22 -3063.24 134100.82 -3121.66 134063.23 -3157.22 134013.95 -3169.41 133974.84 -3159.76 133943.34 -3133.34 133922.51 -3092.19 133914.89 -3039.87 133856.47 -3039.87 133869.17 -3113.02 133903.72 -3169.92 133954.01 -3207 134013.95 -3220.21 134052.56 -3215.64 134087.61 -3202.43 134118.6 -3181.09 134145.52 -3150.61 134166.86 -3112 134183.12 -3064.76 134193.28 -3009.39 134196.83 -2945.89 134192.26 -2869.18 134180.07 -2805.17 134160.76 -2752.34 134135.36 -2710.68 134104.88 -2679.19 134070.34 -2657.34 134032.75 -2645.15"/><path d="M 133356.09 -2641.09 133302.24 -2647.18 133259.06 -2662.93 133224.01 -2684.78 133196.07 -2709.67 133231.63 -2750.31 133253.98 -2729.99 133280.91 -2713.22 133313.93 -2701.54 133353.55 -2696.97 133432.29 -2713.22 133492.74 -2759.45 133530.84 -2833.11 133544.05 -2930.65 133531.35 -3027.17 133494.27 -3100.83 133434.83 -3147.56 133353.55 -3164.33 133323.07 -3161.79 133293.61 -3155.18 133267.19 -3144.01 133246.87 -3128.77 133246.87 -2976.37 133368.79 -2976.37 133368.79 -2925.57 133188.45 -2925.57 133188.45 -3156.71 133219.44 -3181.6 133259.57 -3201.92 133306.82 -3215.13 133361.17 -3220.21 133413.5 -3215.13 133460.74 -3200.4 133502.9 -3176.01 133538.46 -3142.99 133567.93 -3101.34 133589.26 -3052.06 133602.98 -2994.66 133607.55 -2930.65 133602.47 -2867.15 133588.76 -2810.25 133566.91 -2760.98 133536.94 -2719.32 133500.36 -2685.79 133457.69 -2661.41 133408.92 -2646.17"/><path d="M 132662.67 -2651.25 132662.67 -3210.05 132728.71 -3210.05 132936.99 -2849.37 132997.95 -2735.07 133003.03 -2735.07 132997.95 -2819.4 132995.41 -2905.25 132995.41 -3210.05 133053.83 -3210.05 133053.83 -2651.25 132990.33 -2651.25 132779.51 -3014.47 132718.55 -3128.77 132713.47 -3128.77 132720.58 -3041.9 132723.63 -2953.51 132723.63 -2651.25"/><path d="M 132370.57 -2651.25 132309.61 -2655.82 132256.78 -2670.04 132211.57 -2692.4 132174.99 -2723.89 132146.04 -2763.52 132125.72 -2810.76 132113.01 -2865.62 132108.95 -2928.11 132174.99 -2928.11 132178.04 -2877.82 132187.18 -2833.11 132202.42 -2795.01 132223.76 -2763.01 132251.7 -2737.61 132286.24 -2719.32 132327.39 -2708.14 132375.65 -2704.59 132444.23 -2704.59 132444.23 -3159.25 132375.65 -3159.25 132327.39 -3155.18 132286.24 -3142.99 132251.7 -3123.69 132223.76 -3096.76 132202.42 -3063.74 132187.18 -3024.12 132178.04 -2978.91 132174.99 -2928.11 132108.95 -2928.11 132113.01 -2990.59 132125.21 -3045.96 132146.04 -3094.22 132174.48 -3134.86 132211.06 -3166.87 132255.76 -3190.74 132308.09 -3204.97 132368.03 -3210.05 132507.73 -3210.05 132507.73 -2651.25"/><path d="M 133418.57 -5273.04 133368.28 -5278.12 133322.56 -5292.85 133282.43 -5316.72 133247.89 -5349.74 133220.46 -5390.89 133199.63 -5440.17 133186.93 -5496.56 133182.36 -5560.06 133245.86 -5560.06 133258.05 -5464.04 133293.1 -5390.89 133347.46 -5345.17 133418.57 -5328.92 133488.17 -5345.17 133541.51 -5390.89 133576.56 -5464.04 133588.76 -5560.06 133576.56 -5658.1 133542.02 -5732.27 133488.17 -5779.51 133418.57 -5796.28 133347.46 -5779.51 133293.1 -5732.27 133258.05 -5658.1 133245.86 -5560.06 133182.36 -5560.06 133186.93 -5623.56 133199.63 -5680.96 133220.46 -5730.74 133247.89 -5772.91 133282.43 -5806.44 133322.56 -5831.33 133368.28 -5847.08 133418.57 -5852.16 133468.36 -5847.08 133513.57 -5831.33 133553.7 -5806.44 133588.25 -5772.91 133616.19 -5730.74 133637.01 -5680.96 133650.22 -5623.56 133654.8 -5560.06 133650.22 -5496.56 133637.01 -5440.17 133616.19 -5390.89 133588.25 -5349.74 133553.7 -5316.72 133513.57 -5292.85 133468.36 -5278.12"/><path d="M 133936.74 -5283.2 133936.74 -5336.54 134147.56 -5336.54 134162.8 -5506.72 134143.49 -5496.56 134123.68 -5489.44 134101.33 -5485.38 134076.44 -5483.86 134011.41 -5494.02 133958.07 -5526.02 133922 -5581.39 133908.8 -5661.66 133924.04 -5742.94 133964.68 -5802.88 134022.59 -5839.46 134089.13 -5852.16 134148.06 -5845.55 134196.32 -5828.79 134235.44 -5804.91 134266.94 -5778.5 134233.92 -5737.86 134208.51 -5761.73 134177.53 -5782.05 134139.43 -5796.28 134094.22 -5801.36 134047.48 -5791.7 134008.36 -5764.27 133981.95 -5721.09 133972.3 -5664.2 133980.93 -5608.32 134005.32 -5566.66 134042.91 -5540.75 134091.68 -5532.12 134118.09 -5534.15 134141.46 -5540.24 134163.3 -5550.4 134185.66 -5565.14 134221.22 -5542.28 134203.44 -5283.2"/><path d="M 132890.26 -5420.36 132866.89 -5422.39 132847.07 -5427.98 132857.24 -5483.86 132876.54 -5478.27 132897.88 -5476.24 132925.31 -5481.32 132952.74 -5497.57 132979.16 -5527.54 133002.01 -5572.76 133002.01 -5842 133065.51 -5842 133065.51 -5430.52 133014.72 -5430.52 133009.63 -5506.72 133007.1 -5506.72 132983.73 -5470.65 132955.28 -5443.72 132923.78 -5426.45"/><path d="M 132643.88 -5420.36 132580.88 -5432.55 132538.21 -5466.58 132514.34 -5518.91 132506.72 -5585.46 132506.72 -5623.56 132567.68 -5623.56 132659.12 -5640.32 132719.57 -5663.69 132753.1 -5694.68 132763.26 -5732.78 132757.16 -5763.76 132740.4 -5785.1 132716.01 -5797.29 132687.06 -5801.36 132656.07 -5797.8 132626.6 -5786.62 132597.65 -5769.35 132567.68 -5745.48 132567.68 -5623.56 132506.72 -5623.56 132506.72 -5842 132557.51 -5842 132562.6 -5791.2 132565.13 -5791.2 132595.62 -5814.56 132629.14 -5833.87 132664.7 -5847.08 132702.3 -5852.16 132750.05 -5844.54 132787.64 -5822.18 132812.53 -5785.61 132821.68 -5735.32 132806.44 -5676.39 132760.21 -5632.7 132681.47 -5601.71 132567.68 -5582.92 132571.23 -5541.77 132583.93 -5506.21 132610.35 -5480.81 132654.04 -5471.16 132690.61 -5475.22 132724.14 -5486.4 132754.62 -5501.13 132781.04 -5516.88 132803.9 -5473.7 132773.42 -5455.92 132736.33 -5438.64 132692.64 -5425.44"/><path d="M 132171.44 -5420.36 132116.57 -5430.52 132077.96 -5461.5 132054.6 -5511.29 132046.98 -5580.38 132046.98 -5842 132110.48 -5842 132110.48 -5588 132115.05 -5536.69 132129.27 -5501.13 132154.16 -5480.3 132191.76 -5473.7 132222.24 -5477.76 132250.18 -5490.97 132278.12 -5512.3 132308.6 -5542.28 132308.6 -5842 132369.56 -5842 132369.56 -5430.52 132318.76 -5430.52 132313.68 -5491.48 132311.13 -5491.48 132280.15 -5463.03 132248.14 -5440.68 132212.07 -5425.94"/><path d="M 131772.66 -5420.36 131740.65 -5423.4 131716.78 -5430.52 131574.54 -5430.52 131574.54 -5478.78 131660.9 -5478.78 131646.67 -5496.05 131635.5 -5516.37 131627.88 -5540.75 131625.57 -5565.14 131681.22 -5565.14 131688.33 -5523.99 131707.63 -5492.49 131737.1 -5473.19 131772.66 -5466.08 131808.72 -5473.19 131838.69 -5492.49 131859.01 -5523.99 131866.63 -5565.14 131859.01 -5608.32 131838.69 -5640.83 131808.72 -5662.16 131772.66 -5669.28 131738.11 -5662.16 131708.65 -5640.83 131688.84 -5608.32 131681.22 -5565.14 131625.57 -5565.14 131637.02 -5626.6 131668.51 -5672.32 131715.25 -5701.79 131772.66 -5712.46 131805.17 -5708.39 131836.16 -5697.22 131855.97 -5718.04 131862.06 -5731.25 131864.1 -5748.02 131860.54 -5766.81 131848.35 -5781.54 131825.49 -5790.69 131790.44 -5793.74 131709.16 -5793.74 131647.18 -5799.32 131602.98 -5817.61 131576.06 -5848.6 131566.92 -5892.8 131568.97 -5900.42 131627.88 -5900.42 131633.46 -5875.02 131650.23 -5858.76 131677.15 -5849.62 131714.24 -5847.08 131801.1 -5846.57 131841.24 -5839.46 131862.06 -5857.24 131876.29 -5876.54 131884.42 -5895.34 131886.96 -5913.12 131878.83 -5945.63 131854.44 -5969.5 131815.33 -5984.24 131762.5 -5989.32 131707.12 -5981.7 131664.45 -5961.88 131637.53 -5933.44 131627.88 -5900.42 131568.97 -5900.42 131581.14 -5945.63 131622.29 -5990.33 131686.8 -6020.81 131772.66 -6032.5 131842.25 -6024.88 131895.59 -6003.54 131930.64 -5969.5 131942.84 -5923.28 131938.77 -5896.86 131926.58 -5870.95 131907.28 -5847.58 131881.88 -5826.76 131881.88 -5824.22 131896.1 -5813.04 131907.28 -5797.29 131914.9 -5778.5 131917.44 -5755.64 131913.37 -5731.76 131902.19 -5710.93 131887.46 -5693.15 131871.72 -5679.44 131871.72 -5676.9 131892.04 -5658.1 131908.8 -5632.19 131920.48 -5601.2 131925.06 -5565.14 131912.86 -5506.21 131880.35 -5460.49 131831.58 -5431.02"/><path d="M 131343.4 -5420.36 131275.32 -5433.56 131224.01 -5472.17 131192.01 -5532.62 131182.24 -5603.24 131236.72 -5603.24 131244.34 -5546.34 131265.16 -5504.68 131298.69 -5479.79 131343.4 -5471.16 131387.08 -5479.79 131424.68 -5505.7 131452.62 -5547.36 131467.86 -5603.24 131182.24 -5603.24 131181.34 -5623.05 131185.92 -5648.96 131465.32 -5648.96 131453.63 -5711.44 131425.18 -5759.7 131381.5 -5790.18 131325.62 -5801.36 131296.66 -5798.82 131269.74 -5792.21 131244.84 -5782.05 131221.48 -5768.34 131198.62 -5808.98 131226.56 -5825.23 131257.54 -5838.95 131292.6 -5848.6 131333.24 -5852.16 131408.93 -5837.42 131470.9 -5794.75 131513.07 -5726.68 131528.82 -5636.26 131513.57 -5545.83 131472.43 -5477.76 131412.99 -5435.09"/><path d="M 133068.06 -7774.94 133068.06 -8310.87 133066.53 -8324.08 133062.47 -8333.74 133056.37 -8339.32 133045.7 -8341.36 133035.04 -8338.82 133024.88 -8387.08 133041.13 -8390.63 133062.98 -8392.16 133092.44 -8386.57 133113.27 -8369.8 133124.95 -8342.88 133129.01 -8305.8 133129.01 -7774.94"/><path d="M 133969.76 -7823.2 133969.76 -7896.86 134028.18 -7896.86 134071.36 -7978.14 134205.98 -8176.25 134028.18 -8176.25 134027.67 -7972.55 134023.1 -7896.86 133969.76 -7896.86 133969.76 -8176.25 133893.56 -8176.25 133893.56 -8227.06 133969.76 -8227.06 133969.76 -8382 134028.18 -8382 134028.18 -8227.06 134272.01 -8227.06 134272.01 -8186.41 134035.8 -7823.2"/><path d="M 133459.22 -7823.2 133380.98 -7830.82 133321.04 -7855.71 133282.43 -7898.38 133268.72 -7960.36 133269.78 -7967.98 133332.22 -7967.98 133340.85 -7924.29 133366.76 -7895.33 133409.43 -7879.08 133469.38 -7874 133558.28 -7874 133558.28 -8064.5 133471.92 -8064.5 133408.42 -8057.38 133364.73 -8038.08 133340.34 -8007.6 133332.22 -7967.98 133269.78 -7967.98 133274.3 -8000.49 133290.56 -8035.54 133316.98 -8063.48 133352.54 -8082.28 133352.54 -8084.82 133305.29 -8100.56 133268.21 -8128.5 133244.33 -8168.13 133236.12 -8216.9 133299.19 -8216.9 133309.36 -8170.67 133339.84 -8138.16 133389.11 -8118.85 133456.68 -8112.76 133558.28 -8112.76 133558.28 -8331.19 133456.68 -8331.19 133390.13 -8324.59 133340.85 -8303.76 133309.86 -8268.2 133299.19 -8216.9 133236.12 -8216.9 133250.94 -8291.06 133294.62 -8341.86 133361.17 -8371.84 133446.51 -8382 133621.78 -8382 133621.78 -7823.2"/><path d="M 132306.06 -7960.36 132237.98 -7973.56 132186.68 -8012.17 132154.67 -8072.62 132144.9 -8143.24 132199.38 -8143.24 132207 -8086.34 132227.82 -8044.68 132261.35 -8019.79 132306.06 -8011.16 132349.74 -8019.79 132387.34 -8045.7 132415.28 -8087.36 132430.51 -8143.24 132144.9 -8143.24 132144 -8163.05 132148.57 -8188.96 132427.98 -8188.96 132416.29 -8251.44 132387.84 -8299.7 132344.16 -8330.18 132288.28 -8341.36 132259.32 -8338.82 132232.4 -8332.21 132207.5 -8322.05 132184.13 -8308.34 132161.28 -8348.98 132189.22 -8365.23 132220.2 -8378.95 132255.26 -8388.6 132295.9 -8392.16 132371.59 -8377.42 132433.56 -8334.75 132475.73 -8266.68 132491.48 -8176.25 132475.73 -8085.83 132434.07 -8017.76 132374.63 -7975.09"/><path d="M 132603.24 -7970.52 132603.24 -8382 132654.04 -8382 132659.12 -8315.96 132661.66 -8315.96 132691.12 -8346.94 132722.62 -8371.33 132758.18 -8386.57 132798.82 -8392.16 132854.69 -8382 132893.3 -8351.01 132916.16 -8301.22 132923.28 -8232.14 132923.28 -7970.52 132862.32 -7970.52 132862.32 -8224.52 132857.24 -8275.82 132842.5 -8311.38 132817.1 -8332.21 132781.04 -8338.82 132749.03 -8334.24 132720.58 -8321.03 132693.15 -8298.18 132664.19 -8265.16 132664.19 -7970.52"/><path d="M 132836.92 -20728.93 132836.92 -21264.88 132835.39 -21278.08 132830.31 -21287.74 132824.22 -21293.32 132814.06 -21295.36 132801.36 -21292.82 132793.74 -21341.08 132809.48 -21344.63 132829.3 -21346.16 132860.28 -21340.57 132881.62 -21323.8 132893.81 -21296.88 132897.88 -21259.8 132897.88 -20728.93"/><path d="M 132623.56 -20728.93 132623.56 -21264.88 132622.03 -21278.08 132617.97 -21287.74 132611.87 -21293.32 132601.2 -21295.36 132590.54 -21292.82 132580.38 -21341.08 132596.63 -21344.63 132618.48 -21346.16 132647.94 -21340.57 132668.77 -21323.8 132680.45 -21296.88 132684.51 -21259.8 132684.51 -20728.93"/><path d="M 134145.01 -20767.04 134081.51 -20776.18 134030.72 -20803.61 133997.19 -20847.3 133985 -20906.74 133992.11 -20953.98 134012.94 -20992.08 134044.94 -21021.54 134086.6 -21041.36 134086.6 -21043.9 134039.86 -21061.68 134002.27 -21092.16 133976.36 -21133.81 133967.22 -21186.14 133980.42 -21252.68 134017.51 -21303.48 134073.39 -21334.98 134142.48 -21346.16 134201.4 -21339.55 134249.16 -21322.28 134287.26 -21297.9 134317.74 -21269.96 134287.26 -21229.32 134260.33 -21253.7 134228.33 -21274.53 134190.23 -21289.77 134145.01 -21295.36 134098.79 -21287.74 134061.7 -21265.38 134037.32 -21230.84 134028.18 -21186.14 134037.83 -21138.89 134068.31 -21101.81 134123.68 -21077.93 134205.98 -21069.3 134205.98 -21021.04 134132.32 -21012.4 134083.55 -20989.54 134056.62 -20954.49 134048.5 -20911.82 134055.61 -20873.72 134074.91 -20844.76 134106.41 -20825.96 134147.56 -20817.84 134180.57 -20823.42 134210.55 -20835.11 134238.49 -20852.38 134264.4 -20873.72 134297.42 -20833.07 134265.41 -20807.68 134229.85 -20786.85 134189.72 -20772.12"/><path d="M 133355.07 -20777.2 133522.72 -21117.56 133522.72 -21336 133586.22 -21336 133586.22 -21117.56 133753.86 -20777.2 133685.28 -20777.2 133555.74 -21061.68 133553.19 -21061.68 133508.49 -20970.24 133421.12 -20777.2"/><path d="M 133164.57 -20914.36 133095.49 -20927.56 133044.18 -20966.17 133012.68 -21026.62 133003.36 -21097.24 133057.9 -21097.24 133065.01 -21040.34 133085.33 -20998.68 133118.86 -20973.79 133164.57 -20965.16 133208.26 -20973.79 133245.35 -20999.7 133272.78 -21041.36 133286.5 -21097.24 133003.36 -21097.24 133003.03 -21134.83 133004.56 -21142.96 133286.5 -21142.96 133273.8 -21205.44 133244.84 -21253.7 133201.15 -21284.18 133144.26 -21295.36 133115.3 -21292.82 133088.38 -21286.21 133063.48 -21276.05 133040.12 -21262.34 133017.26 -21302.98 133045.19 -21319.23 133077.2 -21332.95 133112.25 -21342.6 133151.88 -21346.16 133228.58 -21331.42 133290.56 -21288.75 133332.22 -21220.68 133347.46 -21130.26 133332.22 -21039.83 133291.07 -20971.76 133232.65 -20929.09"/><path d="M 132316.22 -20914.36 132243.57 -20928.58 132183.12 -20970.74 132140.96 -21038.82 132125.72 -21130.26 132189.22 -21130.26 132198.87 -21064.22 132225.28 -21012.91 132265.42 -20979.38 132316.22 -20967.7 132366.51 -20979.38 132406.13 -21012.91 132431.53 -21064.22 132440.68 -21130.26 132431.53 -21197.82 132406.13 -21250.14 132366.51 -21283.67 132316.22 -21295.36 132265.42 -21283.67 132225.28 -21250.14 132198.87 -21197.82 132189.22 -21130.26 132125.72 -21130.26 132140.96 -21221.7 132183.12 -21289.77 132243.57 -21331.93 132316.22 -21346.16 132387.34 -21331.93 132447.28 -21289.77 132488.94 -21221.7 132504.18 -21130.26 132488.94 -21038.82 132447.28 -20970.74 132387.34 -20928.58"/><path d="M 131505.96 -20924.52 131617.72 -21336 131693.92 -21336 131764.53 -21077.42 131785.36 -20988.02 131790.44 -20988.02 131810.76 -21078.44 131879.34 -21336 131953 -21336 132067.3 -20924.52 132006.34 -20924.52 131933.18 -21197.82 131914.9 -21282.66 131912.36 -21282.66 131884.42 -21168.36 131815.84 -20924.52 131754.88 -20924.52 131686.3 -21168.36 131658.36 -21282.66 131655.82 -21282.66 131564.38 -20924.52"/><path d="M 132468.62 -23268.94 132468.62 -23774.4 132529.57 -23774.4 132529.57 -23550.88 132557.51 -23531.06 132583.93 -23517.86 132609.84 -23510.24 132636.26 -23507.7 132684.51 -23519.38 132724.14 -23552.91 132751.06 -23604.22 132760.72 -23670.26 132752.59 -23738.33 132729.73 -23789.64 132692.13 -23821.64 132641.34 -23832.82 132611.87 -23829.26 132584.44 -23818.08 132557.51 -23799.8 132529.57 -23774.4 132468.62 -23774.4 132468.62 -23876 132519.42 -23876 132524.5 -23825.2 132527.04 -23825.2 132553.45 -23848.56 132583.93 -23867.87 132617.46 -23881.08 132654.04 -23886.16 132724.65 -23871.93 132777.99 -23829.77 132812.02 -23761.7 132824.22 -23670.26 132809.48 -23580.85 132770.37 -23512.78 132713.98 -23469.6 132646.42 -23454.36 132611.87 -23457.4 132581.9 -23467.06 132554.47 -23482.3 132527.04 -23502.62 132529.57 -23431.5 132529.57 -23268.94"/><path d="M 134147.56 -23307.04 134081.01 -23318.72 134030.21 -23352.25 133998.71 -23404.57 133987.54 -23472.14 133991.6 -23514.3 134003.79 -23556.46 134023.1 -23599.64 134049 -23643.33 134082.02 -23687.53 134120.63 -23733.25 134164.32 -23779.98 134213.6 -23827.74 134122.16 -23822.66 133962.13 -23822.66 133962.13 -23876 134307.57 -23876 134307.57 -23837.9 134245.6 -23782.02 134192.26 -23729.18 134147.56 -23680.42 134111.49 -23634.19 134083.55 -23591.01 134063.74 -23550.37 134052.56 -23511.76 134048.5 -23474.68 134055.1 -23428.45 134075.42 -23391.36 134108.44 -23366.98 134155.18 -23357.84 134188.7 -23362.92 134219.69 -23377.65 134248.65 -23398.48 134274.56 -23423.88 134310.12 -23390.86 134276.59 -23356.31 134239.5 -23329.9 134196.83 -23313.13"/><path d="M 133504.94 -23317.2 133426.7 -23325.32 133365.74 -23351.74 133326.12 -23399.49 133311.9 -23472.14 133375.4 -23472.14 133384.54 -23423.88 133410.96 -23392.89 133454.64 -23375.62 133515.1 -23370.54 133611.62 -23370.54 133611.62 -23583.9 133515.1 -23583.9 133454.64 -23577.29 133410.96 -23556.46 133384.54 -23521.92 133375.4 -23472.14 133311.9 -23472.14 133321.04 -23531.57 133346.95 -23577.8 133388.1 -23609.8 133441.44 -23629.62 133296.66 -23876 133367.78 -23876 133507.48 -23634.7 133611.62 -23634.7 133611.62 -23876 133675.12 -23876 133675.12 -23317.2"/><path d="M 133060.44 -23454.36 132991.35 -23467.56 132940.04 -23506.17 132908.54 -23566.62 132899.22 -23637.24 132951.22 -23637.24 132958.84 -23580.34 132979.66 -23538.68 133013.19 -23513.79 133057.9 -23505.16 133102.09 -23513.79 133140.19 -23539.7 133168.13 -23581.36 133182.36 -23637.24 132899.22 -23637.24 132898.89 -23674.83 132900.42 -23682.96 133182.36 -23682.96 133169.66 -23745.44 133140.7 -23793.7 133097.01 -23824.18 133040.12 -23835.36 133011.16 -23832.82 132984.24 -23826.21 132959.34 -23816.05 132935.98 -23802.34 132913.12 -23842.98 132941.06 -23859.23 132973.06 -23872.95 133008.11 -23882.6 133047.74 -23886.16 133124.44 -23871.42 133186.42 -23828.75 133228.07 -23760.68 133243.32 -23670.26 133228.07 -23579.83 133186.93 -23511.76 133128.51 -23469.09"/><path d="M 133454.13 -25593.04 133401.81 -25599.13 133358.12 -25614.88 133323.58 -25636.72 133296.66 -25661.62 133332.22 -25702.26 133355.07 -25681.94 133382 -25665.17 133414.51 -25653.49 133454.13 -25648.92 133532.37 -25665.17 133592.31 -25711.4 133630.92 -25785.06 133644.63 -25882.6 133631.94 -25979.12 133595.36 -26052.78 133535.42 -26099.51 133454.13 -26116.28 133422.64 -26113.74 133393.18 -26107.13 133367.78 -26095.96 133347.46 -26080.72 133347.46 -25928.32 133469.38 -25928.32 133469.38 -25877.52 133289.04 -25877.52 133289.04 -26108.66 133320.02 -26133.55 133359.65 -26153.87 133406.38 -26167.08 133459.22 -26172.16 133512.05 -26167.08 133560.31 -26152.34 133602.47 -26127.96 133639.05 -26094.94 133668 -26053.28 133689.85 -26004.01 133703.56 -25946.6 133708.13 -25882.6 133703.06 -25819.1 133689.34 -25762.2 133666.48 -25712.92 133636.51 -25671.27 133599.42 -25637.74 133555.74 -25613.36 133507.48 -25598.12"/><path d="M 134086.6 -25603.2 134086.6 -26111.2 133972.3 -26111.2 133972.3 -26162 134274.56 -26162 134274.56 -26111.2 134147.56 -26111.2 134147.56 -25681.94 134246.62 -25681.94 134246.62 -25641.3 134212.58 -25634.69 134183.12 -25626.06 134157.21 -25615.39 134134.86 -25603.2"/><path d="M 132984.24 -25740.36 132960.87 -25742.39 132941.06 -25747.98 132953.76 -25803.86 132972.04 -25798.27 132991.86 -25796.24 133019.8 -25801.32 133048.24 -25817.57 133075.17 -25847.54 133098.54 -25892.76 133098.54 -26162 133159.5 -26162 133159.5 -25750.52 133108.69 -25750.52 133103.62 -25826.72 133101.07 -25826.72 133077.71 -25790.65 133049.26 -25763.72 133017.76 -25746.45"/><path d="M 132727.69 -25740.36 132658.61 -25753.56 132607.3 -25792.17 132575.8 -25852.62 132566.48 -25923.24 132621.01 -25923.24 132628.13 -25866.34 132648.45 -25824.68 132681.98 -25799.79 132727.69 -25791.16 132771.38 -25799.79 132808.47 -25825.7 132835.9 -25867.36 132849.62 -25923.24 132566.48 -25923.24 132566.15 -25960.83 132567.68 -25968.96 132849.62 -25968.96 132836.92 -26031.44 132807.96 -26079.7 132764.27 -26110.18 132707.38 -26121.36 132679.44 -26118.82 132652.51 -26112.21 132627.11 -26102.05 132603.24 -26088.34 132580.38 -26128.98 132608.32 -26145.23 132639.81 -26158.95 132675.37 -26168.6 132715 -26172.16 132791.7 -26157.42 132853.68 -26114.75 132895.34 -26046.68 132910.57 -25956.26 132895.34 -25865.83 132854.19 -25797.76 132795.77 -25755.09"/><path d="M 132308.6 -25740.36 132240.52 -25753.56 132189.22 -25792.17 132157.21 -25852.62 132147.44 -25923.24 132201.92 -25923.24 132209.54 -25866.34 132230.36 -25824.68 132263.89 -25799.79 132308.6 -25791.16 132352.28 -25799.79 132389.88 -25825.7 132417.82 -25867.36 132433.06 -25923.24 132147.44 -25923.24 132146.54 -25943.05 132151.12 -25968.96 132430.51 -25968.96 132418.83 -26031.44 132390.38 -26079.7 132346.69 -26110.18 132290.82 -26121.36 132261.86 -26118.82 132234.94 -26112.21 132210.04 -26102.05 132186.68 -26088.34 132163.82 -26128.98 132191.76 -26145.23 132222.74 -26158.95 132257.8 -26168.6 132298.44 -26172.16 132374.13 -26157.42 132436.1 -26114.75 132478.27 -26046.68 132494.01 -25956.26 132478.27 -25865.83 132436.61 -25797.76 132377.18 -25755.09"/><path d="M 131846.32 -25740.36 131789.93 -25750.52 131750.3 -25781.5 131726.94 -25831.29 131719.32 -25900.38 131719.32 -26162 131782.82 -26162 131782.82 -25908 131787.39 -25856.69 131801.61 -25821.13 131826.5 -25800.3 131864.1 -25793.7 131894.57 -25797.76 131922.51 -25810.97 131950.46 -25832.3 131980.94 -25862.28 131980.94 -26162 132041.9 -26162 132041.9 -25750.52 131991.1 -25750.52 131986.01 -25811.48 131983.48 -25811.48 131954.01 -25783.03 131921.5 -25760.68 131885.94 -25745.94"/><path d="M 84248.75 -1999.99 84191.34 -2003.04 84137.5 -2013.2 84087.2 -2028.95 84040.98 -2049.27 83998.3 -2073.65 83959.7 -2100.58 83925.66 -2129.53 83895.69 -2160.01 83976.97 -2256.02 84032.34 -2204.71 84095.33 -2165.6 84166.45 -2140.71 84246.21 -2132.07 84307.68 -2136.14 84365.59 -2148.84 84419.44 -2169.16 84468.2 -2197.6 84512.91 -2233.16 84552.02 -2276.34 84586.57 -2326.13 84615.02 -2383.02 84637.88 -2446.02 84654.13 -2515.1 84664.29 -2589.78 84667.85 -2670.04 84664.29 -2751.83 84654.64 -2828.03 84638.89 -2898.64 84617.05 -2962.65 84589.11 -3020.56 84555.58 -3071.36 84516.97 -3115.05 84473.28 -3151.63 84424.52 -3180.58 84371.18 -3201.92 84313.26 -3214.62 84251.29 -3218.68 84162.9 -3209.03 84083.14 -3180.08 84011 -3133.34 83943.95 -3069.33 83862.67 -3162.8 83901.78 -3204.46 83943.95 -3241.54 83988.65 -3273.04 84035.9 -3299.46 84086.7 -3320.79 84140.54 -3336.03 84197.95 -3345.18 84258.91 -3348.22 84318.34 -3345.68 84375.75 -3337.05 84430.61 -3322.32 84482.43 -3302.5 84532.21 -3277.1 84578.44 -3246.62 84621.11 -3211.06 84660.74 -3169.92 84696.3 -3124.2 84727.79 -3073.4 84755.22 -3018.53 84778.08 -2958.59 84795.86 -2894.07 84809.58 -2825.49 84817.71 -2752.34 84820.25 -2675.12 84817.2 -2598.92 84809.07 -2525.77 84795.86 -2457.19 84777.58 -2393.18 84754.21 -2332.73 84726.27 -2277.36 84694.26 -2226.56 84658.2 -2180.33 84618.06 -2139.18 84574.88 -2103.12 84527.64 -2072.13 84477.35 -2046.22 84424.01 -2026.41 84368.13 -2011.68 84309.71 -2002.53"/><path d="M 81858.61 -1999.99 81799.17 -2002.53 81742.28 -2011.68 81687.92 -2025.9 81636.61 -2046.22 81587.84 -2071.62 81542.63 -2102.61 81500.47 -2138.67 81461.86 -2179.82 81427.31 -2225.54 81396.84 -2276.34 81370.42 -2331.21 81348.07 -2390.64 81330.8 -2454.65 81318.09 -2522.72 81309.97 -2594.35 81307.43 -2670.04 81459.83 -2670.04 81462.88 -2589.78 81472.53 -2515.1 81488.28 -2446.02 81509.61 -2383.02 81536.53 -2326.13 81568.54 -2276.34 81606.13 -2233.16 81647.79 -2197.6 81694.52 -2169.16 81745.32 -2148.84 81800.19 -2136.14 81858.61 -2132.07 81917.03 -2136.14 81971.89 -2148.84 82022.69 -2169.16 82069.43 -2197.6 82111.08 -2233.16 82148.68 -2276.34 82180.68 -2326.13 82207.6 -2383.02 82228.94 -2446.02 82244.69 -2515.1 82254.34 -2589.78 82257.39 -2670.04 82254.34 -2750.82 82244.69 -2826.51 82228.94 -2896.61 82207.6 -2960.62 82180.68 -3018.02 82148.68 -3069.33 82111.08 -3113.53 82069.43 -3150.61 82022.69 -3180.08 81971.89 -3201.41 81917.03 -3214.62 81858.61 -3218.68 81800.19 -3214.62 81745.32 -3201.41 81694.52 -3180.08 81647.79 -3150.61 81606.13 -3113.53 81568.54 -3069.33 81536.53 -3018.02 81509.61 -2960.62 81488.28 -2896.61 81472.53 -2826.51 81462.88 -2750.82 81459.83 -2670.04 81307.43 -2670.04 81309.97 -2746.24 81318.09 -2818.38 81330.8 -2886.45 81348.07 -2950.97 81370.42 -3010.91 81396.84 -3066.79 81427.31 -3118.1 81461.86 -3164.84 81500.47 -3206.49 81542.63 -3243.07 81587.84 -3274.56 81636.61 -3300.98 81687.92 -3321.3 81742.28 -3336.54 81799.17 -3345.18 81858.61 -3348.22 81918.04 -3345.18 81974.94 -3336.54 82029.3 -3321.3 82080.6 -3300.98 82129.37 -3274.56 82174.58 -3243.07 82216.75 -3206.49 82255.36 -3164.84 82289.9 -3118.1 82320.38 -3066.79 82346.8 -3010.91 82369.15 -2950.97 82386.42 -2886.45 82399.12 -2818.38 82407.25 -2746.24 82409.79 -2670.04 82407.25 -2594.35 82399.12 -2522.72 82386.42 -2454.65 82369.15 -2390.64 82346.8 -2331.21 82320.38 -2276.34 82289.9 -2225.54 82255.36 -2179.82 82216.75 -2138.67 82174.58 -2102.61 82129.37 -2071.62 82080.6 -2046.22 82029.3 -2025.9 81974.94 -2011.68 81918.04 -2002.53"/><path d="M 80527.65 -1999.99 80470.24 -2003.04 80416.4 -2013.2 80366.1 -2028.95 80319.88 -2049.27 80277.2 -2073.65 80238.59 -2100.58 80204.56 -2129.53 80174.59 -2160.01 80255.87 -2256.02 80310.22 -2204.71 80373.22 -2165.6 80445.35 -2140.71 80525.11 -2132.07 80586.58 -2136.14 80644.49 -2148.84 80698.34 -2169.16 80747.1 -2197.6 80791.81 -2233.16 80830.92 -2276.34 80865.47 -2326.13 80893.92 -2383.02 80916.78 -2446.02 80933.03 -2515.1 80943.19 -2589.78 80946.75 -2670.04 80943.19 -2751.83 80933.54 -2828.03 80917.79 -2898.64 80895.95 -2962.65 80868.01 -3020.56 80834.48 -3071.36 80795.87 -3115.05 80752.18 -3151.63 80703.42 -3180.58 80650.08 -3201.92 80592.16 -3214.62 80530.19 -3218.68 80441.8 -3209.03 80362.04 -3180.08 80289.9 -3133.34 80222.85 -3069.33 80141.57 -3162.8 80180.68 -3204.46 80222.85 -3241.54 80267.55 -3273.04 80314.8 -3299.46 80365.59 -3320.79 80419.44 -3336.03 80476.85 -3345.18 80537.81 -3348.22 80597.24 -3345.68 80654.65 -3337.05 80709.51 -3322.32 80761.33 -3302.5 80811.11 -3277.1 80857.34 -3246.62 80900.01 -3211.06 80939.64 -3169.92 80975.2 -3124.2 81006.69 -3073.4 81034.12 -3018.53 81056.98 -2958.59 81074.76 -2894.07 81088.48 -2825.49 81096.61 -2752.34 81099.15 -2675.12 81096.1 -2598.92 81087.97 -2525.77 81074.76 -2457.19 81056.48 -2393.18 81033.11 -2332.73 81005.17 -2277.36 80973.16 -2226.56 80937.09 -2180.33 80896.96 -2139.18 80853.78 -2103.12 80806.54 -2072.13 80756.25 -2046.22 80702.91 -2026.41 80647.03 -2011.68 80588.61 -2002.53"/><path d="M 76643.99 -1999.99 76584.55 -2002.53 76527.66 -2011.68 76473.3 -2025.9 76421.99 -2046.22 76373.22 -2071.62 76328.01 -2102.61 76285.85 -2138.67 76247.24 -2179.82 76212.7 -2225.54 76182.22 -2276.34 76155.8 -2331.21 76133.45 -2390.64 76116.18 -2454.65 76103.48 -2522.72 76095.35 -2594.35 76092.81 -2670.04 76245.21 -2670.04 76248.25 -2589.78 76257.91 -2515.1 76273.66 -2446.02 76294.99 -2383.02 76321.92 -2326.13 76353.92 -2276.34 76391.51 -2233.16 76433.17 -2197.6 76479.9 -2169.16 76530.7 -2148.84 76585.57 -2136.14 76643.99 -2132.07 76702.41 -2136.14 76757.27 -2148.84 76808.07 -2169.16 76854.81 -2197.6 76896.46 -2233.16 76934.06 -2276.34 76966.06 -2326.13 76992.98 -2383.02 77014.32 -2446.02 77030.07 -2515.1 77039.72 -2589.78 77042.77 -2670.04 77039.72 -2750.82 77030.07 -2826.51 77014.32 -2896.61 76992.98 -2960.62 76966.06 -3018.02 76934.06 -3069.33 76896.46 -3113.53 76854.81 -3150.61 76808.07 -3180.08 76757.27 -3201.41 76702.41 -3214.62 76643.99 -3218.68 76585.57 -3214.62 76530.7 -3201.41 76479.9 -3180.08 76433.17 -3150.61 76391.51 -3113.53 76353.92 -3069.33 76321.92 -3018.02 76294.99 -2960.62 76273.66 -2896.61 76257.91 -2826.51 76248.25 -2750.82 76245.21 -2670.04 76092.81 -2670.04 76095.35 -2746.24 76103.48 -2818.38 76116.18 -2886.45 76133.45 -2950.97 76155.8 -3010.91 76182.22 -3066.79 76212.7 -3118.1 76247.24 -3164.84 76285.85 -3206.49 76328.01 -3243.07 76373.22 -3274.56 76421.99 -3300.98 76473.3 -3321.3 76527.66 -3336.54 76584.55 -3345.18 76643.99 -3348.22 76703.42 -3345.18 76760.32 -3336.54 76814.68 -3321.3 76865.98 -3300.98 76914.75 -3274.56 76959.96 -3243.07 77002.13 -3206.49 77040.74 -3164.84 77075.28 -3118.1 77105.76 -3066.79 77132.18 -3010.91 77154.53 -2950.97 77171.8 -2886.45 77184.5 -2818.38 77192.63 -2746.24 77195.17 -2670.04 77192.63 -2594.35 77184.5 -2522.72 77171.8 -2454.65 77154.53 -2390.64 77132.18 -2331.21 77105.76 -2276.34 77075.28 -2225.54 77040.74 -2179.82 77002.13 -2138.67 76959.96 -2102.61 76914.75 -2071.62 76865.98 -2046.22 76814.68 -2025.9 76760.32 -2011.68 76703.42 -2002.53"/><path d="M 89189.05 -2024.88 89597.99 -2518.15 89128.09 -3325.36 89290.65 -3325.36 89691.97 -2629.91 89923.11 -2906.77 89923.11 -3325.36 90072.97 -3325.36 90072.97 -2024.88 89923.11 -2024.88 89923.11 -2693.41 89920.57 -2693.41 89356.69 -2024.88"/><path d="M 88521.03 -2024.88 88256.06 -2800.09 88399.11 -2800.09 88519.5 -2422.65 88602.31 -2146.8 88609.93 -2146.8 88672.92 -2369.82 88810.59 -2800.09 88256.06 -2800.09 88076.53 -3325.36 88231.47 -3325.36 88361.01 -2913.88 88846.15 -2913.88 88980.77 -3325.36 89128.09 -3325.36 88683.59 -2024.88"/><path d="M 87738.71 -2024.88 87738.71 -3325.36 87886.03 -3325.36 87886.03 -2024.88"/><path d="M 87228.17 -2024.88 87228.17 -3201.41 86651.59 -3201.41 86651.59 -3325.36 87375.49 -3325.36 87375.49 -2024.88"/><path d="M 85500.97 -2024.88 85500.97 -3325.36 85648.29 -3325.36 85648.29 -2703.57 86275.67 -2703.57 86275.67 -3325.36 86422.99 -3325.36 86422.99 -2024.88 86275.67 -2024.88 86275.67 -2576.57 85648.29 -2576.57 85648.29 -2024.88"/><path d="M 82694.27 -2024.88 82694.27 -3325.36 82841.59 -3325.36 82841.59 -2703.57 83468.97 -2703.57 83468.97 -3325.36 83616.29 -3325.36 83616.29 -2024.88 83468.97 -2024.88 83468.97 -2576.57 82841.59 -2576.57 82841.59 -2024.88"/><path d="M 78673.45 -2024.88 79090.01 -3325.36 79257.65 -3325.36 79676.75 -2024.88 79521.81 -2024.88 79192.12 -3117.08 79173.83 -3172.96 79168.75 -3172.96 79036.67 -2741.67 78823.31 -2024.88"/><path d="M 78076.55 -2024.88 78076.55 -3203.44 77812.39 -3203.44 77812.39 -3325.36 78513.43 -3325.36 78513.43 -3203.44 78221.33 -3203.44 78221.33 -2208.27 78449.93 -2208.27 78449.93 -2113.78 78371.19 -2097.53 78302.1 -2077.21 78241.14 -2053.33 78188.31 -2024.88"/><path d="M 74893.93 -2024.88 74893.93 -3325.36 75046.33 -3325.36 75534.01 -2482.59 75676.25 -2215.38 75686.41 -2215.38 75670.15 -2511.55 75668.63 -2611.62 75668.63 -3325.36 75808.33 -3325.36 75808.33 -2024.88 75655.93 -2024.88 75163.17 -2865.62 75023.47 -3132.83 75013.31 -3132.83 75030.07 -2880.36 75033.12 -2778.76 75033.63 -2024.88"/><path d="M 74383.39 -2024.88 74383.39 -3201.41 73806.81 -3201.41 73806.81 -3325.36 74530.71 -3325.36 74530.71 -2024.88"/><path d="M 72978.77 -2024.88 73369.93 -2815.33 73369.93 -3325.36 73514.71 -3325.36 73514.71 -2815.33 73905.87 -2024.88 73750.93 -2024.88 73443.59 -2685.28 73435.97 -2685.28 73369.42 -2542.54 73306.43 -2400.8 73128.63 -2024.88"/><path d="M 79750.92 -3919.22 79750.92 -4310.38 79756 -4513.58 79685.38 -4450.08 79648.81 -4422.14 79610.2 -4397.75 79569.56 -4377.43 79526.89 -4361.68 79481.68 -4352.03 79433.42 -4348.48 79363.31 -4354.57 79303.37 -4372.35 79252.57 -4402.32 79211.93 -4443.98 79180.94 -4497.32 79158.59 -4561.84 79145.89 -4637.53 79141.31 -4724.4 79141.31 -5334 79286.09 -5334 79286.09 -4742.18 79288.64 -4677.66 79297.27 -4622.29 79311.5 -4576.06 79331.81 -4539.48 79358.23 -4511.04 79391.25 -4491.22 79430.37 -4479.54 79476.59 -4475.48 79548.22 -4485.64 79614.77 -4515.1 79680.3 -4564.38 79750.92 -4632.96 79750.92 -5334 79895.7 -5334 79895.7 -3919.22"/><path d="M 75427.84 -3919.22 75427.84 -4310.38 75432.92 -4513.58 75362.81 -4450.08 75326.24 -4422.14 75288.14 -4397.75 75248 -4377.43 75205.84 -4361.68 75160.63 -4352.03 75112.88 -4348.48 75042.77 -4354.57 74982.32 -4372.35 74931.52 -4402.32 74890.37 -4443.98 74858.37 -4497.32 74836.02 -4561.84 74822.81 -4637.53 74818.24 -4724.4 74818.24 -5334 74965.56 -5334 74965.56 -4742.18 74968.09 -4677.66 74976.22 -4622.29 74990.45 -4576.06 75010.26 -4539.48 75036.68 -4511.04 75069.7 -4491.22 75109.32 -4479.54 75156.06 -4475.48 75226.16 -4485.64 75292.2 -4515.1 75357.73 -4564.38 75427.84 -4632.96 75427.84 -5334 75572.62 -5334 75572.62 -3919.22"/><path d="M 70515.48 -3919.22 70515.48 -5097.78 70660.25 -5097.78 70660.25 -4579.62 70723.25 -4529.83 70784.21 -4496.81 70845.17 -4478.52 70906.64 -4472.93 70965.56 -4480.05 71020.43 -4500.88 71069.7 -4534.4 71112.38 -4579.62 71147.43 -4634.99 71173.84 -4700.01 71190.61 -4773.16 71196.2 -4853.93 71191.62 -4938.26 71177.4 -5012.94 71155.05 -5078.47 71123.55 -5132.83 71083.93 -5176.51 71036.68 -5208.52 70981.31 -5228.33 70919.34 -5234.93 70852.28 -5226.3 70787.76 -5200.39 70724.26 -5157.72 70660.25 -5097.78 70515.48 -5097.78 70515.48 -5334 70634.86 -5334 70647.56 -5219.7 70652.64 -5219.7 70714.61 -5273.04 70786.24 -5316.72 70864.98 -5346.19 70949.81 -5356.86 71008.24 -5353.3 71063.1 -5342.12 71113.39 -5323.84 71159.62 -5297.93 71201.28 -5265.92 71238.36 -5226.3 71270.36 -5180.07 71296.78 -5127.75 71318.12 -5068.82 71333.36 -5003.29 71343.01 -4931.66 71346.06 -4853.93 71341.99 -4778.75 71330.31 -4708.65 71311.51 -4644.13 71286.62 -4585.2 71255.63 -4531.86 71219.56 -4485.13 71178.92 -4444.49 71134.73 -4410.45 71086.98 -4384.04 71036.18 -4364.22 70983.34 -4352.54 70929.5 -4348.48 70850.25 -4356.09 70780.65 -4378.96 70716.14 -4415.02 70652.64 -4462.78 70660.25 -4295.14 70660.25 -3919.22"/><path d="M 81828.64 -3967.48 81789.52 -3974.59 81758.02 -3994.91 81737.2 -4026.4 81729.58 -4066.54 81737.2 -4108.19 81758.02 -4140.2 81789.52 -4161.02 81828.64 -4168.14 81870.29 -4161.02 81902.3 -4140.2 81923.12 -4108.19 81930.24 -4066.54 81923.12 -4026.4 81902.3 -3994.91 81870.29 -3974.59"/><path d="M 74429.62 -3967.48 74390.5 -3974.59 74359 -3994.91 74338.18 -4026.4 74330.56 -4066.54 74338.18 -4108.19 74359 -4140.2 74390.5 -4161.02 74429.62 -4168.14 74471.27 -4161.02 74503.28 -4140.2 74524.1 -4108.19 74531.22 -4066.54 74524.1 -4026.4 74503.28 -3994.91 74471.27 -3974.59"/><path d="M 71678.8 -3967.48 71639.68 -3974.59 71608.18 -3994.91 71587.36 -4026.4 71579.74 -4066.54 71587.36 -4108.19 71608.18 -4140.2 71639.68 -4161.02 71678.8 -4168.14 71720.45 -4161.02 71752.46 -4140.2 71773.28 -4108.19 71780.4 -4066.54 71773.28 -4026.4 71752.46 -3994.91 71720.45 -3974.59"/><path d="M 83980.02 -4008.12 83922.1 -4011.16 83866.73 -4019.8 83814.41 -4034.02 83765.13 -4052.82 83718.9 -4076.19 83676.23 -4103.62 83637.12 -4134.1 83601.56 -4168.14 83677.75 -4264.66 83741.76 -4212.84 83812.88 -4173.72 83891.62 -4148.83 83980.02 -4140.2 84033.86 -4143.75 84082.63 -4153.91 84125.3 -4170.68 84161.88 -4193.54 84191.34 -4221.98 84213.19 -4256.02 84226.9 -4294.63 84231.48 -4338.32 84211.66 -4424.17 84160.86 -4485.64 84091.27 -4529.83 84015.58 -4564.38 83825.08 -4643.12 83771.23 -4669.02 83720.94 -4698.49 83675.22 -4731.51 83635.08 -4769.61 83602.06 -4814.31 83577.17 -4865.62 83561.42 -4925.06 83555.84 -4993.64 83559.39 -5043.42 83569.55 -5091.17 83586.82 -5135.88 83609.68 -5178.04 83639.15 -5216.65 83674.2 -5251.7 83714.84 -5282.18 83761.07 -5308.09 83811.87 -5328.92 83867.75 -5344.16 83928.2 -5353.81 83992.72 -5356.86 84060.79 -5353.3 84125.81 -5343.65 84187.79 -5327.39 84246.21 -5305.04 84301.58 -5277.61 84352.89 -5244.59 84401.15 -5206.49 84444.84 -5163.82 84355.94 -5062.22 84318.85 -5098.28 84278.72 -5130.8 84236.05 -5159.24 84190.33 -5182.61 84143.08 -5201.92 84094.32 -5215.63 84044.02 -5224.27 83992.72 -5227.32 83929.22 -5223.25 83872.83 -5211.06 83823.55 -5191.25 83782.4 -5165.34 83749.38 -5132.32 83725.51 -5094.22 83710.78 -5051.55 83705.7 -5003.8 83710.27 -4955.03 83722.97 -4913.88 83742.78 -4879.84 83769.7 -4850.89 83802.22 -4826 83839.81 -4803.64 83926.68 -4762.5 84162.9 -4657.85 84208.62 -4632.45 84253.32 -4601.97 84293.96 -4565.9 84329.01 -4523.23 84356.95 -4473.44 84374.73 -4415.02 84381.34 -4348.48 84377.78 -4300.22 84367.62 -4254.5 84351.36 -4211.82 84328.5 -4172.2 84300.56 -4136.13 84267.54 -4104.13 84229.44 -4076.19 84186.77 -4052.31 84140.04 -4033.52 84090.25 -4019.8 84036.4 -4011.16"/><path d="M 72423.02 -4008.12 72365.1 -4011.16 72309.73 -4019.8 72257.41 -4034.02 72208.13 -4052.82 72161.9 -4076.19 72119.23 -4103.62 72080.12 -4134.1 72044.56 -4168.14 72120.75 -4264.66 72184.76 -4212.84 72255.88 -4173.72 72334.62 -4148.83 72423.02 -4140.2 72476.86 -4143.75 72525.63 -4153.91 72568.3 -4170.68 72604.88 -4193.54 72634.34 -4221.98 72656.19 -4256.02 72669.9 -4294.63 72674.48 -4338.32 72654.66 -4424.17 72603.86 -4485.64 72534.27 -4529.83 72458.58 -4564.38 72268.08 -4643.12 72214.23 -4669.02 72163.94 -4698.49 72118.22 -4731.51 72078.08 -4769.61 72045.06 -4814.31 72020.17 -4865.62 72004.42 -4925.06 71998.84 -4993.64 72002.39 -5043.42 72012.55 -5091.17 72029.82 -5135.88 72052.68 -5178.04 72082.15 -5216.65 72117.2 -5251.7 72157.84 -5282.18 72204.07 -5308.09 72254.87 -5328.92 72310.75 -5344.16 72371.2 -5353.81 72435.72 -5356.86 72503.79 -5353.3 72568.81 -5343.65 72630.79 -5327.39 72689.21 -5305.04 72744.58 -5277.61 72795.89 -5244.59 72844.15 -5206.49 72887.84 -5163.82 72798.94 -5062.22 72761.85 -5098.28 72721.72 -5130.8 72679.05 -5159.24 72633.33 -5182.61 72586.08 -5201.92 72537.31 -5215.63 72487.02 -5224.27 72435.72 -5227.32 72372.22 -5223.25 72315.83 -5211.06 72266.55 -5191.25 72225.4 -5165.34 72192.38 -5132.32 72168.51 -5094.22 72153.78 -5051.55 72148.7 -5003.8 72153.27 -4955.03 72165.97 -4913.88 72185.78 -4879.84 72212.7 -4850.89 72245.22 -4826 72282.81 -4803.64 72369.68 -4762.5 72605.9 -4657.85 72651.62 -4632.45 72696.32 -4601.97 72736.96 -4565.9 72772.01 -4523.23 72799.95 -4473.44 72817.73 -4415.02 72824.34 -4348.48 72820.78 -4300.22 72810.62 -4254.5 72794.36 -4211.82 72771.5 -4172.2 72743.56 -4136.13 72710.54 -4104.13 72672.44 -4076.19 72629.77 -4052.31 72583.03 -4033.52 72533.25 -4019.8 72479.4 -4011.16"/><path d="M 88981.28 -4033.52 88981.28 -5334 89118.44 -5334 89118.44 -4582.16 89116.4 -4493.26 89100.66 -4203.7 89105.74 -4203.7 89209.88 -4500.88 89463.88 -5199.38 89565.48 -5199.38 89822.02 -4500.88 89923.62 -4203.7 89931.24 -4203.7 89914.98 -4493.26 89913.46 -4582.16 89913.46 -5334 90048.08 -5334 90048.08 -4033.52 89865.2 -4033.52 89586.81 -4813.3 89514.68 -5021.58 89507.06 -5021.58 89415.62 -4744.72 89161.62 -4033.52"/><path d="M 75796.14 -4033.52 75796.14 -4157.98 76194.92 -4157.98 76194.92 -5334 76344.78 -5334 76344.78 -4157.98 76741.02 -4157.98 76741.02 -4033.52"/><path d="M 85242.4 -4102.09 85242.4 -4373.88 84978.24 -4373.88 84978.24 -4493.26 85242.4 -4493.26 85242.4 -5049.51 85235.28 -5128.26 85210.39 -5187.18 85164.16 -5224.78 85092.54 -5237.48 85064.6 -5235.44 85006.18 -5221.22 84980.78 -5212.08 84952.84 -5321.3 85038.18 -5345.68 85081.36 -5353.81 85123.02 -5356.86 85192.1 -5351.27 85249 -5334 85294.72 -5307.07 85330.28 -5269.99 85356.7 -5224.78 85373.97 -5171.43 85384.13 -5110.98 85387.18 -5044.43 85387.18 -4493.26 85531.96 -4493.26 85531.96 -4384.04 85382.1 -4373.88 85364.32 -4102.09"/><path d="M 81254.59 -4102.09 81254.59 -4373.88 80987.9 -4373.88 80987.9 -4493.26 81254.59 -4493.26 81254.59 -5049.51 81246.98 -5128.26 81222.08 -5187.18 81175.35 -5224.78 81102.2 -5237.48 81074.25 -5235.44 81016.85 -5221.22 80990.44 -5212.08 80962.5 -5321.3 81047.84 -5345.68 81091.02 -5353.81 81132.68 -5356.86 81201.76 -5351.27 81258.66 -5334 81304.38 -5307.07 81339.94 -5269.99 81366.36 -5224.78 81383.63 -5171.43 81393.79 -5110.98 81396.84 -5044.43 81396.84 -4493.26 81544.16 -4493.26 81544.16 -4384.04 81391.75 -4373.88 81373.98 -4102.09"/><path d="M 88265 -4348.48 88206.58 -4352.54 88150.19 -4363.72 88095.83 -4382.51 88044.52 -4408.42 87997.28 -4441.44 87954.1 -4481.06 87916 -4527.8 87883.49 -4580.63 87856.56 -4640.07 87837.26 -4705.6 87824.56 -4776.72 87820.5 -4853.93 87970.36 -4853.93 87975.94 -4772.15 87992.2 -4697.98 88018.11 -4632.96 88052.65 -4577.58 88095.83 -4533.39 88146.12 -4500.37 88202.51 -4480.05 88265 -4472.93 88326.97 -4480.05 88383.36 -4500.37 88432.64 -4533.39 88474.8 -4577.58 88508.33 -4632.96 88533.73 -4697.98 88548.97 -4772.15 88554.56 -4853.93 88548.97 -4935.72 88533.73 -5009.89 88508.33 -5074.92 88474.8 -5130.29 88432.64 -5174.48 88383.36 -5207.5 88326.97 -5227.82 88265 -5234.93 88202.51 -5227.82 88146.12 -5207.5 88095.83 -5174.48 88052.65 -5130.29 88018.11 -5074.92 87992.2 -5009.89 87975.94 -4935.72 87970.36 -4853.93 87820.5 -4853.93 87824.56 -4930.64 87837.26 -5001.26 87856.56 -5066.28 87883.49 -5125.21 87916 -5178.04 87954.1 -5224.27 87997.28 -5263.89 88044.52 -5296.91 88095.83 -5322.82 88150.19 -5341.62 88206.58 -5352.79 88265 -5356.86 88322.91 -5352.79 88378.79 -5341.62 88432.13 -5322.82 88482.93 -5296.91 88529.66 -5263.89 88572.34 -5224.27 88609.93 -5178.04 88642.44 -5125.21 88668.86 -5066.28 88688.16 -5001.26 88700.35 -4930.64 88704.42 -4853.93 88700.35 -4776.72 88688.16 -4705.6 88668.86 -4640.07 88642.44 -4580.63 88609.93 -4527.8 88572.34 -4481.06 88529.66 -4441.44 88482.93 -4408.42 88432.13 -4382.51 88378.79 -4363.72 88322.91 -4352.54"/><path d="M 86029.8 -4348.48 85959.69 -4354.57 85899.24 -4372.35 85848.44 -4402.32 85807.29 -4443.98 85775.29 -4497.32 85752.94 -4561.84 85739.73 -4637.53 85735.16 -4724.4 85735.16 -5334 85882.48 -5334 85882.48 -4742.18 85885.02 -4677.66 85893.14 -4622.29 85907.37 -4576.06 85927.18 -4539.48 85953.6 -4511.04 85986.62 -4491.22 86026.24 -4479.54 86072.98 -4475.48 86143.08 -4485.64 86209.12 -4515.1 86274.65 -4564.38 86344.76 -4632.96 86344.76 -5334 86489.54 -5334 86489.54 -4373.88 86372.7 -4373.88 86357.46 -4513.58 86352.38 -4513.58 86281.76 -4450.08 86245.19 -4422.14 86206.07 -4397.75 86165.94 -4377.43 86123.27 -4361.68 86078.06 -4352.03"/><path d="M 80411.31 -4348.48 80324.45 -4357.62 80249.77 -4383.02 80185.76 -4420.1 80131.92 -4465.32 80208.12 -4559.3 80251.8 -4523.23 80298.54 -4496.3 80349.85 -4479.03 80406.24 -4472.93 80471.77 -4480.05 80531.71 -4500.37 80585.05 -4533.39 80631.28 -4577.58 80668.87 -4632.96 80697.32 -4697.98 80715.1 -4772.15 80721.2 -4853.93 80715.61 -4935.72 80698.84 -5009.89 80671.92 -5074.92 80635.85 -5130.29 80590.64 -5174.48 80537.81 -5207.5 80477.86 -5227.82 80411.31 -5234.93 80344.77 -5227.32 80282.79 -5206.49 80226.91 -5176.01 80177.64 -5138.42 80114.14 -5234.93 80181.19 -5286.24 80255.87 -5324.34 80337.15 -5348.73 80424.02 -5356.86 80485.48 -5352.79 80544.41 -5341.62 80599.78 -5322.82 80651.09 -5296.91 80698.34 -5263.89 80740.5 -5224.27 80777.58 -5178.04 80809.08 -5125.21 80834.48 -5066.28 80853.28 -5001.26 80864.45 -4930.64 80868.52 -4853.93 80863.94 -4776.72 80851.75 -4705.6 80831.43 -4640.07 80804 -4580.63 80770.47 -4527.8 80731.36 -4481.06 80687.16 -4441.44 80638.39 -4408.42 80585.56 -4382.51 80529.68 -4363.72 80471.77 -4352.54"/><path d="M 78470.75 -4348.48 78413.35 -4352.03 78360.01 -4362.7 78310.74 -4379.97 78266.54 -4403.34 78226.92 -4433.31 78191.86 -4469.38 78161.89 -4511.04 78137.51 -4558.28 78117.7 -4611.11 78103.98 -4668.51 78095.34 -4731 78093.1 -4780.28 78219.3 -4780.28 78223.87 -4707.63 78236.57 -4644.13 78257.4 -4590.28 78285.84 -4545.58 78321.4 -4510.53 78364.08 -4485.64 78412.84 -4470.4 78468.22 -4465.32 78520.54 -4470.9 78570.83 -4486.65 78617.06 -4512.56 78658.72 -4548.63 78694.78 -4593.33 78723.74 -4647.69 78745.58 -4709.66 78757.78 -4780.28 78093.1 -4780.28 78092.8 -4822.44 78096.36 -4867.14 78099.92 -4886.96 78755.24 -4886.96 78746.6 -4963.66 78727.8 -5032.75 78698.34 -5093.2 78660.24 -5145.02 78613 -5186.17 78558.13 -5217.16 78496.16 -5235.95 78427.58 -5242.56 78359 -5236.97 78296 -5221.22 78238.09 -5196.33 78183.74 -5163.82 78130.4 -5260.34 78195.93 -5297.93 78269.08 -5328.41 78351.38 -5349.24 78445.36 -5356.86 78507.33 -5352.79 78566.26 -5341.62 78622.65 -5322.82 78674.97 -5296.91 78723.23 -5263.89 78766.92 -5224.27 78805.53 -5178.04 78838.04 -5125.21 78864.46 -5066.28 78883.76 -5001.26 78895.95 -4930.64 78900.02 -4853.93 78895.95 -4778.75 78883.76 -4708.65 78863.95 -4644.13 78838.04 -4585.2 78805.53 -4531.86 78768.44 -4485.13 78726.28 -4444.49 78680.05 -4410.45 78631.28 -4384.04 78579.47 -4364.22 78525.62 -4352.54"/><path d="M 77579.22 -4348.48 77495.9 -4357.11 77418.18 -4379.97 77348.58 -4414.01 77289.66 -4455.16 77360.78 -4549.14 77409.54 -4515.61 77461.36 -4489.19 77517.75 -4471.41 77579.22 -4465.32 77663.03 -4477 77721.96 -4507.99 77756 -4554.22 77767.18 -4610.09 77749.9 -4672.58 77703.68 -4718.3 77636.62 -4753.35 77503.52 -4804.15 77451.2 -4826.5 77400.91 -4851.9 77355.19 -4881.37 77316.58 -4917.43 77286.1 -4961.12 77266.29 -5013.96 77259.18 -5077.46 77264.76 -5133.34 77281.53 -5185.15 77309.47 -5232.9 77347.57 -5274.56 77396.34 -5308.6 77455.26 -5334.5 77523.84 -5351.27 77602.08 -5356.86 77652.88 -5354.32 77703.17 -5346.7 77751.43 -5335.01 77798.16 -5319.26 77842.87 -5299.96 77885.03 -5277.61 77924.15 -5252.21 77960.22 -5224.78 77886.56 -5128.26 77824.07 -5173.98 77757.02 -5210.04 77682.34 -5233.92 77597 -5242.56 77510.13 -5229.85 77448.15 -5195.82 77411.07 -5145.02 77398.88 -5082.54 77418.69 -5015.99 77469.49 -4965.7 77541.62 -4926.58 77674.21 -4874.76 77724.5 -4852.92 77772.76 -4827.52 77815.94 -4798.06 77853.03 -4763.51 77881.48 -4722.36 77900.27 -4674.1 77906.88 -4617.72 77901.29 -4563.36 77885.03 -4512.56 77858.11 -4466.84 77821.02 -4426.71 77774.29 -4394.2 77718.41 -4369.3 77652.88 -4354.06"/><path d="M 73756.52 -4348.48 73672.19 -4357.11 73594.46 -4379.97 73524.87 -4414.01 73464.42 -4455.16 73535.53 -4549.14 73585.32 -4515.61 73637.64 -4489.19 73693.52 -4471.41 73756.52 -4465.32 73838.81 -4477 73896.72 -4507.99 73930.76 -4554.22 73941.94 -4610.09 73924.66 -4672.58 73878.94 -4718.3 73812.4 -4753.35 73679.81 -4804.15 73626.98 -4826.5 73577.19 -4851.9 73531.47 -4881.37 73492.86 -4917.43 73462.89 -4961.12 73443.59 -5013.96 73436.48 -5077.46 73442.06 -5133.34 73458.83 -5185.15 73486.26 -5232.9 73524.36 -5274.56 73572.62 -5308.6 73631.55 -5334.5 73700.64 -5351.27 73779.38 -5356.86 73830.18 -5354.32 73880.47 -5346.7 73928.73 -5335.01 73975.46 -5319.26 74019.66 -5299.96 74061.31 -5277.61 74099.92 -5252.21 74134.98 -5224.78 74063.86 -5128.26 73999.85 -5173.98 73932.28 -5210.04 73858.12 -5233.92 73774.3 -5242.56 73685.9 -5229.85 73623.42 -5195.82 73585.83 -5145.02 73573.64 -5082.54 73593.45 -5015.99 73645.26 -4965.7 73717.4 -4926.58 73848.97 -4874.76 73899.26 -4852.92 73947.52 -4827.52 73990.7 -4798.06 74027.79 -4763.51 74056.24 -4722.36 74075.03 -4674.1 74081.64 -4617.72 74076.05 -4563.36 74060.3 -4512.56 74033.88 -4466.84 73997.31 -4426.71 73951.08 -4394.2 73895.2 -4369.3 73830.18 -4354.06"/><path d="M 69827.14 -4348.48 69769.22 -4352.03 69715.38 -4362.7 69666.1 -4379.97 69621.9 -4403.34 69582.28 -4433.31 69547.23 -4469.38 69517.76 -4511.04 69493.38 -4558.28 69474.08 -4611.11 69459.85 -4668.51 69451.72 -4731 69449.48 -4780.28 69575.68 -4780.28 69579.74 -4707.63 69592.44 -4644.13 69612.76 -4590.28 69641.21 -4545.58 69676.77 -4510.53 69719.44 -4485.64 69768.72 -4470.4 69824.59 -4465.32 69876.92 -4470.9 69926.7 -4486.65 69973.44 -4512.56 70014.59 -4548.63 70050.66 -4593.33 70079.1 -4647.69 70099.93 -4709.66 70111.62 -4780.28 69449.48 -4780.28 69448.68 -4822.44 69450.71 -4867.14 69453.75 -4886.96 70111.62 -4886.96 70102.47 -4963.66 70082.66 -5032.75 70053.7 -5093.2 70015.09 -5145.02 69967.85 -5186.17 69912.99 -5217.16 69850.5 -5235.95 69781.42 -5242.56 69713.85 -5236.97 69650.86 -5221.22 69592.44 -5196.33 69537.58 -5163.82 69484.24 -5260.34 69550.28 -5297.93 69623.43 -5328.41 69706.23 -5349.24 69799.2 -5356.86 69861.68 -5352.79 69921.12 -5341.62 69977.5 -5322.82 70029.83 -5296.91 70078.09 -5263.89 70121.78 -5224.27 70159.88 -5178.04 70192.39 -5125.21 70218.3 -5066.28 70237.6 -5001.26 70249.79 -4930.64 70253.86 -4853.93 70249.79 -4778.75 70237.6 -4708.65 70217.79 -4644.13 70191.88 -4585.2 70159.88 -4531.86 70122.28 -4485.13 70080.63 -4444.49 70034.91 -4410.45 69986.14 -4384.04 69934.83 -4364.22 69881.49 -4352.54"/><path d="M 86824.82 -4373.88 86824.82 -5334 86944.2 -5334 86956.9 -5181.59 86961.98 -5181.59 86996.52 -5219.19 87032.08 -5252.72 87068.66 -5282.69 87106.76 -5308.09 87146.89 -5328.92 87189.05 -5344.16 87234.26 -5353.81 87282.02 -5356.86 87352.12 -5350.76 87412.06 -5332.98 87462.86 -5303.52 87503.5 -5262.37 87534.49 -5210.04 87556.84 -5145.53 87569.54 -5070.34 87574.12 -4983.48 87574.12 -4373.88 87429.34 -4373.88 87429.34 -4965.7 87426.8 -5029.7 87418.67 -5084.06 87405.46 -5129.78 87385.65 -5166.35 87359.23 -5194.3 87326.72 -5214.11 87286.59 -5225.79 87238.84 -5229.85 87168.73 -5220.2 87103.2 -5189.72 87038.68 -5137.91 86969.6 -5062.22 86969.6 -4373.88"/><path d="M 82118.2 -4373.88 82379.81 -5334 82557.62 -5334 82721.7 -4729.98 82770.98 -4521.2 82778.59 -4521.2 82827.87 -4732.52 82989.42 -5334 83159.59 -5334 83428.84 -4373.88 83281.52 -4373.88 83115.4 -5011.42 83073.24 -5209.54 83065.62 -5209.54 82997.03 -4945.38 82842.09 -4373.88 82697.31 -4373.88 82523.07 -5011.42 82473.8 -5209.54 82466.18 -5209.54 82419.44 -5011.42 82255.36 -4373.88"/><path d="M 81757.52 -4373.88 81757.52 -5334 81902.3 -5334 81902.3 -4373.88"/><path d="M 74358.5 -4373.88 74358.5 -5334 74503.28 -5334 74503.28 -4373.88"/><path d="M 71607.68 -4373.88 71607.68 -5334 71752.46 -5334 71752.46 -4373.88"/></g><g id="CdcsRZVs-O34ABsDXoYO_bottom_copper"><path d="M 87600.02 -14500.09 89817.19 -16717.26 111835.69 -16717.26 120552.97 -7999.98 137599.67 -7999.98 M 137999.72 -7999.98 137599.67 -7999.98" fill="none" stroke-width="300"/><path d="M 137599.41 -5499.1 111599.97 -5499.1 111599.97 -14500.86" fill="none" stroke-width="254"/><path d="M 134999.72 -1999.99 140999.71 -1999.99 140999.71 -3999.99 134999.72 -3999.99"/><path d="M 134999.72 -4500.37 140999.71 -4500.37 140999.71 -6500.36 134999.72 -6500.36"/><path d="M 134999.72 -6999.98 140999.71 -6999.98 140999.71 -8999.98 134999.72 -8999.98"/><path d="M 134999.72 -19999.95 140999.71 -19999.95 140999.71 -21999.95 134999.72 -21999.95"/><path d="M 134999.72 -22500.08 140999.71 -22500.08 140999.71 -24500.07 134999.72 -24500.07"/><path d="M 134999.72 -24999.95 140999.71 -24999.95 140999.71 -26999.94 134999.72 -26999.94"/><use xlink:href="#AfYQvBUaCyI2t9PfkCTQ_pad-12" x="137499.85" y="-25999.94"/><use xlink:href="#AfYQvBUaCyI2t9PfkCTQ_pad-12" x="137499.85" y="-23500.07"/><use xlink:href="#AfYQvBUaCyI2t9PfkCTQ_pad-12" x="137499.85" y="-20999.95"/><use xlink:href="#AfYQvBUaCyI2t9PfkCTQ_pad-12" x="137499.85" y="-2999.99"/><use xlink:href="#AfYQvBUaCyI2t9PfkCTQ_pad-12" x="137599.67" y="-7999.98"/><use xlink:href="#AfYQvBUaCyI2t9PfkCTQ_pad-12" x="137599.67" y="-5500.11"/><use xlink:href="#AfYQvBUaCyI2t9PfkCTQ_pad-13" x="113700.81" y="-9499.6"/><use xlink:href="#AfYQvBUaCyI2t9PfkCTQ_pad-13" x="111600.23" y="-14499.84"/><use xlink:href="#AfYQvBUaCyI2t9PfkCTQ_pad-13" x="89699.84" y="-9500.1"/><use xlink:href="#AfYQvBUaCyI2t9PfkCTQ_pad-13" x="87600.02" y="-14500.09"/><use xlink:href="#AfYQvBUaCyI2t9PfkCTQ_pad-13" x="65700.14" y="-9499.6"/><use xlink:href="#AfYQvBUaCyI2t9PfkCTQ_pad-13" x="63600.33" y="-14499.84"/><use xlink:href="#AfYQvBUaCyI2t9PfkCTQ_pad-13" x="41699.68" y="-9499.6"/><use xlink:href="#AfYQvBUaCyI2t9PfkCTQ_pad-13" x="39599.1" y="-14500.86"/><use xlink:href="#AfYQvBUaCyI2t9PfkCTQ_pad-13" x="17699.98" y="-9499.85"/><use xlink:href="#AfYQvBUaCyI2t9PfkCTQ_pad-13" x="15601.18" y="-14500.86"/><use xlink:href="#AfYQvBUaCyI2t9PfkCTQ_pad-14" x="3999.99" y="-14500.09"/></g><g id="CdcsRZVs-O34ABsDXoYO_bottom_soldermask"><use xlink:href="#GrvZyJFtR19UH7wuNlCa_pad-10" x="137499.85" y="-25999.94"/><use xlink:href="#GrvZyJFtR19UH7wuNlCa_pad-10" x="137499.85" y="-23500.07"/><use xlink:href="#GrvZyJFtR19UH7wuNlCa_pad-10" x="137499.85" y="-20999.95"/><use xlink:href="#GrvZyJFtR19UH7wuNlCa_pad-10" x="137499.85" y="-2999.99"/><use xlink:href="#GrvZyJFtR19UH7wuNlCa_pad-10" x="137599.67" y="-7999.98"/><use xlink:href="#GrvZyJFtR19UH7wuNlCa_pad-10" x="137599.67" y="-5500.11"/><use xlink:href="#GrvZyJFtR19UH7wuNlCa_pad-11" x="113700.81" y="-9499.6"/><use xlink:href="#GrvZyJFtR19UH7wuNlCa_pad-11" x="111600.23" y="-14499.84"/><use xlink:href="#GrvZyJFtR19UH7wuNlCa_pad-11" x="89699.84" y="-9500.1"/><use xlink:href="#GrvZyJFtR19UH7wuNlCa_pad-11" x="87600.02" y="-14500.09"/><use xlink:href="#GrvZyJFtR19UH7wuNlCa_pad-11" x="65700.14" y="-9499.6"/><use xlink:href="#GrvZyJFtR19UH7wuNlCa_pad-11" x="63600.33" y="-14499.84"/><use xlink:href="#GrvZyJFtR19UH7wuNlCa_pad-11" x="41699.68" y="-9499.6"/><use xlink:href="#GrvZyJFtR19UH7wuNlCa_pad-11" x="39599.1" y="-14500.86"/><use xlink:href="#GrvZyJFtR19UH7wuNlCa_pad-11" x="17699.98" y="-9499.85"/><use xlink:href="#GrvZyJFtR19UH7wuNlCa_pad-11" x="15601.18" y="-14500.86"/><use xlink:href="#GrvZyJFtR19UH7wuNlCa_pad-12" x="3999.99" y="-14500.09"/><path d="M 134948.93 -1949.19 141050.51 -1949.19 141050.51 -4050.79 134948.93 -4050.79"/><path d="M 134948.93 -4449.57 141050.51 -4449.57 141050.51 -6551.16 134948.93 -6551.16"/><path d="M 134948.93 -6949.18 141050.51 -6949.18 141050.51 -9050.78 134948.93 -9050.78"/><path d="M 134948.93 -19949.15 141050.51 -19949.15 141050.51 -22050.75 134948.93 -22050.75"/><path d="M 134948.93 -22449.28 141050.51 -22449.28 141050.51 -24550.87 134948.93 -24550.87"/><path d="M 134948.93 -24949.14 141050.51 -24949.14 141050.51 -27050.74 134948.93 -27050.74"/></g><g id="CdcsRZVs-O34ABsDXoYO_bottom_drill1"><use xlink:href="#AHKR1KPRHBEXIWZPwR6h_pad-1" x="137500" y="-26000"/><use xlink:href="#AHKR1KPRHBEXIWZPwR6h_pad-1" x="137500" y="-23500"/><use xlink:href="#AHKR1KPRHBEXIWZPwR6h_pad-1" x="137500" y="-21000"/><use xlink:href="#AHKR1KPRHBEXIWZPwR6h_pad-1" x="137500" y="-3000"/><use xlink:href="#AHKR1KPRHBEXIWZPwR6h_pad-1" x="137600" y="-8000"/><use xlink:href="#AHKR1KPRHBEXIWZPwR6h_pad-1" x="137600" y="-5500"/><use xlink:href="#AHKR1KPRHBEXIWZPwR6h_pad-2" x="113701" y="-9499"/><use xlink:href="#AHKR1KPRHBEXIWZPwR6h_pad-2" x="111600" y="-14500"/><use xlink:href="#AHKR1KPRHBEXIWZPwR6h_pad-2" x="89700" y="-9500"/><use xlink:href="#AHKR1KPRHBEXIWZPwR6h_pad-2" x="87600" y="-14500"/><use xlink:href="#AHKR1KPRHBEXIWZPwR6h_pad-2" x="65700" y="-9499"/><use xlink:href="#AHKR1KPRHBEXIWZPwR6h_pad-2" x="63600" y="-14500"/><use xlink:href="#AHKR1KPRHBEXIWZPwR6h_pad-2" x="41700" y="-9499"/><use xlink:href="#AHKR1KPRHBEXIWZPwR6h_pad-2" x="39599" y="-14501"/><use xlink:href="#AHKR1KPRHBEXIWZPwR6h_pad-2" x="17700" y="-9500"/><use xlink:href="#AHKR1KPRHBEXIWZPwR6h_pad-2" x="15601" y="-14501"/></g><g id="CdcsRZVs-O34ABsDXoYO_bottom_drill2"><use xlink:href="#I3sD_8D4l9fEMTXI3uMK_pad-1" x="117500" y="-9000"/><use xlink:href="#I3sD_8D4l9fEMTXI3uMK_pad-1" x="117500" y="-20000"/><use xlink:href="#I3sD_8D4l9fEMTXI3uMK_pad-1" x="93500" y="-9000"/><use xlink:href="#I3sD_8D4l9fEMTXI3uMK_pad-1" x="93500" y="-20000"/><use xlink:href="#I3sD_8D4l9fEMTXI3uMK_pad-1" x="69500" y="-9000"/><use xlink:href="#I3sD_8D4l9fEMTXI3uMK_pad-1" x="69500" y="-20000"/><use xlink:href="#I3sD_8D4l9fEMTXI3uMK_pad-1" x="45500" y="-9000"/><use xlink:href="#I3sD_8D4l9fEMTXI3uMK_pad-1" x="45500" y="-20000"/><use xlink:href="#I3sD_8D4l9fEMTXI3uMK_pad-1" x="21500" y="-9000"/><use xlink:href="#I3sD_8D4l9fEMTXI3uMK_pad-1" x="21500" y="-20000"/><use xlink:href="#I3sD_8D4l9fEMTXI3uMK_pad-2" x="45500" y="-14500"/><use xlink:href="#I3sD_8D4l9fEMTXI3uMK_pad-2" x="69500" y="-14500"/><use xlink:href="#I3sD_8D4l9fEMTXI3uMK_pad-2" x="93500" y="-14500"/><use xlink:href="#I3sD_8D4l9fEMTXI3uMK_pad-2" x="117500" y="-14500"/><use xlink:href="#I3sD_8D4l9fEMTXI3uMK_pad-2" x="21500" y="-14500"/><use xlink:href="#I3sD_8D4l9fEMTXI3uMK_pad-3" x="133500" y="-14500"/><path d="M 2500 -14500 5500 -14500" fill="none" stroke-width="4250"/></g><clipPath id="CdcsRZVs-O34ABsDXoYO_bottom_outline"><path d="M 999.99 -999.99 1000.76 -1000.76 139999.72 -1000.76 139999.72 -28000.95 -1000.76 -28000.95 -1000.76 -1000.76 1000.76 -1000.76" fill="none" stroke-width="254"/></clipPath><mask id="CdcsRZVs-O34ABsDXoYO_bottom_mech-mask"><g fill="#000" stroke="#000"><rect x="-1000.76" y="-28000.95" width="141000.48" height="27000.96" fill="#fff"/><use xlink:href="#CdcsRZVs-O34ABsDXoYO_bottom_drill1"/><use xlink:href="#CdcsRZVs-O34ABsDXoYO_bottom_drill2"/></g></mask><mask id="CdcsRZVs-O34ABsDXoYO_bottom_cf-mask"><g fill="#fff" stroke="#fff"><use xlink:href="#CdcsRZVs-O34ABsDXoYO_bottom_soldermask"/></g></mask><mask id="CdcsRZVs-O34ABsDXoYO_bottom_sm-mask"><g fill="#000" stroke="#000"><rect x="-1000.76" y="-28000.95" width="141000.48" height="27000.96" fill="#fff"/><use xlink:href="#CdcsRZVs-O34ABsDXoYO_bottom_soldermask"/></g></mask></defs><g transform="translate(0,-29000.940000000002) scale(1,-1)"><g mask="url(#CdcsRZVs-O34ABsDXoYO_bottom_mech-mask)" clip-path="url(#CdcsRZVs-O34ABsDXoYO_bottom_outline)" transform="translate(138998.96000000002,0) scale(-1,1)"><rect x="-1000.76" y="-28000.95" width="141000.48" height="27000.96" fill="currentColor" class="CdcsRZVs-O34ABsDXoYO_fr4"/><use xlink:href="#CdcsRZVs-O34ABsDXoYO_bottom_copper" fill="currentColor" stroke="currentColor" class="CdcsRZVs-O34ABsDXoYO_cu"/><use xlink:href="#CdcsRZVs-O34ABsDXoYO_bottom_copper" fill="currentColor" stroke="currentColor" class="CdcsRZVs-O34ABsDXoYO_cf" mask="url(#CdcsRZVs-O34ABsDXoYO_bottom_cf-mask)"/><g mask="url(#CdcsRZVs-O34ABsDXoYO_bottom_sm-mask)"><rect x="-1000.76" y="-28000.95" width="141000.48" height="27000.96" fill="currentColor" class="CdcsRZVs-O34ABsDXoYO_sm"/><use xlink:href="#CdcsRZVs-O34ABsDXoYO_bottom_silkscreen" fill="currentColor" stroke="currentColor" class="CdcsRZVs-O34ABsDXoYO_ss"/></g></g></g></svg>