<svg version="1.1" xmlns="http://www.w3.org/2000/svg" xmlns:xlink="http://www.w3.org/1999/xlink" stroke-linecap="round" stroke-linejoin="round" stroke-width="0" fill-rule="evenodd" width="140.6247191mm" height="24.999950000000002mm" viewBox="374.9909 -26999.94 140624.7191 24999.95" id="AfYQvBUaCyI2t9PfkCTQ"><defs><circle cx="0" cy="0" r="750" id="AfYQvBUaCyI2t9PfkCTQ_pad-12"/><circle cx="0" cy="0" r="1050" id="AfYQvBUaCyI2t9PfkCTQ_pad-13"/><rect x="-3624.9991" y="-2125.0021" width="7249.9982" height="4250.0042" rx="2125.0021" ry="2125.0021" id="AfYQvBUaCyI2t9PfkCTQ_pad-14"/></defs><g transform="translate(0,-28999.929999999997) scale(1,-1)" fill="currentColor" stroke="currentColor"><path d="M 87600.02 -14500.09 89817.19 -16717.26 111835.69 -16717.26 120552.97 -7999.98 137599.67 -7999.98 M 137999.72 -7999.98 137599.67 -7999.98" fill="none" stroke-width="300"/><path d="M 137599.41 -5499.1 111599.97 -5499.1 111599.97 -14500.86" fill="none" stroke-width="254"/><path d="M 134999.72 -1999.99 140999.71 -1999.99 140999.71 -3999.99 134999.72 -3999.99"/><path d="M 134999.72 -4500.37 140999.71 -4500.37 140999.71 -6500.36 134999.72 -6500.36"/><path d="M 134999.72 -6999.98 140999.71 -6999.98 140999.71 -8999.98 134999.72 -8999.98"/><path d="M 134999.72 -19999.95 140999.71 -19999.95 140999.71 -21999.95 134999.72 -21999.95"/><path d="M 134999.72 -22500.08 140999.71 -22500.08 140999.71 -24500.07 134999.72 -24500.07"/><path d="M 134999.72 -24999.95 140999.71 -24999.95 140999.71 -26999.94 134999.72 -26999.94"/><use xlink:href="#AfYQvBUaCyI2t9PfkCTQ_pad-12" x="137499.85" y="-25999.94"/><use xlink:href="#AfYQvBUaCyI2t9PfkCTQ_pad-12" x="137499.85" y="-23500.07"/><use xlink:href="#AfYQvBUaCyI2t9PfkCTQ_pad-12" x="137499.85" y="-20999.95"/><use xlink:href="#AfYQvBUaCyI2t9PfkCTQ_pad-12" x="137499.85" y="-2999.99"/><use xlink:href="#AfYQvBUaCyI2t9PfkCTQ_pad-12" x="137599.67" y="-7999.98"/><use xlink:href="#AfYQvBUaCyI2t9PfkCTQ_pad-12" x="137599.67" y="-5500.11"/><use xlink:href="#AfYQvBUaCyI2t9PfkCTQ_pad-13" x="113700.81" y="-9499.6"/><use xlink:href="#AfYQvBUaCyI2t9PfkCTQ_pad-13" x="111600.23" y="-14499.84"/><use xlink:href="#AfYQvBUaCyI2t9PfkCTQ_pad-13" x="89699.84" y="-9500.1"/><use xlink:href="#AfYQvBUaCyI2t9PfkCTQ_pad-13" x="87600.02" y="-14500.09"/><use xlink:href="#AfYQvBUaCyI2t9PfkCTQ_pad-13" x="65700.14" y="-9499.6"/><use xlink:href="#AfYQvBUaCyI2t9PfkCTQ_pad-13" x="63600.33" y="-14499.84"/><use xlink:href="#AfYQvBUaCyI2t9PfkCTQ_pad-13" x="41699.68" y="-9499.6"/><use xlink:href="#AfYQvBUaCyI2t9PfkCTQ_pad-13" x="39599.1" y="-14500.86"/><use xlink:href="#AfYQvBUaCyI2t9PfkCTQ_pad-13" x="17699.98" y="-9499.85"/><use xlink:href="#AfYQvBUaCyI2t9PfkCTQ_pad-13" x="15601.18" y="-14500.86"/><use xlink:href="#AfYQvBUaCyI2t9PfkCTQ_pad-14" x="3999.99" y="-14500.09"/></g></svg>