<svg version="1.1" xmlns="http://www.w3.org/2000/svg" xmlns:xlink="http://www.w3.org/1999/xlink" stroke-linecap="round" stroke-linejoin="round" stroke-width="0" fill-rule="evenodd" width="137.9746791mm" height="24.877209999999998mm" viewBox="374.9909 -27127.2 137974.6791 24877.21" id="uFSKQUtQa05fZRQmieMi"><defs><circle cx="0" cy="0" r="750" id="uFSKQUtQa05fZRQmieMi_pad-11"/><circle cx="0" cy="0" r="1050" id="uFSKQUtQa05fZRQmieMi_pad-12"/><rect x="-3624.9991" y="-2125.0021" width="7249.9982" height="4250.0042" rx="2125.0021" ry="2125.0021" id="uFSKQUtQa05fZRQmieMi_pad-13"/></defs><g transform="translate(0,-29377.190000000002) scale(1,-1)" fill="currentColor" stroke="currentColor"><path d="M 89699.84 -9500.1 89699.84 -6299.96 92999.81 -2999.99 M 137500.36 -2999.73 20999.95 -2999.99 M 17699.98 -9499.85 17699.98 -6299.7 20999.95 -2999.73 M 113700.81 -9499.6 113700.81 -6298.94 116999.76 -2999.99 M 65700.14 -9499.6 65700.14 -6299.7 68999.86 -2999.99 M 41699.68 -9499.6 41699.68 -6300.21 44999.9 -2999.99 M 63601.59 -14500.86 63601.59 -22600.92 65999.36 -25001.21 133499.86 -25001.21 137500.36 -21000.71 M 39598.59 -14500.86 39598.59 -22598.37 42999.65 -25999.44 135001 -25999.44 137500.36 -23500.07 M 15600.68 -14500.86 15600.68 -24599.89 18000.97 -27000.2 136499.59 -27000.2 137500.36 -25999.44" fill="none" stroke-width="254"/><use xlink:href="#uFSKQUtQa05fZRQmieMi_pad-11" x="137499.85" y="-25999.94"/><use xlink:href="#uFSKQUtQa05fZRQmieMi_pad-11" x="137499.85" y="-23500.07"/><use xlink:href="#uFSKQUtQa05fZRQmieMi_pad-11" x="137499.85" y="-20999.95"/><use xlink:href="#uFSKQUtQa05fZRQmieMi_pad-11" x="137499.85" y="-2999.99"/><use xlink:href="#uFSKQUtQa05fZRQmieMi_pad-11" x="137599.67" y="-7999.98"/><use xlink:href="#uFSKQUtQa05fZRQmieMi_pad-11" x="137599.67" y="-5500.11"/><use xlink:href="#uFSKQUtQa05fZRQmieMi_pad-12" x="113700.81" y="-9499.6"/><use xlink:href="#uFSKQUtQa05fZRQmieMi_pad-12" x="111600.23" y="-14499.84"/><use xlink:href="#uFSKQUtQa05fZRQmieMi_pad-12" x="89699.84" y="-9500.1"/><use xlink:href="#uFSKQUtQa05fZRQmieMi_pad-12" x="87600.02" y="-14500.09"/><use xlink:href="#uFSKQUtQa05fZRQmieMi_pad-12" x="65700.14" y="-9499.6"/><use xlink:href="#uFSKQUtQa05fZRQmieMi_pad-12" x="63600.33" y="-14499.84"/><use xlink:href="#uFSKQUtQa05fZRQmieMi_pad-12" x="41699.68" y="-9499.6"/><use xlink:href="#uFSKQUtQa05fZRQmieMi_pad-12" x="39599.1" y="-14500.86"/><use xlink:href="#uFSKQUtQa05fZRQmieMi_pad-12" x="17699.98" y="-9499.85"/><use xlink:href="#uFSKQUtQa05fZRQmieMi_pad-12" x="15601.18" y="-14500.86"/><use xlink:href="#uFSKQUtQa05fZRQmieMi_pad-13" x="3999.99" y="-14500.09"/></g></svg>