<svg version="1.1" xmlns="http://www.w3.org/2000/svg" xmlns:xlink="http://www.w3.org/1999/xlink" stroke-linecap="round" stroke-linejoin="round" stroke-width="0" fill-rule="evenodd" width="140.72631909999998mm" height="25.10155mm" viewBox="324.1909 -27050.74 140726.3191 25101.55" id="GrvZyJFtR19UH7wuNlCa"><defs><circle cx="0" cy="0" r="800.8" id="GrvZyJFtR19UH7wuNlCa_pad-10"/><circle cx="0" cy="0" r="1100.8" id="GrvZyJFtR19UH7wuNlCa_pad-11"/><rect x="-3675.7991" y="-2175.8021" width="7351.5982" height="4351.6042" rx="2175.8021" ry="2175.8021" id="GrvZyJFtR19UH7wuNlCa_pad-12"/></defs><g transform="translate(0,-28999.930000000004) scale(1,-1)" fill="currentColor" stroke="currentColor"><use xlink:href="#GrvZyJFtR19UH7wuNlCa_pad-10" x="137499.85" y="-25999.94"/><use xlink:href="#GrvZyJFtR19UH7wuNlCa_pad-10" x="137499.85" y="-23500.07"/><use xlink:href="#GrvZyJFtR19UH7wuNlCa_pad-10" x="137499.85" y="-20999.95"/><use xlink:href="#GrvZyJFtR19UH7wuNlCa_pad-10" x="137499.85" y="-2999.99"/><use xlink:href="#GrvZyJFtR19UH7wuNlCa_pad-10" x="137599.67" y="-7999.98"/><use xlink:href="#GrvZyJFtR19UH7wuNlCa_pad-10" x="137599.67" y="-5500.11"/><use xlink:href="#GrvZyJFtR19UH7wuNlCa_pad-11" x="113700.81" y="-9499.6"/><use xlink:href="#GrvZyJFtR19UH7wuNlCa_pad-11" x="111600.23" y="-14499.84"/><use xlink:href="#GrvZyJFtR19UH7wuNlCa_pad-11" x="89699.84" y="-9500.1"/><use xlink:href="#GrvZyJFtR19UH7wuNlCa_pad-11" x="87600.02" y="-14500.09"/><use xlink:href="#GrvZyJFtR19UH7wuNlCa_pad-11" x="65700.14" y="-9499.6"/><use xlink:href="#GrvZyJFtR19UH7wuNlCa_pad-11" x="63600.33" y="-14499.84"/><use xlink:href="#GrvZyJFtR19UH7wuNlCa_pad-11" x="41699.68" y="-9499.6"/><use xlink:href="#GrvZyJFtR19UH7wuNlCa_pad-11" x="39599.1" y="-14500.86"/><use xlink:href="#GrvZyJFtR19UH7wuNlCa_pad-11" x="17699.98" y="-9499.85"/><use xlink:href="#GrvZyJFtR19UH7wuNlCa_pad-11" x="15601.18" y="-14500.86"/><use xlink:href="#GrvZyJFtR19UH7wuNlCa_pad-12" x="3999.99" y="-14500.09"/><path d="M 134948.93 -1949.19 141050.51 -1949.19 141050.51 -4050.79 134948.93 -4050.79"/><path d="M 134948.93 -4449.57 141050.51 -4449.57 141050.51 -6551.16 134948.93 -6551.16"/><path d="M 134948.93 -6949.18 141050.51 -6949.18 141050.51 -9050.78 134948.93 -9050.78"/><path d="M 134948.93 -19949.15 141050.51 -19949.15 141050.51 -22050.75 134948.93 -22050.75"/><path d="M 134948.93 -22449.28 141050.51 -22449.28 141050.51 -24550.87 134948.93 -24550.87"/><path d="M 134948.93 -24949.14 141050.51 -24949.14 141050.51 -27050.74 134948.93 -27050.74"/></g></svg>