<svg version="1.1" xmlns="http://www.w3.org/2000/svg" xmlns:xlink="http://www.w3.org/1999/xlink" stroke-linecap="round" stroke-linejoin="round" stroke-width="0" fill-rule="evenodd" clip-rule="evenodd" id="CdcsRZVs-O34ABsDXoYO_top" viewBox="-1000.76 -28000.95 141000.48 27000.96" width="141.00048mm" height="27.00096mm" class="w-100 h-100"><defs><style>.CdcsRZVs-O34ABsDXoYO_fr4 {color: #666666;}
.CdcsRZVs-O34ABsDXoYO_cu {color: #cccccc;}
.CdcsRZVs-O34ABsDXoYO_cf {color: #cc9933;}
.CdcsRZVs-O34ABsDXoYO_sm {color: #004200; opacity: 0.75;}
.CdcsRZVs-O34ABsDXoYO_ss {color: #ffffff;}
.CdcsRZVs-O34ABsDXoYO_sp {color: #999999;}
.CdcsRZVs-O34ABsDXoYO_out {color: #000000;}</style><circle cx="0" cy="0" r="800.8" id="jPmQZdK9jJZtH51nYCVm_pad-10"/><circle cx="0" cy="0" r="1100.8" id="jPmQZdK9jJZtH51nYCVm_pad-11"/><rect x="-3675.7991" y="-2175.8021" width="7351.5982" height="4351.6042" rx="2175.8021" ry="2175.8021" id="jPmQZdK9jJZtH51nYCVm_pad-12"/><circle cx="0" cy="0" r="750" id="uFSKQUtQa05fZRQmieMi_pad-11"/><circle cx="0" cy="0" r="1050" id="uFSKQUtQa05fZRQmieMi_pad-12"/><rect x="-3624.9991" y="-2125.0021" width="7249.9982" height="4250.0042" rx="2125.0021" ry="2125.0021" id="uFSKQUtQa05fZRQmieMi_pad-13"/><circle cx="0" cy="0" r="500" id="AHKR1KPRHBEXIWZPwR6h_pad-1"/><circle cx="0" cy="0" r="650.5" id="AHKR1KPRHBEXIWZPwR6h_pad-2"/><circle cx="0" cy="0" r="1000" id="I3sD_8D4l9fEMTXI3uMK_pad-1"/><circle cx="0" cy="0" r="1750.5" id="I3sD_8D4l9fEMTXI3uMK_pad-2"/><circle cx="0" cy="0" r="2125" id="I3sD_8D4l9fEMTXI3uMK_pad-3"/><g id="CdcsRZVs-O34ABsDXoYO_top_soldermask"><use xlink:href="#jPmQZdK9jJZtH51nYCVm_pad-10" x="137499.85" y="-25999.94"/><use xlink:href="#jPmQZdK9jJZtH51nYCVm_pad-10" x="137499.85" y="-23500.07"/><use xlink:href="#jPmQZdK9jJZtH51nYCVm_pad-10" x="137499.85" y="-20999.95"/><use xlink:href="#jPmQZdK9jJZtH51nYCVm_pad-10" x="137499.85" y="-2999.99"/><use xlink:href="#jPmQZdK9jJZtH51nYCVm_pad-10" x="137599.67" y="-7999.98"/><use xlink:href="#jPmQZdK9jJZtH51nYCVm_pad-10" x="137599.67" y="-5500.11"/><use xlink:href="#jPmQZdK9jJZtH51nYCVm_pad-11" x="113700.81" y="-9499.6"/><use xlink:href="#jPmQZdK9jJZtH51nYCVm_pad-11" x="111600.23" y="-14499.84"/><use xlink:href="#jPmQZdK9jJZtH51nYCVm_pad-11" x="89699.84" y="-9500.1"/><use xlink:href="#jPmQZdK9jJZtH51nYCVm_pad-11" x="87600.02" y="-14500.09"/><use xlink:href="#jPmQZdK9jJZtH51nYCVm_pad-11" x="65700.14" y="-9499.6"/><use xlink:href="#jPmQZdK9jJZtH51nYCVm_pad-11" x="63600.33" y="-14499.84"/><use xlink:href="#jPmQZdK9jJZtH51nYCVm_pad-11" x="41699.68" y="-9499.6"/><use xlink:href="#jPmQZdK9jJZtH51nYCVm_pad-11" x="39599.1" y="-14500.86"/><use xlink:href="#jPmQZdK9jJZtH51nYCVm_pad-11" x="17699.98" y="-9499.85"/><use xlink:href="#jPmQZdK9jJZtH51nYCVm_pad-11" x="15601.18" y="-14500.86"/><use xlink:href="#jPmQZdK9jJZtH51nYCVm_pad-12" x="3999.99" y="-14500.09"/></g><g id="CdcsRZVs-O34ABsDXoYO_top_copper"><path d="M 89699.84 -9500.1 89699.84 -6299.96 92999.81 -2999.99 M 137500.36 -2999.73 20999.95 -2999.99 M 17699.98 -9499.85 17699.98 -6299.7 20999.95 -2999.73 M 113700.81 -9499.6 113700.81 -6298.94 116999.76 -2999.99 M 65700.14 -9499.6 65700.14 -6299.7 68999.86 -2999.99 M 41699.68 -9499.6 41699.68 -6300.21 44999.9 -2999.99 M 63601.59 -14500.86 63601.59 -22600.92 65999.36 -25001.21 133499.86 -25001.21 137500.36 -21000.71 M 39598.59 -14500.86 39598.59 -22598.37 42999.65 -25999.44 135001 -25999.44 137500.36 -23500.07 M 15600.68 -14500.86 15600.68 -24599.89 18000.97 -27000.2 136499.59 -27000.2 137500.36 -25999.44" fill="none" stroke-width="254"/><use xlink:href="#uFSKQUtQa05fZRQmieMi_pad-11" x="137499.85" y="-25999.94"/><use xlink:href="#uFSKQUtQa05fZRQmieMi_pad-11" x="137499.85" y="-23500.07"/><use xlink:href="#uFSKQUtQa05fZRQmieMi_pad-11" x="137499.85" y="-20999.95"/><use xlink:href="#uFSKQUtQa05fZRQmieMi_pad-11" x="137499.85" y="-2999.99"/><use xlink:href="#uFSKQUtQa05fZRQmieMi_pad-11" x="137599.67" y="-7999.98"/><use xlink:href="#uFSKQUtQa05fZRQmieMi_pad-11" x="137599.67" y="-5500.11"/><use xlink:href="#uFSKQUtQa05fZRQmieMi_pad-12" x="113700.81" y="-9499.6"/><use xlink:href="#uFSKQUtQa05fZRQmieMi_pad-12" x="111600.23" y="-14499.84"/><use xlink:href="#uFSKQUtQa05fZRQmieMi_pad-12" x="89699.84" y="-9500.1"/><use xlink:href="#uFSKQUtQa05fZRQmieMi_pad-12" x="87600.02" y="-14500.09"/><use xlink:href="#uFSKQUtQa05fZRQmieMi_pad-12" x="65700.14" y="-9499.6"/><use xlink:href="#uFSKQUtQa05fZRQmieMi_pad-12" x="63600.33" y="-14499.84"/><use xlink:href="#uFSKQUtQa05fZRQmieMi_pad-12" x="41699.68" y="-9499.6"/><use xlink:href="#uFSKQUtQa05fZRQmieMi_pad-12" x="39599.1" y="-14500.86"/><use xlink:href="#uFSKQUtQa05fZRQmieMi_pad-12" x="17699.98" y="-9499.85"/><use xlink:href="#uFSKQUtQa05fZRQmieMi_pad-12" x="15601.18" y="-14500.86"/><use xlink:href="#uFSKQUtQa05fZRQmieMi_pad-13" x="3999.99" y="-14500.09"/></g><g id="CdcsRZVs-O34ABsDXoYO_top_drill1"><use xlink:href="#AHKR1KPRHBEXIWZPwR6h_pad-1" x="137500" y="-26000"/><use xlink:href="#AHKR1KPRHBEXIWZPwR6h_pad-1" x="137500" y="-23500"/><use xlink:href="#AHKR1KPRHBEXIWZPwR6h_pad-1" x="137500" y="-21000"/><use xlink:href="#AHKR1KPRHBEXIWZPwR6h_pad-1" x="137500" y="-3000"/><use xlink:href="#AHKR1KPRHBEXIWZPwR6h_pad-1" x="137600" y="-8000"/><use xlink:href="#AHKR1KPRHBEXIWZPwR6h_pad-1" x="137600" y="-5500"/><use xlink:href="#AHKR1KPRHBEXIWZPwR6h_pad-2" x="113701" y="-9499"/><use xlink:href="#AHKR1KPRHBEXIWZPwR6h_pad-2" x="111600" y="-14500"/><use xlink:href="#AHKR1KPRHBEXIWZPwR6h_pad-2" x="89700" y="-9500"/><use xlink:href="#AHKR1KPRHBEXIWZPwR6h_pad-2" x="87600" y="-14500"/><use xlink:href="#AHKR1KPRHBEXIWZPwR6h_pad-2" x="65700" y="-9499"/><use xlink:href="#AHKR1KPRHBEXIWZPwR6h_pad-2" x="63600" y="-14500"/><use xlink:href="#AHKR1KPRHBEXIWZPwR6h_pad-2" x="41700" y="-9499"/><use xlink:href="#AHKR1KPRHBEXIWZPwR6h_pad-2" x="39599" y="-14501"/><use xlink:href="#AHKR1KPRHBEXIWZPwR6h_pad-2" x="17700" y="-9500"/><use xlink:href="#AHKR1KPRHBEXIWZPwR6h_pad-2" x="15601" y="-14501"/></g><g id="CdcsRZVs-O34ABsDXoYO_top_drill2"><use xlink:href="#I3sD_8D4l9fEMTXI3uMK_pad-1" x="117500" y="-9000"/><use xlink:href="#I3sD_8D4l9fEMTXI3uMK_pad-1" x="117500" y="-20000"/><use xlink:href="#I3sD_8D4l9fEMTXI3uMK_pad-1" x="93500" y="-9000"/><use xlink:href="#I3sD_8D4l9fEMTXI3uMK_pad-1" x="93500" y="-20000"/><use xlink:href="#I3sD_8D4l9fEMTXI3uMK_pad-1" x="69500" y="-9000"/><use xlink:href="#I3sD_8D4l9fEMTXI3uMK_pad-1" x="69500" y="-20000"/><use xlink:href="#I3sD_8D4l9fEMTXI3uMK_pad-1" x="45500" y="-9000"/><use xlink:href="#I3sD_8D4l9fEMTXI3uMK_pad-1" x="45500" y="-20000"/><use xlink:href="#I3sD_8D4l9fEMTXI3uMK_pad-1" x="21500" y="-9000"/><use xlink:href="#I3sD_8D4l9fEMTXI3uMK_pad-1" x="21500" y="-20000"/><use xlink:href="#I3sD_8D4l9fEMTXI3uMK_pad-2" x="45500" y="-14500"/><use xlink:href="#I3sD_8D4l9fEMTXI3uMK_pad-2" x="69500" y="-14500"/><use xlink:href="#I3sD_8D4l9fEMTXI3uMK_pad-2" x="93500" y="-14500"/><use xlink:href="#I3sD_8D4l9fEMTXI3uMK_pad-2" x="117500" y="-14500"/><use xlink:href="#I3sD_8D4l9fEMTXI3uMK_pad-2" x="21500" y="-14500"/><use xlink:href="#I3sD_8D4l9fEMTXI3uMK_pad-3" x="133500" y="-14500"/><path d="M 2500 -14500 5500 -14500" fill="none" stroke-width="4250"/></g><clipPath id="CdcsRZVs-O34ABsDXoYO_top_outline"><path d="M 999.99 -999.99 1000.76 -1000.76 139999.72 -1000.76 139999.72 -28000.95 -1000.76 -28000.95 -1000.76 -1000.76 1000.76 -1000.76" fill="none" stroke-width="254"/></clipPath><mask id="CdcsRZVs-O34ABsDXoYO_top_mech-mask"><g fill="#000" stroke="#000"><rect x="-1000.76" y="-28000.95" width="141000.48" height="27000.96" fill="#fff"/><use xlink:href="#CdcsRZVs-O34ABsDXoYO_top_drill1"/><use xlink:href="#CdcsRZVs-O34ABsDXoYO_top_drill2"/></g></mask><mask id="CdcsRZVs-O34ABsDXoYO_top_cf-mask"><g fill="#fff" stroke="#fff"><use xlink:href="#CdcsRZVs-O34ABsDXoYO_top_soldermask"/></g></mask><mask id="CdcsRZVs-O34ABsDXoYO_top_sm-mask"><g fill="#000" stroke="#000"><rect x="-1000.76" y="-28000.95" width="141000.48" height="27000.96" fill="#fff"/><use xlink:href="#CdcsRZVs-O34ABsDXoYO_top_soldermask"/></g></mask></defs><g transform="translate(0,-29000.940000000002) scale(1,-1)"><g mask="url(#CdcsRZVs-O34ABsDXoYO_top_mech-mask)" clip-path="url(#CdcsRZVs-O34ABsDXoYO_top_outline)"><rect x="-1000.76" y="-28000.95" width="141000.48" height="27000.96" fill="currentColor" class="CdcsRZVs-O34ABsDXoYO_fr4"/><use xlink:href="#CdcsRZVs-O34ABsDXoYO_top_copper" fill="currentColor" stroke="currentColor" class="CdcsRZVs-O34ABsDXoYO_cu"/><use xlink:href="#CdcsRZVs-O34ABsDXoYO_top_copper" fill="currentColor" stroke="currentColor" class="CdcsRZVs-O34ABsDXoYO_cf" mask="url(#CdcsRZVs-O34ABsDXoYO_top_cf-mask)"/><g mask="url(#CdcsRZVs-O34ABsDXoYO_top_sm-mask)"><rect x="-1000.76" y="-28000.95" width="141000.48" height="27000.96" fill="currentColor" class="CdcsRZVs-O34ABsDXoYO_sm"/></g></g></g></svg>