<svg version="1.1" xmlns="http://www.w3.org/2000/svg" xmlns:xlink="http://www.w3.org/1999/xlink" stroke-linecap="round" stroke-linejoin="round" stroke-width="0" fill-rule="evenodd" width="123.5495mm" height="25mm" viewBox="14950.5 -27000 123549.5 25000" id="KssEjmnTkHyZJbmFtFsw"><defs><circle cx="0" cy="0" r="153" id="KssEjmnTkHyZJbmFtFsw_pad-1"/><circle cx="0" cy="0" r="500" id="KssEjmnTkHyZJbmFtFsw_pad-2"/><circle cx="0" cy="0" r="550.5" id="KssEjmnTkHyZJbmFtFsw_pad-3"/><circle cx="0" cy="0" r="650.5" id="KssEjmnTkHyZJbmFtFsw_pad-4"/></defs><g transform="translate(0,-29000) scale(1,-1)" fill="currentColor" stroke="currentColor"><use xlink:href="#KssEjmnTkHyZJbmFtFsw_pad-1" x="119583" y="-4961"/><use xlink:href="#KssEjmnTkHyZJbmFtFsw_pad-1" x="25335" y="-12990"/><use xlink:href="#KssEjmnTkHyZJbmFtFsw_pad-1" x="100196" y="-14600"/><use xlink:href="#KssEjmnTkHyZJbmFtFsw_pad-1" x="128353" y="-13653"/><use xlink:href="#KssEjmnTkHyZJbmFtFsw_pad-1" x="51684" y="-16178"/><use xlink:href="#KssEjmnTkHyZJbmFtFsw_pad-1" x="75763" y="-16186"/><use xlink:href="#KssEjmnTkHyZJbmFtFsw_pad-1" x="124412" y="-13598"/><use xlink:href="#KssEjmnTkHyZJbmFtFsw_pad-1" x="48015" y="-17905"/><use xlink:href="#KssEjmnTkHyZJbmFtFsw_pad-1" x="48015" y="-15659"/><use xlink:href="#KssEjmnTkHyZJbmFtFsw_pad-2" x="138000" y="-26500"/><use xlink:href="#KssEjmnTkHyZJbmFtFsw_pad-2" x="138000" y="-24000"/><use xlink:href="#KssEjmnTkHyZJbmFtFsw_pad-2" x="138000" y="-21500"/><use xlink:href="#KssEjmnTkHyZJbmFtFsw_pad-2" x="138000" y="-2500"/><use xlink:href="#KssEjmnTkHyZJbmFtFsw_pad-2" x="138000" y="-7500"/><use xlink:href="#KssEjmnTkHyZJbmFtFsw_pad-2" x="138000" y="-5000"/><use xlink:href="#KssEjmnTkHyZJbmFtFsw_pad-3" x="130000" y="-8750"/><use xlink:href="#KssEjmnTkHyZJbmFtFsw_pad-3" x="130000" y="-6250"/><use xlink:href="#KssEjmnTkHyZJbmFtFsw_pad-3" x="130000" y="-3750"/><use xlink:href="#KssEjmnTkHyZJbmFtFsw_pad-4" x="113701" y="-9499"/><use xlink:href="#KssEjmnTkHyZJbmFtFsw_pad-4" x="111600" y="-14500"/><use xlink:href="#KssEjmnTkHyZJbmFtFsw_pad-4" x="89700" y="-9500"/><use xlink:href="#KssEjmnTkHyZJbmFtFsw_pad-4" x="87600" y="-14500"/><use xlink:href="#KssEjmnTkHyZJbmFtFsw_pad-4" x="65700" y="-9499"/><use xlink:href="#KssEjmnTkHyZJbmFtFsw_pad-4" x="63600" y="-14500"/><use xlink:href="#KssEjmnTkHyZJbmFtFsw_pad-4" x="41700" y="-9499"/><use xlink:href="#KssEjmnTkHyZJbmFtFsw_pad-4" x="39599" y="-14501"/><use xlink:href="#KssEjmnTkHyZJbmFtFsw_pad-4" x="17700" y="-9500"/><use xlink:href="#KssEjmnTkHyZJbmFtFsw_pad-4" x="15601" y="-14501"/></g></svg>