<svg version="1.1" xmlns="http://www.w3.org/2000/svg" xmlns:xlink="http://www.w3.org/1999/xlink" stroke-linecap="round" stroke-linejoin="round" stroke-width="0" fill-rule="evenodd" width="3.1364mm" height="23.53107mm" viewBox="131181.34 -26172.16 3136.4 23531.07" id="WcTbqebjVnRmakZKEGp9"><g transform="translate(0,-28813.25) scale(1,-1)" fill="currentColor" stroke="currentColor"><path d="M 133993.63 -2641.09 133954.51 -2645.66 133920.48 -2657.34 133891.52 -2675.12 133866.63 -2696.97 133902.19 -2737.61 133920.99 -2718.81 133942.83 -2705.6 133966.2 -2696.97 133991.09 -2694.43 134046.97 -2706.62 134093.2 -2747.26 134125.2 -2820.92 134138.41 -2933.19 134110.47 -2904.23 134078.47 -2882.9 134044.94 -2869.18 134011.41 -2864.61 133947.4 -2875.28 133898.63 -2908.3 133867.14 -2963.16 133856.47 -3039.87 133914.89 -3039.87 133920.99 -2987.54 133940.29 -2946.4 133973.82 -2919.98 134021.57 -2910.33 134048.5 -2914.39 134077.96 -2928.11 134108.44 -2950.97 134138.41 -2983.99 134126.22 -3063.24 134100.82 -3121.66 134063.23 -3157.22 134013.95 -3169.41 133974.84 -3159.76 133943.34 -3133.34 133922.51 -3092.19 133914.89 -3039.87 133856.47 -3039.87 133869.17 -3113.02 133903.72 -3169.92 133954.01 -3207 134013.95 -3220.21 134052.56 -3215.64 134087.61 -3202.43 134118.6 -3181.09 134145.52 -3150.61 134166.86 -3112 134183.12 -3064.76 134193.28 -3009.39 134196.83 -2945.89 134192.26 -2869.18 134180.07 -2805.17 134160.76 -2752.34 134135.36 -2710.68 134104.88 -2679.19 134070.34 -2657.34 134032.75 -2645.15"/><path d="M 133356.09 -2641.09 133302.24 -2647.18 133259.06 -2662.93 133224.01 -2684.78 133196.07 -2709.67 133231.63 -2750.31 133253.98 -2729.99 133280.91 -2713.22 133313.93 -2701.54 133353.55 -2696.97 133432.29 -2713.22 133492.74 -2759.45 133530.84 -2833.11 133544.05 -2930.65 133531.35 -3027.17 133494.27 -3100.83 133434.83 -3147.56 133353.55 -3164.33 133323.07 -3161.79 133293.61 -3155.18 133267.19 -3144.01 133246.87 -3128.77 133246.87 -2976.37 133368.79 -2976.37 133368.79 -2925.57 133188.45 -2925.57 133188.45 -3156.71 133219.44 -3181.6 133259.57 -3201.92 133306.82 -3215.13 133361.17 -3220.21 133413.5 -3215.13 133460.74 -3200.4 133502.9 -3176.01 133538.46 -3142.99 133567.93 -3101.34 133589.26 -3052.06 133602.98 -2994.66 133607.55 -2930.65 133602.47 -2867.15 133588.76 -2810.25 133566.91 -2760.98 133536.94 -2719.32 133500.36 -2685.79 133457.69 -2661.41 133408.92 -2646.17"/><path d="M 132662.67 -2651.25 132662.67 -3210.05 132728.71 -3210.05 132936.99 -2849.37 132997.95 -2735.07 133003.03 -2735.07 132997.95 -2819.4 132995.41 -2905.25 132995.41 -3210.05 133053.83 -3210.05 133053.83 -2651.25 132990.33 -2651.25 132779.51 -3014.47 132718.55 -3128.77 132713.47 -3128.77 132720.58 -3041.9 132723.63 -2953.51 132723.63 -2651.25"/><path d="M 132370.57 -2651.25 132309.61 -2655.82 132256.78 -2670.04 132211.57 -2692.4 132174.99 -2723.89 132146.04 -2763.52 132125.72 -2810.76 132113.01 -2865.62 132108.95 -2928.11 132174.99 -2928.11 132178.04 -2877.82 132187.18 -2833.11 132202.42 -2795.01 132223.76 -2763.01 132251.7 -2737.61 132286.24 -2719.32 132327.39 -2708.14 132375.65 -2704.59 132444.23 -2704.59 132444.23 -3159.25 132375.65 -3159.25 132327.39 -3155.18 132286.24 -3142.99 132251.7 -3123.69 132223.76 -3096.76 132202.42 -3063.74 132187.18 -3024.12 132178.04 -2978.91 132174.99 -2928.11 132108.95 -2928.11 132113.01 -2990.59 132125.21 -3045.96 132146.04 -3094.22 132174.48 -3134.86 132211.06 -3166.87 132255.76 -3190.74 132308.09 -3204.97 132368.03 -3210.05 132507.73 -3210.05 132507.73 -2651.25"/><path d="M 133418.57 -5273.04 133368.28 -5278.12 133322.56 -5292.85 133282.43 -5316.72 133247.89 -5349.74 133220.46 -5390.89 133199.63 -5440.17 133186.93 -5496.56 133182.36 -5560.06 133245.86 -5560.06 133258.05 -5464.04 133293.1 -5390.89 133347.46 -5345.17 133418.57 -5328.92 133488.17 -5345.17 133541.51 -5390.89 133576.56 -5464.04 133588.76 -5560.06 133576.56 -5658.1 133542.02 -5732.27 133488.17 -5779.51 133418.57 -5796.28 133347.46 -5779.51 133293.1 -5732.27 133258.05 -5658.1 133245.86 -5560.06 133182.36 -5560.06 133186.93 -5623.56 133199.63 -5680.96 133220.46 -5730.74 133247.89 -5772.91 133282.43 -5806.44 133322.56 -5831.33 133368.28 -5847.08 133418.57 -5852.16 133468.36 -5847.08 133513.57 -5831.33 133553.7 -5806.44 133588.25 -5772.91 133616.19 -5730.74 133637.01 -5680.96 133650.22 -5623.56 133654.8 -5560.06 133650.22 -5496.56 133637.01 -5440.17 133616.19 -5390.89 133588.25 -5349.74 133553.7 -5316.72 133513.57 -5292.85 133468.36 -5278.12"/><path d="M 133936.74 -5283.2 133936.74 -5336.54 134147.56 -5336.54 134162.8 -5506.72 134143.49 -5496.56 134123.68 -5489.44 134101.33 -5485.38 134076.44 -5483.86 134011.41 -5494.02 133958.07 -5526.02 133922 -5581.39 133908.8 -5661.66 133924.04 -5742.94 133964.68 -5802.88 134022.59 -5839.46 134089.13 -5852.16 134148.06 -5845.55 134196.32 -5828.79 134235.44 -5804.91 134266.94 -5778.5 134233.92 -5737.86 134208.51 -5761.73 134177.53 -5782.05 134139.43 -5796.28 134094.22 -5801.36 134047.48 -5791.7 134008.36 -5764.27 133981.95 -5721.09 133972.3 -5664.2 133980.93 -5608.32 134005.32 -5566.66 134042.91 -5540.75 134091.68 -5532.12 134118.09 -5534.15 134141.46 -5540.24 134163.3 -5550.4 134185.66 -5565.14 134221.22 -5542.28 134203.44 -5283.2"/><path d="M 132890.26 -5420.36 132866.89 -5422.39 132847.07 -5427.98 132857.24 -5483.86 132876.54 -5478.27 132897.88 -5476.24 132925.31 -5481.32 132952.74 -5497.57 132979.16 -5527.54 133002.01 -5572.76 133002.01 -5842 133065.51 -5842 133065.51 -5430.52 133014.72 -5430.52 133009.63 -5506.72 133007.1 -5506.72 132983.73 -5470.65 132955.28 -5443.72 132923.78 -5426.45"/><path d="M 132643.88 -5420.36 132580.88 -5432.55 132538.21 -5466.58 132514.34 -5518.91 132506.72 -5585.46 132506.72 -5623.56 132567.68 -5623.56 132659.12 -5640.32 132719.57 -5663.69 132753.1 -5694.68 132763.26 -5732.78 132757.16 -5763.76 132740.4 -5785.1 132716.01 -5797.29 132687.06 -5801.36 132656.07 -5797.8 132626.6 -5786.62 132597.65 -5769.35 132567.68 -5745.48 132567.68 -5623.56 132506.72 -5623.56 132506.72 -5842 132557.51 -5842 132562.6 -5791.2 132565.13 -5791.2 132595.62 -5814.56 132629.14 -5833.87 132664.7 -5847.08 132702.3 -5852.16 132750.05 -5844.54 132787.64 -5822.18 132812.53 -5785.61 132821.68 -5735.32 132806.44 -5676.39 132760.21 -5632.7 132681.47 -5601.71 132567.68 -5582.92 132571.23 -5541.77 132583.93 -5506.21 132610.35 -5480.81 132654.04 -5471.16 132690.61 -5475.22 132724.14 -5486.4 132754.62 -5501.13 132781.04 -5516.88 132803.9 -5473.7 132773.42 -5455.92 132736.33 -5438.64 132692.64 -5425.44"/><path d="M 132171.44 -5420.36 132116.57 -5430.52 132077.96 -5461.5 132054.6 -5511.29 132046.98 -5580.38 132046.98 -5842 132110.48 -5842 132110.48 -5588 132115.05 -5536.69 132129.27 -5501.13 132154.16 -5480.3 132191.76 -5473.7 132222.24 -5477.76 132250.18 -5490.97 132278.12 -5512.3 132308.6 -5542.28 132308.6 -5842 132369.56 -5842 132369.56 -5430.52 132318.76 -5430.52 132313.68 -5491.48 132311.13 -5491.48 132280.15 -5463.03 132248.14 -5440.68 132212.07 -5425.94"/><path d="M 131772.66 -5420.36 131740.65 -5423.4 131716.78 -5430.52 131574.54 -5430.52 131574.54 -5478.78 131660.9 -5478.78 131646.67 -5496.05 131635.5 -5516.37 131627.88 -5540.75 131625.57 -5565.14 131681.22 -5565.14 131688.33 -5523.99 131707.63 -5492.49 131737.1 -5473.19 131772.66 -5466.08 131808.72 -5473.19 131838.69 -5492.49 131859.01 -5523.99 131866.63 -5565.14 131859.01 -5608.32 131838.69 -5640.83 131808.72 -5662.16 131772.66 -5669.28 131738.11 -5662.16 131708.65 -5640.83 131688.84 -5608.32 131681.22 -5565.14 131625.57 -5565.14 131637.02 -5626.6 131668.51 -5672.32 131715.25 -5701.79 131772.66 -5712.46 131805.17 -5708.39 131836.16 -5697.22 131855.97 -5718.04 131862.06 -5731.25 131864.1 -5748.02 131860.54 -5766.81 131848.35 -5781.54 131825.49 -5790.69 131790.44 -5793.74 131709.16 -5793.74 131647.18 -5799.32 131602.98 -5817.61 131576.06 -5848.6 131566.92 -5892.8 131568.97 -5900.42 131627.88 -5900.42 131633.46 -5875.02 131650.23 -5858.76 131677.15 -5849.62 131714.24 -5847.08 131801.1 -5846.57 131841.24 -5839.46 131862.06 -5857.24 131876.29 -5876.54 131884.42 -5895.34 131886.96 -5913.12 131878.83 -5945.63 131854.44 -5969.5 131815.33 -5984.24 131762.5 -5989.32 131707.12 -5981.7 131664.45 -5961.88 131637.53 -5933.44 131627.88 -5900.42 131568.97 -5900.42 131581.14 -5945.63 131622.29 -5990.33 131686.8 -6020.81 131772.66 -6032.5 131842.25 -6024.88 131895.59 -6003.54 131930.64 -5969.5 131942.84 -5923.28 131938.77 -5896.86 131926.58 -5870.95 131907.28 -5847.58 131881.88 -5826.76 131881.88 -5824.22 131896.1 -5813.04 131907.28 -5797.29 131914.9 -5778.5 131917.44 -5755.64 131913.37 -5731.76 131902.19 -5710.93 131887.46 -5693.15 131871.72 -5679.44 131871.72 -5676.9 131892.04 -5658.1 131908.8 -5632.19 131920.48 -5601.2 131925.06 -5565.14 131912.86 -5506.21 131880.35 -5460.49 131831.58 -5431.02"/><path d="M 131343.4 -5420.36 131275.32 -5433.56 131224.01 -5472.17 131192.01 -5532.62 131182.24 -5603.24 131236.72 -5603.24 131244.34 -5546.34 131265.16 -5504.68 131298.69 -5479.79 131343.4 -5471.16 131387.08 -5479.79 131424.68 -5505.7 131452.62 -5547.36 131467.86 -5603.24 131182.24 -5603.24 131181.34 -5623.05 131185.92 -5648.96 131465.32 -5648.96 131453.63 -5711.44 131425.18 -5759.7 131381.5 -5790.18 131325.62 -5801.36 131296.66 -5798.82 131269.74 -5792.21 131244.84 -5782.05 131221.48 -5768.34 131198.62 -5808.98 131226.56 -5825.23 131257.54 -5838.95 131292.6 -5848.6 131333.24 -5852.16 131408.93 -5837.42 131470.9 -5794.75 131513.07 -5726.68 131528.82 -5636.26 131513.57 -5545.83 131472.43 -5477.76 131412.99 -5435.09"/><path d="M 133068.06 -7774.94 133068.06 -8310.87 133066.53 -8324.08 133062.47 -8333.74 133056.37 -8339.32 133045.7 -8341.36 133035.04 -8338.82 133024.88 -8387.08 133041.13 -8390.63 133062.98 -8392.16 133092.44 -8386.57 133113.27 -8369.8 133124.95 -8342.88 133129.01 -8305.8 133129.01 -7774.94"/><path d="M 133969.76 -7823.2 133969.76 -7896.86 134028.18 -7896.86 134071.36 -7978.14 134205.98 -8176.25 134028.18 -8176.25 134027.67 -7972.55 134023.1 -7896.86 133969.76 -7896.86 133969.76 -8176.25 133893.56 -8176.25 133893.56 -8227.06 133969.76 -8227.06 133969.76 -8382 134028.18 -8382 134028.18 -8227.06 134272.01 -8227.06 134272.01 -8186.41 134035.8 -7823.2"/><path d="M 133459.22 -7823.2 133380.98 -7830.82 133321.04 -7855.71 133282.43 -7898.38 133268.72 -7960.36 133269.78 -7967.98 133332.22 -7967.98 133340.85 -7924.29 133366.76 -7895.33 133409.43 -7879.08 133469.38 -7874 133558.28 -7874 133558.28 -8064.5 133471.92 -8064.5 133408.42 -8057.38 133364.73 -8038.08 133340.34 -8007.6 133332.22 -7967.98 133269.78 -7967.98 133274.3 -8000.49 133290.56 -8035.54 133316.98 -8063.48 133352.54 -8082.28 133352.54 -8084.82 133305.29 -8100.56 133268.21 -8128.5 133244.33 -8168.13 133236.12 -8216.9 133299.19 -8216.9 133309.36 -8170.67 133339.84 -8138.16 133389.11 -8118.85 133456.68 -8112.76 133558.28 -8112.76 133558.28 -8331.19 133456.68 -8331.19 133390.13 -8324.59 133340.85 -8303.76 133309.86 -8268.2 133299.19 -8216.9 133236.12 -8216.9 133250.94 -8291.06 133294.62 -8341.86 133361.17 -8371.84 133446.51 -8382 133621.78 -8382 133621.78 -7823.2"/><path d="M 132306.06 -7960.36 132237.98 -7973.56 132186.68 -8012.17 132154.67 -8072.62 132144.9 -8143.24 132199.38 -8143.24 132207 -8086.34 132227.82 -8044.68 132261.35 -8019.79 132306.06 -8011.16 132349.74 -8019.79 132387.34 -8045.7 132415.28 -8087.36 132430.51 -8143.24 132144.9 -8143.24 132144 -8163.05 132148.57 -8188.96 132427.98 -8188.96 132416.29 -8251.44 132387.84 -8299.7 132344.16 -8330.18 132288.28 -8341.36 132259.32 -8338.82 132232.4 -8332.21 132207.5 -8322.05 132184.13 -8308.34 132161.28 -8348.98 132189.22 -8365.23 132220.2 -8378.95 132255.26 -8388.6 132295.9 -8392.16 132371.59 -8377.42 132433.56 -8334.75 132475.73 -8266.68 132491.48 -8176.25 132475.73 -8085.83 132434.07 -8017.76 132374.63 -7975.09"/><path d="M 132603.24 -7970.52 132603.24 -8382 132654.04 -8382 132659.12 -8315.96 132661.66 -8315.96 132691.12 -8346.94 132722.62 -8371.33 132758.18 -8386.57 132798.82 -8392.16 132854.69 -8382 132893.3 -8351.01 132916.16 -8301.22 132923.28 -8232.14 132923.28 -7970.52 132862.32 -7970.52 132862.32 -8224.52 132857.24 -8275.82 132842.5 -8311.38 132817.1 -8332.21 132781.04 -8338.82 132749.03 -8334.24 132720.58 -8321.03 132693.15 -8298.18 132664.19 -8265.16 132664.19 -7970.52"/><path d="M 132836.92 -20728.93 132836.92 -21264.88 132835.39 -21278.08 132830.31 -21287.74 132824.22 -21293.32 132814.06 -21295.36 132801.36 -21292.82 132793.74 -21341.08 132809.48 -21344.63 132829.3 -21346.16 132860.28 -21340.57 132881.62 -21323.8 132893.81 -21296.88 132897.88 -21259.8 132897.88 -20728.93"/><path d="M 132623.56 -20728.93 132623.56 -21264.88 132622.03 -21278.08 132617.97 -21287.74 132611.87 -21293.32 132601.2 -21295.36 132590.54 -21292.82 132580.38 -21341.08 132596.63 -21344.63 132618.48 -21346.16 132647.94 -21340.57 132668.77 -21323.8 132680.45 -21296.88 132684.51 -21259.8 132684.51 -20728.93"/><path d="M 134145.01 -20767.04 134081.51 -20776.18 134030.72 -20803.61 133997.19 -20847.3 133985 -20906.74 133992.11 -20953.98 134012.94 -20992.08 134044.94 -21021.54 134086.6 -21041.36 134086.6 -21043.9 134039.86 -21061.68 134002.27 -21092.16 133976.36 -21133.81 133967.22 -21186.14 133980.42 -21252.68 134017.51 -21303.48 134073.39 -21334.98 134142.48 -21346.16 134201.4 -21339.55 134249.16 -21322.28 134287.26 -21297.9 134317.74 -21269.96 134287.26 -21229.32 134260.33 -21253.7 134228.33 -21274.53 134190.23 -21289.77 134145.01 -21295.36 134098.79 -21287.74 134061.7 -21265.38 134037.32 -21230.84 134028.18 -21186.14 134037.83 -21138.89 134068.31 -21101.81 134123.68 -21077.93 134205.98 -21069.3 134205.98 -21021.04 134132.32 -21012.4 134083.55 -20989.54 134056.62 -20954.49 134048.5 -20911.82 134055.61 -20873.72 134074.91 -20844.76 134106.41 -20825.96 134147.56 -20817.84 134180.57 -20823.42 134210.55 -20835.11 134238.49 -20852.38 134264.4 -20873.72 134297.42 -20833.07 134265.41 -20807.68 134229.85 -20786.85 134189.72 -20772.12"/><path d="M 133355.07 -20777.2 133522.72 -21117.56 133522.72 -21336 133586.22 -21336 133586.22 -21117.56 133753.86 -20777.2 133685.28 -20777.2 133555.74 -21061.68 133553.19 -21061.68 133508.49 -20970.24 133421.12 -20777.2"/><path d="M 133164.57 -20914.36 133095.49 -20927.56 133044.18 -20966.17 133012.68 -21026.62 133003.36 -21097.24 133057.9 -21097.24 133065.01 -21040.34 133085.33 -20998.68 133118.86 -20973.79 133164.57 -20965.16 133208.26 -20973.79 133245.35 -20999.7 133272.78 -21041.36 133286.5 -21097.24 133003.36 -21097.24 133003.03 -21134.83 133004.56 -21142.96 133286.5 -21142.96 133273.8 -21205.44 133244.84 -21253.7 133201.15 -21284.18 133144.26 -21295.36 133115.3 -21292.82 133088.38 -21286.21 133063.48 -21276.05 133040.12 -21262.34 133017.26 -21302.98 133045.19 -21319.23 133077.2 -21332.95 133112.25 -21342.6 133151.88 -21346.16 133228.58 -21331.42 133290.56 -21288.75 133332.22 -21220.68 133347.46 -21130.26 133332.22 -21039.83 133291.07 -20971.76 133232.65 -20929.09"/><path d="M 132316.22 -20914.36 132243.57 -20928.58 132183.12 -20970.74 132140.96 -21038.82 132125.72 -21130.26 132189.22 -21130.26 132198.87 -21064.22 132225.28 -21012.91 132265.42 -20979.38 132316.22 -20967.7 132366.51 -20979.38 132406.13 -21012.91 132431.53 -21064.22 132440.68 -21130.26 132431.53 -21197.82 132406.13 -21250.14 132366.51 -21283.67 132316.22 -21295.36 132265.42 -21283.67 132225.28 -21250.14 132198.87 -21197.82 132189.22 -21130.26 132125.72 -21130.26 132140.96 -21221.7 132183.12 -21289.77 132243.57 -21331.93 132316.22 -21346.16 132387.34 -21331.93 132447.28 -21289.77 132488.94 -21221.7 132504.18 -21130.26 132488.94 -21038.82 132447.28 -20970.74 132387.34 -20928.58"/><path d="M 131505.96 -20924.52 131617.72 -21336 131693.92 -21336 131764.53 -21077.42 131785.36 -20988.02 131790.44 -20988.02 131810.76 -21078.44 131879.34 -21336 131953 -21336 132067.3 -20924.52 132006.34 -20924.52 131933.18 -21197.82 131914.9 -21282.66 131912.36 -21282.66 131884.42 -21168.36 131815.84 -20924.52 131754.88 -20924.52 131686.3 -21168.36 131658.36 -21282.66 131655.82 -21282.66 131564.38 -20924.52"/><path d="M 132468.62 -23268.94 132468.62 -23774.4 132529.57 -23774.4 132529.57 -23550.88 132557.51 -23531.06 132583.93 -23517.86 132609.84 -23510.24 132636.26 -23507.7 132684.51 -23519.38 132724.14 -23552.91 132751.06 -23604.22 132760.72 -23670.26 132752.59 -23738.33 132729.73 -23789.64 132692.13 -23821.64 132641.34 -23832.82 132611.87 -23829.26 132584.44 -23818.08 132557.51 -23799.8 132529.57 -23774.4 132468.62 -23774.4 132468.62 -23876 132519.42 -23876 132524.5 -23825.2 132527.04 -23825.2 132553.45 -23848.56 132583.93 -23867.87 132617.46 -23881.08 132654.04 -23886.16 132724.65 -23871.93 132777.99 -23829.77 132812.02 -23761.7 132824.22 -23670.26 132809.48 -23580.85 132770.37 -23512.78 132713.98 -23469.6 132646.42 -23454.36 132611.87 -23457.4 132581.9 -23467.06 132554.47 -23482.3 132527.04 -23502.62 132529.57 -23431.5 132529.57 -23268.94"/><path d="M 134147.56 -23307.04 134081.01 -23318.72 134030.21 -23352.25 133998.71 -23404.57 133987.54 -23472.14 133991.6 -23514.3 134003.79 -23556.46 134023.1 -23599.64 134049 -23643.33 134082.02 -23687.53 134120.63 -23733.25 134164.32 -23779.98 134213.6 -23827.74 134122.16 -23822.66 133962.13 -23822.66 133962.13 -23876 134307.57 -23876 134307.57 -23837.9 134245.6 -23782.02 134192.26 -23729.18 134147.56 -23680.42 134111.49 -23634.19 134083.55 -23591.01 134063.74 -23550.37 134052.56 -23511.76 134048.5 -23474.68 134055.1 -23428.45 134075.42 -23391.36 134108.44 -23366.98 134155.18 -23357.84 134188.7 -23362.92 134219.69 -23377.65 134248.65 -23398.48 134274.56 -23423.88 134310.12 -23390.86 134276.59 -23356.31 134239.5 -23329.9 134196.83 -23313.13"/><path d="M 133504.94 -23317.2 133426.7 -23325.32 133365.74 -23351.74 133326.12 -23399.49 133311.9 -23472.14 133375.4 -23472.14 133384.54 -23423.88 133410.96 -23392.89 133454.64 -23375.62 133515.1 -23370.54 133611.62 -23370.54 133611.62 -23583.9 133515.1 -23583.9 133454.64 -23577.29 133410.96 -23556.46 133384.54 -23521.92 133375.4 -23472.14 133311.9 -23472.14 133321.04 -23531.57 133346.95 -23577.8 133388.1 -23609.8 133441.44 -23629.62 133296.66 -23876 133367.78 -23876 133507.48 -23634.7 133611.62 -23634.7 133611.62 -23876 133675.12 -23876 133675.12 -23317.2"/><path d="M 133060.44 -23454.36 132991.35 -23467.56 132940.04 -23506.17 132908.54 -23566.62 132899.22 -23637.24 132951.22 -23637.24 132958.84 -23580.34 132979.66 -23538.68 133013.19 -23513.79 133057.9 -23505.16 133102.09 -23513.79 133140.19 -23539.7 133168.13 -23581.36 133182.36 -23637.24 132899.22 -23637.24 132898.89 -23674.83 132900.42 -23682.96 133182.36 -23682.96 133169.66 -23745.44 133140.7 -23793.7 133097.01 -23824.18 133040.12 -23835.36 133011.16 -23832.82 132984.24 -23826.21 132959.34 -23816.05 132935.98 -23802.34 132913.12 -23842.98 132941.06 -23859.23 132973.06 -23872.95 133008.11 -23882.6 133047.74 -23886.16 133124.44 -23871.42 133186.42 -23828.75 133228.07 -23760.68 133243.32 -23670.26 133228.07 -23579.83 133186.93 -23511.76 133128.51 -23469.09"/><path d="M 133454.13 -25593.04 133401.81 -25599.13 133358.12 -25614.88 133323.58 -25636.72 133296.66 -25661.62 133332.22 -25702.26 133355.07 -25681.94 133382 -25665.17 133414.51 -25653.49 133454.13 -25648.92 133532.37 -25665.17 133592.31 -25711.4 133630.92 -25785.06 133644.63 -25882.6 133631.94 -25979.12 133595.36 -26052.78 133535.42 -26099.51 133454.13 -26116.28 133422.64 -26113.74 133393.18 -26107.13 133367.78 -26095.96 133347.46 -26080.72 133347.46 -25928.32 133469.38 -25928.32 133469.38 -25877.52 133289.04 -25877.52 133289.04 -26108.66 133320.02 -26133.55 133359.65 -26153.87 133406.38 -26167.08 133459.22 -26172.16 133512.05 -26167.08 133560.31 -26152.34 133602.47 -26127.96 133639.05 -26094.94 133668 -26053.28 133689.85 -26004.01 133703.56 -25946.6 133708.13 -25882.6 133703.06 -25819.1 133689.34 -25762.2 133666.48 -25712.92 133636.51 -25671.27 133599.42 -25637.74 133555.74 -25613.36 133507.48 -25598.12"/><path d="M 134086.6 -25603.2 134086.6 -26111.2 133972.3 -26111.2 133972.3 -26162 134274.56 -26162 134274.56 -26111.2 134147.56 -26111.2 134147.56 -25681.94 134246.62 -25681.94 134246.62 -25641.3 134212.58 -25634.69 134183.12 -25626.06 134157.21 -25615.39 134134.86 -25603.2"/><path d="M 132984.24 -25740.36 132960.87 -25742.39 132941.06 -25747.98 132953.76 -25803.86 132972.04 -25798.27 132991.86 -25796.24 133019.8 -25801.32 133048.24 -25817.57 133075.17 -25847.54 133098.54 -25892.76 133098.54 -26162 133159.5 -26162 133159.5 -25750.52 133108.69 -25750.52 133103.62 -25826.72 133101.07 -25826.72 133077.71 -25790.65 133049.26 -25763.72 133017.76 -25746.45"/><path d="M 132727.69 -25740.36 132658.61 -25753.56 132607.3 -25792.17 132575.8 -25852.62 132566.48 -25923.24 132621.01 -25923.24 132628.13 -25866.34 132648.45 -25824.68 132681.98 -25799.79 132727.69 -25791.16 132771.38 -25799.79 132808.47 -25825.7 132835.9 -25867.36 132849.62 -25923.24 132566.48 -25923.24 132566.15 -25960.83 132567.68 -25968.96 132849.62 -25968.96 132836.92 -26031.44 132807.96 -26079.7 132764.27 -26110.18 132707.38 -26121.36 132679.44 -26118.82 132652.51 -26112.21 132627.11 -26102.05 132603.24 -26088.34 132580.38 -26128.98 132608.32 -26145.23 132639.81 -26158.95 132675.37 -26168.6 132715 -26172.16 132791.7 -26157.42 132853.68 -26114.75 132895.34 -26046.68 132910.57 -25956.26 132895.34 -25865.83 132854.19 -25797.76 132795.77 -25755.09"/><path d="M 132308.6 -25740.36 132240.52 -25753.56 132189.22 -25792.17 132157.21 -25852.62 132147.44 -25923.24 132201.92 -25923.24 132209.54 -25866.34 132230.36 -25824.68 132263.89 -25799.79 132308.6 -25791.16 132352.28 -25799.79 132389.88 -25825.7 132417.82 -25867.36 132433.06 -25923.24 132147.44 -25923.24 132146.54 -25943.05 132151.12 -25968.96 132430.51 -25968.96 132418.83 -26031.44 132390.38 -26079.7 132346.69 -26110.18 132290.82 -26121.36 132261.86 -26118.82 132234.94 -26112.21 132210.04 -26102.05 132186.68 -26088.34 132163.82 -26128.98 132191.76 -26145.23 132222.74 -26158.95 132257.8 -26168.6 132298.44 -26172.16 132374.13 -26157.42 132436.1 -26114.75 132478.27 -26046.68 132494.01 -25956.26 132478.27 -25865.83 132436.61 -25797.76 132377.18 -25755.09"/><path d="M 131846.32 -25740.36 131789.93 -25750.52 131750.3 -25781.5 131726.94 -25831.29 131719.32 -25900.38 131719.32 -26162 131782.82 -26162 131782.82 -25908 131787.39 -25856.69 131801.61 -25821.13 131826.5 -25800.3 131864.1 -25793.7 131894.57 -25797.76 131922.51 -25810.97 131950.46 -25832.3 131980.94 -25862.28 131980.94 -26162 132041.9 -26162 132041.9 -25750.52 131991.1 -25750.52 131986.01 -25811.48 131983.48 -25811.48 131954.01 -25783.03 131921.5 -25760.68 131885.94 -25745.94"/></g></svg>