<svg version="1.1" xmlns="http://www.w3.org/2000/svg" xmlns:xlink="http://www.w3.org/1999/xlink" stroke-linecap="round" stroke-linejoin="round" stroke-width="0" fill-rule="evenodd" width="98.84026mm" height="2.00021mm" viewBox="24779.74 -15600.02 98840.26 2000.21" id="iU4NwlzOCJu-fmqkLrdu"><defs><rect x="-572.5" y="-200" width="1145" height="400" id="iU4NwlzOCJu-fmqkLrdu_pad-10"/></defs><g transform="translate(0,-29199.83) scale(1,-1)" fill="currentColor" stroke="currentColor"><use xlink:href="#iU4NwlzOCJu-fmqkLrdu_pad-10" x="27047.44" y="-15400.02"/><use xlink:href="#iU4NwlzOCJu-fmqkLrdu_pad-10" x="25352.24" y="-15400.02"/><use xlink:href="#iU4NwlzOCJu-fmqkLrdu_pad-10" x="27047.44" y="-14599.92"/><use xlink:href="#iU4NwlzOCJu-fmqkLrdu_pad-10" x="25352.24" y="-14599.92"/><use xlink:href="#iU4NwlzOCJu-fmqkLrdu_pad-10" x="27047.44" y="-13799.81"/><use xlink:href="#iU4NwlzOCJu-fmqkLrdu_pad-10" x="25352.24" y="-13799.81"/><use xlink:href="#iU4NwlzOCJu-fmqkLrdu_pad-10" x="51047.65" y="-15400.02"/><use xlink:href="#iU4NwlzOCJu-fmqkLrdu_pad-10" x="49352.45" y="-15400.02"/><use xlink:href="#iU4NwlzOCJu-fmqkLrdu_pad-10" x="51047.65" y="-14599.92"/><use xlink:href="#iU4NwlzOCJu-fmqkLrdu_pad-10" x="49352.45" y="-14599.92"/><use xlink:href="#iU4NwlzOCJu-fmqkLrdu_pad-10" x="51047.65" y="-13799.81"/><use xlink:href="#iU4NwlzOCJu-fmqkLrdu_pad-10" x="49352.45" y="-13799.81"/><use xlink:href="#iU4NwlzOCJu-fmqkLrdu_pad-10" x="75047.6" y="-15400.02"/><use xlink:href="#iU4NwlzOCJu-fmqkLrdu_pad-10" x="73352.4" y="-15400.02"/><use xlink:href="#iU4NwlzOCJu-fmqkLrdu_pad-10" x="75047.6" y="-14599.92"/><use xlink:href="#iU4NwlzOCJu-fmqkLrdu_pad-10" x="73352.4" y="-14599.92"/><use xlink:href="#iU4NwlzOCJu-fmqkLrdu_pad-10" x="75047.6" y="-13799.81"/><use xlink:href="#iU4NwlzOCJu-fmqkLrdu_pad-10" x="73352.4" y="-13799.81"/><use xlink:href="#iU4NwlzOCJu-fmqkLrdu_pad-10" x="99047.55" y="-15400.02"/><use xlink:href="#iU4NwlzOCJu-fmqkLrdu_pad-10" x="97352.35" y="-15400.02"/><use xlink:href="#iU4NwlzOCJu-fmqkLrdu_pad-10" x="99047.55" y="-14599.92"/><use xlink:href="#iU4NwlzOCJu-fmqkLrdu_pad-10" x="97352.35" y="-14599.92"/><use xlink:href="#iU4NwlzOCJu-fmqkLrdu_pad-10" x="99047.55" y="-13799.81"/><use xlink:href="#iU4NwlzOCJu-fmqkLrdu_pad-10" x="97352.35" y="-13799.81"/><use xlink:href="#iU4NwlzOCJu-fmqkLrdu_pad-10" x="123047.5" y="-15400.02"/><use xlink:href="#iU4NwlzOCJu-fmqkLrdu_pad-10" x="121352.31" y="-15400.02"/><use xlink:href="#iU4NwlzOCJu-fmqkLrdu_pad-10" x="123047.5" y="-14599.92"/><use xlink:href="#iU4NwlzOCJu-fmqkLrdu_pad-10" x="121352.31" y="-14599.92"/><use xlink:href="#iU4NwlzOCJu-fmqkLrdu_pad-10" x="123047.5" y="-13799.81"/><use xlink:href="#iU4NwlzOCJu-fmqkLrdu_pad-10" x="121352.31" y="-13799.81"/></g></svg>