<svg version="1.1" xmlns="http://www.w3.org/2000/svg" xmlns:xlink="http://www.w3.org/1999/xlink" stroke-linecap="round" stroke-linejoin="round" stroke-width="0" fill-rule="evenodd" width="138.3747291mm" height="25.499950000000002mm" viewBox="374.9909 -27250.07 138374.7291 25499.95" id="D0ptUv79AQnJmsHqHuS4"><defs><rect x="-572.5" y="-200" width="1145" height="400" id="D0ptUv79AQnJmsHqHuS4_pad-11"/><circle cx="0" cy="0" r="750" id="D0ptUv79AQnJmsHqHuS4_pad-12"/><circle cx="0" cy="0" r="1050" id="D0ptUv79AQnJmsHqHuS4_pad-13"/><rect x="-3624.9991" y="-2125.0021" width="7249.9982" height="4250.0042" rx="2125.0021" ry="2125.0021" id="D0ptUv79AQnJmsHqHuS4_pad-14"/><circle cx="0" cy="0" r="305" id="D0ptUv79AQnJmsHqHuS4_pad-15"/></defs><g transform="translate(0,-29000.19) scale(1,-1)" fill="currentColor" stroke="currentColor"><path d="M 137999.74 -7500.08 135460.25 -4960.59 119583.47 -4960.59 M 27047.46 -14599.89 28001.23 -14599.89 28003.01 -14598.11 28003.01 -13441.65 27551.4 -12990.04 25334.74 -12990.04 M 123047.53 -14599.89 127405.4 -14599.89 128352.82 -13652.47 M 100001.34 -14599.89 100195.91 -14599.89 M 99047.57 -14599.89 100001.34 -14599.89 M 51047.67 -14599.89 52001.44 -14599.89 52003.22 -14601.67 52003.22 -15858.97 51684.45 -16177.74 M 75047.62 -14599.89 76001.39 -14599.89 76003.17 -14601.67 76003.17 -15946.34 75763.39 -16186.12 M 48397.18 -12358.09 48341.3 -12302.21 25050.01 -12302.21 24342.62 -13009.6 24342.62 -14543.76 24398.75 -14599.89 M 48397.18 -12358.09 48966.65 -11788.62 72397.13 -11788.62 M 48398.96 -14599.89 48397.18 -14598.11 48397.18 -12358.09 M 25352.27 -14599.89 24398.75 -14599.89 M 49352.47 -14599.89 48398.96 -14599.89 M 72397.13 -11788.62 96397.08 -11788.62 M 72398.91 -14599.89 72397.13 -14598.11 72397.13 -11788.62 M 73352.43 -14599.89 72398.91 -14599.89 M 96397.08 -11788.62 118923.84 -11788.62 120397.04 -13261.82 M 96398.86 -14599.89 96397.08 -14598.11 96397.08 -11788.62 M 120397.04 -13261.82 124908.84 -8750.02 129999.76 -8750.02 M 120398.81 -14599.89 120397.04 -14598.11 120397.04 -13261.82 M 97352.38 -14599.89 96398.86 -14599.89 M 121352.33 -14599.89 120398.81 -14599.89 M 129999.76 -6249.89 131156.22 -7406.36 131156.22 -9309.58 127869.21 -12596.59 122555.53 -12596.59 121352.33 -13799.79 M 123047.53 -13799.79 124001.3 -13799.79 M 124412.01 -13598.11 124202.97 -13598.11 124001.3 -13799.79 M 25352.27 -15399.99 27857.72 -17905.45 48015.16 -17905.45 M 49352.47 -15399.99 48273.99 -15399.99 48015.16 -15658.82 M 99047.57 -15399.99 97638.89 -16808.67 80827.65 -16808.67 77818.76 -13799.79 75047.62 -13799.79 M 123047.53 -15399.99 121639.1 -16808.42 103935.8 -16808.42 100927.17 -13799.79 99047.57 -13799.79 M 121352.33 -15399.99 120318.55 -15399.99 119760 -14841.44 119760 -13698.19 118422.44 -12360.63 98791.54 -12360.63 97352.38 -13799.79 M 27047.46 -15399.99 28001.23 -15399.99 M 51047.67 -15399.99 49803.07 -16644.59 29245.83 -16644.59 28001.23 -15399.99 M 73352.43 -15399.99 72318.65 -15399.99 71760.1 -14841.44 71760.1 -13698.95 70422.54 -12361.39 50790.88 -12361.39 49352.47 -13799.79 M 75047.62 -15399.99 73639.19 -16808.42 56827.44 -16808.42 53818.81 -13799.79 51047.67 -13799.79 M 97352.38 -15399.99 96318.6 -15399.99 95760.05 -14841.44 95760.05 -13699.71 94421.98 -12361.64 74790.57 -12361.64 73352.43 -13799.79" fill="none" stroke-width="254"/><use xlink:href="#D0ptUv79AQnJmsHqHuS4_pad-11" x="27047.44" y="-15400.02"/><use xlink:href="#D0ptUv79AQnJmsHqHuS4_pad-11" x="25352.24" y="-15400.02"/><use xlink:href="#D0ptUv79AQnJmsHqHuS4_pad-11" x="27047.44" y="-14599.92"/><use xlink:href="#D0ptUv79AQnJmsHqHuS4_pad-11" x="25352.24" y="-14599.92"/><use xlink:href="#D0ptUv79AQnJmsHqHuS4_pad-11" x="27047.44" y="-13799.81"/><use xlink:href="#D0ptUv79AQnJmsHqHuS4_pad-11" x="25352.24" y="-13799.81"/><use xlink:href="#D0ptUv79AQnJmsHqHuS4_pad-11" x="51047.65" y="-15400.02"/><use xlink:href="#D0ptUv79AQnJmsHqHuS4_pad-11" x="49352.45" y="-15400.02"/><use xlink:href="#D0ptUv79AQnJmsHqHuS4_pad-11" x="51047.65" y="-14599.92"/><use xlink:href="#D0ptUv79AQnJmsHqHuS4_pad-11" x="49352.45" y="-14599.92"/><use xlink:href="#D0ptUv79AQnJmsHqHuS4_pad-11" x="51047.65" y="-13799.81"/><use xlink:href="#D0ptUv79AQnJmsHqHuS4_pad-11" x="49352.45" y="-13799.81"/><use xlink:href="#D0ptUv79AQnJmsHqHuS4_pad-11" x="75047.6" y="-15400.02"/><use xlink:href="#D0ptUv79AQnJmsHqHuS4_pad-11" x="73352.4" y="-15400.02"/><use xlink:href="#D0ptUv79AQnJmsHqHuS4_pad-11" x="75047.6" y="-14599.92"/><use xlink:href="#D0ptUv79AQnJmsHqHuS4_pad-11" x="73352.4" y="-14599.92"/><use xlink:href="#D0ptUv79AQnJmsHqHuS4_pad-11" x="75047.6" y="-13799.81"/><use xlink:href="#D0ptUv79AQnJmsHqHuS4_pad-11" x="73352.4" y="-13799.81"/><use xlink:href="#D0ptUv79AQnJmsHqHuS4_pad-11" x="99047.55" y="-15400.02"/><use xlink:href="#D0ptUv79AQnJmsHqHuS4_pad-11" x="97352.35" y="-15400.02"/><use xlink:href="#D0ptUv79AQnJmsHqHuS4_pad-11" x="99047.55" y="-14599.92"/><use xlink:href="#D0ptUv79AQnJmsHqHuS4_pad-11" x="97352.35" y="-14599.92"/><use xlink:href="#D0ptUv79AQnJmsHqHuS4_pad-11" x="99047.55" y="-13799.81"/><use xlink:href="#D0ptUv79AQnJmsHqHuS4_pad-11" x="97352.35" y="-13799.81"/><use xlink:href="#D0ptUv79AQnJmsHqHuS4_pad-11" x="123047.5" y="-15400.02"/><use xlink:href="#D0ptUv79AQnJmsHqHuS4_pad-11" x="121352.31" y="-15400.02"/><use xlink:href="#D0ptUv79AQnJmsHqHuS4_pad-11" x="123047.5" y="-14599.92"/><use xlink:href="#D0ptUv79AQnJmsHqHuS4_pad-11" x="121352.31" y="-14599.92"/><use xlink:href="#D0ptUv79AQnJmsHqHuS4_pad-11" x="123047.5" y="-13799.81"/><use xlink:href="#D0ptUv79AQnJmsHqHuS4_pad-11" x="121352.31" y="-13799.81"/><use xlink:href="#D0ptUv79AQnJmsHqHuS4_pad-12" x="137999.72" y="-26500.07"/><use xlink:href="#D0ptUv79AQnJmsHqHuS4_pad-12" x="137999.72" y="-23999.95"/><use xlink:href="#D0ptUv79AQnJmsHqHuS4_pad-12" x="137999.72" y="-21500.08"/><use xlink:href="#D0ptUv79AQnJmsHqHuS4_pad-12" x="137999.72" y="-2500.12"/><use xlink:href="#D0ptUv79AQnJmsHqHuS4_pad-12" x="137999.72" y="-7500.11"/><use xlink:href="#D0ptUv79AQnJmsHqHuS4_pad-12" x="137999.72" y="-4999.98"/><use xlink:href="#D0ptUv79AQnJmsHqHuS4_pad-13" x="113700.81" y="-9499.6"/><use xlink:href="#D0ptUv79AQnJmsHqHuS4_pad-13" x="111600.23" y="-14499.84"/><use xlink:href="#D0ptUv79AQnJmsHqHuS4_pad-13" x="89699.84" y="-9500.1"/><use xlink:href="#D0ptUv79AQnJmsHqHuS4_pad-13" x="87600.02" y="-14500.09"/><use xlink:href="#D0ptUv79AQnJmsHqHuS4_pad-13" x="65700.14" y="-9499.6"/><use xlink:href="#D0ptUv79AQnJmsHqHuS4_pad-13" x="63600.33" y="-14499.84"/><use xlink:href="#D0ptUv79AQnJmsHqHuS4_pad-13" x="41699.68" y="-9499.6"/><use xlink:href="#D0ptUv79AQnJmsHqHuS4_pad-13" x="39599.1" y="-14500.86"/><use xlink:href="#D0ptUv79AQnJmsHqHuS4_pad-14" x="3999.99" y="-14500.09"/><use xlink:href="#D0ptUv79AQnJmsHqHuS4_pad-13" x="17699.98" y="-9499.85"/><use xlink:href="#D0ptUv79AQnJmsHqHuS4_pad-13" x="15601.18" y="-14500.86"/><use xlink:href="#D0ptUv79AQnJmsHqHuS4_pad-12" x="129999.74" y="-8750.04"/><use xlink:href="#D0ptUv79AQnJmsHqHuS4_pad-12" x="129999.74" y="-6249.92"/><use xlink:href="#D0ptUv79AQnJmsHqHuS4_pad-12" x="129999.74" y="-3750.05"/><use xlink:href="#D0ptUv79AQnJmsHqHuS4_pad-15" x="119583.45" y="-4960.62"/><use xlink:href="#D0ptUv79AQnJmsHqHuS4_pad-15" x="25334.72" y="-12990.06"/><use xlink:href="#D0ptUv79AQnJmsHqHuS4_pad-15" x="100195.88" y="-14599.92"/><use xlink:href="#D0ptUv79AQnJmsHqHuS4_pad-15" x="128352.8" y="-13652.5"/><use xlink:href="#D0ptUv79AQnJmsHqHuS4_pad-15" x="51684.42" y="-16177.76"/><use xlink:href="#D0ptUv79AQnJmsHqHuS4_pad-15" x="75763.37" y="-16186.14"/><use xlink:href="#D0ptUv79AQnJmsHqHuS4_pad-15" x="124411.99" y="-13598.14"/><use xlink:href="#D0ptUv79AQnJmsHqHuS4_pad-15" x="48015.14" y="-17905.47"/><use xlink:href="#D0ptUv79AQnJmsHqHuS4_pad-15" x="48015.14" y="-15658.84"/></g></svg>