<svg version="1.1" xmlns="http://www.w3.org/2000/svg" xmlns:xlink="http://www.w3.org/1999/xlink" stroke-linecap="round" stroke-linejoin="round" stroke-width="0" fill-rule="evenodd" width="139.6247191mm" height="25.80005mm" viewBox="374.9909 -27399.99 139624.7191 25800.05" id="I6GR4ZbmrzXylY-bDT8X"><defs><circle cx="0" cy="0" r="750" id="I6GR4ZbmrzXylY-bDT8X_pad-11"/><circle cx="0" cy="0" r="1050" id="I6GR4ZbmrzXylY-bDT8X_pad-12"/><rect x="-3624.9991" y="-2125.0021" width="7249.9982" height="4250.0042" rx="2125.0021" ry="2125.0021" id="I6GR4ZbmrzXylY-bDT8X_pad-13"/><circle cx="0" cy="0" r="305" id="I6GR4ZbmrzXylY-bDT8X_pad-14"/></defs><g transform="translate(0,-28999.930000000004) scale(1,-1)" fill="currentColor" stroke="currentColor"><path d="M 132382.79 -2500.09 132382.79 -9808.43 128538.75 -13652.47 128352.82 -13652.47 M 138000.74 -4998.71 128651 -14348.45 121467.88 -14348.45 119476.52 -12357.1 113741.2 -12357.1 111599.97 -14500.86 M 138000.74 -21501.1 129499.36 -21501.1 125008.63 -17007.84 66108.58 -17007.84 63601.59 -14500.86 M 137999.74 -26499.79 30483.07 -26499.79 18484.11 -14500.83 15601.21 -14500.83 M 138499.87 -26499.79 137999.74 -26499.79 137999.74 -26500.04 M 137999.74 -23999.92 51983.66 -23999.92 42484.57 -14500.83 39599.13 -14500.83 M 138499.87 -23999.92 137999.74 -23999.92 M 138499.87 -21499.8 138000 -21499.8 137999.74 -21500.05 M 119583.47 -4960.59 115805.48 -8738.59 115805.48 -9573.23 114428.29 -10950.42 104824.8 -10950.42 100356.94 -15418.28 97444.83 -15418.28 94378.8 -12352.24 89747.87 -12352.24 87600.05 -14500.07 M 138499.87 -7499.83 137999.74 -7499.83 137999.74 -7500.08 M 138499.87 -4999.96 137999.74 -4999.96 M 25814.8 -11245.57 27560.8 -9499.57 41699.71 -9499.57 M 25334.74 -12990.04 25334.74 -11725.63 25814.8 -11245.57 M 17700.01 -9499.82 19644.38 -7555.45 22124.69 -7555.45 25814.8 -11245.57 M 100195.91 -10440.39 90640.17 -10440.39 89699.87 -9500.08 M 113700.83 -9499.57 112760.02 -10440.39 100195.91 -10440.39 100195.91 -14599.89 M 132382.79 -2500.09 132349.77 -2467.07 120733.33 -2467.07 113700.83 -9499.57 M 137999.74 -2500.09 132382.79 -2500.09 M 65700.17 -9807.93 58054.26 -9807.93 51684.45 -16177.74 M 75763.39 -16186.12 70796.93 -11219.66 67111.9 -11219.66 65700.17 -9807.93 M 65700.17 -9499.57 65700.17 -9807.93 M 138499.87 -2499.84 138000 -2499.84 137999.74 -2500.09 M 89699.87 -9500.08 82449.44 -9500.08 75763.39 -16186.12 M 41699.71 -9499.57 43419.8 -11219.66 46726.37 -11219.66 51684.45 -16177.74 M 130499.89 -8750.02 129999.76 -8750.02 M 130499.89 -6249.89 129999.76 -6249.89 M 129999.76 -3750.03 124412.01 -9337.77 124412.01 -13598.11 M 130499.89 -3750.03 129999.76 -3750.03 M 48015.16 -15658.82 48015.16 -17905.45" fill="none" stroke-width="254"/><path d="M 136999.72 -6599.93 139999.71 -6599.93 139999.71 -8400.03 136999.72 -8400.03"/><path d="M 136999.72 -4100.06 139999.71 -4100.06 139999.71 -5900.16 136999.72 -5900.16"/><path d="M 136999.72 -1599.94 139999.71 -1599.94 139999.71 -3400.04 136999.72 -3400.04"/><path d="M 136999.72 -20599.9 139999.71 -20599.9 139999.71 -22400 136999.72 -22400"/><path d="M 136999.72 -23100.03 139999.71 -23100.03 139999.71 -24900.12 136999.72 -24900.12"/><path d="M 136999.72 -25599.89 139999.71 -25599.89 139999.71 -27399.99 136999.72 -27399.99"/><path d="M 128999.74 -2850.13 131999.73 -2850.13 131999.73 -4650.23 128999.74 -4650.23"/><path d="M 128999.74 -5350 131999.73 -5350 131999.73 -7150.1 128999.74 -7150.1"/><path d="M 128999.74 -7850.12 131999.73 -7850.12 131999.73 -9650.22 128999.74 -9650.22"/><use xlink:href="#I6GR4ZbmrzXylY-bDT8X_pad-11" x="137999.72" y="-26500.07"/><use xlink:href="#I6GR4ZbmrzXylY-bDT8X_pad-11" x="137999.72" y="-23999.95"/><use xlink:href="#I6GR4ZbmrzXylY-bDT8X_pad-11" x="137999.72" y="-21500.08"/><use xlink:href="#I6GR4ZbmrzXylY-bDT8X_pad-11" x="137999.72" y="-2500.12"/><use xlink:href="#I6GR4ZbmrzXylY-bDT8X_pad-11" x="137999.72" y="-7500.11"/><use xlink:href="#I6GR4ZbmrzXylY-bDT8X_pad-11" x="137999.72" y="-4999.98"/><use xlink:href="#I6GR4ZbmrzXylY-bDT8X_pad-12" x="113700.81" y="-9499.6"/><use xlink:href="#I6GR4ZbmrzXylY-bDT8X_pad-12" x="111600.23" y="-14499.84"/><use xlink:href="#I6GR4ZbmrzXylY-bDT8X_pad-12" x="89699.84" y="-9500.1"/><use xlink:href="#I6GR4ZbmrzXylY-bDT8X_pad-12" x="87600.02" y="-14500.09"/><use xlink:href="#I6GR4ZbmrzXylY-bDT8X_pad-12" x="65700.14" y="-9499.6"/><use xlink:href="#I6GR4ZbmrzXylY-bDT8X_pad-12" x="63600.33" y="-14499.84"/><use xlink:href="#I6GR4ZbmrzXylY-bDT8X_pad-12" x="41699.68" y="-9499.6"/><use xlink:href="#I6GR4ZbmrzXylY-bDT8X_pad-12" x="39599.1" y="-14500.86"/><use xlink:href="#I6GR4ZbmrzXylY-bDT8X_pad-13" x="3999.99" y="-14500.09"/><use xlink:href="#I6GR4ZbmrzXylY-bDT8X_pad-12" x="17699.98" y="-9499.85"/><use xlink:href="#I6GR4ZbmrzXylY-bDT8X_pad-12" x="15601.18" y="-14500.86"/><use xlink:href="#I6GR4ZbmrzXylY-bDT8X_pad-11" x="129999.74" y="-8750.04"/><use xlink:href="#I6GR4ZbmrzXylY-bDT8X_pad-11" x="129999.74" y="-6249.92"/><use xlink:href="#I6GR4ZbmrzXylY-bDT8X_pad-11" x="129999.74" y="-3750.05"/><use xlink:href="#I6GR4ZbmrzXylY-bDT8X_pad-14" x="119583.45" y="-4960.62"/><use xlink:href="#I6GR4ZbmrzXylY-bDT8X_pad-14" x="25334.72" y="-12990.06"/><use xlink:href="#I6GR4ZbmrzXylY-bDT8X_pad-14" x="100195.88" y="-14599.92"/><use xlink:href="#I6GR4ZbmrzXylY-bDT8X_pad-14" x="128352.8" y="-13652.5"/><use xlink:href="#I6GR4ZbmrzXylY-bDT8X_pad-14" x="51684.42" y="-16177.76"/><use xlink:href="#I6GR4ZbmrzXylY-bDT8X_pad-14" x="75763.37" y="-16186.14"/><use xlink:href="#I6GR4ZbmrzXylY-bDT8X_pad-14" x="124411.99" y="-13598.14"/><use xlink:href="#I6GR4ZbmrzXylY-bDT8X_pad-14" x="48015.14" y="-17905.47"/><use xlink:href="#I6GR4ZbmrzXylY-bDT8X_pad-14" x="48015.14" y="-15658.84"/></g></svg>