<svg version="1.1" xmlns="http://www.w3.org/2000/svg" xmlns:xlink="http://www.w3.org/1999/xlink" stroke-linecap="round" stroke-linejoin="round" stroke-width="0" fill-rule="evenodd" width="138.80278mm" height="19.2001mm" viewBox="-1.94 -24100.02 138802.78 19200.1" id="AswS-O0MEH5_mfnvLvA0"><g transform="translate(0,-28999.940000000002) scale(1,-1)" fill="currentColor" stroke="currentColor"><path d="M 133827.51 -10099.03 133757.92 -10111.23 133708.64 -10146.79 133679.69 -10203.18 133670.04 -10276.84 133670.04 -10373.36 133596.38 -10378.44 133596.38 -10441.94 133670.04 -10441.94 133670.04 -10922 133753.86 -10922 133753.86 -10441.94 133873.24 -10441.94 133873.24 -10373.36 133753.86 -10373.36 133753.86 -10279.37 133758.43 -10230.61 133773.16 -10196.06 133797.54 -10174.73 133832.6 -10167.62 133864.09 -10171.68 133896.1 -10182.86 133913.88 -10119.36 133894.06 -10110.72 133850.38 -10100.56"/><path d="M 127685.8 -10114.28 127685.8 -10820.4 127691.38 -10869.16 127707.64 -10905.23 127736.09 -10927.08 127777.24 -10934.7 127805.18 -10932.66 127825.5 -10927.08 127812.8 -10863.58 127795.02 -10866.12 127784.86 -10864.08 127776.73 -10857.48 127771.65 -10845.8 127769.62 -10828.02 127769.62 -10114.28"/><path d="M 127970.28 -10114.28 127970.28 -10820.4 127975.36 -10869.16 127991.1 -10905.23 128018.54 -10927.08 128059.18 -10934.7 128088.13 -10932.66 128109.98 -10927.08 128097.28 -10863.58 128076.96 -10866.12 128067.81 -10864.08 128059.68 -10857.48 128053.59 -10845.8 128051.56 -10828.02 128051.56 -10114.28"/><path d="M 132821.68 -10114.28 132821.68 -10922 132902.96 -10922 132902.96 -10520.68 132943.09 -10482.07 132980.68 -10454.13 133019.29 -10437.36 133060.44 -10431.78 133109.2 -10440.41 133142.22 -10467.84 133161.02 -10515.6 133167.12 -10584.18 133167.12 -10922 133250.94 -10922 133250.94 -10574.02 133240.78 -10481.56 133209.79 -10413.49 133157.46 -10372.34 133083.3 -10358.12 133030.97 -10365.74 132984.24 -10386.06 132941.06 -10416.03 132900.42 -10452.1 132902.96 -10337.8 132902.96 -10114.28"/><path d="M 130464.56 -10116.82 130149.6 -11102.34 130210.56 -11102.34 130525.52 -10116.82"/><path d="M 136806.94 -10116.82 136491.98 -11102.34 136552.94 -11102.34 136867.9 -10116.82"/><path d="M 127454.66 -10142.21 127431.8 -10146.28 127413 -10157.96 127400.81 -10175.24 127396.24 -10198.1 127400.81 -10222.48 127413 -10240.77 127431.8 -10252.45 127454.66 -10256.52 127477.52 -10252.45 127496.31 -10240.77 127508.5 -10221.97 127513.08 -10198.1 127508.5 -10175.24 127496.31 -10157.96 127477.52 -10146.28"/><path d="M 131460.24 -10142.21 131436.36 -10146.28 131417.56 -10157.96 131405.88 -10175.24 131401.82 -10198.1 131405.88 -10222.48 131417.56 -10240.77 131436.36 -10252.45 131460.24 -10256.52 131483.1 -10252.45 131500.37 -10240.77 131512.05 -10221.97 131516.12 -10198.1 131512.05 -10175.24 131500.37 -10157.96 131483.1 -10146.28"/><path d="M 137266.68 -10165.08 137218.42 -10168.12 137172.69 -10177.27 137130.53 -10192 137090.91 -10212.32 137055.35 -10237.72 137023.34 -10268.71 136995.91 -10304.27 136972.54 -10344.91 136953.75 -10390.12 136940.03 -10439.9 136931.9 -10493.24 136928.86 -10551.16 136934.95 -10635.99 136953.24 -10711.68 136982.19 -10777.22 137021.31 -10832.59 137069.57 -10876.28 137125.96 -10908.28 137189.46 -10928.09 137259.06 -10934.7 137329.67 -10928.6 137392.66 -10910.82 137445.49 -10884.4 137487.66 -10850.88 137487.66 -10541 137246.36 -10541 137246.36 -10612.12 137408.92 -10612.12 137408.92 -10815.32 137381.48 -10834.11 137347.45 -10848.84 137308.33 -10857.99 137266.68 -10861.04 137209.78 -10855.45 137160 -10839.19 137116.82 -10812.27 137080.75 -10776.2 137052.81 -10730.99 137031.98 -10677.65 137019.28 -10616.69 137015.22 -10548.62 137019.79 -10480.54 137033 -10419.58 137054.84 -10366.75 137083.8 -10322.05 137120.37 -10286.49 137163.04 -10260.58 137212.32 -10244.32 137266.68 -10238.74 137320.52 -10244.32 137364.72 -10260.07 137400.79 -10282.42 137431.78 -10309.86 137477.5 -10256.52 137440.41 -10222.99 137394.18 -10193.52 137336.27 -10172.69"/><path d="M 126342.14 -10177.78 126342.14 -10246.36 126517.4 -10246.36 126580.9 -10251.44 126635.76 -10266.68 126681.99 -10291.57 126719.58 -10325.6 126749.04 -10368.78 126769.87 -10420.09 126782.57 -10479.02 126786.64 -10546.08 126782.57 -10614.15 126769.87 -10674.6 126749.04 -10726.92 126719.58 -10771.12 126681.99 -10806.17 126635.76 -10832.08 126580.9 -10847.83 126517.4 -10853.42 126425.96 -10853.42 126425.96 -10246.36 126342.14 -10246.36 126342.14 -10922 126527.56 -10922 126581.91 -10918.95 126631.7 -10910.31 126676.91 -10896.09 126717.55 -10876.28 126753.62 -10851.38 126785.11 -10821.92 126811.53 -10786.87 126833.88 -10747.24 126850.64 -10703.56 126863.34 -10655.3 126870.46 -10602.46 126873 -10546.08 126870.46 -10489.69 126863.34 -10437.87 126850.64 -10390.12 126833.37 -10346.94 126811.53 -10308.33 126784.6 -10274.3 126753.11 -10245.34 126717.04 -10221.46 126675.89 -10202.67 126630.17 -10188.95 126579.88 -10180.32 126525.02 -10177.78"/><path d="M 129857.5 -10177.78 129827.02 -10194.03 129791.96 -10207.75 129752.34 -10219.43 129707.64 -10228.58 129707.64 -10281.92 129839.72 -10281.92 129839.72 -10853.42 129672.08 -10853.42 129672.08 -10922 130073.4 -10922 130073.4 -10853.42 129921 -10853.42 129921 -10177.78"/><path d="M 130873.5 -10177.78 130564.35 -10647.68 130644.9 -10647.68 130825.24 -10383.52 130883.65 -10274.3 130888.74 -10274.3 130883.65 -10406.37 130883.65 -10647.68 130564.35 -10647.68 130556 -10660.38 130556 -10713.72 130883.65 -10713.72 130883.65 -10922 130962.4 -10922 130962.4 -10713.72 131064 -10713.72 131064 -10647.68 130962.4 -10647.68 130962.4 -10177.78"/><path d="M 135122.92 -10177.78 135285.48 -10922 135382 -10922 135508.49 -10416.53 135536.94 -10289.53 135542.01 -10289.53 135577.57 -10459.71 135696.96 -10922 135796.01 -10922 135953.5 -10177.78 135872.22 -10177.78 135779.76 -10651.23 135747.76 -10833.1 135742.68 -10833.1 135686.8 -10591.8 135580.12 -10177.78 135501.38 -10177.78 135382.5 -10651.23 135341.36 -10833.1 135338.82 -10833.1 135304.27 -10651.23 135209.28 -10177.78"/><path d="M 136014.46 -10177.78 136014.46 -10248.9 136240.51 -10248.9 136240.51 -10922 136326.88 -10922 136326.88 -10248.9 136555.48 -10248.9 136555.48 -10177.78"/><path d="M 137668 -10177.78 137668 -10922 137751.82 -10922 137751.82 -10566.4 138109.96 -10566.4 138109.96 -10922 138193.78 -10922 138193.78 -10177.78 138109.96 -10177.78 138109.96 -10492.74 137751.82 -10492.74 137751.82 -10177.78"/><path d="M 138409.68 -10177.78 138384.28 -10523.22 138430 -10551.16 138460.98 -10532.87 138490.45 -10519.15 138521.94 -10511.02 138557 -10507.98 138622.53 -10520.17 138673.33 -10554.71 138705.84 -10609.58 138717.01 -10683.24 138704.32 -10758.93 138668.76 -10816.84 138616.43 -10853.42 138551.92 -10866.12 138492.48 -10859 138443.2 -10840.21 138401.55 -10813.79 138366.5 -10782.3 138325.86 -10835.64 138366.5 -10872.72 138417.8 -10904.22 138481.81 -10926.57 138559.54 -10934.7 138605.76 -10930.63 138649.96 -10917.93 138690.6 -10897.1 138726.67 -10868.66 138757.15 -10832.59 138780.51 -10788.9 138795.76 -10738.1 138800.84 -10680.7 138796.26 -10623.29 138783.06 -10574.02 138762.23 -10533.38 138734.8 -10500.86 138701.78 -10475.46 138663.68 -10458.19 138622.02 -10448.03 138577.32 -10444.48 138544.8 -10446.51 138515.34 -10452.1 138487.4 -10461.75 138460.48 -10474.96 138480.8 -10248.9 138765.28 -10248.9 138765.28 -10177.78"/><path d="M 128508.76 -10218.42 128498.6 -10373.36 128412.24 -10378.44 128412.24 -10441.94 128496.06 -10441.94 128496.06 -10756.9 128503.17 -10829.54 128528.06 -10885.93 128574.29 -10922 128645.92 -10934.7 128669.79 -10933.17 128721.1 -10922 128744.98 -10914.38 128727.2 -10850.88 128696.21 -10862.05 128663.7 -10866.12 128622.55 -10858.5 128595.62 -10837.67 128581.4 -10804.14 128577.34 -10759.44 128577.34 -10441.94 128729.74 -10441.94 128729.74 -10373.36 128577.34 -10373.36 128577.34 -10218.42"/><path d="M 127261.62 -10358.12 127216.91 -10366.24 127175.76 -10389.61 127138.17 -10426.69 127106.68 -10474.96 127104.14 -10474.96 127096.52 -10373.36 127027.94 -10373.36 127027.94 -10922 127111.76 -10922 127111.76 -10563.86 127142.24 -10503.91 127177.8 -10463.78 127215.39 -10441.43 127251.46 -10434.32 127278.89 -10436.35 127304.8 -10444.48 127320.04 -10370.82 127292.6 -10361.67"/><path d="M 129049.78 -10358.12 129000.5 -10363.19 128953.76 -10377.42 128911.09 -10401.3 128873.5 -10434.32 128842.51 -10475.46 128818.64 -10525.25 128803.4 -10582.65 128798.32 -10647.68 128882.14 -10647.68 128894.33 -10558.78 128928.87 -10489.69 128981.7 -10444.98 129049.78 -10429.24 129117.85 -10444.98 129170.68 -10489.69 129205.22 -10558.78 129217.42 -10647.68 129205.22 -10737.59 129170.68 -10806.68 129117.85 -10850.37 129049.78 -10866.12 128981.7 -10850.37 128928.87 -10806.68 128894.33 -10737.59 128882.14 -10647.68 128798.32 -10647.68 128803.4 -10712.7 128818.64 -10769.6 128842.51 -10818.87 128873.5 -10860.02 128911.09 -10892.02 128953.76 -10915.39 129000.5 -10929.62 129049.78 -10934.7 129099.05 -10929.62 129145.79 -10915.39 129188.46 -10892.02 129226.05 -10860.02 129257.04 -10818.87 129280.92 -10769.6 129296.16 -10712.7 129301.24 -10647.68 129296.16 -10582.65 129280.92 -10525.25 129257.04 -10475.46 129226.05 -10434.32 129188.46 -10401.3 129145.79 -10377.42 129099.05 -10363.19"/><path d="M 131955.54 -10358.12 131901.69 -10365.74 131854.44 -10386.56 131810.76 -10417.04 131770.12 -10454.64 131767.57 -10454.64 131759.96 -10373.36 131691.38 -10373.36 131691.38 -10922 131775.19 -10922 131775.19 -10520.68 131814.82 -10482.07 131851.9 -10454.13 131888.99 -10437.36 131930.13 -10431.78 131979.41 -10440.41 132013.45 -10467.84 132033.26 -10515.6 132039.36 -10584.18 132039.36 -10922 132123.18 -10922 132123.18 -10574.02 132113.01 -10481.56 132082.03 -10413.49 132029.7 -10372.34"/><path d="M 132524.5 -10358.12 132473.19 -10363.19 132424.93 -10377.42 132380.22 -10401.3 132341.11 -10434.32 132308.6 -10475.46 132284.21 -10525.25 132268.46 -10582.65 132262.88 -10647.68 132267.96 -10712.7 132282.69 -10769.6 132306.06 -10818.87 132337.04 -10860.02 132374.63 -10892.02 132418.32 -10915.39 132466.58 -10929.62 132519.42 -10934.7 132567.68 -10930.12 132613.9 -10916.41 132656.07 -10895.07 132694.68 -10866.12 132659.12 -10810.24 132630.67 -10831.57 132598.66 -10849.35 132564.12 -10861.54 132527.04 -10866.12 132454.39 -10850.37 132398 -10806.68 132361.94 -10737.59 132349.24 -10647.68 132362.95 -10558.78 132400.04 -10489.69 132456.42 -10444.98 132527.04 -10429.24 132559.55 -10432.79 132589.01 -10442.95 132615.94 -10459.21 132641.34 -10480.03 132684.51 -10424.16 132654.04 -10398.76 132617.97 -10377.93 132575.3 -10363.19"/><path d="M 134178.04 -10358.12 134129.27 -10363.19 134083.04 -10377.42 134040.37 -10401.3 134002.78 -10434.32 133971.28 -10475.46 133947.4 -10525.25 133932.16 -10582.65 133926.57 -10647.68 134012.94 -10647.68 134025.13 -10558.78 134059.16 -10489.69 134111.49 -10444.98 134178.04 -10429.24 134246.11 -10444.98 134298.94 -10489.69 134333.48 -10558.78 134345.68 -10647.68 134333.48 -10737.59 134298.94 -10806.68 134246.11 -10850.37 134178.04 -10866.12 134111.49 -10850.37 134059.16 -10806.68 134025.13 -10737.59 134012.94 -10647.68 133926.57 -10647.68 133932.16 -10712.7 133947.4 -10769.6 133971.28 -10818.87 134002.78 -10860.02 134040.37 -10892.02 134083.04 -10915.39 134129.27 -10929.62 134178.04 -10934.7 134227.82 -10929.62 134274.56 -10915.39 134317.74 -10892.02 134355.33 -10860.02 134387.33 -10818.87 134411.21 -10769.6 134426.45 -10712.7 134432.04 -10647.68 134426.45 -10582.65 134411.21 -10525.25 134387.33 -10475.46 134355.33 -10434.32 134317.74 -10401.3 134274.56 -10377.42 134227.82 -10363.19"/><path d="M 134815.57 -10358.12 134769.35 -10366.24 134727.69 -10389.61 134691.12 -10426.69 134660.63 -10474.96 134655.56 -10474.96 134647.94 -10373.36 134581.9 -10373.36 134581.9 -10922 134663.18 -10922 134663.18 -10563.86 134694.67 -10503.91 134730.23 -10463.78 134768.33 -10441.43 134805.42 -10434.32 134831.83 -10436.35 134856.22 -10444.48 134874 -10370.82 134845.55 -10361.67"/><path d="M 127414.02 -10373.36 127414.02 -10922 127495.3 -10922 127495.3 -10373.36"/><path d="M 131419.6 -10373.36 131419.6 -10922 131500.88 -10922 131500.88 -10373.36"/><path d="M 26284.93 -13685.01 26015.18 -13804.9 26284.93 -13934.94"/><path d="M 50284.88 -13685.01 50015.14 -13804.9 50284.88 -13934.94"/><path d="M 74285.34 -13685.01 74015.09 -13804.9 74285.34 -13934.94"/><path d="M 98284.79 -13685.01 98015.04 -13804.9 98284.79 -13934.94"/><path d="M 122284.74 -13685.01 122014.99 -13804.9 122284.74 -13934.94"/><path d="M 2599.99 -12050.01 3697.27 -12050.01 5599.73 -12050.01 M 5499.98 -16949.97 4402.7 -16949.97 2500.24 -16949.97" fill="none" stroke-width="254"/><path d="M 26499.94 -21499.95 28499.94 -21499.95 M 110500.03 -9499.98 110500.03 -7499.98 112500.02 -7499.98 M 110500.03 -7499.98 112500.02 -7499.98 M 110500.03 -19499.96 110500.03 -21499.95 112500.02 -21499.95 M 124500 -21499.95 124500 -19499.96 M 124500 -7499.98 122500 -7499.98 M 122500 -21499.95 124500 -21499.95 M 124500 -9499.98 124500 -7499.98 122500 -7499.98 M 107975.01 -24024.97 107975.01 -4974.97 127025.01 -4974.97 127025.01 -24024.97 107975.01 -24024.97 M 86500.08 -9499.98 86500.08 -7499.98 88500.07 -7499.98 M 86500.08 -7499.98 88500.07 -7499.98 M 86500.08 -19499.96 86500.08 -21499.95 88500.07 -21499.95 M 100500.05 -21499.95 100500.05 -19499.96 M 100500.05 -7499.98 98500.05 -7499.98 M 98500.05 -21499.95 100500.05 -21499.95 M 100500.05 -9499.98 100500.05 -7499.98 98500.05 -7499.98 M 83975.06 -24024.97 83975.06 -4974.97 103025.06 -4974.97 103025.06 -24024.97 83975.06 -24024.97 M 62500.12 -9499.98 62500.12 -7499.98 64500.12 -7499.98 M 62500.12 -7499.98 64500.12 -7499.98 M 62500.12 -19499.96 62500.12 -21499.95 64500.12 -21499.95 M 76500.1 -21499.95 76500.1 -19499.96 M 76500.1 -7499.98 74500.1 -7499.98 M 74500.1 -21499.95 76500.1 -21499.95 M 76500.1 -9499.98 76500.1 -7499.98 74500.1 -7499.98 M 59975.11 -24024.97 59975.11 -4974.97 79025.11 -4974.97 79025.11 -24024.97 59975.11 -24024.97 M 38500.17 -9499.98 38500.17 -7499.98 40500.17 -7499.98 M 38500.17 -7499.98 40500.17 -7499.98 M 38500.17 -19499.96 38500.17 -21499.95 40500.17 -21499.95 M 52500.14 -21499.95 52500.14 -19499.96 M 52500.14 -7499.98 50500.15 -7499.98 M 50500.15 -21499.95 52500.14 -21499.95 M 52500.14 -9499.98 52500.14 -7499.98 50500.15 -7499.98 M 35975.16 -24024.97 35975.16 -4974.97 55025.16 -4974.97 55025.16 -24024.97 35975.16 -24024.97 M 11974.95 -24024.97 11974.95 -4974.97 31024.95 -4974.97 31024.95 -24024.97 11974.95 -24024.97" fill="none" stroke-width="150.1"/><path d="M 27778.35 -16416.19 28015.66 -16416.19 28015.66 -12583.74 27778.35 -12583.74 M 24620.57 -16416.19 24383.26 -16416.19 24383.26 -12583.74 24620.57 -12583.74" fill="none" stroke-width="152.4"/><path d="M 14499.97 -19499.96 14499.97 -21499.95 16499.96 -21499.95 M 28499.94 -9499.98 28499.94 -7499.98 M 28499.94 -9499.98 28499.94 -7499.98 26499.94 -7499.98 M 28499.94 -7499.98 26499.94 -7499.98 M 14499.97 -9499.98 14499.97 -7499.98 M 14499.97 -9499.98 14499.97 -7499.98 16499.96 -7499.98 M 14499.97 -7499.98 16499.96 -7499.98 M 28499.94 -21499.95 28499.94 -19499.96" fill="none" stroke-width="150.1"/><path d="M 27469.94 -15780.25 27469.94 -15899.94 27215.94 -15899.94 M 27469.94 -14980.15 27469.94 -15019.98 M 27469.94 -14180.05 27469.94 -14219.88 M 24929.94 -13419.78 24929.94 -13359.94 27469.94 -13359.94 27469.94 -13419.78 M 24929.94 -14219.88 24929.94 -14180.05 M 24929.94 -15019.98 24929.94 -14980.15 M 27215.94 -15899.94 24929.94 -15899.94 24929.94 -15780.25 M 51470.15 -15780.25 51470.15 -15899.94 51216.15 -15899.94 M 51470.15 -14980.15 51470.15 -15019.98 M 51470.15 -14180.05 51470.15 -14219.88 M 48930.15 -13419.78 48930.15 -13359.94 51470.15 -13359.94 51470.15 -13419.78 M 48930.15 -14219.88 48930.15 -14180.05 M 48930.15 -15019.98 48930.15 -14980.15 M 51216.15 -15899.94 48930.15 -15899.94 48930.15 -15780.25 M 75470.1 -15780.25 75470.1 -15899.94 75216.1 -15899.94 M 75470.1 -14980.15 75470.1 -15019.98 M 75470.1 -14180.05 75470.1 -14219.88 M 72930.1 -13419.78 72930.1 -13359.94 75470.1 -13359.94 75470.1 -13419.78 M 72930.1 -14219.88 72930.1 -14180.05 M 72930.1 -15019.98 72930.1 -14980.15 M 75216.1 -15899.94 72930.1 -15899.94 72930.1 -15780.25 M 99470.05 -15780.25 99470.05 -15899.94 99216.05 -15899.94 M 99470.05 -14980.15 99470.05 -15019.98 M 99470.05 -14180.05 99470.05 -14219.88 M 96930.05 -13419.78 96930.05 -13359.94 99470.05 -13359.94 99470.05 -13419.78 M 96930.05 -14219.88 96930.05 -14180.05 M 96930.05 -15019.98 96930.05 -14980.15 M 99216.05 -15899.94 96930.05 -15899.94 96930.05 -15780.25 M 123470 -15780.25 123470 -15899.94 123216 -15899.94 M 123470 -14980.15 123470 -15019.98 M 123470 -14180.05 123470 -14219.88 M 120930 -13419.78 120930 -13359.94 123470 -13359.94 123470 -13419.78 M 120930 -14219.88 120930 -14180.05 M 120930 -15019.98 120930 -14980.15 M 123216 -15899.94 120930 -15899.94 120930 -15780.25" fill="none" stroke-width="152"/><path d="M 2575.05 -12049.99 A 2449.99 2449.99 0 0 1 2575.05 -16949.98 M 5424.93 -16950.21 A 2450 2450 0 0 1 5424.93 -12050.22 M 136674.86 -14500.1 A 3175 3175 0 0 1 130324.86 -14500.1 3175 3175 0 0 1 136674.86 -14500.1" fill="none" stroke-width="254"/><path d="M 27949.91 -15439.9 A 70.1 70.1 0 0 1 27809.71 -15439.9 70.1 70.1 0 0 1 27949.91 -15439.9 M 51950.11 -15439.9 A 70.1 70.1 0 0 1 51809.91 -15439.9 70.1 70.1 0 0 1 51950.11 -15439.9 M 75950.06 -15439.9 A 70.1 70.1 0 0 1 75809.86 -15439.9 70.1 70.1 0 0 1 75950.06 -15439.9 M 99950.02 -15439.9 A 70.1 70.1 0 0 1 99809.82 -15439.9 70.1 70.1 0 0 1 99950.02 -15439.9 M 123949.97 -15439.9 A 70.1 70.1 0 0 1 123809.77 -15439.9 70.1 70.1 0 0 1 123949.97 -15439.9" fill="none" stroke-width="140"/></g></svg>