<svg version="1.1" xmlns="http://www.w3.org/2000/svg" xmlns:xlink="http://www.w3.org/1999/xlink" stroke-linecap="round" stroke-linejoin="round" stroke-width="0" fill-rule="evenodd" width="98.87168mm" height="1.85486mm" viewBox="24658.32 -15550.03 98871.68 1854.86" id="fe101hEFqgVKtaIwEP1g"><g transform="translate(0,-29245.2) scale(1,-1)" fill="currentColor" stroke="currentColor"><path d="M 26264.61 -13695.17 25994.36 -13815.06 26264.61 -13945.1"/><path d="M 24658.32 -14533.37 24658.32 -14693.39 25378.15 -14693.39 25378.15 -14533.37"/><path d="M 24939.75 -14249.9 24939.75 -14970.25 25099.77 -14970.25 25099.77 -14249.9"/><path d="M 26800.04 -14520.16 26800.04 -14680.18 27519.88 -14680.18 27519.88 -14520.16"/><path d="M 50264.56 -13695.17 49994.82 -13815.06 50264.56 -13945.1"/><path d="M 48658.78 -14533.37 48658.78 -14693.39 49378.61 -14693.39 49378.61 -14533.37"/><path d="M 48940.21 -14249.9 48940.21 -14970.25 49100.23 -14970.25 49100.23 -14249.9"/><path d="M 50800 -14520.16 50800 -14680.18 51520.34 -14680.18 51520.34 -14520.16"/><path d="M 74264.52 -13695.17 73994.77 -13815.06 74264.52 -13945.1"/><path d="M 72658.22 -14533.37 72658.22 -14693.39 73378.56 -14693.39 73378.56 -14533.37"/><path d="M 72940.16 -14249.9 72940.16 -14970.25 73100.18 -14970.25 73100.18 -14249.9"/><path d="M 74799.95 -14520.16 74799.95 -14680.18 75520.29 -14680.18 75520.29 -14520.16"/><path d="M 98264.47 -13695.17 97994.72 -13815.06 98264.47 -13945.1"/><path d="M 96658.68 -14533.37 96658.68 -14693.39 97378.52 -14693.39 97378.52 -14533.37"/><path d="M 96940.11 -14249.9 96940.11 -14970.25 97100.13 -14970.25 97100.13 -14249.9"/><path d="M 98799.9 -14520.16 98799.9 -14680.18 99520.24 -14680.18 99520.24 -14520.16"/><path d="M 122264.42 -13695.17 121994.67 -13815.06 122264.42 -13945.1"/><path d="M 120658.63 -14533.37 120658.63 -14693.39 121378.47 -14693.39 121378.47 -14533.37"/><path d="M 120940.06 -14249.9 120940.06 -14970.25 121100.08 -14970.25 121100.08 -14249.9"/><path d="M 122799.85 -14520.16 122799.85 -14680.18 123520.2 -14680.18 123520.2 -14520.16"/><path d="M 27459.94 -15409.93 A 70.1 70.1 0 0 1 27319.74 -15409.93 70.1 70.1 0 0 1 27459.94 -15409.93 M 51460.15 -15409.93 A 70.1 70.1 0 0 1 51319.95 -15409.93 70.1 70.1 0 0 1 51460.15 -15409.93 M 75460.1 -15409.93 A 70.1 70.1 0 0 1 75319.9 -15409.93 70.1 70.1 0 0 1 75460.1 -15409.93 M 99460.05 -15409.93 A 70.1 70.1 0 0 1 99319.85 -15409.93 70.1 70.1 0 0 1 99460.05 -15409.93 M 123460 -15409.93 A 70.1 70.1 0 0 1 123319.8 -15409.93 70.1 70.1 0 0 1 123460 -15409.93" fill="none" stroke-width="140"/></g></svg>