<svg version="1.1" xmlns="http://www.w3.org/2000/svg" xmlns:xlink="http://www.w3.org/1999/xlink" stroke-linecap="round" stroke-linejoin="round" stroke-width="0" fill-rule="evenodd" width="138.47632910000002mm" height="25.60155mm" viewBox="324.1909 -27300.87 138476.3291 25601.55" id="N1JOfl7XUtwPVIxGbU59"><defs><g id="N1JOfl7XUtwPVIxGbU59_pad-10"><circle cx="572.5" cy="-200" r="50.8"/><circle cx="-572.5" cy="-200" r="50.8"/><circle cx="-572.5" cy="200" r="50.8"/><circle cx="572.5" cy="200" r="50.8"/><polygon points="572.5,-250.8 -572.5,-250.8 -572.5,-149.2 572.5,-149.2"/><polygon points="-521.7,-200 -521.7,200 -623.3,200 -623.3,-200"/><polygon points="-572.5,149.2 572.5,149.2 572.5,250.8 -572.5,250.8"/><polygon points="623.3,200 623.3,-200 521.7,-200 521.7,200"/><polygon points="572.5,-200 -572.5,-200 -572.5,200 572.5,200"/></g><circle cx="0" cy="0" r="800.8" id="N1JOfl7XUtwPVIxGbU59_pad-11"/><circle cx="0" cy="0" r="1100.8" id="N1JOfl7XUtwPVIxGbU59_pad-12"/><rect x="-3675.7991" y="-2175.8021" width="7351.5982" height="4351.6042" rx="2175.8021" ry="2175.8021" id="N1JOfl7XUtwPVIxGbU59_pad-13"/></defs><g transform="translate(0,-29000.19) scale(1,-1)" fill="currentColor" stroke="currentColor"><use xlink:href="#N1JOfl7XUtwPVIxGbU59_pad-10" x="27047.54" y="-15400.12"/><use xlink:href="#N1JOfl7XUtwPVIxGbU59_pad-10" x="25352.34" y="-15400.12"/><use xlink:href="#N1JOfl7XUtwPVIxGbU59_pad-10" x="27047.54" y="-14600.02"/><use xlink:href="#N1JOfl7XUtwPVIxGbU59_pad-10" x="25352.34" y="-14600.02"/><use xlink:href="#N1JOfl7XUtwPVIxGbU59_pad-10" x="27047.54" y="-13799.92"/><use xlink:href="#N1JOfl7XUtwPVIxGbU59_pad-10" x="25352.34" y="-13799.92"/><use xlink:href="#N1JOfl7XUtwPVIxGbU59_pad-10" x="51047.75" y="-15400.12"/><use xlink:href="#N1JOfl7XUtwPVIxGbU59_pad-10" x="49352.55" y="-15400.12"/><use xlink:href="#N1JOfl7XUtwPVIxGbU59_pad-10" x="51047.75" y="-14600.02"/><use xlink:href="#N1JOfl7XUtwPVIxGbU59_pad-10" x="49352.55" y="-14600.02"/><use xlink:href="#N1JOfl7XUtwPVIxGbU59_pad-10" x="51047.75" y="-13799.92"/><use xlink:href="#N1JOfl7XUtwPVIxGbU59_pad-10" x="49352.55" y="-13799.92"/><use xlink:href="#N1JOfl7XUtwPVIxGbU59_pad-10" x="75047.7" y="-15400.12"/><use xlink:href="#N1JOfl7XUtwPVIxGbU59_pad-10" x="73352.5" y="-15400.12"/><use xlink:href="#N1JOfl7XUtwPVIxGbU59_pad-10" x="75047.7" y="-14600.02"/><use xlink:href="#N1JOfl7XUtwPVIxGbU59_pad-10" x="73352.5" y="-14600.02"/><use xlink:href="#N1JOfl7XUtwPVIxGbU59_pad-10" x="75047.7" y="-13799.92"/><use xlink:href="#N1JOfl7XUtwPVIxGbU59_pad-10" x="73352.5" y="-13799.92"/><use xlink:href="#N1JOfl7XUtwPVIxGbU59_pad-10" x="99047.65" y="-15400.12"/><use xlink:href="#N1JOfl7XUtwPVIxGbU59_pad-10" x="97352.45" y="-15400.12"/><use xlink:href="#N1JOfl7XUtwPVIxGbU59_pad-10" x="99047.65" y="-14600.02"/><use xlink:href="#N1JOfl7XUtwPVIxGbU59_pad-10" x="97352.45" y="-14600.02"/><use xlink:href="#N1JOfl7XUtwPVIxGbU59_pad-10" x="99047.65" y="-13799.92"/><use xlink:href="#N1JOfl7XUtwPVIxGbU59_pad-10" x="97352.45" y="-13799.92"/><use xlink:href="#N1JOfl7XUtwPVIxGbU59_pad-10" x="123047.6" y="-15400.12"/><use xlink:href="#N1JOfl7XUtwPVIxGbU59_pad-10" x="121352.41" y="-15400.12"/><use xlink:href="#N1JOfl7XUtwPVIxGbU59_pad-10" x="123047.6" y="-14600.02"/><use xlink:href="#N1JOfl7XUtwPVIxGbU59_pad-10" x="121352.41" y="-14600.02"/><use xlink:href="#N1JOfl7XUtwPVIxGbU59_pad-10" x="123047.6" y="-13799.92"/><use xlink:href="#N1JOfl7XUtwPVIxGbU59_pad-10" x="121352.41" y="-13799.92"/><use xlink:href="#N1JOfl7XUtwPVIxGbU59_pad-11" x="137999.72" y="-26500.07"/><use xlink:href="#N1JOfl7XUtwPVIxGbU59_pad-11" x="137999.72" y="-23999.95"/><use xlink:href="#N1JOfl7XUtwPVIxGbU59_pad-11" x="137999.72" y="-21500.08"/><use xlink:href="#N1JOfl7XUtwPVIxGbU59_pad-11" x="137999.72" y="-2500.12"/><use xlink:href="#N1JOfl7XUtwPVIxGbU59_pad-11" x="137999.72" y="-7500.11"/><use xlink:href="#N1JOfl7XUtwPVIxGbU59_pad-11" x="137999.72" y="-4999.98"/><use xlink:href="#N1JOfl7XUtwPVIxGbU59_pad-12" x="113700.81" y="-9499.6"/><use xlink:href="#N1JOfl7XUtwPVIxGbU59_pad-12" x="111600.23" y="-14499.84"/><use xlink:href="#N1JOfl7XUtwPVIxGbU59_pad-12" x="89699.84" y="-9500.1"/><use xlink:href="#N1JOfl7XUtwPVIxGbU59_pad-12" x="87600.02" y="-14500.09"/><use xlink:href="#N1JOfl7XUtwPVIxGbU59_pad-12" x="65700.14" y="-9499.6"/><use xlink:href="#N1JOfl7XUtwPVIxGbU59_pad-12" x="63600.33" y="-14499.84"/><use xlink:href="#N1JOfl7XUtwPVIxGbU59_pad-12" x="41699.68" y="-9499.6"/><use xlink:href="#N1JOfl7XUtwPVIxGbU59_pad-12" x="39599.1" y="-14500.86"/><use xlink:href="#N1JOfl7XUtwPVIxGbU59_pad-13" x="3999.99" y="-14500.09"/><use xlink:href="#N1JOfl7XUtwPVIxGbU59_pad-12" x="17699.98" y="-9499.85"/><use xlink:href="#N1JOfl7XUtwPVIxGbU59_pad-12" x="15601.18" y="-14500.86"/><use xlink:href="#N1JOfl7XUtwPVIxGbU59_pad-11" x="129999.74" y="-8750.04"/><use xlink:href="#N1JOfl7XUtwPVIxGbU59_pad-11" x="129999.74" y="-6249.92"/><use xlink:href="#N1JOfl7XUtwPVIxGbU59_pad-11" x="129999.74" y="-3750.05"/></g></svg>