<svg version="1.1" xmlns="http://www.w3.org/2000/svg" xmlns:xlink="http://www.w3.org/1999/xlink" stroke-linecap="round" stroke-linejoin="round" stroke-width="0" fill-rule="evenodd" width="139.72632910000002mm" height="25.90165mm" viewBox="324.1909 -27450.79 139726.3291 25901.65" id="RqgFNQvRajjw2ieLR79G"><defs><circle cx="0" cy="0" r="800.8" id="RqgFNQvRajjw2ieLR79G_pad-10"/><circle cx="0" cy="0" r="1100.8" id="RqgFNQvRajjw2ieLR79G_pad-11"/><rect x="-3675.7991" y="-2175.8021" width="7351.5982" height="4351.6042" rx="2175.8021" ry="2175.8021" id="RqgFNQvRajjw2ieLR79G_pad-12"/></defs><g transform="translate(0,-28999.93) scale(1,-1)" fill="currentColor" stroke="currentColor"><use xlink:href="#RqgFNQvRajjw2ieLR79G_pad-10" x="137999.72" y="-26500.07"/><use xlink:href="#RqgFNQvRajjw2ieLR79G_pad-10" x="137999.72" y="-23999.95"/><use xlink:href="#RqgFNQvRajjw2ieLR79G_pad-10" x="137999.72" y="-21500.08"/><use xlink:href="#RqgFNQvRajjw2ieLR79G_pad-10" x="137999.72" y="-2500.12"/><use xlink:href="#RqgFNQvRajjw2ieLR79G_pad-10" x="137999.72" y="-7500.11"/><use xlink:href="#RqgFNQvRajjw2ieLR79G_pad-10" x="137999.72" y="-4999.98"/><use xlink:href="#RqgFNQvRajjw2ieLR79G_pad-11" x="113700.81" y="-9499.6"/><use xlink:href="#RqgFNQvRajjw2ieLR79G_pad-11" x="111600.23" y="-14499.84"/><use xlink:href="#RqgFNQvRajjw2ieLR79G_pad-11" x="89699.84" y="-9500.1"/><use xlink:href="#RqgFNQvRajjw2ieLR79G_pad-11" x="87600.02" y="-14500.09"/><use xlink:href="#RqgFNQvRajjw2ieLR79G_pad-11" x="65700.14" y="-9499.6"/><use xlink:href="#RqgFNQvRajjw2ieLR79G_pad-11" x="63600.33" y="-14499.84"/><use xlink:href="#RqgFNQvRajjw2ieLR79G_pad-11" x="41699.68" y="-9499.6"/><use xlink:href="#RqgFNQvRajjw2ieLR79G_pad-11" x="39599.1" y="-14500.86"/><use xlink:href="#RqgFNQvRajjw2ieLR79G_pad-12" x="3999.99" y="-14500.09"/><use xlink:href="#RqgFNQvRajjw2ieLR79G_pad-11" x="17699.98" y="-9499.85"/><use xlink:href="#RqgFNQvRajjw2ieLR79G_pad-11" x="15601.18" y="-14500.86"/><use xlink:href="#RqgFNQvRajjw2ieLR79G_pad-10" x="129999.74" y="-8750.04"/><use xlink:href="#RqgFNQvRajjw2ieLR79G_pad-10" x="129999.74" y="-6249.92"/><use xlink:href="#RqgFNQvRajjw2ieLR79G_pad-10" x="129999.74" y="-3750.05"/><path d="M 136948.92 -25549.09 140050.52 -25549.09 140050.52 -27450.79 136948.92 -27450.79"/><path d="M 136948.92 -23049.22 140050.52 -23049.22 140050.52 -24950.92 136948.92 -24950.92"/><path d="M 136948.92 -20549.1 140050.52 -20549.1 140050.52 -22450.8 136948.92 -22450.8"/><path d="M 136948.92 -6549.13 140050.52 -6549.13 140050.52 -8450.83 136948.92 -8450.83"/><path d="M 136948.92 -4049.26 140050.52 -4049.26 140050.52 -5950.96 136948.92 -5950.96"/><path d="M 136948.92 -1549.14 140050.52 -1549.14 140050.52 -3450.84 136948.92 -3450.84"/><path d="M 128948.94 -5299.2 132050.53 -5299.2 132050.53 -7200.89 128948.94 -7200.89"/><path d="M 128948.94 -2799.33 132050.53 -2799.33 132050.53 -4701.03 128948.94 -4701.03"/><path d="M 128948.94 -7799.32 132050.53 -7799.32 132050.53 -9701.02 128948.94 -9701.02"/></g></svg>