<svg version="1.1" xmlns="http://www.w3.org/2000/svg" xmlns:xlink="http://www.w3.org/1999/xlink" stroke-linecap="round" stroke-linejoin="round" stroke-width="0" fill-rule="evenodd" clip-rule="evenodd" id="xJ34lHRBWvyOdLc7338r_bottom" viewBox="-45001.18 -48000.92 87673.18 75305.92" width="87.67317999999999mm" height="75.30592mm" class="w-100 h-100"><defs><style>.xJ34lHRBWvyOdLc7338r_fr4 {color: #666666;}
.xJ34lHRBWvyOdLc7338r_cu {color: #cccccc;}
.xJ34lHRBWvyOdLc7338r_cf {color: #cc9933;}
.xJ34lHRBWvyOdLc7338r_sm {color: #004200; opacity: 0.75;}
.xJ34lHRBWvyOdLc7338r_ss {color: #ffffff;}
.xJ34lHRBWvyOdLc7338r_sp {color: #999999;}
.xJ34lHRBWvyOdLc7338r_out {color: #000000;}</style><g id="F6ezDNKOWN1BzOFy2C07_pad-10"><circle cx="1000" cy="-1000" r="50.8"/><circle cx="-1000" cy="-1000" r="50.8"/><circle cx="-1000" cy="1000" r="50.8"/><circle cx="1000" cy="1000" r="50.8"/><polygon points="1000,-1050.8 -1000,-1050.8 -1000,-949.2 1000,-949.2"/><polygon points="-949.2,-1000 -949.2,1000 -1050.8,1000 -1050.8,-1000"/><polygon points="-1000,949.2 1000,949.2 1000,1050.8 -1000,1050.8"/><polygon points="1050.8,1000 1050.8,-1000 949.2,-1000 949.2,1000"/><polygon points="1000,-1000 -1000,-1000 -1000,1000 1000,1000"/></g><circle cx="0" cy="0" r="1050.8" id="F6ezDNKOWN1BzOFy2C07_pad-11"/><g id="F6ezDNKOWN1BzOFy2C07_pad-12"><circle cx="-1000" cy="-1000" r="50.8"/><circle cx="-1000" cy="1000" r="50.8"/><circle cx="1000" cy="1000" r="50.8"/><circle cx="1000" cy="-1000" r="50.8"/><polygon points="-949.2,-1000 -949.2,1000 -1050.8,1000 -1050.8,-1000"/><polygon points="-1000,949.2 1000,949.2 1000,1050.8 -1000,1050.8"/><polygon points="1050.8,1000 1050.8,-1000 949.2,-1000 949.2,1000"/><polygon points="1000,-1050.8 -1000,-1050.8 -1000,-949.2 1000,-949.2"/><polygon points="-1000,-1000 -1000,1000 1000,1000 1000,-1000"/></g><g id="F6ezDNKOWN1BzOFy2C07_pad-13"><circle cx="-1000" cy="1000" r="50.8"/><circle cx="1000" cy="1000" r="50.8"/><circle cx="1000" cy="-1000" r="50.8"/><circle cx="-1000" cy="-1000" r="50.8"/><polygon points="-1000,949.2 1000,949.2 1000,1050.8 -1000,1050.8"/><polygon points="1050.8,1000 1050.8,-1000 949.2,-1000 949.2,1000"/><polygon points="1000,-1050.8 -1000,-1050.8 -1000,-949.2 1000,-949.2"/><polygon points="-949.2,-1000 -949.2,1000 -1050.8,1000 -1050.8,-1000"/><polygon points="-1000,1000 1000,1000 1000,-1000 -1000,-1000"/></g><circle cx="0" cy="0" r="1320.8" id="F6ezDNKOWN1BzOFy2C07_pad-14"/><circle cx="0" cy="0" r="812.8" id="F6ezDNKOWN1BzOFy2C07_pad-15"/><g id="F6ezDNKOWN1BzOFy2C07_pad-16"><circle cx="762" cy="762" r="50.8"/><circle cx="762" cy="-762" r="50.8"/><circle cx="-762" cy="-762" r="50.8"/><circle cx="-762" cy="762" r="50.8"/><polygon points="812.8,762 812.8,-762 711.2,-762 711.2,762"/><polygon points="762,-812.8 -762,-812.8 -762,-711.2 762,-711.2"/><polygon points="-711.2,-762 -711.2,762 -812.8,762 -812.8,-762"/><polygon points="-762,711.2 762,711.2 762,812.8 -762,812.8"/><polygon points="762,762 762,-762 -762,-762 -762,762"/></g><rect x="-4049.9919" y="-2125.0021" width="8099.9838" height="4250.0042" rx="2125.0021" ry="2125.0021" id="F6ezDNKOWN1BzOFy2C07_pad-17"/><rect x="-3374.9996" y="-1175.004" width="6749.9992" height="2350.008" rx="1175.004" ry="1175.004" id="F6ezDNKOWN1BzOFy2C07_pad-18"/><g id="F6ezDNKOWN1BzOFy2C07_pad-19"><circle cx="-2283.9" cy="1016.8" r="2250"/><circle cx="2283.9" cy="-1016.8" r="2250"/><polygon points="-3199.01404,-1038.69661 1368.78596,-3072.29661 3199.01404,1038.69661 -1368.78596,3072.29661"/></g><g id="F6ezDNKOWN1BzOFy2C07_pad-20"><circle cx="-2283.9" cy="-1016.8" r="2250"/><circle cx="2283.9" cy="1016.8" r="2250"/><polygon points="-1368.78596,-3072.29661 3199.01404,-1038.69661 1368.78596,3072.29661 -3199.01404,1038.69661"/></g><g id="F6ezDNKOWN1BzOFy2C07_pad-21"><circle cx="-2253.6" cy="-749.7" r="2250"/><circle cx="2253.6" cy="749.7" r="2250"/><polygon points="-1543.36659,-2884.66335 2963.83341,-1385.26335 1543.36659,2884.66335 -2963.83341,1385.26335"/></g><g id="F6ezDNKOWN1BzOFy2C07_pad-22"><circle cx="-2372.2" cy="789.1" r="2250"/><circle cx="2372.2" cy="-789.1" r="2250"/><polygon points="-3082.38934,-1345.87801 1662.01066,-2924.07801 3082.38934,1345.87801 -1662.01066,2924.07801"/></g><circle cx="0" cy="0" r="850.8" id="F6ezDNKOWN1BzOFy2C07_pad-23"/><g id="F6ezDNKOWN1BzOFy2C07_pad-24"><circle cx="800" cy="800" r="50.8"/><circle cx="800" cy="-800" r="50.8"/><circle cx="-800" cy="-800" r="50.8"/><circle cx="-800" cy="800" r="50.8"/><polygon points="850.8,800 850.8,-800 749.2,-800 749.2,800"/><polygon points="800,-850.8 -800,-850.8 -800,-749.2 800,-749.2"/><polygon points="-749.2,-800 -749.2,800 -850.8,800 -850.8,-800"/><polygon points="-800,749.2 800,749.2 800,850.8 -800,850.8"/><polygon points="800,800 800,-800 -800,-800 -800,800"/></g><rect x="-2499.995" y="-1999.996" width="4999.99" height="3999.992" rx="1999.996" ry="1999.996" id="F6ezDNKOWN1BzOFy2C07_pad-25"/><rect x="-1000" y="-1000" width="2000" height="2000" id="FqPQdEIlystuQUja6whf_pad-12"/><circle cx="0" cy="0" r="1000" id="FqPQdEIlystuQUja6whf_pad-13"/><circle cx="0" cy="0" r="1270" id="FqPQdEIlystuQUja6whf_pad-14"/><circle cx="0" cy="0" r="762" id="FqPQdEIlystuQUja6whf_pad-15"/><rect x="-762" y="-762" width="1524" height="1524" id="FqPQdEIlystuQUja6whf_pad-16"/><rect x="-4049.9919" y="-2125.0021" width="8099.9838" height="4250.0042" rx="2125.0021" ry="2125.0021" id="FqPQdEIlystuQUja6whf_pad-17"/><rect x="-3374.9996" y="-1175.004" width="6749.9992" height="2350.008" rx="1175.004" ry="1175.004" id="FqPQdEIlystuQUja6whf_pad-18"/><g id="FqPQdEIlystuQUja6whf_pad-19"><circle cx="-2283.9" cy="1016.8" r="2250"/><circle cx="2283.9" cy="-1016.8" r="2250"/><polygon points="-3199.01404,-1038.69661 1368.78596,-3072.29661 3199.01404,1038.69661 -1368.78596,3072.29661"/></g><g id="FqPQdEIlystuQUja6whf_pad-20"><circle cx="-2283.9" cy="-1016.8" r="2250"/><circle cx="2283.9" cy="1016.8" r="2250"/><polygon points="-1368.78596,-3072.29661 3199.01404,-1038.69661 1368.78596,3072.29661 -3199.01404,1038.69661"/></g><g id="FqPQdEIlystuQUja6whf_pad-21"><circle cx="-2253.6" cy="-749.7" r="2250"/><circle cx="2253.6" cy="749.7" r="2250"/><polygon points="-1543.36659,-2884.66335 2963.83341,-1385.26335 1543.36659,2884.66335 -2963.83341,1385.26335"/></g><g id="FqPQdEIlystuQUja6whf_pad-22"><circle cx="-2372.2" cy="789.1" r="2250"/><circle cx="2372.2" cy="-789.1" r="2250"/><polygon points="-3082.38934,-1345.87801 1662.01066,-2924.07801 3082.38934,1345.87801 -1662.01066,2924.07801"/></g><circle cx="0" cy="0" r="800" id="FqPQdEIlystuQUja6whf_pad-23"/><rect x="-800" y="-800" width="1600" height="1600" id="FqPQdEIlystuQUja6whf_pad-24"/><rect x="-2499.995" y="-1999.996" width="4999.99" height="3999.992" rx="1999.996" ry="1999.996" id="FqPQdEIlystuQUja6whf_pad-25"/><circle cx="0" cy="0" r="310" id="FqPQdEIlystuQUja6whf_pad-26"/><circle cx="0" cy="0" r="850" id="_EgzZwi51HtbuenaufAd_pad-1"/><circle cx="0" cy="0" r="1950" id="_EgzZwi51HtbuenaufAd_pad-3"/><circle cx="0" cy="0" r="155" id="iU__VGsYGAE1t33CzdsC_pad-1"/><circle cx="0" cy="0" r="155" id="lNKQj-dYJvuDd15jv4cD_pad-1"/><circle cx="0" cy="0" r="457.5" id="lNKQj-dYJvuDd15jv4cD_pad-2"/><circle cx="0" cy="0" r="500" id="lNKQj-dYJvuDd15jv4cD_pad-3"/><circle cx="0" cy="0" r="550.5" id="lNKQj-dYJvuDd15jv4cD_pad-4"/><g id="xJ34lHRBWvyOdLc7338r_bottom_soldermask"><use xlink:href="#F6ezDNKOWN1BzOFy2C07_pad-10" x="40640.07" y="-25400.02"/><use xlink:href="#F6ezDNKOWN1BzOFy2C07_pad-11" x="40640" y="-22860"/><use xlink:href="#F6ezDNKOWN1BzOFy2C07_pad-11" x="40640" y="-20320"/><use xlink:href="#F6ezDNKOWN1BzOFy2C07_pad-12" x="36829.84" y="-25399.89"/><use xlink:href="#F6ezDNKOWN1BzOFy2C07_pad-11" x="34290" y="-25400"/><use xlink:href="#F6ezDNKOWN1BzOFy2C07_pad-11" x="31750" y="-25400"/><use xlink:href="#F6ezDNKOWN1BzOFy2C07_pad-11" x="-41910" y="1270"/><use xlink:href="#F6ezDNKOWN1BzOFy2C07_pad-11" x="-41910" y="3810"/><use xlink:href="#F6ezDNKOWN1BzOFy2C07_pad-11" x="-41910" y="6350"/><use xlink:href="#F6ezDNKOWN1BzOFy2C07_pad-11" x="-41910" y="-1270"/><use xlink:href="#F6ezDNKOWN1BzOFy2C07_pad-11" x="-41910" y="-3810"/><use xlink:href="#F6ezDNKOWN1BzOFy2C07_pad-10" x="-41909.92" y="-6350"/><use xlink:href="#F6ezDNKOWN1BzOFy2C07_pad-11" x="-43180" y="24130"/><use xlink:href="#F6ezDNKOWN1BzOFy2C07_pad-11" x="-43180" y="21590"/><use xlink:href="#F6ezDNKOWN1BzOFy2C07_pad-13" x="-43179.92" y="19049.94"/><use xlink:href="#F6ezDNKOWN1BzOFy2C07_pad-11" x="-43180" y="16510"/><use xlink:href="#F6ezDNKOWN1BzOFy2C07_pad-14" x="3849.87" y="-6499.86"/><use xlink:href="#F6ezDNKOWN1BzOFy2C07_pad-14" x="-2540" y="-3919.98"/><use xlink:href="#F6ezDNKOWN1BzOFy2C07_pad-14" x="-3810" y="6459.98"/><use xlink:href="#F6ezDNKOWN1BzOFy2C07_pad-14" x="2540" y="3919.98"/><use xlink:href="#F6ezDNKOWN1BzOFy2C07_pad-15" x="24999.95" y="5999.98"/><use xlink:href="#F6ezDNKOWN1BzOFy2C07_pad-16" x="24999.95" y="3999.99"/><use xlink:href="#F6ezDNKOWN1BzOFy2C07_pad-15" x="24999.95" y="11999.97"/><use xlink:href="#F6ezDNKOWN1BzOFy2C07_pad-15" x="24999.95" y="9999.97"/><use xlink:href="#F6ezDNKOWN1BzOFy2C07_pad-12" x="-40639.92" y="25399.94"/><use xlink:href="#F6ezDNKOWN1BzOFy2C07_pad-11" x="-38100" y="25400"/><use xlink:href="#F6ezDNKOWN1BzOFy2C07_pad-11" x="-35560" y="25400"/><use xlink:href="#F6ezDNKOWN1BzOFy2C07_pad-11" x="-33020" y="25400"/><use xlink:href="#F6ezDNKOWN1BzOFy2C07_pad-11" x="-30480" y="25400"/><use xlink:href="#F6ezDNKOWN1BzOFy2C07_pad-17" x="34999.93" y="0"/><use xlink:href="#F6ezDNKOWN1BzOFy2C07_pad-18" x="35124.89" y="15999.96"/><use xlink:href="#F6ezDNKOWN1BzOFy2C07_pad-18" x="35124.89" y="-15999.96"/><use xlink:href="#F6ezDNKOWN1BzOFy2C07_pad-18" x="-35625.02" y="-15999.96"/><use xlink:href="#F6ezDNKOWN1BzOFy2C07_pad-18" x="-35625.02" y="15999.96"/><use xlink:href="#F6ezDNKOWN1BzOFy2C07_pad-11" x="40640" y="6539.99"/><use xlink:href="#F6ezDNKOWN1BzOFy2C07_pad-17" x="-34999.93" y="0"/><use xlink:href="#F6ezDNKOWN1BzOFy2C07_pad-19" x="-22249.89" y="23499.82"/><use xlink:href="#F6ezDNKOWN1BzOFy2C07_pad-20" x="20249.89" y="23499.82"/><use xlink:href="#F6ezDNKOWN1BzOFy2C07_pad-21" x="-22249.89" y="-20750.02"/><use xlink:href="#F6ezDNKOWN1BzOFy2C07_pad-22" x="20249.89" y="-20750.02"/><use xlink:href="#F6ezDNKOWN1BzOFy2C07_pad-23" x="-39129.71" y="-28610.05"/><use xlink:href="#F6ezDNKOWN1BzOFy2C07_pad-23" x="-36589.71" y="-28610.05"/><use xlink:href="#F6ezDNKOWN1BzOFy2C07_pad-24" x="-34049.94" y="-28609.95"/><use xlink:href="#F6ezDNKOWN1BzOFy2C07_pad-23" x="-31509.71" y="-28610.05"/><use xlink:href="#F6ezDNKOWN1BzOFy2C07_pad-23" x="-28969.71" y="-28610.05"/><use xlink:href="#F6ezDNKOWN1BzOFy2C07_pad-23" x="-26429.71" y="-28610.05"/><use xlink:href="#F6ezDNKOWN1BzOFy2C07_pad-23" x="-23889.71" y="-28610.05"/><use xlink:href="#F6ezDNKOWN1BzOFy2C07_pad-24" x="-21349.97" y="-28609.95"/><use xlink:href="#F6ezDNKOWN1BzOFy2C07_pad-23" x="-18809.96" y="-28610.05"/><use xlink:href="#F6ezDNKOWN1BzOFy2C07_pad-23" x="-16269.96" y="-28610.05"/><use xlink:href="#F6ezDNKOWN1BzOFy2C07_pad-23" x="9130.03" y="-28610.05"/><use xlink:href="#F6ezDNKOWN1BzOFy2C07_pad-23" x="6590.03" y="-28610.05"/><use xlink:href="#F6ezDNKOWN1BzOFy2C07_pad-24" x="4049.97" y="-28609.95"/><use xlink:href="#F6ezDNKOWN1BzOFy2C07_pad-23" x="1510.03" y="-28610.05"/><use xlink:href="#F6ezDNKOWN1BzOFy2C07_pad-23" x="-1029.96" y="-28610.05"/><use xlink:href="#F6ezDNKOWN1BzOFy2C07_pad-23" x="-3569.96" y="-28610.05"/><use xlink:href="#F6ezDNKOWN1BzOFy2C07_pad-23" x="-6109.96" y="-28610.05"/><use xlink:href="#F6ezDNKOWN1BzOFy2C07_pad-24" x="-8649.99" y="-28609.95"/><use xlink:href="#F6ezDNKOWN1BzOFy2C07_pad-23" x="-11189.96" y="-28610.05"/><use xlink:href="#F6ezDNKOWN1BzOFy2C07_pad-23" x="-13729.96" y="-28610.05"/><use xlink:href="#F6ezDNKOWN1BzOFy2C07_pad-23" x="-13729.96" y="-46389.79"/><use xlink:href="#F6ezDNKOWN1BzOFy2C07_pad-23" x="-11189.96" y="-46389.79"/><use xlink:href="#F6ezDNKOWN1BzOFy2C07_pad-24" x="-8649.99" y="-46389.89"/><use xlink:href="#F6ezDNKOWN1BzOFy2C07_pad-23" x="-6109.96" y="-46389.79"/><use xlink:href="#F6ezDNKOWN1BzOFy2C07_pad-23" x="-3569.96" y="-46389.79"/><use xlink:href="#F6ezDNKOWN1BzOFy2C07_pad-23" x="-1029.96" y="-46389.79"/><use xlink:href="#F6ezDNKOWN1BzOFy2C07_pad-23" x="1510.03" y="-46389.79"/><use xlink:href="#F6ezDNKOWN1BzOFy2C07_pad-24" x="4049.97" y="-46389.89"/><use xlink:href="#F6ezDNKOWN1BzOFy2C07_pad-23" x="6590.03" y="-46389.79"/><use xlink:href="#F6ezDNKOWN1BzOFy2C07_pad-23" x="9130.03" y="-46389.79"/><use xlink:href="#F6ezDNKOWN1BzOFy2C07_pad-23" x="-16269.96" y="-46389.79"/><use xlink:href="#F6ezDNKOWN1BzOFy2C07_pad-23" x="-18809.96" y="-46389.79"/><use xlink:href="#F6ezDNKOWN1BzOFy2C07_pad-24" x="-21349.97" y="-46389.89"/><use xlink:href="#F6ezDNKOWN1BzOFy2C07_pad-23" x="-23889.71" y="-46389.79"/><use xlink:href="#F6ezDNKOWN1BzOFy2C07_pad-23" x="-26429.71" y="-46389.79"/><use xlink:href="#F6ezDNKOWN1BzOFy2C07_pad-23" x="-28969.71" y="-46389.79"/><use xlink:href="#F6ezDNKOWN1BzOFy2C07_pad-23" x="-31509.71" y="-46389.79"/><use xlink:href="#F6ezDNKOWN1BzOFy2C07_pad-24" x="-34049.94" y="-46389.89"/><use xlink:href="#F6ezDNKOWN1BzOFy2C07_pad-23" x="-36589.71" y="-46389.79"/><use xlink:href="#F6ezDNKOWN1BzOFy2C07_pad-23" x="-39129.71" y="-46389.79"/><use xlink:href="#F6ezDNKOWN1BzOFy2C07_pad-13" x="40639.84" y="4000.01"/><use xlink:href="#F6ezDNKOWN1BzOFy2C07_pad-25" x="28500.06" y="-30399.98"/><use xlink:href="#F6ezDNKOWN1BzOFy2C07_pad-25" x="28500.06" y="-44399.96"/></g><g id="xJ34lHRBWvyOdLc7338r_bottom_copper"><path d="M -40639.92 25399.94 -40639.92 19049.94" fill="none" stroke-width="254"/><path d="M 4050.05 -28610.05 4050.05 -28467.55" fill="none" stroke-width="170"/><path d="M -16268.7 -28610.55 -16268.7 -27269.44 -15240 -26240.73 -15240 -11000.73 M -35560 25400 -15240 5080 -15240 -11000.73 M -11189.96 -28610.05 -11189.96 6109.96" fill="none" stroke-width="254"/><path d="M -39128.7 -28610.55 -43942 -23797.26 -43942 -5842 -41910 -3810" fill="none" stroke-width="170"/><path d="M -41910 -6350 -41910 -20750.02 -34049.96 -28610.05 M 24999.97 9999.97 24999.97 5999.98 M 4050.03 -28610.05 3849.87 -28409.89 M -2540 -3920 -2650 -3810 -6350 -3810 -7620 -5080 -7620 -22859.94 -3569.94 -26909.97 -3569.94 -28610.02 M -6109.96 -28610.05 -6109.96 -25639.95 -8889.97 -22859.94 -8889.97 3810 -6350 6349.97 -5080 6349.97 M -13729.96 -28610.05 -13729.96 6109.96 -33020 25400 M -30480 25400 -11189.96 6109.96 M -13728.7 -46390.55 -25146 -34973.26 -25146 -27853.63 -28999.18 -24000.45 -28999.18 2329.18 -43180 16510 M -41910 6350 -34290 6350 -29508.95 1568.95 -29508.95 -25530.8 -26429.71 -28610.05 M -41910 3810 -40639.92 3810 -40004.92 3175 -40004.92 -17574.84 -28969.71 -28610.05 M 30480 -23494.94 33019.92 -23494.94 34289.92 -24764.94 34289.92 -25399.94 M 30226 -22860 35559.92 -22860 M 30226 -22860 20701 -32385 6350 -32385 M -6108.7 -46390.55 -6108.7 -45481.23 6350 -33020 20955 -33020 30480 -23495 M 36829.92 -25399.94 36829.92 -24130 35559.92 -22860 M 4050.03 -28610.05 4050.03 -30085.03 6350 -32385 M 6591.29 -28610.55 8275.31 -26924 25400 -26924 32004 -20320 40640 -20320 M 3860.79 -6502.39 3999.76 -6350 6350 -6350 8889.97 -8889.97 8890 -23770.08 4038.6 -28600.39 M 24999.97 3999.99 2620.03 3999.99 2540.02 3919.98 M 6350 -6350 6350 3999.99 M 24999.95 3999.99 40639.74 3999.99 M -18808.7 -28610.55 -18808.7 -27000.2 -16510 -24701.5 -16510 3810 -38100 25400" fill="none" stroke-width="254"/><use xlink:href="#FqPQdEIlystuQUja6whf_pad-12" x="40640" y="-25400"/><use xlink:href="#FqPQdEIlystuQUja6whf_pad-13" x="40640" y="-22860"/><use xlink:href="#FqPQdEIlystuQUja6whf_pad-13" x="40640" y="-20320"/><use xlink:href="#FqPQdEIlystuQUja6whf_pad-12" x="36829.74" y="-25400"/><use xlink:href="#FqPQdEIlystuQUja6whf_pad-13" x="34290" y="-25400"/><use xlink:href="#FqPQdEIlystuQUja6whf_pad-13" x="31750" y="-25400"/><use xlink:href="#FqPQdEIlystuQUja6whf_pad-13" x="-41910" y="1270"/><use xlink:href="#FqPQdEIlystuQUja6whf_pad-13" x="-41910" y="3810"/><use xlink:href="#FqPQdEIlystuQUja6whf_pad-13" x="-41910" y="6350"/><use xlink:href="#FqPQdEIlystuQUja6whf_pad-13" x="-41910" y="-1270"/><use xlink:href="#FqPQdEIlystuQUja6whf_pad-13" x="-41910" y="-3810"/><use xlink:href="#FqPQdEIlystuQUja6whf_pad-12" x="-41910" y="-6350"/><use xlink:href="#FqPQdEIlystuQUja6whf_pad-13" x="-43180" y="24130"/><use xlink:href="#FqPQdEIlystuQUja6whf_pad-13" x="-43180" y="21590"/><use xlink:href="#FqPQdEIlystuQUja6whf_pad-12" x="-43180" y="19050"/><use xlink:href="#FqPQdEIlystuQUja6whf_pad-13" x="-43180" y="16510"/><use xlink:href="#FqPQdEIlystuQUja6whf_pad-14" x="3849.87" y="-6499.86"/><use xlink:href="#FqPQdEIlystuQUja6whf_pad-14" x="-2540" y="-3919.98"/><use xlink:href="#FqPQdEIlystuQUja6whf_pad-14" x="-3810" y="6459.98"/><use xlink:href="#FqPQdEIlystuQUja6whf_pad-14" x="2540" y="3919.98"/><use xlink:href="#FqPQdEIlystuQUja6whf_pad-15" x="24999.95" y="5999.98"/><use xlink:href="#FqPQdEIlystuQUja6whf_pad-16" x="24999.95" y="3999.99"/><use xlink:href="#FqPQdEIlystuQUja6whf_pad-15" x="24999.95" y="11999.97"/><use xlink:href="#FqPQdEIlystuQUja6whf_pad-15" x="24999.95" y="9999.97"/><use xlink:href="#FqPQdEIlystuQUja6whf_pad-12" x="-40640" y="25400"/><use xlink:href="#FqPQdEIlystuQUja6whf_pad-13" x="-38100" y="25400"/><use xlink:href="#FqPQdEIlystuQUja6whf_pad-13" x="-35560" y="25400"/><use xlink:href="#FqPQdEIlystuQUja6whf_pad-13" x="-33020" y="25400"/><use xlink:href="#FqPQdEIlystuQUja6whf_pad-13" x="-30480" y="25400"/><use xlink:href="#FqPQdEIlystuQUja6whf_pad-17" x="34999.93" y="0"/><use xlink:href="#FqPQdEIlystuQUja6whf_pad-18" x="35124.89" y="15999.96"/><use xlink:href="#FqPQdEIlystuQUja6whf_pad-18" x="35124.89" y="-15999.96"/><use xlink:href="#FqPQdEIlystuQUja6whf_pad-18" x="-35625.02" y="-15999.96"/><use xlink:href="#FqPQdEIlystuQUja6whf_pad-18" x="-35625.02" y="15999.96"/><use xlink:href="#FqPQdEIlystuQUja6whf_pad-13" x="40640" y="6539.99"/><use xlink:href="#FqPQdEIlystuQUja6whf_pad-17" x="-34999.93" y="0"/><use xlink:href="#FqPQdEIlystuQUja6whf_pad-19" x="-22249.89" y="23499.82"/><use xlink:href="#FqPQdEIlystuQUja6whf_pad-20" x="20249.89" y="23499.82"/><use xlink:href="#FqPQdEIlystuQUja6whf_pad-21" x="-22249.89" y="-20750.02"/><use xlink:href="#FqPQdEIlystuQUja6whf_pad-22" x="20249.89" y="-20750.02"/><use xlink:href="#FqPQdEIlystuQUja6whf_pad-23" x="-39129.71" y="-28610.05"/><use xlink:href="#FqPQdEIlystuQUja6whf_pad-23" x="-36589.71" y="-28610.05"/><use xlink:href="#FqPQdEIlystuQUja6whf_pad-24" x="-34049.96" y="-28610.05"/><use xlink:href="#FqPQdEIlystuQUja6whf_pad-23" x="-31509.71" y="-28610.05"/><use xlink:href="#FqPQdEIlystuQUja6whf_pad-23" x="-28969.71" y="-28610.05"/><use xlink:href="#FqPQdEIlystuQUja6whf_pad-23" x="-26429.71" y="-28610.05"/><use xlink:href="#FqPQdEIlystuQUja6whf_pad-23" x="-23889.71" y="-28610.05"/><use xlink:href="#FqPQdEIlystuQUja6whf_pad-24" x="-21349.96" y="-28610.05"/><use xlink:href="#FqPQdEIlystuQUja6whf_pad-23" x="-18809.96" y="-28610.05"/><use xlink:href="#FqPQdEIlystuQUja6whf_pad-23" x="-16269.96" y="-28610.05"/><use xlink:href="#FqPQdEIlystuQUja6whf_pad-23" x="9130.03" y="-28610.05"/><use xlink:href="#FqPQdEIlystuQUja6whf_pad-23" x="6590.03" y="-28610.05"/><use xlink:href="#FqPQdEIlystuQUja6whf_pad-24" x="4050.03" y="-28610.05"/><use xlink:href="#FqPQdEIlystuQUja6whf_pad-23" x="1510.03" y="-28610.05"/><use xlink:href="#FqPQdEIlystuQUja6whf_pad-23" x="-1029.96" y="-28610.05"/><use xlink:href="#FqPQdEIlystuQUja6whf_pad-23" x="-3569.96" y="-28610.05"/><use xlink:href="#FqPQdEIlystuQUja6whf_pad-23" x="-6109.96" y="-28610.05"/><use xlink:href="#FqPQdEIlystuQUja6whf_pad-24" x="-8649.96" y="-28610.05"/><use xlink:href="#FqPQdEIlystuQUja6whf_pad-23" x="-11189.96" y="-28610.05"/><use xlink:href="#FqPQdEIlystuQUja6whf_pad-23" x="-13729.96" y="-28610.05"/><use xlink:href="#FqPQdEIlystuQUja6whf_pad-23" x="-13729.96" y="-46389.79"/><use xlink:href="#FqPQdEIlystuQUja6whf_pad-23" x="-11189.96" y="-46389.79"/><use xlink:href="#FqPQdEIlystuQUja6whf_pad-24" x="-8649.96" y="-46389.79"/><use xlink:href="#FqPQdEIlystuQUja6whf_pad-23" x="-6109.96" y="-46389.79"/><use xlink:href="#FqPQdEIlystuQUja6whf_pad-23" x="-3569.96" y="-46389.79"/><use xlink:href="#FqPQdEIlystuQUja6whf_pad-23" x="-1029.96" y="-46389.79"/><use xlink:href="#FqPQdEIlystuQUja6whf_pad-23" x="1510.03" y="-46389.79"/><use xlink:href="#FqPQdEIlystuQUja6whf_pad-24" x="4050.03" y="-46389.79"/><use xlink:href="#FqPQdEIlystuQUja6whf_pad-23" x="6590.03" y="-46389.79"/><use xlink:href="#FqPQdEIlystuQUja6whf_pad-23" x="9130.03" y="-46389.79"/><use xlink:href="#FqPQdEIlystuQUja6whf_pad-23" x="-16269.96" y="-46389.79"/><use xlink:href="#FqPQdEIlystuQUja6whf_pad-23" x="-18809.96" y="-46389.79"/><use xlink:href="#FqPQdEIlystuQUja6whf_pad-24" x="-21349.96" y="-46389.79"/><use xlink:href="#FqPQdEIlystuQUja6whf_pad-23" x="-23889.71" y="-46389.79"/><use xlink:href="#FqPQdEIlystuQUja6whf_pad-23" x="-26429.71" y="-46389.79"/><use xlink:href="#FqPQdEIlystuQUja6whf_pad-23" x="-28969.71" y="-46389.79"/><use xlink:href="#FqPQdEIlystuQUja6whf_pad-23" x="-31509.71" y="-46389.79"/><use xlink:href="#FqPQdEIlystuQUja6whf_pad-24" x="-34049.96" y="-46389.79"/><use xlink:href="#FqPQdEIlystuQUja6whf_pad-23" x="-36589.71" y="-46389.79"/><use xlink:href="#FqPQdEIlystuQUja6whf_pad-23" x="-39129.71" y="-46389.79"/><use xlink:href="#FqPQdEIlystuQUja6whf_pad-12" x="40639.74" y="3999.99"/><use xlink:href="#FqPQdEIlystuQUja6whf_pad-25" x="28500.06" y="-30399.98"/><use xlink:href="#FqPQdEIlystuQUja6whf_pad-25" x="28500.06" y="-44399.96"/><use xlink:href="#FqPQdEIlystuQUja6whf_pad-26" x="-40639.92" y="19049.94"/></g><g id="xJ34lHRBWvyOdLc7338r_bottom_drill1"><use xlink:href="#_EgzZwi51HtbuenaufAd_pad-1" x="5080" y="-9000"/><use xlink:href="#_EgzZwi51HtbuenaufAd_pad-1" x="-5080" y="-9000"/><use xlink:href="#_EgzZwi51HtbuenaufAd_pad-1" x="-5080" y="9000"/><use xlink:href="#_EgzZwi51HtbuenaufAd_pad-1" x="5080" y="9000"/><path d="M 32925 16000 37325 16000 M 32925 -16000 37325 -16000 M -37825 -16000 -33425 -16000 M -37825 16000 -33425 16000" fill="none" stroke-width="2351"/><use xlink:href="#_EgzZwi51HtbuenaufAd_pad-3" x="0" y="-9000"/><use xlink:href="#_EgzZwi51HtbuenaufAd_pad-3" x="0" y="9000"/><path d="M 28000 -30400 29000 -30400 M 28000 -44400 29000 -44400" fill="none" stroke-width="4000"/><path d="M 33075 0 36925 0 M -36925 0 -33075 0" fill="none" stroke-width="4250"/><path d="M -24534 24517 -19966 22483 M 17966 22483 22534 24517 M -24503 -21500 -19996 -20000 M 17878 -19961 22622 -21539" fill="none" stroke-width="4501"/></g><g id="xJ34lHRBWvyOdLc7338r_bottom_drill2"><use xlink:href="#iU__VGsYGAE1t33CzdsC_pad-1" x="-40640" y="19050"/></g><g id="xJ34lHRBWvyOdLc7338r_bottom_drill3"><use xlink:href="#lNKQj-dYJvuDd15jv4cD_pad-1" x="-40640" y="19050"/><use xlink:href="#lNKQj-dYJvuDd15jv4cD_pad-2" x="25000" y="6000"/><use xlink:href="#lNKQj-dYJvuDd15jv4cD_pad-2" x="25000" y="4000"/><use xlink:href="#lNKQj-dYJvuDd15jv4cD_pad-2" x="25000" y="12000"/><use xlink:href="#lNKQj-dYJvuDd15jv4cD_pad-2" x="25000" y="10000"/><use xlink:href="#lNKQj-dYJvuDd15jv4cD_pad-3" x="-39130" y="-28610"/><use xlink:href="#lNKQj-dYJvuDd15jv4cD_pad-3" x="-36590" y="-28610"/><use xlink:href="#lNKQj-dYJvuDd15jv4cD_pad-3" x="-34050" y="-28610"/><use xlink:href="#lNKQj-dYJvuDd15jv4cD_pad-3" x="-31510" y="-28610"/><use xlink:href="#lNKQj-dYJvuDd15jv4cD_pad-3" x="-28970" y="-28610"/><use xlink:href="#lNKQj-dYJvuDd15jv4cD_pad-3" x="-26430" y="-28610"/><use xlink:href="#lNKQj-dYJvuDd15jv4cD_pad-3" x="-23890" y="-28610"/><use xlink:href="#lNKQj-dYJvuDd15jv4cD_pad-3" x="-21350" y="-28610"/><use xlink:href="#lNKQj-dYJvuDd15jv4cD_pad-3" x="-18810" y="-28610"/><use xlink:href="#lNKQj-dYJvuDd15jv4cD_pad-3" x="-16270" y="-28610"/><use xlink:href="#lNKQj-dYJvuDd15jv4cD_pad-3" x="9130" y="-28610"/><use xlink:href="#lNKQj-dYJvuDd15jv4cD_pad-3" x="6590" y="-28610"/><use xlink:href="#lNKQj-dYJvuDd15jv4cD_pad-3" x="4050" y="-28610"/><use xlink:href="#lNKQj-dYJvuDd15jv4cD_pad-3" x="1510" y="-28610"/><use xlink:href="#lNKQj-dYJvuDd15jv4cD_pad-3" x="-1030" y="-28610"/><use xlink:href="#lNKQj-dYJvuDd15jv4cD_pad-3" x="-3570" y="-28610"/><use xlink:href="#lNKQj-dYJvuDd15jv4cD_pad-3" x="-6110" y="-28610"/><use xlink:href="#lNKQj-dYJvuDd15jv4cD_pad-3" x="-8650" y="-28610"/><use xlink:href="#lNKQj-dYJvuDd15jv4cD_pad-3" x="-11190" y="-28610"/><use xlink:href="#lNKQj-dYJvuDd15jv4cD_pad-3" x="-13730" y="-28610"/><use xlink:href="#lNKQj-dYJvuDd15jv4cD_pad-3" x="-13730" y="-46390"/><use xlink:href="#lNKQj-dYJvuDd15jv4cD_pad-3" x="-11190" y="-46390"/><use xlink:href="#lNKQj-dYJvuDd15jv4cD_pad-3" x="-8650" y="-46390"/><use xlink:href="#lNKQj-dYJvuDd15jv4cD_pad-3" x="-6110" y="-46390"/><use xlink:href="#lNKQj-dYJvuDd15jv4cD_pad-3" x="-3570" y="-46390"/><use xlink:href="#lNKQj-dYJvuDd15jv4cD_pad-3" x="-1030" y="-46390"/><use xlink:href="#lNKQj-dYJvuDd15jv4cD_pad-3" x="1510" y="-46390"/><use xlink:href="#lNKQj-dYJvuDd15jv4cD_pad-3" x="4050" y="-46390"/><use xlink:href="#lNKQj-dYJvuDd15jv4cD_pad-3" x="6590" y="-46390"/><use xlink:href="#lNKQj-dYJvuDd15jv4cD_pad-3" x="9130" y="-46390"/><use xlink:href="#lNKQj-dYJvuDd15jv4cD_pad-3" x="-16270" y="-46390"/><use xlink:href="#lNKQj-dYJvuDd15jv4cD_pad-3" x="-18810" y="-46390"/><use xlink:href="#lNKQj-dYJvuDd15jv4cD_pad-3" x="-21350" y="-46390"/><use xlink:href="#lNKQj-dYJvuDd15jv4cD_pad-3" x="-23890" y="-46390"/><use xlink:href="#lNKQj-dYJvuDd15jv4cD_pad-3" x="-26430" y="-46390"/><use xlink:href="#lNKQj-dYJvuDd15jv4cD_pad-3" x="-28970" y="-46390"/><use xlink:href="#lNKQj-dYJvuDd15jv4cD_pad-3" x="-31510" y="-46390"/><use xlink:href="#lNKQj-dYJvuDd15jv4cD_pad-3" x="-34050" y="-46390"/><use xlink:href="#lNKQj-dYJvuDd15jv4cD_pad-3" x="-36590" y="-46390"/><use xlink:href="#lNKQj-dYJvuDd15jv4cD_pad-3" x="-39130" y="-46390"/><use xlink:href="#lNKQj-dYJvuDd15jv4cD_pad-4" x="40640" y="-25400"/><use xlink:href="#lNKQj-dYJvuDd15jv4cD_pad-4" x="40640" y="-22860"/><use xlink:href="#lNKQj-dYJvuDd15jv4cD_pad-4" x="40640" y="-20320"/><use xlink:href="#lNKQj-dYJvuDd15jv4cD_pad-4" x="36830" y="-25400"/><use xlink:href="#lNKQj-dYJvuDd15jv4cD_pad-4" x="34290" y="-25400"/><use xlink:href="#lNKQj-dYJvuDd15jv4cD_pad-4" x="31750" y="-25400"/><use xlink:href="#lNKQj-dYJvuDd15jv4cD_pad-4" x="-41910" y="1270"/><use xlink:href="#lNKQj-dYJvuDd15jv4cD_pad-4" x="-41910" y="3810"/><use xlink:href="#lNKQj-dYJvuDd15jv4cD_pad-4" x="-41910" y="6350"/><use xlink:href="#lNKQj-dYJvuDd15jv4cD_pad-4" x="-41910" y="-1270"/><use xlink:href="#lNKQj-dYJvuDd15jv4cD_pad-4" x="-41910" y="-3810"/><use xlink:href="#lNKQj-dYJvuDd15jv4cD_pad-4" x="-41910" y="-6350"/><use xlink:href="#lNKQj-dYJvuDd15jv4cD_pad-4" x="-43180" y="24130"/><use xlink:href="#lNKQj-dYJvuDd15jv4cD_pad-4" x="-43180" y="21590"/><use xlink:href="#lNKQj-dYJvuDd15jv4cD_pad-4" x="-43180" y="19050"/><use xlink:href="#lNKQj-dYJvuDd15jv4cD_pad-4" x="-43180" y="16510"/><use xlink:href="#lNKQj-dYJvuDd15jv4cD_pad-4" x="-40640" y="25400"/><use xlink:href="#lNKQj-dYJvuDd15jv4cD_pad-4" x="-38100" y="25400"/><use xlink:href="#lNKQj-dYJvuDd15jv4cD_pad-4" x="-35560" y="25400"/><use xlink:href="#lNKQj-dYJvuDd15jv4cD_pad-4" x="-33020" y="25400"/><use xlink:href="#lNKQj-dYJvuDd15jv4cD_pad-4" x="-30480" y="25400"/><use xlink:href="#lNKQj-dYJvuDd15jv4cD_pad-4" x="40640" y="6540"/><use xlink:href="#lNKQj-dYJvuDd15jv4cD_pad-4" x="40640" y="4000"/><path d="M 3847 -6500 3852 -6500 M -2543 -3920 -2537 -3920 M -3807 6460 -3813 6460 M 2543 3920 2537 3920" fill="none" stroke-width="1524"/></g><clipPath id="xJ34lHRBWvyOdLc7338r_bottom_outline"><path d="M -45001.18 0 -45001.18 27305 42672 27305 42672 -27178 31750 -27178 31750 -48000.92 -28999.18 -48000.92 -45001.18 -48000.92 -45001.18 0" fill="none" stroke-width="254"/></clipPath><mask id="xJ34lHRBWvyOdLc7338r_bottom_mech-mask"><g fill="#000" stroke="#000"><rect x="-45001.18" y="-48000.92" width="87673.18" height="75305.92" fill="#fff"/><use xlink:href="#xJ34lHRBWvyOdLc7338r_bottom_drill1"/><use xlink:href="#xJ34lHRBWvyOdLc7338r_bottom_drill2"/><use xlink:href="#xJ34lHRBWvyOdLc7338r_bottom_drill3"/></g></mask><mask id="xJ34lHRBWvyOdLc7338r_bottom_cf-mask"><g fill="#fff" stroke="#fff"><use xlink:href="#xJ34lHRBWvyOdLc7338r_bottom_soldermask"/></g></mask><mask id="xJ34lHRBWvyOdLc7338r_bottom_sm-mask"><g fill="#000" stroke="#000"><rect x="-45001.18" y="-48000.92" width="87673.18" height="75305.92" fill="#fff"/><use xlink:href="#xJ34lHRBWvyOdLc7338r_bottom_soldermask"/></g></mask></defs><g transform="translate(0,-20695.92) scale(1,-1)"><g mask="url(#xJ34lHRBWvyOdLc7338r_bottom_mech-mask)" clip-path="url(#xJ34lHRBWvyOdLc7338r_bottom_outline)" transform="translate(-2329.1800000000076,0) scale(-1,1)"><rect x="-45001.18" y="-48000.92" width="87673.18" height="75305.92" fill="currentColor" class="xJ34lHRBWvyOdLc7338r_fr4"/><use xlink:href="#xJ34lHRBWvyOdLc7338r_bottom_copper" fill="currentColor" stroke="currentColor" class="xJ34lHRBWvyOdLc7338r_cu"/><use xlink:href="#xJ34lHRBWvyOdLc7338r_bottom_copper" fill="currentColor" stroke="currentColor" class="xJ34lHRBWvyOdLc7338r_cf" mask="url(#xJ34lHRBWvyOdLc7338r_bottom_cf-mask)"/><g mask="url(#xJ34lHRBWvyOdLc7338r_bottom_sm-mask)"><rect x="-45001.18" y="-48000.92" width="87673.18" height="75305.92" fill="currentColor" class="xJ34lHRBWvyOdLc7338r_sm"/></g></g></g></svg>