<svg version="1.1" xmlns="http://www.w3.org/2000/svg" xmlns:xlink="http://www.w3.org/1999/xlink" stroke-linecap="round" stroke-linejoin="round" stroke-width="0" fill-rule="evenodd" width="78.1mm" height="73.1675mm" viewBox="-39050 -46400 78100 73167.5" id="_EgzZwi51HtbuenaufAd"><defs><circle cx="0" cy="0" r="850" id="_EgzZwi51HtbuenaufAd_pad-1"/><circle cx="0" cy="0" r="1950" id="_EgzZwi51HtbuenaufAd_pad-3"/></defs><g transform="translate(0,-19632.5) scale(1,-1)" fill="currentColor" stroke="currentColor"><use xlink:href="#_EgzZwi51HtbuenaufAd_pad-1" x="5080" y="-9000"/><use xlink:href="#_EgzZwi51HtbuenaufAd_pad-1" x="-5080" y="-9000"/><use xlink:href="#_EgzZwi51HtbuenaufAd_pad-1" x="-5080" y="9000"/><use xlink:href="#_EgzZwi51HtbuenaufAd_pad-1" x="5080" y="9000"/><path d="M 32925 16000 37325 16000 M 32925 -16000 37325 -16000 M -37825 -16000 -33425 -16000 M -37825 16000 -33425 16000" fill="none" stroke-width="2351"/><use xlink:href="#_EgzZwi51HtbuenaufAd_pad-3" x="0" y="-9000"/><use xlink:href="#_EgzZwi51HtbuenaufAd_pad-3" x="0" y="9000"/><path d="M 28000 -30400 29000 -30400 M 28000 -44400 29000 -44400" fill="none" stroke-width="4000"/><path d="M 33075 0 36925 0 M -36925 0 -33075 0" fill="none" stroke-width="4250"/><path d="M -24534 24517 -19966 22483 M 17966 22483 22534 24517 M -24503 -21500 -19996 -20000 M 17878 -19961 22622 -21539" fill="none" stroke-width="4501"/></g></svg>