<svg version="1.1" xmlns="http://www.w3.org/2000/svg" xmlns:xlink="http://www.w3.org/1999/xlink" stroke-linecap="round" stroke-linejoin="round" stroke-width="0" fill-rule="evenodd" width="84.921mm" height="72.8405mm" viewBox="-43730.5 -46890 84921 72840.5" id="lNKQj-dYJvuDd15jv4cD"><defs><circle cx="0" cy="0" r="155" id="lNKQj-dYJvuDd15jv4cD_pad-1"/><circle cx="0" cy="0" r="457.5" id="lNKQj-dYJvuDd15jv4cD_pad-2"/><circle cx="0" cy="0" r="500" id="lNKQj-dYJvuDd15jv4cD_pad-3"/><circle cx="0" cy="0" r="550.5" id="lNKQj-dYJvuDd15jv4cD_pad-4"/></defs><g transform="translate(0,-20939.5) scale(1,-1)" fill="currentColor" stroke="currentColor"><use xlink:href="#lNKQj-dYJvuDd15jv4cD_pad-1" x="-40640" y="19050"/><use xlink:href="#lNKQj-dYJvuDd15jv4cD_pad-2" x="25000" y="6000"/><use xlink:href="#lNKQj-dYJvuDd15jv4cD_pad-2" x="25000" y="4000"/><use xlink:href="#lNKQj-dYJvuDd15jv4cD_pad-2" x="25000" y="12000"/><use xlink:href="#lNKQj-dYJvuDd15jv4cD_pad-2" x="25000" y="10000"/><use xlink:href="#lNKQj-dYJvuDd15jv4cD_pad-3" x="-39130" y="-28610"/><use xlink:href="#lNKQj-dYJvuDd15jv4cD_pad-3" x="-36590" y="-28610"/><use xlink:href="#lNKQj-dYJvuDd15jv4cD_pad-3" x="-34050" y="-28610"/><use xlink:href="#lNKQj-dYJvuDd15jv4cD_pad-3" x="-31510" y="-28610"/><use xlink:href="#lNKQj-dYJvuDd15jv4cD_pad-3" x="-28970" y="-28610"/><use xlink:href="#lNKQj-dYJvuDd15jv4cD_pad-3" x="-26430" y="-28610"/><use xlink:href="#lNKQj-dYJvuDd15jv4cD_pad-3" x="-23890" y="-28610"/><use xlink:href="#lNKQj-dYJvuDd15jv4cD_pad-3" x="-21350" y="-28610"/><use xlink:href="#lNKQj-dYJvuDd15jv4cD_pad-3" x="-18810" y="-28610"/><use xlink:href="#lNKQj-dYJvuDd15jv4cD_pad-3" x="-16270" y="-28610"/><use xlink:href="#lNKQj-dYJvuDd15jv4cD_pad-3" x="9130" y="-28610"/><use xlink:href="#lNKQj-dYJvuDd15jv4cD_pad-3" x="6590" y="-28610"/><use xlink:href="#lNKQj-dYJvuDd15jv4cD_pad-3" x="4050" y="-28610"/><use xlink:href="#lNKQj-dYJvuDd15jv4cD_pad-3" x="1510" y="-28610"/><use xlink:href="#lNKQj-dYJvuDd15jv4cD_pad-3" x="-1030" y="-28610"/><use xlink:href="#lNKQj-dYJvuDd15jv4cD_pad-3" x="-3570" y="-28610"/><use xlink:href="#lNKQj-dYJvuDd15jv4cD_pad-3" x="-6110" y="-28610"/><use xlink:href="#lNKQj-dYJvuDd15jv4cD_pad-3" x="-8650" y="-28610"/><use xlink:href="#lNKQj-dYJvuDd15jv4cD_pad-3" x="-11190" y="-28610"/><use xlink:href="#lNKQj-dYJvuDd15jv4cD_pad-3" x="-13730" y="-28610"/><use xlink:href="#lNKQj-dYJvuDd15jv4cD_pad-3" x="-13730" y="-46390"/><use xlink:href="#lNKQj-dYJvuDd15jv4cD_pad-3" x="-11190" y="-46390"/><use xlink:href="#lNKQj-dYJvuDd15jv4cD_pad-3" x="-8650" y="-46390"/><use xlink:href="#lNKQj-dYJvuDd15jv4cD_pad-3" x="-6110" y="-46390"/><use xlink:href="#lNKQj-dYJvuDd15jv4cD_pad-3" x="-3570" y="-46390"/><use xlink:href="#lNKQj-dYJvuDd15jv4cD_pad-3" x="-1030" y="-46390"/><use xlink:href="#lNKQj-dYJvuDd15jv4cD_pad-3" x="1510" y="-46390"/><use xlink:href="#lNKQj-dYJvuDd15jv4cD_pad-3" x="4050" y="-46390"/><use xlink:href="#lNKQj-dYJvuDd15jv4cD_pad-3" x="6590" y="-46390"/><use xlink:href="#lNKQj-dYJvuDd15jv4cD_pad-3" x="9130" y="-46390"/><use xlink:href="#lNKQj-dYJvuDd15jv4cD_pad-3" x="-16270" y="-46390"/><use xlink:href="#lNKQj-dYJvuDd15jv4cD_pad-3" x="-18810" y="-46390"/><use xlink:href="#lNKQj-dYJvuDd15jv4cD_pad-3" x="-21350" y="-46390"/><use xlink:href="#lNKQj-dYJvuDd15jv4cD_pad-3" x="-23890" y="-46390"/><use xlink:href="#lNKQj-dYJvuDd15jv4cD_pad-3" x="-26430" y="-46390"/><use xlink:href="#lNKQj-dYJvuDd15jv4cD_pad-3" x="-28970" y="-46390"/><use xlink:href="#lNKQj-dYJvuDd15jv4cD_pad-3" x="-31510" y="-46390"/><use xlink:href="#lNKQj-dYJvuDd15jv4cD_pad-3" x="-34050" y="-46390"/><use xlink:href="#lNKQj-dYJvuDd15jv4cD_pad-3" x="-36590" y="-46390"/><use xlink:href="#lNKQj-dYJvuDd15jv4cD_pad-3" x="-39130" y="-46390"/><use xlink:href="#lNKQj-dYJvuDd15jv4cD_pad-4" x="40640" y="-25400"/><use xlink:href="#lNKQj-dYJvuDd15jv4cD_pad-4" x="40640" y="-22860"/><use xlink:href="#lNKQj-dYJvuDd15jv4cD_pad-4" x="40640" y="-20320"/><use xlink:href="#lNKQj-dYJvuDd15jv4cD_pad-4" x="36830" y="-25400"/><use xlink:href="#lNKQj-dYJvuDd15jv4cD_pad-4" x="34290" y="-25400"/><use xlink:href="#lNKQj-dYJvuDd15jv4cD_pad-4" x="31750" y="-25400"/><use xlink:href="#lNKQj-dYJvuDd15jv4cD_pad-4" x="-41910" y="1270"/><use xlink:href="#lNKQj-dYJvuDd15jv4cD_pad-4" x="-41910" y="3810"/><use xlink:href="#lNKQj-dYJvuDd15jv4cD_pad-4" x="-41910" y="6350"/><use xlink:href="#lNKQj-dYJvuDd15jv4cD_pad-4" x="-41910" y="-1270"/><use xlink:href="#lNKQj-dYJvuDd15jv4cD_pad-4" x="-41910" y="-3810"/><use xlink:href="#lNKQj-dYJvuDd15jv4cD_pad-4" x="-41910" y="-6350"/><use xlink:href="#lNKQj-dYJvuDd15jv4cD_pad-4" x="-43180" y="24130"/><use xlink:href="#lNKQj-dYJvuDd15jv4cD_pad-4" x="-43180" y="21590"/><use xlink:href="#lNKQj-dYJvuDd15jv4cD_pad-4" x="-43180" y="19050"/><use xlink:href="#lNKQj-dYJvuDd15jv4cD_pad-4" x="-43180" y="16510"/><use xlink:href="#lNKQj-dYJvuDd15jv4cD_pad-4" x="-40640" y="25400"/><use xlink:href="#lNKQj-dYJvuDd15jv4cD_pad-4" x="-38100" y="25400"/><use xlink:href="#lNKQj-dYJvuDd15jv4cD_pad-4" x="-35560" y="25400"/><use xlink:href="#lNKQj-dYJvuDd15jv4cD_pad-4" x="-33020" y="25400"/><use xlink:href="#lNKQj-dYJvuDd15jv4cD_pad-4" x="-30480" y="25400"/><use xlink:href="#lNKQj-dYJvuDd15jv4cD_pad-4" x="40640" y="6540"/><use xlink:href="#lNKQj-dYJvuDd15jv4cD_pad-4" x="40640" y="4000"/><path d="M 3847 -6500 3852 -6500 M -2543 -3920 -2537 -3920 M -3807 6460 -3813 6460 M 2543 3920 2537 3920" fill="none" stroke-width="1524"/></g></svg>