<svg version="1.1" xmlns="http://www.w3.org/2000/svg" xmlns:xlink="http://www.w3.org/1999/xlink" stroke-linecap="round" stroke-linejoin="round" stroke-width="0" fill-rule="evenodd" width="85.92166999999999mm" height="74.00731mm" viewBox="-44230.8 -47240.69 85921.67 74007.31" id="F6ezDNKOWN1BzOFy2C07"><defs><g id="F6ezDNKOWN1BzOFy2C07_pad-10"><circle cx="1000" cy="-1000" r="50.8"/><circle cx="-1000" cy="-1000" r="50.8"/><circle cx="-1000" cy="1000" r="50.8"/><circle cx="1000" cy="1000" r="50.8"/><polygon points="1000,-1050.8 -1000,-1050.8 -1000,-949.2 1000,-949.2"/><polygon points="-949.2,-1000 -949.2,1000 -1050.8,1000 -1050.8,-1000"/><polygon points="-1000,949.2 1000,949.2 1000,1050.8 -1000,1050.8"/><polygon points="1050.8,1000 1050.8,-1000 949.2,-1000 949.2,1000"/><polygon points="1000,-1000 -1000,-1000 -1000,1000 1000,1000"/></g><circle cx="0" cy="0" r="1050.8" id="F6ezDNKOWN1BzOFy2C07_pad-11"/><g id="F6ezDNKOWN1BzOFy2C07_pad-12"><circle cx="-1000" cy="-1000" r="50.8"/><circle cx="-1000" cy="1000" r="50.8"/><circle cx="1000" cy="1000" r="50.8"/><circle cx="1000" cy="-1000" r="50.8"/><polygon points="-949.2,-1000 -949.2,1000 -1050.8,1000 -1050.8,-1000"/><polygon points="-1000,949.2 1000,949.2 1000,1050.8 -1000,1050.8"/><polygon points="1050.8,1000 1050.8,-1000 949.2,-1000 949.2,1000"/><polygon points="1000,-1050.8 -1000,-1050.8 -1000,-949.2 1000,-949.2"/><polygon points="-1000,-1000 -1000,1000 1000,1000 1000,-1000"/></g><g id="F6ezDNKOWN1BzOFy2C07_pad-13"><circle cx="-1000" cy="1000" r="50.8"/><circle cx="1000" cy="1000" r="50.8"/><circle cx="1000" cy="-1000" r="50.8"/><circle cx="-1000" cy="-1000" r="50.8"/><polygon points="-1000,949.2 1000,949.2 1000,1050.8 -1000,1050.8"/><polygon points="1050.8,1000 1050.8,-1000 949.2,-1000 949.2,1000"/><polygon points="1000,-1050.8 -1000,-1050.8 -1000,-949.2 1000,-949.2"/><polygon points="-949.2,-1000 -949.2,1000 -1050.8,1000 -1050.8,-1000"/><polygon points="-1000,1000 1000,1000 1000,-1000 -1000,-1000"/></g><circle cx="0" cy="0" r="1320.8" id="F6ezDNKOWN1BzOFy2C07_pad-14"/><circle cx="0" cy="0" r="812.8" id="F6ezDNKOWN1BzOFy2C07_pad-15"/><g id="F6ezDNKOWN1BzOFy2C07_pad-16"><circle cx="762" cy="762" r="50.8"/><circle cx="762" cy="-762" r="50.8"/><circle cx="-762" cy="-762" r="50.8"/><circle cx="-762" cy="762" r="50.8"/><polygon points="812.8,762 812.8,-762 711.2,-762 711.2,762"/><polygon points="762,-812.8 -762,-812.8 -762,-711.2 762,-711.2"/><polygon points="-711.2,-762 -711.2,762 -812.8,762 -812.8,-762"/><polygon points="-762,711.2 762,711.2 762,812.8 -762,812.8"/><polygon points="762,762 762,-762 -762,-762 -762,762"/></g><rect x="-4049.9919" y="-2125.0021" width="8099.9838" height="4250.0042" rx="2125.0021" ry="2125.0021" id="F6ezDNKOWN1BzOFy2C07_pad-17"/><rect x="-3374.9996" y="-1175.004" width="6749.9992" height="2350.008" rx="1175.004" ry="1175.004" id="F6ezDNKOWN1BzOFy2C07_pad-18"/><g id="F6ezDNKOWN1BzOFy2C07_pad-19"><circle cx="-2283.9" cy="1016.8" r="2250"/><circle cx="2283.9" cy="-1016.8" r="2250"/><polygon points="-3199.01404,-1038.69661 1368.78596,-3072.29661 3199.01404,1038.69661 -1368.78596,3072.29661"/></g><g id="F6ezDNKOWN1BzOFy2C07_pad-20"><circle cx="-2283.9" cy="-1016.8" r="2250"/><circle cx="2283.9" cy="1016.8" r="2250"/><polygon points="-1368.78596,-3072.29661 3199.01404,-1038.69661 1368.78596,3072.29661 -3199.01404,1038.69661"/></g><g id="F6ezDNKOWN1BzOFy2C07_pad-21"><circle cx="-2253.6" cy="-749.7" r="2250"/><circle cx="2253.6" cy="749.7" r="2250"/><polygon points="-1543.36659,-2884.66335 2963.83341,-1385.26335 1543.36659,2884.66335 -2963.83341,1385.26335"/></g><g id="F6ezDNKOWN1BzOFy2C07_pad-22"><circle cx="-2372.2" cy="789.1" r="2250"/><circle cx="2372.2" cy="-789.1" r="2250"/><polygon points="-3082.38934,-1345.87801 1662.01066,-2924.07801 3082.38934,1345.87801 -1662.01066,2924.07801"/></g><circle cx="0" cy="0" r="850.8" id="F6ezDNKOWN1BzOFy2C07_pad-23"/><g id="F6ezDNKOWN1BzOFy2C07_pad-24"><circle cx="800" cy="800" r="50.8"/><circle cx="800" cy="-800" r="50.8"/><circle cx="-800" cy="-800" r="50.8"/><circle cx="-800" cy="800" r="50.8"/><polygon points="850.8,800 850.8,-800 749.2,-800 749.2,800"/><polygon points="800,-850.8 -800,-850.8 -800,-749.2 800,-749.2"/><polygon points="-749.2,-800 -749.2,800 -850.8,800 -850.8,-800"/><polygon points="-800,749.2 800,749.2 800,850.8 -800,850.8"/><polygon points="800,800 800,-800 -800,-800 -800,800"/></g><rect x="-2499.995" y="-1999.996" width="4999.99" height="3999.992" rx="1999.996" ry="1999.996" id="F6ezDNKOWN1BzOFy2C07_pad-25"/></defs><g transform="translate(0,-20474.070000000007) scale(1,-1)" fill="currentColor" stroke="currentColor"><use xlink:href="#F6ezDNKOWN1BzOFy2C07_pad-10" x="40640.07" y="-25400.02"/><use xlink:href="#F6ezDNKOWN1BzOFy2C07_pad-11" x="40640" y="-22860"/><use xlink:href="#F6ezDNKOWN1BzOFy2C07_pad-11" x="40640" y="-20320"/><use xlink:href="#F6ezDNKOWN1BzOFy2C07_pad-12" x="36829.84" y="-25399.89"/><use xlink:href="#F6ezDNKOWN1BzOFy2C07_pad-11" x="34290" y="-25400"/><use xlink:href="#F6ezDNKOWN1BzOFy2C07_pad-11" x="31750" y="-25400"/><use xlink:href="#F6ezDNKOWN1BzOFy2C07_pad-11" x="-41910" y="1270"/><use xlink:href="#F6ezDNKOWN1BzOFy2C07_pad-11" x="-41910" y="3810"/><use xlink:href="#F6ezDNKOWN1BzOFy2C07_pad-11" x="-41910" y="6350"/><use xlink:href="#F6ezDNKOWN1BzOFy2C07_pad-11" x="-41910" y="-1270"/><use xlink:href="#F6ezDNKOWN1BzOFy2C07_pad-11" x="-41910" y="-3810"/><use xlink:href="#F6ezDNKOWN1BzOFy2C07_pad-10" x="-41909.92" y="-6350"/><use xlink:href="#F6ezDNKOWN1BzOFy2C07_pad-11" x="-43180" y="24130"/><use xlink:href="#F6ezDNKOWN1BzOFy2C07_pad-11" x="-43180" y="21590"/><use xlink:href="#F6ezDNKOWN1BzOFy2C07_pad-13" x="-43179.92" y="19049.94"/><use xlink:href="#F6ezDNKOWN1BzOFy2C07_pad-11" x="-43180" y="16510"/><use xlink:href="#F6ezDNKOWN1BzOFy2C07_pad-14" x="3849.87" y="-6499.86"/><use xlink:href="#F6ezDNKOWN1BzOFy2C07_pad-14" x="-2540" y="-3919.98"/><use xlink:href="#F6ezDNKOWN1BzOFy2C07_pad-14" x="-3810" y="6459.98"/><use xlink:href="#F6ezDNKOWN1BzOFy2C07_pad-14" x="2540" y="3919.98"/><use xlink:href="#F6ezDNKOWN1BzOFy2C07_pad-15" x="24999.95" y="5999.98"/><use xlink:href="#F6ezDNKOWN1BzOFy2C07_pad-16" x="24999.95" y="3999.99"/><use xlink:href="#F6ezDNKOWN1BzOFy2C07_pad-15" x="24999.95" y="11999.97"/><use xlink:href="#F6ezDNKOWN1BzOFy2C07_pad-15" x="24999.95" y="9999.97"/><use xlink:href="#F6ezDNKOWN1BzOFy2C07_pad-12" x="-40639.92" y="25399.94"/><use xlink:href="#F6ezDNKOWN1BzOFy2C07_pad-11" x="-38100" y="25400"/><use xlink:href="#F6ezDNKOWN1BzOFy2C07_pad-11" x="-35560" y="25400"/><use xlink:href="#F6ezDNKOWN1BzOFy2C07_pad-11" x="-33020" y="25400"/><use xlink:href="#F6ezDNKOWN1BzOFy2C07_pad-11" x="-30480" y="25400"/><use xlink:href="#F6ezDNKOWN1BzOFy2C07_pad-17" x="34999.93" y="0"/><use xlink:href="#F6ezDNKOWN1BzOFy2C07_pad-18" x="35124.89" y="15999.96"/><use xlink:href="#F6ezDNKOWN1BzOFy2C07_pad-18" x="35124.89" y="-15999.96"/><use xlink:href="#F6ezDNKOWN1BzOFy2C07_pad-18" x="-35625.02" y="-15999.96"/><use xlink:href="#F6ezDNKOWN1BzOFy2C07_pad-18" x="-35625.02" y="15999.96"/><use xlink:href="#F6ezDNKOWN1BzOFy2C07_pad-11" x="40640" y="6539.99"/><use xlink:href="#F6ezDNKOWN1BzOFy2C07_pad-17" x="-34999.93" y="0"/><use xlink:href="#F6ezDNKOWN1BzOFy2C07_pad-19" x="-22249.89" y="23499.82"/><use xlink:href="#F6ezDNKOWN1BzOFy2C07_pad-20" x="20249.89" y="23499.82"/><use xlink:href="#F6ezDNKOWN1BzOFy2C07_pad-21" x="-22249.89" y="-20750.02"/><use xlink:href="#F6ezDNKOWN1BzOFy2C07_pad-22" x="20249.89" y="-20750.02"/><use xlink:href="#F6ezDNKOWN1BzOFy2C07_pad-23" x="-39129.71" y="-28610.05"/><use xlink:href="#F6ezDNKOWN1BzOFy2C07_pad-23" x="-36589.71" y="-28610.05"/><use xlink:href="#F6ezDNKOWN1BzOFy2C07_pad-24" x="-34049.94" y="-28609.95"/><use xlink:href="#F6ezDNKOWN1BzOFy2C07_pad-23" x="-31509.71" y="-28610.05"/><use xlink:href="#F6ezDNKOWN1BzOFy2C07_pad-23" x="-28969.71" y="-28610.05"/><use xlink:href="#F6ezDNKOWN1BzOFy2C07_pad-23" x="-26429.71" y="-28610.05"/><use xlink:href="#F6ezDNKOWN1BzOFy2C07_pad-23" x="-23889.71" y="-28610.05"/><use xlink:href="#F6ezDNKOWN1BzOFy2C07_pad-24" x="-21349.97" y="-28609.95"/><use xlink:href="#F6ezDNKOWN1BzOFy2C07_pad-23" x="-18809.96" y="-28610.05"/><use xlink:href="#F6ezDNKOWN1BzOFy2C07_pad-23" x="-16269.96" y="-28610.05"/><use xlink:href="#F6ezDNKOWN1BzOFy2C07_pad-23" x="9130.03" y="-28610.05"/><use xlink:href="#F6ezDNKOWN1BzOFy2C07_pad-23" x="6590.03" y="-28610.05"/><use xlink:href="#F6ezDNKOWN1BzOFy2C07_pad-24" x="4049.97" y="-28609.95"/><use xlink:href="#F6ezDNKOWN1BzOFy2C07_pad-23" x="1510.03" y="-28610.05"/><use xlink:href="#F6ezDNKOWN1BzOFy2C07_pad-23" x="-1029.96" y="-28610.05"/><use xlink:href="#F6ezDNKOWN1BzOFy2C07_pad-23" x="-3569.96" y="-28610.05"/><use xlink:href="#F6ezDNKOWN1BzOFy2C07_pad-23" x="-6109.96" y="-28610.05"/><use xlink:href="#F6ezDNKOWN1BzOFy2C07_pad-24" x="-8649.99" y="-28609.95"/><use xlink:href="#F6ezDNKOWN1BzOFy2C07_pad-23" x="-11189.96" y="-28610.05"/><use xlink:href="#F6ezDNKOWN1BzOFy2C07_pad-23" x="-13729.96" y="-28610.05"/><use xlink:href="#F6ezDNKOWN1BzOFy2C07_pad-23" x="-13729.96" y="-46389.79"/><use xlink:href="#F6ezDNKOWN1BzOFy2C07_pad-23" x="-11189.96" y="-46389.79"/><use xlink:href="#F6ezDNKOWN1BzOFy2C07_pad-24" x="-8649.99" y="-46389.89"/><use xlink:href="#F6ezDNKOWN1BzOFy2C07_pad-23" x="-6109.96" y="-46389.79"/><use xlink:href="#F6ezDNKOWN1BzOFy2C07_pad-23" x="-3569.96" y="-46389.79"/><use xlink:href="#F6ezDNKOWN1BzOFy2C07_pad-23" x="-1029.96" y="-46389.79"/><use xlink:href="#F6ezDNKOWN1BzOFy2C07_pad-23" x="1510.03" y="-46389.79"/><use xlink:href="#F6ezDNKOWN1BzOFy2C07_pad-24" x="4049.97" y="-46389.89"/><use xlink:href="#F6ezDNKOWN1BzOFy2C07_pad-23" x="6590.03" y="-46389.79"/><use xlink:href="#F6ezDNKOWN1BzOFy2C07_pad-23" x="9130.03" y="-46389.79"/><use xlink:href="#F6ezDNKOWN1BzOFy2C07_pad-23" x="-16269.96" y="-46389.79"/><use xlink:href="#F6ezDNKOWN1BzOFy2C07_pad-23" x="-18809.96" y="-46389.79"/><use xlink:href="#F6ezDNKOWN1BzOFy2C07_pad-24" x="-21349.97" y="-46389.89"/><use xlink:href="#F6ezDNKOWN1BzOFy2C07_pad-23" x="-23889.71" y="-46389.79"/><use xlink:href="#F6ezDNKOWN1BzOFy2C07_pad-23" x="-26429.71" y="-46389.79"/><use xlink:href="#F6ezDNKOWN1BzOFy2C07_pad-23" x="-28969.71" y="-46389.79"/><use xlink:href="#F6ezDNKOWN1BzOFy2C07_pad-23" x="-31509.71" y="-46389.79"/><use xlink:href="#F6ezDNKOWN1BzOFy2C07_pad-24" x="-34049.94" y="-46389.89"/><use xlink:href="#F6ezDNKOWN1BzOFy2C07_pad-23" x="-36589.71" y="-46389.79"/><use xlink:href="#F6ezDNKOWN1BzOFy2C07_pad-23" x="-39129.71" y="-46389.79"/><use xlink:href="#F6ezDNKOWN1BzOFy2C07_pad-13" x="40639.84" y="4000.01"/><use xlink:href="#F6ezDNKOWN1BzOFy2C07_pad-25" x="28500.06" y="-30399.98"/><use xlink:href="#F6ezDNKOWN1BzOFy2C07_pad-25" x="28500.06" y="-44399.96"/></g></svg>