<svg version="1.1" xmlns="http://www.w3.org/2000/svg" xmlns:xlink="http://www.w3.org/1999/xlink" stroke-linecap="round" stroke-linejoin="round" stroke-width="0" fill-rule="evenodd" width="85.82mm" height="73.95641mm" viewBox="-44180 -47189.79 85820 73956.41" id="FqPQdEIlystuQUja6whf"><defs><rect x="-1000" y="-1000" width="2000" height="2000" id="FqPQdEIlystuQUja6whf_pad-12"/><circle cx="0" cy="0" r="1000" id="FqPQdEIlystuQUja6whf_pad-13"/><circle cx="0" cy="0" r="1270" id="FqPQdEIlystuQUja6whf_pad-14"/><circle cx="0" cy="0" r="762" id="FqPQdEIlystuQUja6whf_pad-15"/><rect x="-762" y="-762" width="1524" height="1524" id="FqPQdEIlystuQUja6whf_pad-16"/><rect x="-4049.9919" y="-2125.0021" width="8099.9838" height="4250.0042" rx="2125.0021" ry="2125.0021" id="FqPQdEIlystuQUja6whf_pad-17"/><rect x="-3374.9996" y="-1175.004" width="6749.9992" height="2350.008" rx="1175.004" ry="1175.004" id="FqPQdEIlystuQUja6whf_pad-18"/><g id="FqPQdEIlystuQUja6whf_pad-19"><circle cx="-2283.9" cy="1016.8" r="2250"/><circle cx="2283.9" cy="-1016.8" r="2250"/><polygon points="-3199.01404,-1038.69661 1368.78596,-3072.29661 3199.01404,1038.69661 -1368.78596,3072.29661"/></g><g id="FqPQdEIlystuQUja6whf_pad-20"><circle cx="-2283.9" cy="-1016.8" r="2250"/><circle cx="2283.9" cy="1016.8" r="2250"/><polygon points="-1368.78596,-3072.29661 3199.01404,-1038.69661 1368.78596,3072.29661 -3199.01404,1038.69661"/></g><g id="FqPQdEIlystuQUja6whf_pad-21"><circle cx="-2253.6" cy="-749.7" r="2250"/><circle cx="2253.6" cy="749.7" r="2250"/><polygon points="-1543.36659,-2884.66335 2963.83341,-1385.26335 1543.36659,2884.66335 -2963.83341,1385.26335"/></g><g id="FqPQdEIlystuQUja6whf_pad-22"><circle cx="-2372.2" cy="789.1" r="2250"/><circle cx="2372.2" cy="-789.1" r="2250"/><polygon points="-3082.38934,-1345.87801 1662.01066,-2924.07801 3082.38934,1345.87801 -1662.01066,2924.07801"/></g><circle cx="0" cy="0" r="800" id="FqPQdEIlystuQUja6whf_pad-23"/><rect x="-800" y="-800" width="1600" height="1600" id="FqPQdEIlystuQUja6whf_pad-24"/><rect x="-2499.995" y="-1999.996" width="4999.99" height="3999.992" rx="1999.996" ry="1999.996" id="FqPQdEIlystuQUja6whf_pad-25"/><circle cx="0" cy="0" r="310" id="FqPQdEIlystuQUja6whf_pad-26"/></defs><g transform="translate(0,-20423.17) scale(1,-1)" fill="currentColor" stroke="currentColor"><path d="M -40639.92 25399.94 -40639.92 19049.94" fill="none" stroke-width="254"/><path d="M 4050.05 -28610.05 4050.05 -28467.55" fill="none" stroke-width="170"/><path d="M -16268.7 -28610.55 -16268.7 -27269.44 -15240 -26240.73 -15240 -11000.73 M -35560 25400 -15240 5080 -15240 -11000.73 M -11189.96 -28610.05 -11189.96 6109.96" fill="none" stroke-width="254"/><path d="M -39128.7 -28610.55 -43942 -23797.26 -43942 -5842 -41910 -3810" fill="none" stroke-width="170"/><path d="M -41910 -6350 -41910 -20750.02 -34049.96 -28610.05 M 24999.97 9999.97 24999.97 5999.98 M 4050.03 -28610.05 3849.87 -28409.89 M -2540 -3920 -2650 -3810 -6350 -3810 -7620 -5080 -7620 -22859.94 -3569.94 -26909.97 -3569.94 -28610.02 M -6109.96 -28610.05 -6109.96 -25639.95 -8889.97 -22859.94 -8889.97 3810 -6350 6349.97 -5080 6349.97 M -13729.96 -28610.05 -13729.96 6109.96 -33020 25400 M -30480 25400 -11189.96 6109.96 M -13728.7 -46390.55 -25146 -34973.26 -25146 -27853.63 -28999.18 -24000.45 -28999.18 2329.18 -43180 16510 M -41910 6350 -34290 6350 -29508.95 1568.95 -29508.95 -25530.8 -26429.71 -28610.05 M -41910 3810 -40639.92 3810 -40004.92 3175 -40004.92 -17574.84 -28969.71 -28610.05 M 30480 -23494.94 33019.92 -23494.94 34289.92 -24764.94 34289.92 -25399.94 M 30226 -22860 35559.92 -22860 M 30226 -22860 20701 -32385 6350 -32385 M -6108.7 -46390.55 -6108.7 -45481.23 6350 -33020 20955 -33020 30480 -23495 M 36829.92 -25399.94 36829.92 -24130 35559.92 -22860 M 4050.03 -28610.05 4050.03 -30085.03 6350 -32385 M 6591.29 -28610.55 8275.31 -26924 25400 -26924 32004 -20320 40640 -20320 M 3860.79 -6502.39 3999.76 -6350 6350 -6350 8889.97 -8889.97 8890 -23770.08 4038.6 -28600.39 M 24999.97 3999.99 2620.03 3999.99 2540.02 3919.98 M 6350 -6350 6350 3999.99 M 24999.95 3999.99 40639.74 3999.99 M -18808.7 -28610.55 -18808.7 -27000.2 -16510 -24701.5 -16510 3810 -38100 25400" fill="none" stroke-width="254"/><use xlink:href="#FqPQdEIlystuQUja6whf_pad-12" x="40640" y="-25400"/><use xlink:href="#FqPQdEIlystuQUja6whf_pad-13" x="40640" y="-22860"/><use xlink:href="#FqPQdEIlystuQUja6whf_pad-13" x="40640" y="-20320"/><use xlink:href="#FqPQdEIlystuQUja6whf_pad-12" x="36829.74" y="-25400"/><use xlink:href="#FqPQdEIlystuQUja6whf_pad-13" x="34290" y="-25400"/><use xlink:href="#FqPQdEIlystuQUja6whf_pad-13" x="31750" y="-25400"/><use xlink:href="#FqPQdEIlystuQUja6whf_pad-13" x="-41910" y="1270"/><use xlink:href="#FqPQdEIlystuQUja6whf_pad-13" x="-41910" y="3810"/><use xlink:href="#FqPQdEIlystuQUja6whf_pad-13" x="-41910" y="6350"/><use xlink:href="#FqPQdEIlystuQUja6whf_pad-13" x="-41910" y="-1270"/><use xlink:href="#FqPQdEIlystuQUja6whf_pad-13" x="-41910" y="-3810"/><use xlink:href="#FqPQdEIlystuQUja6whf_pad-12" x="-41910" y="-6350"/><use xlink:href="#FqPQdEIlystuQUja6whf_pad-13" x="-43180" y="24130"/><use xlink:href="#FqPQdEIlystuQUja6whf_pad-13" x="-43180" y="21590"/><use xlink:href="#FqPQdEIlystuQUja6whf_pad-12" x="-43180" y="19050"/><use xlink:href="#FqPQdEIlystuQUja6whf_pad-13" x="-43180" y="16510"/><use xlink:href="#FqPQdEIlystuQUja6whf_pad-14" x="3849.87" y="-6499.86"/><use xlink:href="#FqPQdEIlystuQUja6whf_pad-14" x="-2540" y="-3919.98"/><use xlink:href="#FqPQdEIlystuQUja6whf_pad-14" x="-3810" y="6459.98"/><use xlink:href="#FqPQdEIlystuQUja6whf_pad-14" x="2540" y="3919.98"/><use xlink:href="#FqPQdEIlystuQUja6whf_pad-15" x="24999.95" y="5999.98"/><use xlink:href="#FqPQdEIlystuQUja6whf_pad-16" x="24999.95" y="3999.99"/><use xlink:href="#FqPQdEIlystuQUja6whf_pad-15" x="24999.95" y="11999.97"/><use xlink:href="#FqPQdEIlystuQUja6whf_pad-15" x="24999.95" y="9999.97"/><use xlink:href="#FqPQdEIlystuQUja6whf_pad-12" x="-40640" y="25400"/><use xlink:href="#FqPQdEIlystuQUja6whf_pad-13" x="-38100" y="25400"/><use xlink:href="#FqPQdEIlystuQUja6whf_pad-13" x="-35560" y="25400"/><use xlink:href="#FqPQdEIlystuQUja6whf_pad-13" x="-33020" y="25400"/><use xlink:href="#FqPQdEIlystuQUja6whf_pad-13" x="-30480" y="25400"/><use xlink:href="#FqPQdEIlystuQUja6whf_pad-17" x="34999.93" y="0"/><use xlink:href="#FqPQdEIlystuQUja6whf_pad-18" x="35124.89" y="15999.96"/><use xlink:href="#FqPQdEIlystuQUja6whf_pad-18" x="35124.89" y="-15999.96"/><use xlink:href="#FqPQdEIlystuQUja6whf_pad-18" x="-35625.02" y="-15999.96"/><use xlink:href="#FqPQdEIlystuQUja6whf_pad-18" x="-35625.02" y="15999.96"/><use xlink:href="#FqPQdEIlystuQUja6whf_pad-13" x="40640" y="6539.99"/><use xlink:href="#FqPQdEIlystuQUja6whf_pad-17" x="-34999.93" y="0"/><use xlink:href="#FqPQdEIlystuQUja6whf_pad-19" x="-22249.89" y="23499.82"/><use xlink:href="#FqPQdEIlystuQUja6whf_pad-20" x="20249.89" y="23499.82"/><use xlink:href="#FqPQdEIlystuQUja6whf_pad-21" x="-22249.89" y="-20750.02"/><use xlink:href="#FqPQdEIlystuQUja6whf_pad-22" x="20249.89" y="-20750.02"/><use xlink:href="#FqPQdEIlystuQUja6whf_pad-23" x="-39129.71" y="-28610.05"/><use xlink:href="#FqPQdEIlystuQUja6whf_pad-23" x="-36589.71" y="-28610.05"/><use xlink:href="#FqPQdEIlystuQUja6whf_pad-24" x="-34049.96" y="-28610.05"/><use xlink:href="#FqPQdEIlystuQUja6whf_pad-23" x="-31509.71" y="-28610.05"/><use xlink:href="#FqPQdEIlystuQUja6whf_pad-23" x="-28969.71" y="-28610.05"/><use xlink:href="#FqPQdEIlystuQUja6whf_pad-23" x="-26429.71" y="-28610.05"/><use xlink:href="#FqPQdEIlystuQUja6whf_pad-23" x="-23889.71" y="-28610.05"/><use xlink:href="#FqPQdEIlystuQUja6whf_pad-24" x="-21349.96" y="-28610.05"/><use xlink:href="#FqPQdEIlystuQUja6whf_pad-23" x="-18809.96" y="-28610.05"/><use xlink:href="#FqPQdEIlystuQUja6whf_pad-23" x="-16269.96" y="-28610.05"/><use xlink:href="#FqPQdEIlystuQUja6whf_pad-23" x="9130.03" y="-28610.05"/><use xlink:href="#FqPQdEIlystuQUja6whf_pad-23" x="6590.03" y="-28610.05"/><use xlink:href="#FqPQdEIlystuQUja6whf_pad-24" x="4050.03" y="-28610.05"/><use xlink:href="#FqPQdEIlystuQUja6whf_pad-23" x="1510.03" y="-28610.05"/><use xlink:href="#FqPQdEIlystuQUja6whf_pad-23" x="-1029.96" y="-28610.05"/><use xlink:href="#FqPQdEIlystuQUja6whf_pad-23" x="-3569.96" y="-28610.05"/><use xlink:href="#FqPQdEIlystuQUja6whf_pad-23" x="-6109.96" y="-28610.05"/><use xlink:href="#FqPQdEIlystuQUja6whf_pad-24" x="-8649.96" y="-28610.05"/><use xlink:href="#FqPQdEIlystuQUja6whf_pad-23" x="-11189.96" y="-28610.05"/><use xlink:href="#FqPQdEIlystuQUja6whf_pad-23" x="-13729.96" y="-28610.05"/><use xlink:href="#FqPQdEIlystuQUja6whf_pad-23" x="-13729.96" y="-46389.79"/><use xlink:href="#FqPQdEIlystuQUja6whf_pad-23" x="-11189.96" y="-46389.79"/><use xlink:href="#FqPQdEIlystuQUja6whf_pad-24" x="-8649.96" y="-46389.79"/><use xlink:href="#FqPQdEIlystuQUja6whf_pad-23" x="-6109.96" y="-46389.79"/><use xlink:href="#FqPQdEIlystuQUja6whf_pad-23" x="-3569.96" y="-46389.79"/><use xlink:href="#FqPQdEIlystuQUja6whf_pad-23" x="-1029.96" y="-46389.79"/><use xlink:href="#FqPQdEIlystuQUja6whf_pad-23" x="1510.03" y="-46389.79"/><use xlink:href="#FqPQdEIlystuQUja6whf_pad-24" x="4050.03" y="-46389.79"/><use xlink:href="#FqPQdEIlystuQUja6whf_pad-23" x="6590.03" y="-46389.79"/><use xlink:href="#FqPQdEIlystuQUja6whf_pad-23" x="9130.03" y="-46389.79"/><use xlink:href="#FqPQdEIlystuQUja6whf_pad-23" x="-16269.96" y="-46389.79"/><use xlink:href="#FqPQdEIlystuQUja6whf_pad-23" x="-18809.96" y="-46389.79"/><use xlink:href="#FqPQdEIlystuQUja6whf_pad-24" x="-21349.96" y="-46389.79"/><use xlink:href="#FqPQdEIlystuQUja6whf_pad-23" x="-23889.71" y="-46389.79"/><use xlink:href="#FqPQdEIlystuQUja6whf_pad-23" x="-26429.71" y="-46389.79"/><use xlink:href="#FqPQdEIlystuQUja6whf_pad-23" x="-28969.71" y="-46389.79"/><use xlink:href="#FqPQdEIlystuQUja6whf_pad-23" x="-31509.71" y="-46389.79"/><use xlink:href="#FqPQdEIlystuQUja6whf_pad-24" x="-34049.96" y="-46389.79"/><use xlink:href="#FqPQdEIlystuQUja6whf_pad-23" x="-36589.71" y="-46389.79"/><use xlink:href="#FqPQdEIlystuQUja6whf_pad-23" x="-39129.71" y="-46389.79"/><use xlink:href="#FqPQdEIlystuQUja6whf_pad-12" x="40639.74" y="3999.99"/><use xlink:href="#FqPQdEIlystuQUja6whf_pad-25" x="28500.06" y="-30399.98"/><use xlink:href="#FqPQdEIlystuQUja6whf_pad-25" x="28500.06" y="-44399.96"/><use xlink:href="#FqPQdEIlystuQUja6whf_pad-26" x="-40639.92" y="19049.94"/></g></svg>