<svg version="1.1" xmlns="http://www.w3.org/2000/svg" xmlns:xlink="http://www.w3.org/1999/xlink" stroke-linecap="round" stroke-linejoin="round" stroke-width="0" fill-rule="evenodd" width="86.175mm" height="73.95641mm" viewBox="-44535 -47189.79 86175 73956.41" id="g7NQuAdN4rsyfTYGPAL5"><defs><rect x="-1000" y="-1000" width="2000" height="2000" id="g7NQuAdN4rsyfTYGPAL5_pad-12"/><circle cx="0" cy="0" r="1000" id="g7NQuAdN4rsyfTYGPAL5_pad-13"/><circle cx="0" cy="0" r="1270" id="g7NQuAdN4rsyfTYGPAL5_pad-14"/><circle cx="0" cy="0" r="762" id="g7NQuAdN4rsyfTYGPAL5_pad-15"/><rect x="-762" y="-762" width="1524" height="1524" id="g7NQuAdN4rsyfTYGPAL5_pad-16"/><rect x="-4049.9919" y="-2125.0021" width="8099.9838" height="4250.0042" rx="2125.0021" ry="2125.0021" id="g7NQuAdN4rsyfTYGPAL5_pad-17"/><rect x="-3374.9996" y="-1175.004" width="6749.9992" height="2350.008" rx="1175.004" ry="1175.004" id="g7NQuAdN4rsyfTYGPAL5_pad-18"/><g id="g7NQuAdN4rsyfTYGPAL5_pad-19"><circle cx="-2283.9" cy="1016.8" r="2250"/><circle cx="2283.9" cy="-1016.8" r="2250"/><polygon points="-3199.01404,-1038.69661 1368.78596,-3072.29661 3199.01404,1038.69661 -1368.78596,3072.29661"/></g><g id="g7NQuAdN4rsyfTYGPAL5_pad-20"><circle cx="-2283.9" cy="-1016.8" r="2250"/><circle cx="2283.9" cy="1016.8" r="2250"/><polygon points="-1368.78596,-3072.29661 3199.01404,-1038.69661 1368.78596,3072.29661 -3199.01404,1038.69661"/></g><g id="g7NQuAdN4rsyfTYGPAL5_pad-21"><circle cx="-2253.6" cy="-749.7" r="2250"/><circle cx="2253.6" cy="749.7" r="2250"/><polygon points="-1543.36659,-2884.66335 2963.83341,-1385.26335 1543.36659,2884.66335 -2963.83341,1385.26335"/></g><g id="g7NQuAdN4rsyfTYGPAL5_pad-22"><circle cx="-2372.2" cy="789.1" r="2250"/><circle cx="2372.2" cy="-789.1" r="2250"/><polygon points="-3082.38934,-1345.87801 1662.01066,-2924.07801 3082.38934,1345.87801 -1662.01066,2924.07801"/></g><circle cx="0" cy="0" r="800" id="g7NQuAdN4rsyfTYGPAL5_pad-23"/><rect x="-800" y="-800" width="1600" height="1600" id="g7NQuAdN4rsyfTYGPAL5_pad-24"/><rect x="-2499.995" y="-1999.996" width="4999.99" height="3999.992" rx="1999.996" ry="1999.996" id="g7NQuAdN4rsyfTYGPAL5_pad-25"/><circle cx="0" cy="0" r="310" id="g7NQuAdN4rsyfTYGPAL5_pad-26"/></defs><g transform="translate(0,-20423.17) scale(1,-1)" fill="currentColor" stroke="currentColor"><path d="M -40640 19050 -41274.94 19050 -41274.94 14605 -40004.94 13335 -40004.94 -4444.94 -41910 -6350 M -41910 -1270 -43609.26 -2969.26 -43609.26 -21590 -36588.7 -28610.55 M -40640 19050 -43180 19050 M -43180 21590 -33019.92 21589.94 M -33019.92 21590 -32992.05 21590 -16101.05 4699 M -43180 24130 -41910 22860 -31750 22860 -14986 6096" fill="none" stroke-width="254"/><path d="M -41910 1270 -43286.68 1270 -44450 106.68 -44450 -25400 -39370 -30480 -31750 -30480 -31508.7 -30238.7 -31508.7 -28610.55" fill="none" stroke-width="170"/><path d="M -14986 6096 -14986 -26464.26 M 36829.92 -25399.94 40640.17 -25399.94 M 31749.92 -25399.94 27939.92 -25399.94 20319.94 -33019.92 12339.9 -33019.92 -1029.96 -46389.79 M -1029.96 -28610.05 11429.97 -16150.1 11429.97 -11429.97 M 9131.29 -28610.55 23713.43 -28610.55 29464 -22860 40640 -22860 M 11429.97 -11429.97 11429.97 -1569.99 24999.95 11999.97 M 40640 6539.99 30669.94 6539.99 13969.97 -10159.97 13969.97 -16150.1 1510.03 -28610.05 M -11188.7 -46390.55 -17526 -40053.26 -17526 -26670 -16101.05 -25245.05 -16101.05 4699 M -1028.7 -46390.55 -14986 -32433.26 -14986 -26162" fill="none" stroke-width="254"/><use xlink:href="#g7NQuAdN4rsyfTYGPAL5_pad-12" x="40640" y="-25400"/><use xlink:href="#g7NQuAdN4rsyfTYGPAL5_pad-13" x="40640" y="-22860"/><use xlink:href="#g7NQuAdN4rsyfTYGPAL5_pad-13" x="40640" y="-20320"/><use xlink:href="#g7NQuAdN4rsyfTYGPAL5_pad-12" x="36829.74" y="-25400"/><use xlink:href="#g7NQuAdN4rsyfTYGPAL5_pad-13" x="34290" y="-25400"/><use xlink:href="#g7NQuAdN4rsyfTYGPAL5_pad-13" x="31750" y="-25400"/><use xlink:href="#g7NQuAdN4rsyfTYGPAL5_pad-13" x="-41910" y="1270"/><use xlink:href="#g7NQuAdN4rsyfTYGPAL5_pad-13" x="-41910" y="3810"/><use xlink:href="#g7NQuAdN4rsyfTYGPAL5_pad-13" x="-41910" y="6350"/><use xlink:href="#g7NQuAdN4rsyfTYGPAL5_pad-13" x="-41910" y="-1270"/><use xlink:href="#g7NQuAdN4rsyfTYGPAL5_pad-13" x="-41910" y="-3810"/><use xlink:href="#g7NQuAdN4rsyfTYGPAL5_pad-12" x="-41910" y="-6350"/><use xlink:href="#g7NQuAdN4rsyfTYGPAL5_pad-13" x="-43180" y="24130"/><use xlink:href="#g7NQuAdN4rsyfTYGPAL5_pad-13" x="-43180" y="21590"/><use xlink:href="#g7NQuAdN4rsyfTYGPAL5_pad-12" x="-43180" y="19050"/><use xlink:href="#g7NQuAdN4rsyfTYGPAL5_pad-13" x="-43180" y="16510"/><use xlink:href="#g7NQuAdN4rsyfTYGPAL5_pad-14" x="3849.87" y="-6499.86"/><use xlink:href="#g7NQuAdN4rsyfTYGPAL5_pad-14" x="-2540" y="-3919.98"/><use xlink:href="#g7NQuAdN4rsyfTYGPAL5_pad-14" x="-3810" y="6459.98"/><use xlink:href="#g7NQuAdN4rsyfTYGPAL5_pad-14" x="2540" y="3919.98"/><use xlink:href="#g7NQuAdN4rsyfTYGPAL5_pad-15" x="24999.95" y="5999.98"/><use xlink:href="#g7NQuAdN4rsyfTYGPAL5_pad-16" x="24999.95" y="3999.99"/><use xlink:href="#g7NQuAdN4rsyfTYGPAL5_pad-15" x="24999.95" y="11999.97"/><use xlink:href="#g7NQuAdN4rsyfTYGPAL5_pad-15" x="24999.95" y="9999.97"/><use xlink:href="#g7NQuAdN4rsyfTYGPAL5_pad-12" x="-40640" y="25400"/><use xlink:href="#g7NQuAdN4rsyfTYGPAL5_pad-13" x="-38100" y="25400"/><use xlink:href="#g7NQuAdN4rsyfTYGPAL5_pad-13" x="-35560" y="25400"/><use xlink:href="#g7NQuAdN4rsyfTYGPAL5_pad-13" x="-33020" y="25400"/><use xlink:href="#g7NQuAdN4rsyfTYGPAL5_pad-13" x="-30480" y="25400"/><use xlink:href="#g7NQuAdN4rsyfTYGPAL5_pad-17" x="34999.93" y="0"/><use xlink:href="#g7NQuAdN4rsyfTYGPAL5_pad-18" x="35124.89" y="15999.96"/><use xlink:href="#g7NQuAdN4rsyfTYGPAL5_pad-18" x="35124.89" y="-15999.96"/><use xlink:href="#g7NQuAdN4rsyfTYGPAL5_pad-18" x="-35625.02" y="-15999.96"/><use xlink:href="#g7NQuAdN4rsyfTYGPAL5_pad-18" x="-35625.02" y="15999.96"/><use xlink:href="#g7NQuAdN4rsyfTYGPAL5_pad-13" x="40640" y="6539.99"/><use xlink:href="#g7NQuAdN4rsyfTYGPAL5_pad-17" x="-34999.93" y="0"/><use xlink:href="#g7NQuAdN4rsyfTYGPAL5_pad-19" x="-22249.89" y="23499.82"/><use xlink:href="#g7NQuAdN4rsyfTYGPAL5_pad-20" x="20249.89" y="23499.82"/><use xlink:href="#g7NQuAdN4rsyfTYGPAL5_pad-21" x="-22249.89" y="-20750.02"/><use xlink:href="#g7NQuAdN4rsyfTYGPAL5_pad-22" x="20249.89" y="-20750.02"/><use xlink:href="#g7NQuAdN4rsyfTYGPAL5_pad-23" x="-39129.71" y="-28610.05"/><use xlink:href="#g7NQuAdN4rsyfTYGPAL5_pad-23" x="-36589.71" y="-28610.05"/><use xlink:href="#g7NQuAdN4rsyfTYGPAL5_pad-24" x="-34049.96" y="-28610.05"/><use xlink:href="#g7NQuAdN4rsyfTYGPAL5_pad-23" x="-31509.71" y="-28610.05"/><use xlink:href="#g7NQuAdN4rsyfTYGPAL5_pad-23" x="-28969.71" y="-28610.05"/><use xlink:href="#g7NQuAdN4rsyfTYGPAL5_pad-23" x="-26429.71" y="-28610.05"/><use xlink:href="#g7NQuAdN4rsyfTYGPAL5_pad-23" x="-23889.71" y="-28610.05"/><use xlink:href="#g7NQuAdN4rsyfTYGPAL5_pad-24" x="-21349.96" y="-28610.05"/><use xlink:href="#g7NQuAdN4rsyfTYGPAL5_pad-23" x="-18809.96" y="-28610.05"/><use xlink:href="#g7NQuAdN4rsyfTYGPAL5_pad-23" x="-16269.96" y="-28610.05"/><use xlink:href="#g7NQuAdN4rsyfTYGPAL5_pad-23" x="9130.03" y="-28610.05"/><use xlink:href="#g7NQuAdN4rsyfTYGPAL5_pad-23" x="6590.03" y="-28610.05"/><use xlink:href="#g7NQuAdN4rsyfTYGPAL5_pad-24" x="4050.03" y="-28610.05"/><use xlink:href="#g7NQuAdN4rsyfTYGPAL5_pad-23" x="1510.03" y="-28610.05"/><use xlink:href="#g7NQuAdN4rsyfTYGPAL5_pad-23" x="-1029.96" y="-28610.05"/><use xlink:href="#g7NQuAdN4rsyfTYGPAL5_pad-23" x="-3569.96" y="-28610.05"/><use xlink:href="#g7NQuAdN4rsyfTYGPAL5_pad-23" x="-6109.96" y="-28610.05"/><use xlink:href="#g7NQuAdN4rsyfTYGPAL5_pad-24" x="-8649.96" y="-28610.05"/><use xlink:href="#g7NQuAdN4rsyfTYGPAL5_pad-23" x="-11189.96" y="-28610.05"/><use xlink:href="#g7NQuAdN4rsyfTYGPAL5_pad-23" x="-13729.96" y="-28610.05"/><use xlink:href="#g7NQuAdN4rsyfTYGPAL5_pad-23" x="-13729.96" y="-46389.79"/><use xlink:href="#g7NQuAdN4rsyfTYGPAL5_pad-23" x="-11189.96" y="-46389.79"/><use xlink:href="#g7NQuAdN4rsyfTYGPAL5_pad-24" x="-8649.96" y="-46389.79"/><use xlink:href="#g7NQuAdN4rsyfTYGPAL5_pad-23" x="-6109.96" y="-46389.79"/><use xlink:href="#g7NQuAdN4rsyfTYGPAL5_pad-23" x="-3569.96" y="-46389.79"/><use xlink:href="#g7NQuAdN4rsyfTYGPAL5_pad-23" x="-1029.96" y="-46389.79"/><use xlink:href="#g7NQuAdN4rsyfTYGPAL5_pad-23" x="1510.03" y="-46389.79"/><use xlink:href="#g7NQuAdN4rsyfTYGPAL5_pad-24" x="4050.03" y="-46389.79"/><use xlink:href="#g7NQuAdN4rsyfTYGPAL5_pad-23" x="6590.03" y="-46389.79"/><use xlink:href="#g7NQuAdN4rsyfTYGPAL5_pad-23" x="9130.03" y="-46389.79"/><use xlink:href="#g7NQuAdN4rsyfTYGPAL5_pad-23" x="-16269.96" y="-46389.79"/><use xlink:href="#g7NQuAdN4rsyfTYGPAL5_pad-23" x="-18809.96" y="-46389.79"/><use xlink:href="#g7NQuAdN4rsyfTYGPAL5_pad-24" x="-21349.96" y="-46389.79"/><use xlink:href="#g7NQuAdN4rsyfTYGPAL5_pad-23" x="-23889.71" y="-46389.79"/><use xlink:href="#g7NQuAdN4rsyfTYGPAL5_pad-23" x="-26429.71" y="-46389.79"/><use xlink:href="#g7NQuAdN4rsyfTYGPAL5_pad-23" x="-28969.71" y="-46389.79"/><use xlink:href="#g7NQuAdN4rsyfTYGPAL5_pad-23" x="-31509.71" y="-46389.79"/><use xlink:href="#g7NQuAdN4rsyfTYGPAL5_pad-24" x="-34049.96" y="-46389.79"/><use xlink:href="#g7NQuAdN4rsyfTYGPAL5_pad-23" x="-36589.71" y="-46389.79"/><use xlink:href="#g7NQuAdN4rsyfTYGPAL5_pad-23" x="-39129.71" y="-46389.79"/><use xlink:href="#g7NQuAdN4rsyfTYGPAL5_pad-12" x="40639.74" y="3999.99"/><use xlink:href="#g7NQuAdN4rsyfTYGPAL5_pad-25" x="28500.06" y="-30399.98"/><use xlink:href="#g7NQuAdN4rsyfTYGPAL5_pad-25" x="28500.06" y="-44399.96"/><use xlink:href="#g7NQuAdN4rsyfTYGPAL5_pad-26" x="-40639.92" y="19049.94"/></g></svg>