<svg version="1.1" xmlns="http://www.w3.org/2000/svg" xmlns:xlink="http://www.w3.org/1999/xlink" stroke-linecap="round" stroke-linejoin="round" stroke-width="0" fill-rule="evenodd" clip-rule="evenodd" id="xJ34lHRBWvyOdLc7338r_top" viewBox="-45001.18 -48000.92 87673.18 75305.92" width="87.67317999999999mm" height="75.30592mm" class="w-100 h-100"><defs><style>.xJ34lHRBWvyOdLc7338r_fr4 {color: #666666;}
.xJ34lHRBWvyOdLc7338r_cu {color: #cccccc;}
.xJ34lHRBWvyOdLc7338r_cf {color: #cc9933;}
.xJ34lHRBWvyOdLc7338r_sm {color: #004200; opacity: 0.75;}
.xJ34lHRBWvyOdLc7338r_ss {color: #ffffff;}
.xJ34lHRBWvyOdLc7338r_sp {color: #999999;}
.xJ34lHRBWvyOdLc7338r_out {color: #000000;}</style><rect x="-1000" y="-1000" width="2000" height="2000" id="g7NQuAdN4rsyfTYGPAL5_pad-12"/><circle cx="0" cy="0" r="1000" id="g7NQuAdN4rsyfTYGPAL5_pad-13"/><circle cx="0" cy="0" r="1270" id="g7NQuAdN4rsyfTYGPAL5_pad-14"/><circle cx="0" cy="0" r="762" id="g7NQuAdN4rsyfTYGPAL5_pad-15"/><rect x="-762" y="-762" width="1524" height="1524" id="g7NQuAdN4rsyfTYGPAL5_pad-16"/><rect x="-4049.9919" y="-2125.0021" width="8099.9838" height="4250.0042" rx="2125.0021" ry="2125.0021" id="g7NQuAdN4rsyfTYGPAL5_pad-17"/><rect x="-3374.9996" y="-1175.004" width="6749.9992" height="2350.008" rx="1175.004" ry="1175.004" id="g7NQuAdN4rsyfTYGPAL5_pad-18"/><g id="g7NQuAdN4rsyfTYGPAL5_pad-19"><circle cx="-2283.9" cy="1016.8" r="2250"/><circle cx="2283.9" cy="-1016.8" r="2250"/><polygon points="-3199.01404,-1038.69661 1368.78596,-3072.29661 3199.01404,1038.69661 -1368.78596,3072.29661"/></g><g id="g7NQuAdN4rsyfTYGPAL5_pad-20"><circle cx="-2283.9" cy="-1016.8" r="2250"/><circle cx="2283.9" cy="1016.8" r="2250"/><polygon points="-1368.78596,-3072.29661 3199.01404,-1038.69661 1368.78596,3072.29661 -3199.01404,1038.69661"/></g><g id="g7NQuAdN4rsyfTYGPAL5_pad-21"><circle cx="-2253.6" cy="-749.7" r="2250"/><circle cx="2253.6" cy="749.7" r="2250"/><polygon points="-1543.36659,-2884.66335 2963.83341,-1385.26335 1543.36659,2884.66335 -2963.83341,1385.26335"/></g><g id="g7NQuAdN4rsyfTYGPAL5_pad-22"><circle cx="-2372.2" cy="789.1" r="2250"/><circle cx="2372.2" cy="-789.1" r="2250"/><polygon points="-3082.38934,-1345.87801 1662.01066,-2924.07801 3082.38934,1345.87801 -1662.01066,2924.07801"/></g><circle cx="0" cy="0" r="800" id="g7NQuAdN4rsyfTYGPAL5_pad-23"/><rect x="-800" y="-800" width="1600" height="1600" id="g7NQuAdN4rsyfTYGPAL5_pad-24"/><rect x="-2499.995" y="-1999.996" width="4999.99" height="3999.992" rx="1999.996" ry="1999.996" id="g7NQuAdN4rsyfTYGPAL5_pad-25"/><circle cx="0" cy="0" r="310" id="g7NQuAdN4rsyfTYGPAL5_pad-26"/><g id="zBvaCC18pnsDmcCcIC_O_pad-10"><circle cx="1000" cy="-1000" r="50.8"/><circle cx="-1000" cy="-1000" r="50.8"/><circle cx="-1000" cy="1000" r="50.8"/><circle cx="1000" cy="1000" r="50.8"/><polygon points="1000,-1050.8 -1000,-1050.8 -1000,-949.2 1000,-949.2"/><polygon points="-949.2,-1000 -949.2,1000 -1050.8,1000 -1050.8,-1000"/><polygon points="-1000,949.2 1000,949.2 1000,1050.8 -1000,1050.8"/><polygon points="1050.8,1000 1050.8,-1000 949.2,-1000 949.2,1000"/><polygon points="1000,-1000 -1000,-1000 -1000,1000 1000,1000"/></g><circle cx="0" cy="0" r="1050.8" id="zBvaCC18pnsDmcCcIC_O_pad-11"/><g id="zBvaCC18pnsDmcCcIC_O_pad-12"><circle cx="-1000" cy="-1000" r="50.8"/><circle cx="-1000" cy="1000" r="50.8"/><circle cx="1000" cy="1000" r="50.8"/><circle cx="1000" cy="-1000" r="50.8"/><polygon points="-949.2,-1000 -949.2,1000 -1050.8,1000 -1050.8,-1000"/><polygon points="-1000,949.2 1000,949.2 1000,1050.8 -1000,1050.8"/><polygon points="1050.8,1000 1050.8,-1000 949.2,-1000 949.2,1000"/><polygon points="1000,-1050.8 -1000,-1050.8 -1000,-949.2 1000,-949.2"/><polygon points="-1000,-1000 -1000,1000 1000,1000 1000,-1000"/></g><g id="zBvaCC18pnsDmcCcIC_O_pad-13"><circle cx="-1000" cy="1000" r="50.8"/><circle cx="1000" cy="1000" r="50.8"/><circle cx="1000" cy="-1000" r="50.8"/><circle cx="-1000" cy="-1000" r="50.8"/><polygon points="-1000,949.2 1000,949.2 1000,1050.8 -1000,1050.8"/><polygon points="1050.8,1000 1050.8,-1000 949.2,-1000 949.2,1000"/><polygon points="1000,-1050.8 -1000,-1050.8 -1000,-949.2 1000,-949.2"/><polygon points="-949.2,-1000 -949.2,1000 -1050.8,1000 -1050.8,-1000"/><polygon points="-1000,1000 1000,1000 1000,-1000 -1000,-1000"/></g><circle cx="0" cy="0" r="1320.8" id="zBvaCC18pnsDmcCcIC_O_pad-14"/><circle cx="0" cy="0" r="812.8" id="zBvaCC18pnsDmcCcIC_O_pad-15"/><g id="zBvaCC18pnsDmcCcIC_O_pad-16"><circle cx="762" cy="762" r="50.8"/><circle cx="762" cy="-762" r="50.8"/><circle cx="-762" cy="-762" r="50.8"/><circle cx="-762" cy="762" r="50.8"/><polygon points="812.8,762 812.8,-762 711.2,-762 711.2,762"/><polygon points="762,-812.8 -762,-812.8 -762,-711.2 762,-711.2"/><polygon points="-711.2,-762 -711.2,762 -812.8,762 -812.8,-762"/><polygon points="-762,711.2 762,711.2 762,812.8 -762,812.8"/><polygon points="762,762 762,-762 -762,-762 -762,762"/></g><rect x="-4049.9919" y="-2125.0021" width="8099.9838" height="4250.0042" rx="2125.0021" ry="2125.0021" id="zBvaCC18pnsDmcCcIC_O_pad-17"/><rect x="-3374.9996" y="-1175.004" width="6749.9992" height="2350.008" rx="1175.004" ry="1175.004" id="zBvaCC18pnsDmcCcIC_O_pad-18"/><g id="zBvaCC18pnsDmcCcIC_O_pad-19"><circle cx="-2283.9" cy="1016.8" r="2250"/><circle cx="2283.9" cy="-1016.8" r="2250"/><polygon points="-3199.01404,-1038.69661 1368.78596,-3072.29661 3199.01404,1038.69661 -1368.78596,3072.29661"/></g><g id="zBvaCC18pnsDmcCcIC_O_pad-20"><circle cx="-2283.9" cy="-1016.8" r="2250"/><circle cx="2283.9" cy="1016.8" r="2250"/><polygon points="-1368.78596,-3072.29661 3199.01404,-1038.69661 1368.78596,3072.29661 -3199.01404,1038.69661"/></g><g id="zBvaCC18pnsDmcCcIC_O_pad-21"><circle cx="-2253.6" cy="-749.7" r="2250"/><circle cx="2253.6" cy="749.7" r="2250"/><polygon points="-1543.36659,-2884.66335 2963.83341,-1385.26335 1543.36659,2884.66335 -2963.83341,1385.26335"/></g><g id="zBvaCC18pnsDmcCcIC_O_pad-22"><circle cx="-2372.2" cy="789.1" r="2250"/><circle cx="2372.2" cy="-789.1" r="2250"/><polygon points="-3082.38934,-1345.87801 1662.01066,-2924.07801 3082.38934,1345.87801 -1662.01066,2924.07801"/></g><circle cx="0" cy="0" r="850.8" id="zBvaCC18pnsDmcCcIC_O_pad-23"/><g id="zBvaCC18pnsDmcCcIC_O_pad-24"><circle cx="800" cy="800" r="50.8"/><circle cx="800" cy="-800" r="50.8"/><circle cx="-800" cy="-800" r="50.8"/><circle cx="-800" cy="800" r="50.8"/><polygon points="850.8,800 850.8,-800 749.2,-800 749.2,800"/><polygon points="800,-850.8 -800,-850.8 -800,-749.2 800,-749.2"/><polygon points="-749.2,-800 -749.2,800 -850.8,800 -850.8,-800"/><polygon points="-800,749.2 800,749.2 800,850.8 -800,850.8"/><polygon points="800,800 800,-800 -800,-800 -800,800"/></g><rect x="-2499.995" y="-1999.996" width="4999.99" height="3999.992" rx="1999.996" ry="1999.996" id="zBvaCC18pnsDmcCcIC_O_pad-25"/><circle cx="0" cy="0" r="850" id="_EgzZwi51HtbuenaufAd_pad-1"/><circle cx="0" cy="0" r="1950" id="_EgzZwi51HtbuenaufAd_pad-3"/><circle cx="0" cy="0" r="155" id="iU__VGsYGAE1t33CzdsC_pad-1"/><circle cx="0" cy="0" r="155" id="lNKQj-dYJvuDd15jv4cD_pad-1"/><circle cx="0" cy="0" r="457.5" id="lNKQj-dYJvuDd15jv4cD_pad-2"/><circle cx="0" cy="0" r="500" id="lNKQj-dYJvuDd15jv4cD_pad-3"/><circle cx="0" cy="0" r="550.5" id="lNKQj-dYJvuDd15jv4cD_pad-4"/><g id="xJ34lHRBWvyOdLc7338r_top_silkscreen"><path d="M 34629.34 11923.77 34565.33 11918.18 34509.96 11902.44 34463.22 11876.53 34425.12 11840.97 34395.66 11796.77 34374.32 11743.43 34362.13 11682.47 34357.56 11613.89 34357.56 11446.25 34225.48 11436.09 34225.48 11326.87 34357.56 11326.87 34357.56 10486.13 34502.34 10486.13 34502.34 11326.87 34708.08 11326.87 34708.08 11446.25 34502.34 11446.25 34502.34 11611.35 34510.98 11695.17 34536.37 11756.64 34579.56 11794.23 34642.04 11806.93 34667.95 11805.41 34694.87 11800.84 34722.81 11792.71 34751.26 11781.53 34784.28 11893.29 34748.21 11905.48 34709.6 11915.14 34669.98 11921.23"/><path d="M 31040.32 11900.91 31040.32 11524.99 31047.94 11357.35 30984.44 11405.1 30919.92 11441.17 30850.33 11463.52 30771.08 11471.65 30717.23 11467.59 30664.4 11455.9 30614.11 11436.09 30566.36 11409.17 30521.65 11375.64 30481.01 11335 30444.94 11288.26 30413.96 11234.92 30389.06 11176 30370.27 11110.97 30358.58 11041.38 30354.52 10966.19 30504.38 10966.19 30510.48 11046.46 30526.73 11120.12 30553.15 11185.14 30588.2 11240.51 30630.87 11285.72 30680.15 11319.25 30735.01 11340.08 30793.94 11347.19 30855.92 11341.6 30916.37 11323.32 30977.33 11290.3 31040.32 11240.51 31040.32 10722.35 30976.31 10662.41 30912.81 10619.23 30848.3 10593.83 30781.24 10585.19 30719.26 10591.8 30664.4 10611.61 30616.65 10643.61 30577.02 10686.79 30546.04 10741.66 30523.18 10806.68 30509.46 10881.86 30504.38 10966.19 30354.52 10966.19 30358.08 10888.47 30367.22 10816.84 30382.46 10751.31 30403.8 10692.38 30430.21 10639.55 30462.22 10593.83 30499.3 10554.2 30540.96 10521.69 30587.18 10496.29 30637.98 10478 30692.34 10466.83 30750.76 10463.27 30836.1 10473.94 30914.84 10503.4 30985.96 10546.58 31047.94 10600.43 31053.02 10600.43 31065.72 10486.13 31185.1 10486.13 31185.1 11900.91"/><path d="M 38203.12 11900.91 38203.12 10661.39 38212.26 10576.56 38239.7 10514.58 38287.96 10476.48 38358.06 10463.27 38408.35 10466.83 38446.96 10475.97 38424.1 10587.73 38391.08 10585.19 38373.3 10588.75 38359.08 10599.92 38348.92 10620.24 38345.36 10651.23 38345.36 11900.91"/><path d="M 30021.78 11852.65 29980.12 11845.54 29948.12 11824.71 29927.8 11793.72 29920.18 11753.59 29927.8 11711.94 29948.12 11679.93 29980.12 11659.1 30021.78 11651.99 30060.9 11659.1 30092.39 11679.93 30113.22 11711.94 30120.84 11753.59 30113.22 11793.72 30092.39 11824.71 30060.9 11845.54"/><path d="M 33930.84 11852.65 33889.18 11845.54 33857.18 11824.71 33836.86 11793.72 33829.24 11753.59 33836.86 11711.94 33857.18 11679.93 33889.18 11659.1 33930.84 11651.99 33969.96 11659.1 34001.45 11679.93 34022.28 11711.94 34029.9 11753.59 34022.28 11793.72 34001.45 11824.71 33969.96 11845.54"/><path d="M 37796.72 11852.65 37755.06 11845.54 37723.06 11824.71 37702.74 11793.72 37695.12 11753.59 37702.74 11711.94 37723.06 11679.93 37755.06 11659.1 37796.72 11651.99 37835.84 11659.1 37867.33 11679.93 37888.16 11711.94 37895.78 11753.59 37888.16 11793.72 37867.33 11824.71 37835.84 11845.54"/><path d="M 28126.94 11786.61 28126.94 11669.77 28482.54 11669.77 28557.72 11666.72 28622.75 11658.09 28677.61 11642.85 28722.82 11620.5 28757.88 11590.52 28782.77 11552.93 28797.5 11506.7 28802.58 11451.33 28798.01 11402.56 28784.29 11358.88 28760.92 11321.28 28726.38 11289.28 28681.68 11263.88 28624.78 11245.59 28556.2 11233.91 28474.92 11230.35 28276.8 11230.35 28276.8 11669.77 28126.94 11669.77 28126.94 11116.05 28510.48 11116.05 28594.3 11112.5 28668.47 11101.32 28731.97 11083.03 28784.8 11057.12 28826.46 11023.09 28856.94 10980.92 28875.22 10930.63 28881.32 10872.21 28875.22 10807.19 28855.92 10751.82 28824.93 10705.59 28782.77 10668 28729.43 10639.04 28665.93 10618.72 28592.78 10607.04 28510.48 10602.97 28276.8 10602.97 28276.8 11116.05 28126.94 11116.05 28126.94 10486.13 28533.34 10486.13 28604.46 10488.67 28671.52 10496.8 28733.49 10510.01 28790.9 10528.3 28843.22 10552.17 28889.45 10581.13 28929.58 10615.67 28963.62 10655.3 28990.54 10700.51 29009.84 10750.8 29022.04 10806.17 29026.1 10867.13 29021.02 10930.12 29006.29 10986.51 28982.41 11035.79 28950.92 11078.46 28911.29 11114.02 28865.57 11142.98 28813.76 11164.82 28756.86 11179.55 28756.86 11187.17 28801.06 11205.46 28839.66 11229.84 28872.68 11259.82 28900.12 11294.87 28921.96 11333.48 28937.2 11376.15 28946.85 11421.36 28949.9 11469.11 28946.34 11522.96 28935.68 11571.22 28917.9 11613.89 28893.51 11651.99 28863.03 11684.5 28826.96 11712.44 28785.31 11735.81 28738.06 11754.61 28686.25 11768.83 28630.37 11778.48 28569.92 11784.58 28505.4 11786.61"/><path d="M 35609.78 11786.61 35555.93 11758.16 35494.97 11734.29 35425.37 11714.48 35345.62 11697.71 35345.62 11603.73 35576.76 11603.73 35576.76 10608.05 35284.66 10608.05 35284.66 10486.13 35985.7 10486.13 35985.7 10608.05 35719 10608.05 35719 11786.61"/><path d="M 36554.66 11786.61 36554.66 11662.15 36950.9 11662.15 36950.9 10486.13 37100.76 10486.13 37100.76 11662.15 37499.54 11662.15 37499.54 11786.61"/><path d="M 38749.22 11718.03 38731.44 11446.25 38579.04 11436.09 38579.04 11326.87 38723.82 11326.87 38723.82 10775.69 38727.37 10709.14 38737.54 10648.69 38755.32 10595.35 38782.24 10549.63 38818.31 10513.06 38864.54 10486.13 38921.43 10468.86 38990.52 10463.27 39032.18 10466.32 39075.86 10474.45 39160.7 10498.83 39132.76 10608.05 39077.9 10590.27 39048.94 10584.68 39021 10582.65 38947.85 10595.35 38901.11 10632.94 38876.22 10691.87 38868.6 10770.61 38868.6 11326.87 39132.76 11326.87 39132.76 11446.25 38868.6 11446.25 38868.6 11718.03"/><path d="M 29683.96 11471.65 29604.71 11456.92 29532.07 11415.77 29467.55 11352.78 29412.18 11270.99 29407.1 11270.99 29391.86 11446.25 29275.02 11446.25 29275.02 10486.13 29419.8 10486.13 29419.8 11110.97 29474.66 11217.14 29537.66 11288.26 29602.68 11327.38 29666.18 11339.57 29713.93 11335.51 29757.62 11324.33 29785.56 11448.79 29761.68 11459.97 29737.81 11466.57 29712.41 11470.64"/><path d="M 31837.88 11471.65 31766.76 11465.56 31700.21 11447.27 31639.76 11417.8 31586.93 11378.18 31543.24 11328.9 31510.73 11269.98 31489.9 11203.43 31482.28 11128.75 31621.98 11128.75 31626.55 11181.08 31639.25 11227.3 31659.06 11267.44 31685.48 11300.96 31717.48 11327.38 31754.06 11346.68 31794.7 11358.37 31837.88 11362.43 31880.55 11358.37 31920.68 11346.18 31956.75 11326.36 31988.76 11299.95 32014.66 11266.42 32034.48 11226.29 32047.18 11180.06 32051.24 11128.75 32046.67 11076.94 32033.97 11030.2 32014.16 10989.56 31987.74 10955.02 31955.74 10927.08 31919.67 10906.76 31880.04 10894.06 31837.88 10889.99 31795.21 10894.06 31755.08 10906.76 31718.5 10927.08 31686.5 10955.02 31659.57 10989.56 31639.25 11030.2 31626.55 11076.94 31621.98 11128.75 31482.28 11128.75 31492.95 11046.96 31520.89 10975.34 31560.51 10915.39 31606.74 10869.67 31606.74 10862.05 31569.66 10830.56 31535.62 10790.42 31510.22 10741.15 31500.06 10684.25 31506.66 10631.93 31524.44 10588.24 31551.88 10553.7 31586.42 10526.77 31586.42 10519.15 31526.98 10471.91 31482.28 10418.06 31453.83 10359.64 31447.37 10318.49 31571.18 10318.49 31577.78 10362.69 31597.09 10406.37 31630.11 10448.54 31677.86 10488.67 31743.9 10476.99 31799.78 10473.43 31975.04 10473.43 32062.42 10466.83 32124.9 10444.98 32163 10405.87 32175.7 10346.43 32170.11 10308.33 32153.35 10271.25 32126.42 10236.7 32089.85 10205.21 32044.13 10178.79 31990.28 10158.47 31929.32 10145.26 31860.74 10140.69 31796.73 10143.74 31739.33 10152.88 31690.05 10168.12 31648.4 10188.44 31615.38 10214.35 31590.99 10244.32 31576.26 10279.37 31571.18 10318.49 31447.37 10318.49 31444.18 10298.17 31451.8 10239.75 31473.14 10187.94 31507.17 10143.74 31553.91 10106.66 31611.31 10077.7 31678.88 10056.36 31755.58 10043.16 31840.42 10039.09 31911.54 10042.14 31977.58 10051.28 32038.54 10066.02 32094.42 10085.83 32144.2 10110.21 32188.91 10138.15 32227.01 10170.66 32259.01 10205.71 32284.41 10243.82 32303.21 10283.95 32314.38 10326.11 32317.94 10369.29 32312.86 10424.16 32297.62 10470.89 32271.71 10510.01 32235.64 10541.5 32189.42 10565.38 32132.52 10582.14 32065.46 10591.8 31987.74 10595.35 31797.24 10595.35 31714.44 10603.99 31661.6 10626.85 31633.16 10661.9 31624.52 10704.57 31630.11 10743.69 31644.33 10775.69 31665.16 10802.62 31690.56 10826.49 31725.1 10811.25 31762.7 10800.08 31800.8 10792.96 31837.88 10790.93 31908.49 10797.03 31973.52 10814.81 32031.94 10843.26 32083.24 10882.37 32124.9 10930.63 32156.4 10988.04 32176.72 11053.57 32183.32 11126.21 32177.22 11188.7 32159.44 11245.59 32133.03 11294.87 32099.5 11334.49 32302.7 11334.49 32302.7 11446.25 31969.96 11446.25 31911.54 11463.52 31876.49 11469.62"/><path d="M 32838.64 11471.65 32783.78 11467.59 32730.44 11455.9 32678.62 11436.09 32629.34 11409.17 32583.12 11375.64 32541.46 11335 32503.87 11288.26 32471.86 11234.92 32445.45 11176 32426.14 11110.97 32413.86 11039.85 32551.62 11039.85 32564.32 11109.96 32585.15 11172.44 32614.1 11226.29 32649.66 11271.5 32690.81 11307.57 32737.04 11333.48 32786.32 11349.22 32838.64 11354.81 32894.52 11349.73 32944.3 11334.49 32986.98 11309.09 33022.54 11274.55 33050.48 11229.84 33070.79 11176 33083.5 11112.5 33087.56 11039.85 32413.86 11039.85 32409.38 10966.19 32413.44 10889.48 32425.64 10818.87 32445.45 10753.34 32471.36 10694.41 32504.38 10642.09 32542.48 10595.35 32586.16 10555.73 32634.42 10523.22 32687.26 10497.31 32743.14 10478.51 32802.57 10466.83 32864.04 10463.27 32958.53 10470.89 33040.82 10491.21 33113.47 10522.2 33179 10559.79 33125.66 10656.31 33070.79 10623.8 33012.37 10598.91 32949.89 10583.16 32881.82 10577.57 32813.75 10584.18 32751.26 10602.97 32696.4 10633.96 32649.66 10675.11 32611.06 10726.92 32582.1 10787.38 32562.79 10856.46 32554.16 10933.17 33209.48 10933.17 33215.58 10974.83 33217.1 11022.07 33214.56 11089.13 33205.92 11151.61 33191.7 11209.02 33172.4 11261.85 33147.5 11309.09 33117.53 11350.75 33082.48 11386.82 33042.86 11416.79 32998.66 11440.16 32949.89 11457.43 32896.55 11468.1"/><path d="M 29948.12 11446.25 29948.12 10486.13 30092.9 10486.13 30092.9 11446.25"/><path d="M 33857.18 11446.25 33857.18 10486.13 34001.96 10486.13 34001.96 11446.25"/><path d="M 37723.06 11446.25 37723.06 10486.13 37867.84 10486.13 37867.84 11446.25"/><path d="M 27010.36 6538.97 26950.41 6534.4 26896.06 6520.68 26846.78 6499.35 26805.12 6470.39 26770.58 6435.34 26744.67 6394.19 26728.92 6347.96 26723.34 6297.67 26740.61 6209.28 26784.8 6143.24 26845.26 6095.49 26911.3 6061.45 27045.92 6003.03 27109.42 5972.55 27160.22 5938.52 27193.74 5893.3 27205.94 5830.31 27192.22 5764.27 27152.09 5713.98 27088.08 5681.47 27002.74 5670.29 26929.58 5678.42 26860.5 5701.79 26797 5738.87 26741.12 5787.13 26677.62 5716.01 26743.66 5657.59 26819.86 5613.9 26905.2 5585.96 27000.2 5576.31 27068.78 5581.39 27130.24 5596.63 27183.58 5621.02 27228.8 5652.51 27264.86 5691.63 27290.77 5735.82 27307.03 5785.1 27312.62 5837.93 27297.38 5929.37 27256.23 5997.44 27194.76 6048.24 27119.58 6086.85 26984.96 6142.73 26930.6 6167.62 26880.82 6200.14 26844.24 6244.33 26830.02 6305.29 26843.22 6363.71 26880.31 6408.92 26937.2 6437.37 27010.36 6447.53 27073.35 6440.93 27129.74 6423.15 27180.54 6394.7 27226.26 6358.63 27279.6 6427.21 27226.26 6472.42 27163.26 6507.98 27090.62 6530.84"/><path d="M 29916.12 6538.97 29834.84 6529.32 29764.73 6501.89 29702.25 6459.72 29644.34 6404.35 29705.3 6345.93 29747.97 6388.6 29795.72 6423.15 29847.54 6446.52 29903.42 6455.15 29982.66 6440.42 30038.04 6400.8 30070.55 6340.34 30081.22 6264.65 30078.17 6224.01 30070.04 6181.85 30055.82 6138.16 30036 6092.95 30010.1 6045.7 29978.09 5996.94 29939.99 5945.63 29895.29 5892.8 29844.49 5836.92 29787.08 5779 29651.96 5655.05 29651.96 5594.09 30226 5594.09 30226 5682.99 29923.23 5682.48 29806.9 5675.37 29914.08 5780.02 30006.03 5882.13 30045.66 5931.91 30080.71 5981.19 30110.68 6029.96 30136.08 6078.22 30156.4 6126.48 30170.62 6174.23 30179.77 6221.98 30182.82 6269.73 30178.24 6327.64 30164.53 6380.48 30141.67 6426.2 30111.19 6465.31 30073.09 6496.81 30027.37 6519.67 29975.04 6533.89"/><path d="M 30640.02 6538.97 30597.34 6535.42 30558.23 6525.76 30521.65 6509.51 30488.12 6486.65 30458.66 6457.18 30432.24 6421.12 30409.38 6378.44 30390.08 6328.66 30375.35 6272.27 30364.17 6208.77 30357.57 6138.67 30355.54 6061.45 30454.6 6061.45 30458.15 6156.45 30468.31 6237.73 30484.57 6305.29 30506.41 6360.16 30533.34 6402.32 30564.83 6431.78 30600.39 6449.06 30640.02 6455.15 30679.13 6449.06 30714.69 6431.78 30745.68 6402.32 30772.6 6360.16 30793.94 6305.29 30809.69 6237.73 30819.34 6156.45 30822.9 6061.45 30819.34 5965.44 30809.69 5883.14 30793.94 5814.06 30772.6 5757.67 30745.68 5714.49 30714.69 5684.01 30679.13 5666.23 30640.02 5660.13 30600.39 5666.23 30564.83 5684.01 30533.34 5714.49 30506.41 5757.67 30484.57 5814.06 30468.31 5883.14 30458.15 5965.44 30454.6 6061.45 30355.54 6061.45 30357.57 5984.24 30364.17 5913.62 30375.35 5849.62 30390.08 5792.21 30409.38 5741.92 30432.24 5697.72 30458.66 5660.64 30488.12 5630.16 30521.65 5606.79 30558.23 5589.52 30597.34 5579.87 30640.02 5576.31 30682.18 5579.87 30721.8 5589.52 30758.38 5606.79 30791.4 5630.16 30821.37 5660.64 30847.79 5697.72 30870.65 5741.92 30889.44 5792.21 30904.68 5849.62 30915.35 5913.62 30921.96 5984.24 30924.5 6061.45 30921.96 6138.67 30915.35 6208.77 30904.68 6272.27 30889.44 6328.66 30870.65 6378.44 30847.79 6421.12 30821.37 6457.18 30791.4 6486.65 30758.38 6509.51 30721.8 6525.76 30682.18 6535.42"/><path d="M 27404.06 6523.73 27604.72 5594.09 27726.64 5594.09 27871.42 6173.21 27919.68 6384.03 27924.76 6384.03 27970.48 6173.21 28117.8 5594.09 28242.26 5594.09 28440.38 6523.73 28338.78 6523.73 28222.44 5932.42 28181.3 5705.85 28176.22 5705.85 28105.1 6005.57 27973.02 6523.73 27873.96 6523.73 27727.14 5932.42 27675.84 5705.85 27670.76 5705.85 27614.88 6005.57 27510.74 6523.73"/><path d="M 29037.28 6523.73 29006.8 6091.93 29065.22 6056.37 29103.32 6080.25 29139.89 6097.52 29178.5 6108.7 29222.7 6112.25 29303.98 6097.52 29366.46 6054.34 29406.59 5985.76 29420.82 5893.81 29404.56 5797.8 29360.87 5726.17 29296.36 5680.96 29217.62 5665.21 29141.42 5673.34 29078.93 5696.2 29027.12 5729.22 28983.94 5769.35 28933.14 5700.77 28983.94 5655.56 29047.94 5615.43 29127.19 5586.98 29225.24 5576.31 29282.64 5581.9 29337.5 5597.65 29388.3 5623.56 29433.01 5659.62 29471.11 5705.34 29500.06 5759.7 29518.35 5822.69 29524.96 5893.81 29519.37 5965.44 29503.11 6027.42 29477.71 6079.23 29443.68 6120.89 29402.53 6152.89 29355.79 6175.75 29303.47 6188.96 29248.1 6193.53 29206.95 6190.48 29169.86 6182.86 29135.83 6169.66 29103.32 6152.89 29128.72 6434.83 29481.78 6434.83 29481.78 6523.73"/><path d="M 31117.54 6523.73 31117.54 6437.37 31338.52 6437.37 31392.36 6434.32 31441.64 6426.2 31486.34 6411.97 31525.97 6392.67 31560.51 6368.28 31590.99 6338.82 31616.39 6304.28 31637.22 6265.16 31652.97 6220.96 31664.65 6172.2 31671.26 6118.86 31673.8 6061.45 31671.26 6004.05 31664.65 5951.22 31652.97 5901.94 31637.22 5857.74 31616.39 5817.61 31590.99 5782.05 31560.51 5752.08 31525.97 5726.68 31486.34 5706.87 31441.64 5692.14 31392.36 5683.5 31338.52 5680.45 31224.22 5680.45 31224.22 6437.37 31117.54 6437.37 31117.54 5594.09 31351.22 5594.09 31418.78 5597.65 31480.76 5608.32 31537.14 5626.1 31587.94 5650.99 31632.65 5681.98 31671.76 5719.06 31704.78 5762.24 31731.71 5811.52 31753.04 5866.38 31768.28 5926.32 31777.43 5991.35 31780.48 6061.45 31777.43 6132.06 31768.28 6197.09 31753.04 6257.03 31731.71 6310.88 31704.28 6359.65 31670.75 6401.81 31631.63 6438.39 31586.42 6468.87 31535.11 6492.74 31477.71 6509.51 31414.72 6520.18 31346.14 6523.73"/><path d="M 28519.12 5987.79 28519.12 5909.05 28841.7 5909.05 28841.7 5987.79"/><path d="M 5067.3 4503.42 5007.86 4499.35 4951.47 4488.18 4898.64 4469.89 4849.36 4445 4805.17 4412.99 4765.04 4374.38 4729.98 4329.68 4700.52 4278.88 4677.15 4222.49 4659.88 4160.51 4649.21 4092.95 4645.66 4020.82 4649.21 3948.17 4659.37 3881.12 4676.14 3819.14 4699.5 3763.26 4727.95 3712.46 4761.99 3668.26 4801.1 3630.16 4844.79 3598.67 4893.05 3573.78 4945.38 3555.49 5000.75 3544.31 5059.68 3540.76 5148.58 3548.38 5226.81 3570.22 5292.34 3603.75 5344.16 3647.44 5344.16 4033.52 5044.43 4033.52 5044.43 3944.62 5247.64 3944.62 5247.64 3690.62 5213.6 3666.23 5170.93 3647.94 5122.16 3636.26 5069.84 3632.2 4998.72 3639.31 4935.72 3659.63 4881.88 3693.16 4837.17 3738.37 4801.61 3794.76 4775.7 3861.3 4759.96 3938.01 4754.88 4023.36 4760.46 4108.19 4776.72 4184.39 4803.64 4250.43 4839.71 4305.8 4885.43 4350 4939.28 4382.51 5000.75 4402.32 5069.84 4409.43 5135.88 4402.83 5190.74 4384.04 5236.46 4355.59 5275.58 4320.54 5334 4389.12 5287.77 4430.26 5229.35 4467.35 5156.2 4493.26"/><path d="M 5570.22 4485.64 5570.22 3556 5669.28 3556 5669.28 4066.54 5664.7 4209.28 5656.58 4348.48 5661.66 4348.48 5763.26 4157.98 6113.78 3556 6223 3556 6223 4485.64 6121.4 4485.64 6122.41 3911.09 6136.64 3693.16 6129.02 3693.16 6029.96 3883.66 5676.9 4485.64"/><path d="M 6482.08 4485.64 6482.08 4399.28 6700.52 4399.28 6754.36 4396.23 6803.64 4388.1 6848.34 4373.88 6887.97 4355.08 6922.51 4330.7 6952.99 4301.23 6978.39 4266.69 6999.22 4227.57 7014.97 4183.88 7026.65 4135.62 7033.26 4082.79 7035.8 4025.9 7033.26 3967.98 7026.65 3914.64 7014.97 3865.37 6999.22 3820.16 6978.39 3780.02 6952.99 3744.46 6922.51 3713.98 6887.97 3688.58 6848.34 3668.77 6803.64 3654.04 6754.36 3645.4 6700.52 3642.36 6586.22 3642.36 6586.22 4399.28 6482.08 4399.28 6482.08 3556 6713.22 3556 6780.78 3559.55 6843.26 3570.22 6899.65 3588.51 6950.45 3612.89 6995.66 3643.88 7034.78 3681.47 7068.31 3724.65 7095.74 3773.93 7117.08 3829.3 7132.32 3889.75 7141.97 3955.28 7145.02 4025.9 7141.97 4096 7132.32 4161.53 7117.08 4220.97 7095.74 4274.82 7067.8 4323.08 7034.27 4365.24 6995.16 4401.31 6949.44 4431.28 6898.64 4454.65 6841.74 4471.92 6778.75 4482.08 6710.68 4485.64"/><path d="M 6376.92 -5916.67 6317.48 -5920.23 6261.1 -5931.4 6208.26 -5949.69 6159.5 -5975.09 6114.79 -6007.1 6074.66 -6045.2 6040.12 -6089.9 6010.65 -6140.7 5987.28 -6197.09 5970.01 -6259.06 5959.34 -6326.63 5955.28 -6399.27 5958.84 -6471.41 5969.5 -6538.97 5986.27 -6600.44 6009.13 -6656.83 6038.08 -6707.12 6072.12 -6751.32 6111.24 -6789.42 6154.92 -6821.42 6203.18 -6846.31 6255 -6864.6 6310.88 -6875.27 6369.3 -6879.33 6458.2 -6871.2 6536.43 -6849.87 6602.47 -6815.83 6653.78 -6772.65 6653.78 -6386.57 6354.06 -6386.57 6354.06 -6475.47 6557.26 -6475.47 6557.26 -6729.47 6523.73 -6753.35 6481.06 -6771.64 6432.29 -6783.83 6379.46 -6787.89 6308.34 -6780.78 6245.86 -6759.95 6192.01 -6726.93 6146.8 -6681.72 6111.24 -6625.33 6085.84 -6558.28 6070.09 -6482.08 6064.5 -6396.73 6070.09 -6311.39 6086.85 -6235.7 6113.27 -6169.66 6149.84 -6113.78 6195.06 -6069.58 6248.9 -6037.07 6310.88 -6017.26 6379.46 -6010.65 6445.5 -6017.26 6500.87 -6036.05 6546.59 -6063.99 6585.2 -6099.55 6643.62 -6030.97 6597.9 -5989.32 6538.97 -5952.74 6465.82 -5926.32"/><path d="M 6879.84 -5934.45 6879.84 -6864.09 6978.9 -6864.09 6977.88 -6281.42 6966.2 -6071.61 6971.28 -6071.61 7072.88 -6262.11 7423.4 -6864.09 7532.62 -6864.09 7532.62 -5934.45 7431.02 -5934.45 7431.02 -6437.37 7436.1 -6582.15 7446.26 -6726.93 7438.64 -6726.93 7339.58 -6536.43 6986.52 -5934.45"/><path d="M 7791.7 -5934.45 7791.7 -6020.81 8010.14 -6020.81 8064.5 -6023.35 8113.77 -6031.99 8157.97 -6045.7 8197.59 -6065.01 8232.64 -6089.39 8262.62 -6118.86 8288.02 -6152.89 8308.84 -6192.01 8325.1 -6236.2 8336.28 -6284.46 8343.39 -6337.3 8345.42 -6394.19 8343.39 -6451.6 8336.28 -6505.44 8325.1 -6554.72 8308.84 -6599.42 8288.02 -6640.06 8262.62 -6675.12 8232.64 -6705.6 8197.59 -6731 8157.97 -6751.32 8113.77 -6765.54 8064.5 -6774.68 8010.14 -6777.73 7895.84 -6777.73 7895.84 -6020.81 7791.7 -6020.81 7791.7 -6864.09 8022.84 -6864.09 8090.91 -6860.03 8152.89 -6849.36 8209.28 -6831.58 8260.08 -6807.2 8305.29 -6775.7 8344.91 -6738.62 8377.93 -6694.93 8405.36 -6645.65 8427.21 -6590.79 8442.45 -6530.34 8451.59 -6464.8 8454.64 -6394.19 8451.59 -6323.58 8442.45 -6258.56 8427.21 -6199.12 8405.36 -6144.76 8377.93 -6097.01 8344.4 -6054.85 8304.78 -6018.27 8259.57 -5988.81 8208.26 -5964.93 8151.36 -5948.17 8088.88 -5937.5 8020.3 -5934.45"/><path d="M -43647.36 3675.38 -43715.94 3669.79 -43775.37 3654.04 -43826.68 3629.15 -43871.38 3596.13 -43909.48 3556 -43942.5 3510.28 -43971.97 3459.98 -43997.88 3406.14 -44076.62 3215.64 -44111.16 3139.94 -44155.36 3070.35 -44216.82 3019.55 -44302.68 2999.74 -44346.36 3004.31 -44384.97 3018.02 -44419.01 3039.87 -44447.46 3069.33 -44470.32 3105.91 -44487.08 3148.58 -44497.24 3197.35 -44500.8 3251.2 -44492.16 3339.59 -44467.27 3418.33 -44428.15 3489.45 -44376.34 3553.46 -44470.32 3632.2 -44504.86 3596.64 -44535.85 3557.52 -44563.28 3514.34 -44586.65 3467.6 -44604.94 3417.31 -44618.65 3364.48 -44627.29 3309.11 -44630.34 3251.2 -44627.29 3194.81 -44618.65 3140.96 -44604.94 3091.18 -44586.14 3044.44 -44562.77 3001.77 -44534.83 2963.67 -44502.83 2930.65 -44467.27 2902.71 -44427.64 2879.85 -44385.48 2863.59 -44340.27 2853.43 -44292.52 2849.88 -44225.97 2856.48 -44167.55 2874.26 -44117.76 2902.2 -44075.09 2937.76 -44039.02 2978.4 -44008.54 3023.61 -43983.14 3070.35 -43878.5 3304.54 -43836.84 3391.4 -43814.49 3429 -43789.09 3461.51 -43760.13 3488.43 -43726.1 3508.24 -43685.46 3520.94 -43637.2 3525.52 -43589.44 3520.44 -43546.77 3506.21 -43508.67 3482.34 -43475.65 3449.82 -43449.74 3409.18 -43429.93 3360.42 -43417.74 3304.54 -43413.68 3241.04 -43416.72 3189.22 -43425.36 3138.42 -43439.08 3088.64 -43458.38 3040.88 -43481.75 2995.67 -43510.2 2952.49 -43542.71 2912.36 -43578.78 2875.28 -43477.18 2786.38 -43434.5 2830.06 -43396.4 2878.32 -43363.38 2929.63 -43335.95 2985 -43313.6 3043.42 -43297.34 3105.4 -43287.69 3170.42 -43284.14 3238.5 -43287.18 3303.52 -43296.84 3364.48 -43312.08 3420.36 -43332.9 3471.67 -43358.81 3517.39 -43389.29 3558.03 -43424.34 3593.08 -43462.95 3622.04 -43505.12 3644.9 -43549.82 3661.66 -43597.57 3671.82"/><path d="M -44607.48 2727.96 -44607.48 1783.08 -44483.02 1783.08 -44483.02 2179.32 -43307 2179.32 -43307 2329.17 -44483.02 2329.17 -44483.02 2727.96"/><path d="M -43431.46 1630.68 -43431.46 1018.54 -43931.84 1018.54 -43931.84 1516.38 -44056.3 1516.38 -44056.3 1018.54 -44483.02 1018.54 -44483.02 1610.36 -44607.48 1610.36 -44607.48 868.68 -43307 868.68 -43307 1630.68"/><path d="M -43307 637.54 -43883.58 299.71 -43902.37 365.76 -43928.79 425.19 -43962.82 477.01 -44004.48 520.19 -44053.25 555.24 -44110.14 580.64 -44174.66 596.39 -44246.8 601.98 -44309.79 598.42 -44366.18 587.24 -44415.45 569.46 -44458.63 544.57 -44495.72 514.09 -44527.21 477.01 -44552.61 434.84 -44573.44 387.6 -44588.68 335.28 -44599.35 278.38 -44605.44 217.42 -44607.48 152.4 -44607.48 -96.52 -44488.1 -96.52 -44488.1 129.54 -44485.05 204.21 -44475.4 269.24 -44458.63 325.12 -44434.25 371.34 -44401.23 407.41 -44359.57 433.32 -44308.26 449.58 -44246.8 454.66 -44186.34 449.58 -44134.02 433.32 -44089.82 407.41 -44053.76 371.34 -44025.82 325.12 -44006 269.24 -43994.32 204.21 -43990.26 129.54 -43990.26 -96.52 -44607.48 -96.52 -44607.48 -243.84 -43307 -243.84 -43307 -96.52 -43868.34 -96.52 -43868.34 147.32 -43307 472.44"/><path d="M -44607.48 -474.98 -44607.48 -1216.66 -43307 -1216.66 -43307 -1069.33 -43901.36 -1069.33 -43901.36 -566.41 -44025.82 -566.41 -44025.82 -1069.33 -44483.02 -1069.33 -44483.02 -474.98"/><path d="M -4942.96 24754.94 -4193.66 24754.94 -4602.6 24208.84 -4399.4 24208.84 -4262.24 24140.26 -4193.66 24071.68 -4125.08 23868.48 -4125.08 23731.32 -4193.66 23528.12 -4330.82 23390.96 -4534.02 23322.38 -4739.76 23322.38 -4942.96 23390.96 -5011.54 23459.54 -5080.12 23596.7 M -3675.5 24277.42 -3266.56 23322.38 M -2857.62 24277.42 -3266.56 23322.38 M -2270.88 24754.94 -1521.58 24754.94 -1930.52 24208.84 -1724.78 24208.84 -1590.16 24140.26 -1521.58 24071.68 -1453 23868.48 -1453 23731.32 -1521.58 23528.12 -1656.2 23390.96 -1861.94 23322.38 -2065.14 23322.38 -2270.88 23390.96 -2339.46 23459.54 -2408.04 23596.7 M -4183.58 20857.36 -4252.16 20994.52 -4389.32 21129.14 -4523.94 21197.72 -4798.26 21197.72 -4935.42 21129.14 -5070.04 20994.52 -5138.62 20857.36 -5207.2 20654.16 -5207.2 20311.26 -5138.62 20108.06 -5070.04 19970.9 -4935.42 19833.74 -4798.26 19767.7 -4523.94 19767.7 -4389.32 19833.74 -4252.16 19970.9 -4183.58 20108.06 -4183.58 20311.26 M -4523.94 20311.26 -4183.58 20311.26 M -3734 21197.72 -3734 19767.7 M -3734 21197.72 -2778.96 19767.7 M -2778.96 21197.72 -2778.96 19767.7 M -2329.38 21197.72 -2329.38 19767.7 M -2329.38 21197.72 -1851.86 21197.72 -1648.66 21129.14 -1511.5 20994.52 -1442.92 20857.36 -1374.34 20654.16 -1374.34 20311.26 -1442.92 20108.06 -1511.5 19970.9 -1648.66 19833.74 -1851.86 19767.7 -2329.38 19767.7 M -4533.89 18023.84 -5080 16591.28 M -4533.89 18023.84 -3987.79 16591.28 M -4874.26 17068.79 -4193.54 17068.79 M -3538.21 17546.31 -3538.21 16591.28 M -3538.21 17274.54 -3335.02 17477.73 -3197.86 17546.31 -2994.65 17546.31 -2857.5 17477.73 -2788.92 17274.54 -2788.92 16591.28 M -1521.45 17546.31 -1521.45 16591.28 M -1521.45 17340.57 -1656.07 17477.73 -1793.23 17546.31 -1998.97 17546.31 -2133.6 17477.73 -2270.76 17340.57 -2339.34 17137.37 -2339.34 17000.21 -2270.76 16797.02 -2133.6 16659.86 -1998.97 16591.28 -1793.23 16591.28 -1656.07 16659.86 -1521.45 16797.02 M -1071.87 18023.84 -1071.87 16591.28 M -279.39 17546.31 -416.55 17477.73 -553.71 17340.57 -619.76 17137.37 -619.76 17000.21 -553.71 16797.02 -416.55 16659.86 -279.39 16591.28 -76.2 16591.28 60.95 16659.86 198.12 16797.02 266.7 17000.21 266.7 17137.37 198.12 17340.57 60.95 17477.73 -76.2 17546.31 -279.39 17546.31 M 1534.15 17546.31 1534.15 16454.12 1465.57 16250.92 1397 16182.34 1259.84 16113.76 1056.63 16113.76 919.47 16182.34 M 1534.15 17340.57 1397 17477.73 1259.84 17546.31 1056.63 17546.31 919.47 17477.73 784.86 17340.57 716.28 17137.37 716.28 17000.21 784.86 16797.02 919.47 16659.86 1056.63 16591.28 1259.84 16591.28 1397 16659.86 1534.15 16797.02 M -5080 15483.84 -5080 14051.28 M -5080 15483.84 -4602.47 15483.84 -4399.28 15415.26 -4262.12 15278.1 -4193.54 15143.47 -4124.95 14937.73 -4124.95 14597.37 -4193.54 14391.63 -4262.12 14257.02 -4399.28 14119.86 -4602.47 14051.28 -5080 14051.28 M -3675.37 15483.84 -3606.79 15415.26 -3538.21 15483.84 -3606.79 15552.42 -3675.37 15483.84 M -3606.79 15006.31 -3606.79 14051.28 M -2270.76 15006.31 -2270.76 13914.12 -2339.34 13710.92 -2407.92 13642.34 -2542.54 13573.76 -2748.28 13573.76 -2885.44 13642.34 M -2270.76 14800.57 -2407.92 14937.73 -2542.54 15006.31 -2748.28 15006.31 -2885.44 14937.73 -3020.05 14800.57 -3088.63 14597.37 -3088.63 14460.21 -3020.05 14257.02 -2885.44 14119.86 -2748.28 14051.28 -2542.54 14051.28 -2407.92 14119.86 -2270.76 14257.02 M -1821.18 15483.84 -1752.6 15415.26 -1684.02 15483.84 -1752.6 15552.42 -1821.18 15483.84 M -1752.6 15006.31 -1752.6 14051.28 M -1028.7 15483.84 -1028.7 14325.6 -962.65 14119.86 -825.5 14051.28 -688.34 14051.28 M -1234.44 15006.31 -756.92 15006.31 M 579.12 15006.31 579.12 14051.28 M 579.12 14800.57 441.95 14937.73 307.34 15006.31 101.6 15006.31 -35.55 14937.73 -170.18 14800.57 -238.76 14597.37 -238.76 14460.21 -170.18 14257.02 -35.55 14119.86 101.6 14051.28 307.34 14051.28 441.95 14119.86 579.12 14257.02 M 1028.7 15483.84 1028.7 14051.28 M 22981.41 -39526.48 24891.49 -40799.02 M 22981.41 -40799.02 22981.41 -39526.48 M 24891.49 -40799.02 24891.49 -39526.48 M 22981.41 -38927.04 23072.85 -38835.6 22981.41 -38744.16 22889.97 -38835.6 22981.41 -38927.04 M 23618.95 -38835.6 24891.49 -38835.6 M 23618.95 -38144.72 25526.49 -38144.72 M 23890.73 -38144.72 23707.85 -37964.38 23618.95 -37781.5 23618.95 -37509.72 23707.85 -37326.84 23890.73 -37146.5 24162.51 -37055.06 24345.39 -37055.06 24617.17 -37146.5 24800.05 -37326.84 24891.49 -37509.72 24891.49 -37781.5 24800.05 -37964.38 24617.17 -38144.72 M 22981.41 -36181.3 24528.27 -36181.3 24800.05 -36089.86 24891.49 -35909.52 24891.49 -35726.64 M 23618.95 -36455.62 23618.95 -35818.08 M 22981.41 -35127.2 23072.85 -35035.76 22981.41 -34944.32 22889.97 -35035.76 22981.41 -35127.2 M 23618.95 -35035.76 24891.49 -35035.76 M 24162.51 -34344.88 24162.51 -33255.22 23982.17 -33255.22 23799.29 -33344.12 23707.85 -33435.56 23618.95 -33618.44 23618.95 -33890.22 23707.85 -34073.1 23890.73 -34253.44 24162.51 -34344.88 24345.39 -34344.88 24617.17 -34253.44 24800.05 -34073.1 24891.49 -33890.22 24891.49 -33618.44 24800.05 -33435.56 24617.17 -33255.22" fill="none" stroke-width="203.2"/><path d="M -40499.91 -26999.94 10499.97 -26999.94" fill="none" stroke-width="254"/><path d="M 34291.7 -24254.84 34291.7 -22984.81 M -8254.97 17144.97 -6985 17144.97 M -42034.89 21588.22 -40764.86 21588.22 M -42034.89 16508.22 -40764.86 16508.22" fill="none" stroke-width="170"/><path d="M -40499.91 -47999.9 10499.97 -47999.9 M 10499.97 -26999.94 10499.97 -47999.9 M 11799.95 -33500.05 11799.95 -41500.04 5799.96 -41500.04 5799.96 -33500.05 11799.95 -33500.05 M -40499.91 -26999.94 -40499.91 -47999.9" fill="none" stroke-width="254"/><path d="M 26176.17 9921.98 A 999.9912325 999.9912325 0 1 1 26173.02 11921.97" fill="none" stroke-width="170"/><path d="M -41910 24130 A 1270 1270 0 0 1 -44450 24130 1270 1270 0 0 1 -41910 24130 M 33020 -25400 A 1270 1270 0 0 1 30480 -25400 1270 1270 0 0 1 33020 -25400 M -6350 24130 A 1270 1270 0 0 1 -8890 24130 1270 1270 0 0 1 -6350 24130" fill="none" stroke-width="254"/><path d="M -37973 22860 -30226 22860 -30226 22606 -37973 22606"/><path d="M -38227 23876 -37973 23876 -37973 22606 -38227 22606"/><path d="M -30480 23876 -30226 23876 -30226 22606 -30480 22606"/><path d="M -39370 6350 -39116 6350 -39116 -3810 -39370 -3810"/><path d="M -40386 6477 -39116 6477 -39116 6223 -40386 6223"/><path d="M -40386 -3683 -39116 -3683 -39116 -3937 -40386 -3937"/><path d="M -8890 21590 -6350 21590 -6350 19050 -8890 19050"/><path d="M -8763 14224 -6262.87 14224 -6262.87 13970 -8763 13970"/><path d="M -6350 15240 -6096 15240 -6096 13970 -6350 13970"/><path d="M -8890 15240 -8636 15240 -8636 13970 -8890 13970"/><path d="M 38100 -20320 38354 -20320 38354 -22860 38100 -22860"/><path d="M 38100 -20320 39370 -20320 39370 -20574 38100 -20574"/><path d="M 38100 -22860 39370 -22860 39370 -23114 38100 -23114"/><path d="M 40005 8890 41275 8890 41275 8636 40005 8636"/><path d="M 41275 8890 41529 8890 41529 7620 41275 7620"/><path d="M 39751 8890 40005 8890 40005 7620 39751 7620"/></g><g id="xJ34lHRBWvyOdLc7338r_top_copper"><path d="M -40640 19050 -41274.94 19050 -41274.94 14605 -40004.94 13335 -40004.94 -4444.94 -41910 -6350 M -41910 -1270 -43609.26 -2969.26 -43609.26 -21590 -36588.7 -28610.55 M -40640 19050 -43180 19050 M -43180 21590 -33019.92 21589.94 M -33019.92 21590 -32992.05 21590 -16101.05 4699 M -43180 24130 -41910 22860 -31750 22860 -14986 6096" fill="none" stroke-width="254"/><path d="M -41910 1270 -43286.68 1270 -44450 106.68 -44450 -25400 -39370 -30480 -31750 -30480 -31508.7 -30238.7 -31508.7 -28610.55" fill="none" stroke-width="170"/><path d="M -14986 6096 -14986 -26464.26 M 36829.92 -25399.94 40640.17 -25399.94 M 31749.92 -25399.94 27939.92 -25399.94 20319.94 -33019.92 12339.9 -33019.92 -1029.96 -46389.79 M -1029.96 -28610.05 11429.97 -16150.1 11429.97 -11429.97 M 9131.29 -28610.55 23713.43 -28610.55 29464 -22860 40640 -22860 M 11429.97 -11429.97 11429.97 -1569.99 24999.95 11999.97 M 40640 6539.99 30669.94 6539.99 13969.97 -10159.97 13969.97 -16150.1 1510.03 -28610.05 M -11188.7 -46390.55 -17526 -40053.26 -17526 -26670 -16101.05 -25245.05 -16101.05 4699 M -1028.7 -46390.55 -14986 -32433.26 -14986 -26162" fill="none" stroke-width="254"/><use xlink:href="#g7NQuAdN4rsyfTYGPAL5_pad-12" x="40640" y="-25400"/><use xlink:href="#g7NQuAdN4rsyfTYGPAL5_pad-13" x="40640" y="-22860"/><use xlink:href="#g7NQuAdN4rsyfTYGPAL5_pad-13" x="40640" y="-20320"/><use xlink:href="#g7NQuAdN4rsyfTYGPAL5_pad-12" x="36829.74" y="-25400"/><use xlink:href="#g7NQuAdN4rsyfTYGPAL5_pad-13" x="34290" y="-25400"/><use xlink:href="#g7NQuAdN4rsyfTYGPAL5_pad-13" x="31750" y="-25400"/><use xlink:href="#g7NQuAdN4rsyfTYGPAL5_pad-13" x="-41910" y="1270"/><use xlink:href="#g7NQuAdN4rsyfTYGPAL5_pad-13" x="-41910" y="3810"/><use xlink:href="#g7NQuAdN4rsyfTYGPAL5_pad-13" x="-41910" y="6350"/><use xlink:href="#g7NQuAdN4rsyfTYGPAL5_pad-13" x="-41910" y="-1270"/><use xlink:href="#g7NQuAdN4rsyfTYGPAL5_pad-13" x="-41910" y="-3810"/><use xlink:href="#g7NQuAdN4rsyfTYGPAL5_pad-12" x="-41910" y="-6350"/><use xlink:href="#g7NQuAdN4rsyfTYGPAL5_pad-13" x="-43180" y="24130"/><use xlink:href="#g7NQuAdN4rsyfTYGPAL5_pad-13" x="-43180" y="21590"/><use xlink:href="#g7NQuAdN4rsyfTYGPAL5_pad-12" x="-43180" y="19050"/><use xlink:href="#g7NQuAdN4rsyfTYGPAL5_pad-13" x="-43180" y="16510"/><use xlink:href="#g7NQuAdN4rsyfTYGPAL5_pad-14" x="3849.87" y="-6499.86"/><use xlink:href="#g7NQuAdN4rsyfTYGPAL5_pad-14" x="-2540" y="-3919.98"/><use xlink:href="#g7NQuAdN4rsyfTYGPAL5_pad-14" x="-3810" y="6459.98"/><use xlink:href="#g7NQuAdN4rsyfTYGPAL5_pad-14" x="2540" y="3919.98"/><use xlink:href="#g7NQuAdN4rsyfTYGPAL5_pad-15" x="24999.95" y="5999.98"/><use xlink:href="#g7NQuAdN4rsyfTYGPAL5_pad-16" x="24999.95" y="3999.99"/><use xlink:href="#g7NQuAdN4rsyfTYGPAL5_pad-15" x="24999.95" y="11999.97"/><use xlink:href="#g7NQuAdN4rsyfTYGPAL5_pad-15" x="24999.95" y="9999.97"/><use xlink:href="#g7NQuAdN4rsyfTYGPAL5_pad-12" x="-40640" y="25400"/><use xlink:href="#g7NQuAdN4rsyfTYGPAL5_pad-13" x="-38100" y="25400"/><use xlink:href="#g7NQuAdN4rsyfTYGPAL5_pad-13" x="-35560" y="25400"/><use xlink:href="#g7NQuAdN4rsyfTYGPAL5_pad-13" x="-33020" y="25400"/><use xlink:href="#g7NQuAdN4rsyfTYGPAL5_pad-13" x="-30480" y="25400"/><use xlink:href="#g7NQuAdN4rsyfTYGPAL5_pad-17" x="34999.93" y="0"/><use xlink:href="#g7NQuAdN4rsyfTYGPAL5_pad-18" x="35124.89" y="15999.96"/><use xlink:href="#g7NQuAdN4rsyfTYGPAL5_pad-18" x="35124.89" y="-15999.96"/><use xlink:href="#g7NQuAdN4rsyfTYGPAL5_pad-18" x="-35625.02" y="-15999.96"/><use xlink:href="#g7NQuAdN4rsyfTYGPAL5_pad-18" x="-35625.02" y="15999.96"/><use xlink:href="#g7NQuAdN4rsyfTYGPAL5_pad-13" x="40640" y="6539.99"/><use xlink:href="#g7NQuAdN4rsyfTYGPAL5_pad-17" x="-34999.93" y="0"/><use xlink:href="#g7NQuAdN4rsyfTYGPAL5_pad-19" x="-22249.89" y="23499.82"/><use xlink:href="#g7NQuAdN4rsyfTYGPAL5_pad-20" x="20249.89" y="23499.82"/><use xlink:href="#g7NQuAdN4rsyfTYGPAL5_pad-21" x="-22249.89" y="-20750.02"/><use xlink:href="#g7NQuAdN4rsyfTYGPAL5_pad-22" x="20249.89" y="-20750.02"/><use xlink:href="#g7NQuAdN4rsyfTYGPAL5_pad-23" x="-39129.71" y="-28610.05"/><use xlink:href="#g7NQuAdN4rsyfTYGPAL5_pad-23" x="-36589.71" y="-28610.05"/><use xlink:href="#g7NQuAdN4rsyfTYGPAL5_pad-24" x="-34049.96" y="-28610.05"/><use xlink:href="#g7NQuAdN4rsyfTYGPAL5_pad-23" x="-31509.71" y="-28610.05"/><use xlink:href="#g7NQuAdN4rsyfTYGPAL5_pad-23" x="-28969.71" y="-28610.05"/><use xlink:href="#g7NQuAdN4rsyfTYGPAL5_pad-23" x="-26429.71" y="-28610.05"/><use xlink:href="#g7NQuAdN4rsyfTYGPAL5_pad-23" x="-23889.71" y="-28610.05"/><use xlink:href="#g7NQuAdN4rsyfTYGPAL5_pad-24" x="-21349.96" y="-28610.05"/><use xlink:href="#g7NQuAdN4rsyfTYGPAL5_pad-23" x="-18809.96" y="-28610.05"/><use xlink:href="#g7NQuAdN4rsyfTYGPAL5_pad-23" x="-16269.96" y="-28610.05"/><use xlink:href="#g7NQuAdN4rsyfTYGPAL5_pad-23" x="9130.03" y="-28610.05"/><use xlink:href="#g7NQuAdN4rsyfTYGPAL5_pad-23" x="6590.03" y="-28610.05"/><use xlink:href="#g7NQuAdN4rsyfTYGPAL5_pad-24" x="4050.03" y="-28610.05"/><use xlink:href="#g7NQuAdN4rsyfTYGPAL5_pad-23" x="1510.03" y="-28610.05"/><use xlink:href="#g7NQuAdN4rsyfTYGPAL5_pad-23" x="-1029.96" y="-28610.05"/><use xlink:href="#g7NQuAdN4rsyfTYGPAL5_pad-23" x="-3569.96" y="-28610.05"/><use xlink:href="#g7NQuAdN4rsyfTYGPAL5_pad-23" x="-6109.96" y="-28610.05"/><use xlink:href="#g7NQuAdN4rsyfTYGPAL5_pad-24" x="-8649.96" y="-28610.05"/><use xlink:href="#g7NQuAdN4rsyfTYGPAL5_pad-23" x="-11189.96" y="-28610.05"/><use xlink:href="#g7NQuAdN4rsyfTYGPAL5_pad-23" x="-13729.96" y="-28610.05"/><use xlink:href="#g7NQuAdN4rsyfTYGPAL5_pad-23" x="-13729.96" y="-46389.79"/><use xlink:href="#g7NQuAdN4rsyfTYGPAL5_pad-23" x="-11189.96" y="-46389.79"/><use xlink:href="#g7NQuAdN4rsyfTYGPAL5_pad-24" x="-8649.96" y="-46389.79"/><use xlink:href="#g7NQuAdN4rsyfTYGPAL5_pad-23" x="-6109.96" y="-46389.79"/><use xlink:href="#g7NQuAdN4rsyfTYGPAL5_pad-23" x="-3569.96" y="-46389.79"/><use xlink:href="#g7NQuAdN4rsyfTYGPAL5_pad-23" x="-1029.96" y="-46389.79"/><use xlink:href="#g7NQuAdN4rsyfTYGPAL5_pad-23" x="1510.03" y="-46389.79"/><use xlink:href="#g7NQuAdN4rsyfTYGPAL5_pad-24" x="4050.03" y="-46389.79"/><use xlink:href="#g7NQuAdN4rsyfTYGPAL5_pad-23" x="6590.03" y="-46389.79"/><use xlink:href="#g7NQuAdN4rsyfTYGPAL5_pad-23" x="9130.03" y="-46389.79"/><use xlink:href="#g7NQuAdN4rsyfTYGPAL5_pad-23" x="-16269.96" y="-46389.79"/><use xlink:href="#g7NQuAdN4rsyfTYGPAL5_pad-23" x="-18809.96" y="-46389.79"/><use xlink:href="#g7NQuAdN4rsyfTYGPAL5_pad-24" x="-21349.96" y="-46389.79"/><use xlink:href="#g7NQuAdN4rsyfTYGPAL5_pad-23" x="-23889.71" y="-46389.79"/><use xlink:href="#g7NQuAdN4rsyfTYGPAL5_pad-23" x="-26429.71" y="-46389.79"/><use xlink:href="#g7NQuAdN4rsyfTYGPAL5_pad-23" x="-28969.71" y="-46389.79"/><use xlink:href="#g7NQuAdN4rsyfTYGPAL5_pad-23" x="-31509.71" y="-46389.79"/><use xlink:href="#g7NQuAdN4rsyfTYGPAL5_pad-24" x="-34049.96" y="-46389.79"/><use xlink:href="#g7NQuAdN4rsyfTYGPAL5_pad-23" x="-36589.71" y="-46389.79"/><use xlink:href="#g7NQuAdN4rsyfTYGPAL5_pad-23" x="-39129.71" y="-46389.79"/><use xlink:href="#g7NQuAdN4rsyfTYGPAL5_pad-12" x="40639.74" y="3999.99"/><use xlink:href="#g7NQuAdN4rsyfTYGPAL5_pad-25" x="28500.06" y="-30399.98"/><use xlink:href="#g7NQuAdN4rsyfTYGPAL5_pad-25" x="28500.06" y="-44399.96"/><use xlink:href="#g7NQuAdN4rsyfTYGPAL5_pad-26" x="-40639.92" y="19049.94"/></g><g id="xJ34lHRBWvyOdLc7338r_top_soldermask"><use xlink:href="#zBvaCC18pnsDmcCcIC_O_pad-10" x="40640.07" y="-25400.02"/><use xlink:href="#zBvaCC18pnsDmcCcIC_O_pad-11" x="40640" y="-22860"/><use xlink:href="#zBvaCC18pnsDmcCcIC_O_pad-11" x="40640" y="-20320"/><use xlink:href="#zBvaCC18pnsDmcCcIC_O_pad-12" x="36829.84" y="-25399.89"/><use xlink:href="#zBvaCC18pnsDmcCcIC_O_pad-11" x="34290" y="-25400"/><use xlink:href="#zBvaCC18pnsDmcCcIC_O_pad-11" x="31750" y="-25400"/><use xlink:href="#zBvaCC18pnsDmcCcIC_O_pad-11" x="-41910" y="1270"/><use xlink:href="#zBvaCC18pnsDmcCcIC_O_pad-11" x="-41910" y="3810"/><use xlink:href="#zBvaCC18pnsDmcCcIC_O_pad-11" x="-41910" y="6350"/><use xlink:href="#zBvaCC18pnsDmcCcIC_O_pad-11" x="-41910" y="-1270"/><use xlink:href="#zBvaCC18pnsDmcCcIC_O_pad-11" x="-41910" y="-3810"/><use xlink:href="#zBvaCC18pnsDmcCcIC_O_pad-10" x="-41909.92" y="-6350"/><use xlink:href="#zBvaCC18pnsDmcCcIC_O_pad-11" x="-43180" y="24130"/><use xlink:href="#zBvaCC18pnsDmcCcIC_O_pad-11" x="-43180" y="21590"/><use xlink:href="#zBvaCC18pnsDmcCcIC_O_pad-13" x="-43179.92" y="19049.94"/><use xlink:href="#zBvaCC18pnsDmcCcIC_O_pad-11" x="-43180" y="16510"/><use xlink:href="#zBvaCC18pnsDmcCcIC_O_pad-14" x="3849.87" y="-6499.86"/><use xlink:href="#zBvaCC18pnsDmcCcIC_O_pad-14" x="-2540" y="-3919.98"/><use xlink:href="#zBvaCC18pnsDmcCcIC_O_pad-14" x="-3810" y="6459.98"/><use xlink:href="#zBvaCC18pnsDmcCcIC_O_pad-14" x="2540" y="3919.98"/><use xlink:href="#zBvaCC18pnsDmcCcIC_O_pad-15" x="24999.95" y="5999.98"/><use xlink:href="#zBvaCC18pnsDmcCcIC_O_pad-16" x="24999.95" y="3999.99"/><use xlink:href="#zBvaCC18pnsDmcCcIC_O_pad-15" x="24999.95" y="11999.97"/><use xlink:href="#zBvaCC18pnsDmcCcIC_O_pad-15" x="24999.95" y="9999.97"/><use xlink:href="#zBvaCC18pnsDmcCcIC_O_pad-12" x="-40639.92" y="25399.94"/><use xlink:href="#zBvaCC18pnsDmcCcIC_O_pad-11" x="-38100" y="25400"/><use xlink:href="#zBvaCC18pnsDmcCcIC_O_pad-11" x="-35560" y="25400"/><use xlink:href="#zBvaCC18pnsDmcCcIC_O_pad-11" x="-33020" y="25400"/><use xlink:href="#zBvaCC18pnsDmcCcIC_O_pad-11" x="-30480" y="25400"/><use xlink:href="#zBvaCC18pnsDmcCcIC_O_pad-17" x="34999.93" y="0"/><use xlink:href="#zBvaCC18pnsDmcCcIC_O_pad-18" x="35124.89" y="15999.96"/><use xlink:href="#zBvaCC18pnsDmcCcIC_O_pad-18" x="35124.89" y="-15999.96"/><use xlink:href="#zBvaCC18pnsDmcCcIC_O_pad-18" x="-35625.02" y="-15999.96"/><use xlink:href="#zBvaCC18pnsDmcCcIC_O_pad-18" x="-35625.02" y="15999.96"/><use xlink:href="#zBvaCC18pnsDmcCcIC_O_pad-11" x="40640" y="6539.99"/><use xlink:href="#zBvaCC18pnsDmcCcIC_O_pad-17" x="-34999.93" y="0"/><use xlink:href="#zBvaCC18pnsDmcCcIC_O_pad-19" x="-22249.89" y="23499.82"/><use xlink:href="#zBvaCC18pnsDmcCcIC_O_pad-20" x="20249.89" y="23499.82"/><use xlink:href="#zBvaCC18pnsDmcCcIC_O_pad-21" x="-22249.89" y="-20750.02"/><use xlink:href="#zBvaCC18pnsDmcCcIC_O_pad-22" x="20249.89" y="-20750.02"/><use xlink:href="#zBvaCC18pnsDmcCcIC_O_pad-23" x="-39129.71" y="-28610.05"/><use xlink:href="#zBvaCC18pnsDmcCcIC_O_pad-23" x="-36589.71" y="-28610.05"/><use xlink:href="#zBvaCC18pnsDmcCcIC_O_pad-24" x="-34049.94" y="-28609.95"/><use xlink:href="#zBvaCC18pnsDmcCcIC_O_pad-23" x="-31509.71" y="-28610.05"/><use xlink:href="#zBvaCC18pnsDmcCcIC_O_pad-23" x="-28969.71" y="-28610.05"/><use xlink:href="#zBvaCC18pnsDmcCcIC_O_pad-23" x="-26429.71" y="-28610.05"/><use xlink:href="#zBvaCC18pnsDmcCcIC_O_pad-23" x="-23889.71" y="-28610.05"/><use xlink:href="#zBvaCC18pnsDmcCcIC_O_pad-24" x="-21349.97" y="-28609.95"/><use xlink:href="#zBvaCC18pnsDmcCcIC_O_pad-23" x="-18809.96" y="-28610.05"/><use xlink:href="#zBvaCC18pnsDmcCcIC_O_pad-23" x="-16269.96" y="-28610.05"/><use xlink:href="#zBvaCC18pnsDmcCcIC_O_pad-23" x="9130.03" y="-28610.05"/><use xlink:href="#zBvaCC18pnsDmcCcIC_O_pad-23" x="6590.03" y="-28610.05"/><use xlink:href="#zBvaCC18pnsDmcCcIC_O_pad-24" x="4049.97" y="-28609.95"/><use xlink:href="#zBvaCC18pnsDmcCcIC_O_pad-23" x="1510.03" y="-28610.05"/><use xlink:href="#zBvaCC18pnsDmcCcIC_O_pad-23" x="-1029.96" y="-28610.05"/><use xlink:href="#zBvaCC18pnsDmcCcIC_O_pad-23" x="-3569.96" y="-28610.05"/><use xlink:href="#zBvaCC18pnsDmcCcIC_O_pad-23" x="-6109.96" y="-28610.05"/><use xlink:href="#zBvaCC18pnsDmcCcIC_O_pad-24" x="-8649.99" y="-28609.95"/><use xlink:href="#zBvaCC18pnsDmcCcIC_O_pad-23" x="-11189.96" y="-28610.05"/><use xlink:href="#zBvaCC18pnsDmcCcIC_O_pad-23" x="-13729.96" y="-28610.05"/><use xlink:href="#zBvaCC18pnsDmcCcIC_O_pad-23" x="-13729.96" y="-46389.79"/><use xlink:href="#zBvaCC18pnsDmcCcIC_O_pad-23" x="-11189.96" y="-46389.79"/><use xlink:href="#zBvaCC18pnsDmcCcIC_O_pad-24" x="-8649.99" y="-46389.89"/><use xlink:href="#zBvaCC18pnsDmcCcIC_O_pad-23" x="-6109.96" y="-46389.79"/><use xlink:href="#zBvaCC18pnsDmcCcIC_O_pad-23" x="-3569.96" y="-46389.79"/><use xlink:href="#zBvaCC18pnsDmcCcIC_O_pad-23" x="-1029.96" y="-46389.79"/><use xlink:href="#zBvaCC18pnsDmcCcIC_O_pad-23" x="1510.03" y="-46389.79"/><use xlink:href="#zBvaCC18pnsDmcCcIC_O_pad-24" x="4049.97" y="-46389.89"/><use xlink:href="#zBvaCC18pnsDmcCcIC_O_pad-23" x="6590.03" y="-46389.79"/><use xlink:href="#zBvaCC18pnsDmcCcIC_O_pad-23" x="9130.03" y="-46389.79"/><use xlink:href="#zBvaCC18pnsDmcCcIC_O_pad-23" x="-16269.96" y="-46389.79"/><use xlink:href="#zBvaCC18pnsDmcCcIC_O_pad-23" x="-18809.96" y="-46389.79"/><use xlink:href="#zBvaCC18pnsDmcCcIC_O_pad-24" x="-21349.97" y="-46389.89"/><use xlink:href="#zBvaCC18pnsDmcCcIC_O_pad-23" x="-23889.71" y="-46389.79"/><use xlink:href="#zBvaCC18pnsDmcCcIC_O_pad-23" x="-26429.71" y="-46389.79"/><use xlink:href="#zBvaCC18pnsDmcCcIC_O_pad-23" x="-28969.71" y="-46389.79"/><use xlink:href="#zBvaCC18pnsDmcCcIC_O_pad-23" x="-31509.71" y="-46389.79"/><use xlink:href="#zBvaCC18pnsDmcCcIC_O_pad-24" x="-34049.94" y="-46389.89"/><use xlink:href="#zBvaCC18pnsDmcCcIC_O_pad-23" x="-36589.71" y="-46389.79"/><use xlink:href="#zBvaCC18pnsDmcCcIC_O_pad-23" x="-39129.71" y="-46389.79"/><use xlink:href="#zBvaCC18pnsDmcCcIC_O_pad-13" x="40639.84" y="4000.01"/><use xlink:href="#zBvaCC18pnsDmcCcIC_O_pad-25" x="28500.06" y="-30399.98"/><use xlink:href="#zBvaCC18pnsDmcCcIC_O_pad-25" x="28500.06" y="-44399.96"/></g><g id="xJ34lHRBWvyOdLc7338r_top_drill1"><use xlink:href="#_EgzZwi51HtbuenaufAd_pad-1" x="5080" y="-9000"/><use xlink:href="#_EgzZwi51HtbuenaufAd_pad-1" x="-5080" y="-9000"/><use xlink:href="#_EgzZwi51HtbuenaufAd_pad-1" x="-5080" y="9000"/><use xlink:href="#_EgzZwi51HtbuenaufAd_pad-1" x="5080" y="9000"/><path d="M 32925 16000 37325 16000 M 32925 -16000 37325 -16000 M -37825 -16000 -33425 -16000 M -37825 16000 -33425 16000" fill="none" stroke-width="2351"/><use xlink:href="#_EgzZwi51HtbuenaufAd_pad-3" x="0" y="-9000"/><use xlink:href="#_EgzZwi51HtbuenaufAd_pad-3" x="0" y="9000"/><path d="M 28000 -30400 29000 -30400 M 28000 -44400 29000 -44400" fill="none" stroke-width="4000"/><path d="M 33075 0 36925 0 M -36925 0 -33075 0" fill="none" stroke-width="4250"/><path d="M -24534 24517 -19966 22483 M 17966 22483 22534 24517 M -24503 -21500 -19996 -20000 M 17878 -19961 22622 -21539" fill="none" stroke-width="4501"/></g><g id="xJ34lHRBWvyOdLc7338r_top_drill2"><use xlink:href="#iU__VGsYGAE1t33CzdsC_pad-1" x="-40640" y="19050"/></g><g id="xJ34lHRBWvyOdLc7338r_top_drill3"><use xlink:href="#lNKQj-dYJvuDd15jv4cD_pad-1" x="-40640" y="19050"/><use xlink:href="#lNKQj-dYJvuDd15jv4cD_pad-2" x="25000" y="6000"/><use xlink:href="#lNKQj-dYJvuDd15jv4cD_pad-2" x="25000" y="4000"/><use xlink:href="#lNKQj-dYJvuDd15jv4cD_pad-2" x="25000" y="12000"/><use xlink:href="#lNKQj-dYJvuDd15jv4cD_pad-2" x="25000" y="10000"/><use xlink:href="#lNKQj-dYJvuDd15jv4cD_pad-3" x="-39130" y="-28610"/><use xlink:href="#lNKQj-dYJvuDd15jv4cD_pad-3" x="-36590" y="-28610"/><use xlink:href="#lNKQj-dYJvuDd15jv4cD_pad-3" x="-34050" y="-28610"/><use xlink:href="#lNKQj-dYJvuDd15jv4cD_pad-3" x="-31510" y="-28610"/><use xlink:href="#lNKQj-dYJvuDd15jv4cD_pad-3" x="-28970" y="-28610"/><use xlink:href="#lNKQj-dYJvuDd15jv4cD_pad-3" x="-26430" y="-28610"/><use xlink:href="#lNKQj-dYJvuDd15jv4cD_pad-3" x="-23890" y="-28610"/><use xlink:href="#lNKQj-dYJvuDd15jv4cD_pad-3" x="-21350" y="-28610"/><use xlink:href="#lNKQj-dYJvuDd15jv4cD_pad-3" x="-18810" y="-28610"/><use xlink:href="#lNKQj-dYJvuDd15jv4cD_pad-3" x="-16270" y="-28610"/><use xlink:href="#lNKQj-dYJvuDd15jv4cD_pad-3" x="9130" y="-28610"/><use xlink:href="#lNKQj-dYJvuDd15jv4cD_pad-3" x="6590" y="-28610"/><use xlink:href="#lNKQj-dYJvuDd15jv4cD_pad-3" x="4050" y="-28610"/><use xlink:href="#lNKQj-dYJvuDd15jv4cD_pad-3" x="1510" y="-28610"/><use xlink:href="#lNKQj-dYJvuDd15jv4cD_pad-3" x="-1030" y="-28610"/><use xlink:href="#lNKQj-dYJvuDd15jv4cD_pad-3" x="-3570" y="-28610"/><use xlink:href="#lNKQj-dYJvuDd15jv4cD_pad-3" x="-6110" y="-28610"/><use xlink:href="#lNKQj-dYJvuDd15jv4cD_pad-3" x="-8650" y="-28610"/><use xlink:href="#lNKQj-dYJvuDd15jv4cD_pad-3" x="-11190" y="-28610"/><use xlink:href="#lNKQj-dYJvuDd15jv4cD_pad-3" x="-13730" y="-28610"/><use xlink:href="#lNKQj-dYJvuDd15jv4cD_pad-3" x="-13730" y="-46390"/><use xlink:href="#lNKQj-dYJvuDd15jv4cD_pad-3" x="-11190" y="-46390"/><use xlink:href="#lNKQj-dYJvuDd15jv4cD_pad-3" x="-8650" y="-46390"/><use xlink:href="#lNKQj-dYJvuDd15jv4cD_pad-3" x="-6110" y="-46390"/><use xlink:href="#lNKQj-dYJvuDd15jv4cD_pad-3" x="-3570" y="-46390"/><use xlink:href="#lNKQj-dYJvuDd15jv4cD_pad-3" x="-1030" y="-46390"/><use xlink:href="#lNKQj-dYJvuDd15jv4cD_pad-3" x="1510" y="-46390"/><use xlink:href="#lNKQj-dYJvuDd15jv4cD_pad-3" x="4050" y="-46390"/><use xlink:href="#lNKQj-dYJvuDd15jv4cD_pad-3" x="6590" y="-46390"/><use xlink:href="#lNKQj-dYJvuDd15jv4cD_pad-3" x="9130" y="-46390"/><use xlink:href="#lNKQj-dYJvuDd15jv4cD_pad-3" x="-16270" y="-46390"/><use xlink:href="#lNKQj-dYJvuDd15jv4cD_pad-3" x="-18810" y="-46390"/><use xlink:href="#lNKQj-dYJvuDd15jv4cD_pad-3" x="-21350" y="-46390"/><use xlink:href="#lNKQj-dYJvuDd15jv4cD_pad-3" x="-23890" y="-46390"/><use xlink:href="#lNKQj-dYJvuDd15jv4cD_pad-3" x="-26430" y="-46390"/><use xlink:href="#lNKQj-dYJvuDd15jv4cD_pad-3" x="-28970" y="-46390"/><use xlink:href="#lNKQj-dYJvuDd15jv4cD_pad-3" x="-31510" y="-46390"/><use xlink:href="#lNKQj-dYJvuDd15jv4cD_pad-3" x="-34050" y="-46390"/><use xlink:href="#lNKQj-dYJvuDd15jv4cD_pad-3" x="-36590" y="-46390"/><use xlink:href="#lNKQj-dYJvuDd15jv4cD_pad-3" x="-39130" y="-46390"/><use xlink:href="#lNKQj-dYJvuDd15jv4cD_pad-4" x="40640" y="-25400"/><use xlink:href="#lNKQj-dYJvuDd15jv4cD_pad-4" x="40640" y="-22860"/><use xlink:href="#lNKQj-dYJvuDd15jv4cD_pad-4" x="40640" y="-20320"/><use xlink:href="#lNKQj-dYJvuDd15jv4cD_pad-4" x="36830" y="-25400"/><use xlink:href="#lNKQj-dYJvuDd15jv4cD_pad-4" x="34290" y="-25400"/><use xlink:href="#lNKQj-dYJvuDd15jv4cD_pad-4" x="31750" y="-25400"/><use xlink:href="#lNKQj-dYJvuDd15jv4cD_pad-4" x="-41910" y="1270"/><use xlink:href="#lNKQj-dYJvuDd15jv4cD_pad-4" x="-41910" y="3810"/><use xlink:href="#lNKQj-dYJvuDd15jv4cD_pad-4" x="-41910" y="6350"/><use xlink:href="#lNKQj-dYJvuDd15jv4cD_pad-4" x="-41910" y="-1270"/><use xlink:href="#lNKQj-dYJvuDd15jv4cD_pad-4" x="-41910" y="-3810"/><use xlink:href="#lNKQj-dYJvuDd15jv4cD_pad-4" x="-41910" y="-6350"/><use xlink:href="#lNKQj-dYJvuDd15jv4cD_pad-4" x="-43180" y="24130"/><use xlink:href="#lNKQj-dYJvuDd15jv4cD_pad-4" x="-43180" y="21590"/><use xlink:href="#lNKQj-dYJvuDd15jv4cD_pad-4" x="-43180" y="19050"/><use xlink:href="#lNKQj-dYJvuDd15jv4cD_pad-4" x="-43180" y="16510"/><use xlink:href="#lNKQj-dYJvuDd15jv4cD_pad-4" x="-40640" y="25400"/><use xlink:href="#lNKQj-dYJvuDd15jv4cD_pad-4" x="-38100" y="25400"/><use xlink:href="#lNKQj-dYJvuDd15jv4cD_pad-4" x="-35560" y="25400"/><use xlink:href="#lNKQj-dYJvuDd15jv4cD_pad-4" x="-33020" y="25400"/><use xlink:href="#lNKQj-dYJvuDd15jv4cD_pad-4" x="-30480" y="25400"/><use xlink:href="#lNKQj-dYJvuDd15jv4cD_pad-4" x="40640" y="6540"/><use xlink:href="#lNKQj-dYJvuDd15jv4cD_pad-4" x="40640" y="4000"/><path d="M 3847 -6500 3852 -6500 M -2543 -3920 -2537 -3920 M -3807 6460 -3813 6460 M 2543 3920 2537 3920" fill="none" stroke-width="1524"/></g><clipPath id="xJ34lHRBWvyOdLc7338r_top_outline"><path d="M -45001.18 0 -45001.18 27305 42672 27305 42672 -27178 31750 -27178 31750 -48000.92 -28999.18 -48000.92 -45001.18 -48000.92 -45001.18 0" fill="none" stroke-width="254"/></clipPath><mask id="xJ34lHRBWvyOdLc7338r_top_mech-mask"><g fill="#000" stroke="#000"><rect x="-45001.18" y="-48000.92" width="87673.18" height="75305.92" fill="#fff"/><use xlink:href="#xJ34lHRBWvyOdLc7338r_top_drill1"/><use xlink:href="#xJ34lHRBWvyOdLc7338r_top_drill2"/><use xlink:href="#xJ34lHRBWvyOdLc7338r_top_drill3"/></g></mask><mask id="xJ34lHRBWvyOdLc7338r_top_cf-mask"><g fill="#fff" stroke="#fff"><use xlink:href="#xJ34lHRBWvyOdLc7338r_top_soldermask"/></g></mask><mask id="xJ34lHRBWvyOdLc7338r_top_sm-mask"><g fill="#000" stroke="#000"><rect x="-45001.18" y="-48000.92" width="87673.18" height="75305.92" fill="#fff"/><use xlink:href="#xJ34lHRBWvyOdLc7338r_top_soldermask"/></g></mask></defs><g transform="translate(0,-20695.92) scale(1,-1)"><g mask="url(#xJ34lHRBWvyOdLc7338r_top_mech-mask)" clip-path="url(#xJ34lHRBWvyOdLc7338r_top_outline)"><rect x="-45001.18" y="-48000.92" width="87673.18" height="75305.92" fill="currentColor" class="xJ34lHRBWvyOdLc7338r_fr4"/><use xlink:href="#xJ34lHRBWvyOdLc7338r_top_copper" fill="currentColor" stroke="currentColor" class="xJ34lHRBWvyOdLc7338r_cu"/><use xlink:href="#xJ34lHRBWvyOdLc7338r_top_copper" fill="currentColor" stroke="currentColor" class="xJ34lHRBWvyOdLc7338r_cf" mask="url(#xJ34lHRBWvyOdLc7338r_top_cf-mask)"/><g mask="url(#xJ34lHRBWvyOdLc7338r_top_sm-mask)"><rect x="-45001.18" y="-48000.92" width="87673.18" height="75305.92" fill="currentColor" class="xJ34lHRBWvyOdLc7338r_sm"/><use xlink:href="#xJ34lHRBWvyOdLc7338r_top_silkscreen" fill="currentColor" stroke="currentColor" class="xJ34lHRBWvyOdLc7338r_ss"/></g></g></g></svg>