<svg version="1.1" xmlns="http://www.w3.org/2000/svg" xmlns:xlink="http://www.w3.org/1999/xlink" stroke-linecap="round" stroke-linejoin="round" stroke-width="0" fill-rule="evenodd" width="86.455mm" height="73.95641mm" viewBox="-44180 -47189.79 86455 73956.41" id="KfigaGXfokdHjOevvBqp"><defs><rect x="-1000" y="-1000" width="2000" height="2000" id="KfigaGXfokdHjOevvBqp_pad-12"/><circle cx="0" cy="0" r="1000" id="KfigaGXfokdHjOevvBqp_pad-13"/><circle cx="0" cy="0" r="1270" id="KfigaGXfokdHjOevvBqp_pad-14"/><circle cx="0" cy="0" r="762" id="KfigaGXfokdHjOevvBqp_pad-15"/><rect x="-762" y="-762" width="1524" height="1524" id="KfigaGXfokdHjOevvBqp_pad-16"/><rect x="-4049.9919" y="-2125.0021" width="8099.9838" height="4250.0042" rx="2125.0021" ry="2125.0021" id="KfigaGXfokdHjOevvBqp_pad-17"/><rect x="-3374.9996" y="-1175.004" width="6749.9992" height="2350.008" rx="1175.004" ry="1175.004" id="KfigaGXfokdHjOevvBqp_pad-18"/><g id="KfigaGXfokdHjOevvBqp_pad-19"><circle cx="-2283.9" cy="1016.8" r="2250"/><circle cx="2283.9" cy="-1016.8" r="2250"/><polygon points="-3199.01404,-1038.69661 1368.78596,-3072.29661 3199.01404,1038.69661 -1368.78596,3072.29661"/></g><g id="KfigaGXfokdHjOevvBqp_pad-20"><circle cx="-2283.9" cy="-1016.8" r="2250"/><circle cx="2283.9" cy="1016.8" r="2250"/><polygon points="-1368.78596,-3072.29661 3199.01404,-1038.69661 1368.78596,3072.29661 -3199.01404,1038.69661"/></g><g id="KfigaGXfokdHjOevvBqp_pad-21"><circle cx="-2253.6" cy="-749.7" r="2250"/><circle cx="2253.6" cy="749.7" r="2250"/><polygon points="-1543.36659,-2884.66335 2963.83341,-1385.26335 1543.36659,2884.66335 -2963.83341,1385.26335"/></g><g id="KfigaGXfokdHjOevvBqp_pad-22"><circle cx="-2372.2" cy="789.1" r="2250"/><circle cx="2372.2" cy="-789.1" r="2250"/><polygon points="-3082.38934,-1345.87801 1662.01066,-2924.07801 3082.38934,1345.87801 -1662.01066,2924.07801"/></g><circle cx="0" cy="0" r="800" id="KfigaGXfokdHjOevvBqp_pad-23"/><rect x="-800" y="-800" width="1600" height="1600" id="KfigaGXfokdHjOevvBqp_pad-24"/><rect x="-2499.995" y="-1999.996" width="4999.99" height="3999.992" rx="1999.996" ry="1999.996" id="KfigaGXfokdHjOevvBqp_pad-25"/><circle cx="0" cy="0" r="310" id="KfigaGXfokdHjOevvBqp_pad-26"/></defs><g transform="translate(0,-20423.17) scale(1,-1)" fill="currentColor" stroke="currentColor"><path d="M -41910 -6350 -41910 -20749.26 -34048.7 -28610.55 M -40639.92 20319.94 -40131.97 19812 -37420.37 19812 M -43180 19050 -42418 19812 -32512 19812 -26670 13970 -26670 -5080 -27940 -6350 -41910 -6350" fill="none" stroke-width="170"/><path d="M 24999.95 3999.99 40639.92 3999.99 M -1029.96 -46389.79 -1029.96 -31636.91 254 -30352.94 254 -25400 M -43180 24130 -39370 20320 -30480 20320 -13970 3810 -13970 -12700 -1270 -25400 30480 -25400 31750 -24130 M 41274.92 -24764.94 39369.92 -26669.94 27939.94 -26669.94 M 11429.97 -29209.94 13970 -26670 27940 -26670 M 11430 -29210 10160 -30480 1270 -30480 M -18809.96 -28610.05 -16940.07 -30479.94 -2540 -30479.94" fill="none" stroke-width="254"/><path d="M -41910 1270 -43286.68 1270 -43942 614.68 -43942 -29718 -43180 -30480 -33020 -30480 -31508.7 -28610.55" fill="none" stroke-width="170"/><path d="M 40640 4000.5 40640 381 41275 -254 41275 -19685 38755.31 -19685 M 36830 -24765 36830 -21595.07 M 36829.92 -21589.94 38734.92 -19684.94 41274.92 -19684.94 M 9131.29 -28610.55 11267.44 -28610.55 13843 -26035 37465 -26035 41275 -22225" fill="none" stroke-width="254"/><use xlink:href="#KfigaGXfokdHjOevvBqp_pad-12" x="41274.74" y="-19685"/><use xlink:href="#KfigaGXfokdHjOevvBqp_pad-13" x="41275" y="-22225"/><use xlink:href="#KfigaGXfokdHjOevvBqp_pad-13" x="41275" y="-24765"/><use xlink:href="#KfigaGXfokdHjOevvBqp_pad-12" x="36830" y="-24130"/><use xlink:href="#KfigaGXfokdHjOevvBqp_pad-13" x="34290" y="-24130"/><use xlink:href="#KfigaGXfokdHjOevvBqp_pad-13" x="31750" y="-24130"/><use xlink:href="#KfigaGXfokdHjOevvBqp_pad-13" x="-41910" y="1270"/><use xlink:href="#KfigaGXfokdHjOevvBqp_pad-13" x="-41910" y="3810"/><use xlink:href="#KfigaGXfokdHjOevvBqp_pad-13" x="-41910" y="6350"/><use xlink:href="#KfigaGXfokdHjOevvBqp_pad-13" x="-41910" y="-1270"/><use xlink:href="#KfigaGXfokdHjOevvBqp_pad-13" x="-41910" y="-3810"/><use xlink:href="#KfigaGXfokdHjOevvBqp_pad-12" x="-41910" y="-6350"/><use xlink:href="#KfigaGXfokdHjOevvBqp_pad-13" x="-43180" y="24130"/><use xlink:href="#KfigaGXfokdHjOevvBqp_pad-13" x="-43180" y="21590"/><use xlink:href="#KfigaGXfokdHjOevvBqp_pad-12" x="-43180" y="19050"/><use xlink:href="#KfigaGXfokdHjOevvBqp_pad-13" x="-43180" y="16510"/><use xlink:href="#KfigaGXfokdHjOevvBqp_pad-14" x="3849.87" y="-6499.86"/><use xlink:href="#KfigaGXfokdHjOevvBqp_pad-14" x="-2540" y="-3919.98"/><use xlink:href="#KfigaGXfokdHjOevvBqp_pad-14" x="-3810" y="6459.98"/><use xlink:href="#KfigaGXfokdHjOevvBqp_pad-14" x="2540" y="3919.98"/><use xlink:href="#KfigaGXfokdHjOevvBqp_pad-15" x="24999.95" y="5999.98"/><use xlink:href="#KfigaGXfokdHjOevvBqp_pad-16" x="24999.95" y="3999.99"/><use xlink:href="#KfigaGXfokdHjOevvBqp_pad-15" x="24999.95" y="11999.97"/><use xlink:href="#KfigaGXfokdHjOevvBqp_pad-15" x="24999.95" y="9999.97"/><use xlink:href="#KfigaGXfokdHjOevvBqp_pad-12" x="-40640" y="25400"/><use xlink:href="#KfigaGXfokdHjOevvBqp_pad-13" x="-38100" y="25400"/><use xlink:href="#KfigaGXfokdHjOevvBqp_pad-13" x="-35560" y="25400"/><use xlink:href="#KfigaGXfokdHjOevvBqp_pad-13" x="-33020" y="25400"/><use xlink:href="#KfigaGXfokdHjOevvBqp_pad-13" x="-30480" y="25400"/><use xlink:href="#KfigaGXfokdHjOevvBqp_pad-17" x="34999.93" y="0"/><use xlink:href="#KfigaGXfokdHjOevvBqp_pad-18" x="35124.89" y="15999.96"/><use xlink:href="#KfigaGXfokdHjOevvBqp_pad-18" x="35124.89" y="-15999.96"/><use xlink:href="#KfigaGXfokdHjOevvBqp_pad-18" x="-35625.02" y="-15999.96"/><use xlink:href="#KfigaGXfokdHjOevvBqp_pad-18" x="-35625.02" y="15999.96"/><use xlink:href="#KfigaGXfokdHjOevvBqp_pad-13" x="40640" y="6539.99"/><use xlink:href="#KfigaGXfokdHjOevvBqp_pad-17" x="-34999.93" y="0"/><use xlink:href="#KfigaGXfokdHjOevvBqp_pad-19" x="-22249.89" y="23499.82"/><use xlink:href="#KfigaGXfokdHjOevvBqp_pad-20" x="20249.89" y="23499.82"/><use xlink:href="#KfigaGXfokdHjOevvBqp_pad-21" x="-22249.89" y="-20750.02"/><use xlink:href="#KfigaGXfokdHjOevvBqp_pad-22" x="20249.89" y="-20750.02"/><use xlink:href="#KfigaGXfokdHjOevvBqp_pad-23" x="-39129.71" y="-28610.05"/><use xlink:href="#KfigaGXfokdHjOevvBqp_pad-23" x="-36589.71" y="-28610.05"/><use xlink:href="#KfigaGXfokdHjOevvBqp_pad-24" x="-34049.96" y="-28610.05"/><use xlink:href="#KfigaGXfokdHjOevvBqp_pad-23" x="-31509.71" y="-28610.05"/><use xlink:href="#KfigaGXfokdHjOevvBqp_pad-23" x="-28969.71" y="-28610.05"/><use xlink:href="#KfigaGXfokdHjOevvBqp_pad-23" x="-26429.71" y="-28610.05"/><use xlink:href="#KfigaGXfokdHjOevvBqp_pad-23" x="-23889.71" y="-28610.05"/><use xlink:href="#KfigaGXfokdHjOevvBqp_pad-24" x="-21349.96" y="-28610.05"/><use xlink:href="#KfigaGXfokdHjOevvBqp_pad-23" x="-18809.96" y="-28610.05"/><use xlink:href="#KfigaGXfokdHjOevvBqp_pad-23" x="-16269.96" y="-28610.05"/><use xlink:href="#KfigaGXfokdHjOevvBqp_pad-23" x="9130.03" y="-28610.05"/><use xlink:href="#KfigaGXfokdHjOevvBqp_pad-23" x="6590.03" y="-28610.05"/><use xlink:href="#KfigaGXfokdHjOevvBqp_pad-24" x="4050.03" y="-28610.05"/><use xlink:href="#KfigaGXfokdHjOevvBqp_pad-23" x="1510.03" y="-28610.05"/><use xlink:href="#KfigaGXfokdHjOevvBqp_pad-23" x="-1029.96" y="-28610.05"/><use xlink:href="#KfigaGXfokdHjOevvBqp_pad-23" x="-3569.96" y="-28610.05"/><use xlink:href="#KfigaGXfokdHjOevvBqp_pad-23" x="-6109.96" y="-28610.05"/><use xlink:href="#KfigaGXfokdHjOevvBqp_pad-24" x="-8649.96" y="-28610.05"/><use xlink:href="#KfigaGXfokdHjOevvBqp_pad-23" x="-11189.96" y="-28610.05"/><use xlink:href="#KfigaGXfokdHjOevvBqp_pad-23" x="-13729.96" y="-28610.05"/><use xlink:href="#KfigaGXfokdHjOevvBqp_pad-23" x="-13729.96" y="-46389.79"/><use xlink:href="#KfigaGXfokdHjOevvBqp_pad-23" x="-11189.96" y="-46389.79"/><use xlink:href="#KfigaGXfokdHjOevvBqp_pad-24" x="-8649.96" y="-46389.79"/><use xlink:href="#KfigaGXfokdHjOevvBqp_pad-23" x="-6109.96" y="-46389.79"/><use xlink:href="#KfigaGXfokdHjOevvBqp_pad-23" x="-3569.96" y="-46389.79"/><use xlink:href="#KfigaGXfokdHjOevvBqp_pad-23" x="-1029.96" y="-46389.79"/><use xlink:href="#KfigaGXfokdHjOevvBqp_pad-23" x="1510.03" y="-46389.79"/><use xlink:href="#KfigaGXfokdHjOevvBqp_pad-24" x="4050.03" y="-46389.79"/><use xlink:href="#KfigaGXfokdHjOevvBqp_pad-23" x="6590.03" y="-46389.79"/><use xlink:href="#KfigaGXfokdHjOevvBqp_pad-23" x="9130.03" y="-46389.79"/><use xlink:href="#KfigaGXfokdHjOevvBqp_pad-23" x="-16269.96" y="-46389.79"/><use xlink:href="#KfigaGXfokdHjOevvBqp_pad-23" x="-18809.96" y="-46389.79"/><use xlink:href="#KfigaGXfokdHjOevvBqp_pad-24" x="-21349.96" y="-46389.79"/><use xlink:href="#KfigaGXfokdHjOevvBqp_pad-23" x="-23889.71" y="-46389.79"/><use xlink:href="#KfigaGXfokdHjOevvBqp_pad-23" x="-26429.71" y="-46389.79"/><use xlink:href="#KfigaGXfokdHjOevvBqp_pad-23" x="-28969.71" y="-46389.79"/><use xlink:href="#KfigaGXfokdHjOevvBqp_pad-23" x="-31509.71" y="-46389.79"/><use xlink:href="#KfigaGXfokdHjOevvBqp_pad-24" x="-34049.96" y="-46389.79"/><use xlink:href="#KfigaGXfokdHjOevvBqp_pad-23" x="-36589.71" y="-46389.79"/><use xlink:href="#KfigaGXfokdHjOevvBqp_pad-23" x="-39129.71" y="-46389.79"/><use xlink:href="#KfigaGXfokdHjOevvBqp_pad-12" x="40639.74" y="3999.99"/><use xlink:href="#KfigaGXfokdHjOevvBqp_pad-25" x="28499.94" y="-30399.93"/><use xlink:href="#KfigaGXfokdHjOevvBqp_pad-25" x="28499.94" y="-44399.91"/><use xlink:href="#KfigaGXfokdHjOevvBqp_pad-26" x="-40640" y="20320"/><use xlink:href="#KfigaGXfokdHjOevvBqp_pad-26" x="1270" y="-30480"/><use xlink:href="#KfigaGXfokdHjOevvBqp_pad-26" x="-2540" y="-30480"/></g></svg>