<svg version="1.1" xmlns="http://www.w3.org/2000/svg" xmlns:xlink="http://www.w3.org/1999/xlink" stroke-linecap="round" stroke-linejoin="round" stroke-width="0" fill-rule="evenodd" width="86.455mm" height="73.95641mm" viewBox="-44180 -47189.79 86455 73956.41" id="sb5nBt3B4L-0Nyra7IpO"><defs><rect x="-1000" y="-1000" width="2000" height="2000" id="sb5nBt3B4L-0Nyra7IpO_pad-12"/><circle cx="0" cy="0" r="1000" id="sb5nBt3B4L-0Nyra7IpO_pad-13"/><circle cx="0" cy="0" r="1270" id="sb5nBt3B4L-0Nyra7IpO_pad-14"/><circle cx="0" cy="0" r="762" id="sb5nBt3B4L-0Nyra7IpO_pad-15"/><rect x="-762" y="-762" width="1524" height="1524" id="sb5nBt3B4L-0Nyra7IpO_pad-16"/><rect x="-4049.9919" y="-2125.0021" width="8099.9838" height="4250.0042" rx="2125.0021" ry="2125.0021" id="sb5nBt3B4L-0Nyra7IpO_pad-17"/><rect x="-3374.9996" y="-1175.004" width="6749.9992" height="2350.008" rx="1175.004" ry="1175.004" id="sb5nBt3B4L-0Nyra7IpO_pad-18"/><g id="sb5nBt3B4L-0Nyra7IpO_pad-19"><circle cx="-2283.9" cy="1016.8" r="2250"/><circle cx="2283.9" cy="-1016.8" r="2250"/><polygon points="-3199.01404,-1038.69661 1368.78596,-3072.29661 3199.01404,1038.69661 -1368.78596,3072.29661"/></g><g id="sb5nBt3B4L-0Nyra7IpO_pad-20"><circle cx="-2283.9" cy="-1016.8" r="2250"/><circle cx="2283.9" cy="1016.8" r="2250"/><polygon points="-1368.78596,-3072.29661 3199.01404,-1038.69661 1368.78596,3072.29661 -3199.01404,1038.69661"/></g><g id="sb5nBt3B4L-0Nyra7IpO_pad-21"><circle cx="-2253.6" cy="-749.7" r="2250"/><circle cx="2253.6" cy="749.7" r="2250"/><polygon points="-1543.36659,-2884.66335 2963.83341,-1385.26335 1543.36659,2884.66335 -2963.83341,1385.26335"/></g><g id="sb5nBt3B4L-0Nyra7IpO_pad-22"><circle cx="-2372.2" cy="789.1" r="2250"/><circle cx="2372.2" cy="-789.1" r="2250"/><polygon points="-3082.38934,-1345.87801 1662.01066,-2924.07801 3082.38934,1345.87801 -1662.01066,2924.07801"/></g><circle cx="0" cy="0" r="800" id="sb5nBt3B4L-0Nyra7IpO_pad-23"/><rect x="-800" y="-800" width="1600" height="1600" id="sb5nBt3B4L-0Nyra7IpO_pad-24"/><rect x="-2499.995" y="-1999.996" width="4999.99" height="3999.992" rx="1999.996" ry="1999.996" id="sb5nBt3B4L-0Nyra7IpO_pad-25"/><circle cx="0" cy="0" r="310" id="sb5nBt3B4L-0Nyra7IpO_pad-26"/></defs><g transform="translate(0,-20423.17) scale(1,-1)" fill="currentColor" stroke="currentColor"><path d="M -3568.7 -28610.55 -3568.7 -5834.37 -5080 -4323.07 -5080 -1262.37 2702.55 6520.18 19519.9 6520.18 25001.22 11998.95 M -6109.94 -28610.05 -9328.12 -25391.87 -9328.12 4248.14 -30479.97 25400 M -1028.7 -28610.55 -2207.26 -29786.57 -4061.45 -29786.57 -4968.23 -28879.79 -4968.23 -11821.15 -7620 -9171.94 -7620 2649.21 -3810 6459.21 M -41910 -1270 -43815 -3175 -43815 -25598.12 -39644.31 -29771.34 -37749.47 -29771.34 -36588.7 -28610.55 M -39129.69 -28610.05 -43289.7 -24450.04 -43289.7 -5189.72 -41909.97 -3810 M 2540.02 3919.98 3849.9 2610.1 3849.9 -6499.86 M 4050.05 -28610.05 4050.05 -28467.55 M -11189.94 -28610.05 -11189.94 3569.96 -33019.97 25400 M -40640 25400 -40639.92 20319.94" fill="none" stroke-width="170"/><path d="M 6590.03 -21472.44 6590.03 -19049.97 M 6590.03 -28610.05 6590.03 -21472.44" fill="none" stroke-width="254"/><path d="M 4050.03 -28610.05 3849.9 -28409.92 3849.9 -6499.86 M 1510.03 -28610.05 2308.63 -27811.45 2308.63 -7865.36 -1636.75 -3919.98 -2539.97 -3919.98 M -43180 16510 -43180 12700 -41910 11430 -38100 11430 -35560 8890 M -13728.7 -46390.55 -25158.7 -34960.55 -25158.7 -26022.29 -28956 -22225 -28956 2286 -38069.52 11399.52 M -16269.94 -28610.05 -16269.94 3569.96 -38099.97 25400 M -13729.94 -28610.05 -13729.94 3569.96 -35559.97 25400" fill="none" stroke-width="170"/><path d="M 11430 -25400 25400 -25400 29210 -21590 33020 -21590 34290 -22860 34290 -24130 M -6108.7 -46390.55 -6109.96 -46389.79 8889.97 -31749.94 15239.97 -25399.94 M 13969.97 -26669.94 15239.97 -25399.94 M -2540 -30479.94 1269.94 -30479.94" fill="none" stroke-width="254"/><path d="M -28968.7 -28610.55 -40096.44 -17482.81 -40096.44 1996.44 -41910 3810 M -43180 21590 -41529 19939 -41529 13586.45 -40640 12700 -38498.78 12700 -17317.71 -8483.6 -17317.71 -20985.47 -17500.6 -21168.36 -17500.6 -40078.65 -11188.7 -46390.55 M -26428.7 -28610.55 -30480 -24559.26 -30479.94 -11937.97 -39496.92 -2921 -39496.92 4064 -41910 6350" fill="none" stroke-width="170"/><path d="M 24999.97 3999.99 2620.03 3999.99 2540.02 3919.98 M 40639.92 6539.99 31939.94 6539.99 27939.94 2540 27939.94 2540 6603.97 -19049.97 M 24999.97 9999.97 24999.97 5999.98" fill="none" stroke-width="254"/><use xlink:href="#sb5nBt3B4L-0Nyra7IpO_pad-12" x="41274.74" y="-19685"/><use xlink:href="#sb5nBt3B4L-0Nyra7IpO_pad-13" x="41275" y="-22225"/><use xlink:href="#sb5nBt3B4L-0Nyra7IpO_pad-13" x="41275" y="-24765"/><use xlink:href="#sb5nBt3B4L-0Nyra7IpO_pad-12" x="36830" y="-24130"/><use xlink:href="#sb5nBt3B4L-0Nyra7IpO_pad-13" x="34290" y="-24130"/><use xlink:href="#sb5nBt3B4L-0Nyra7IpO_pad-13" x="31750" y="-24130"/><use xlink:href="#sb5nBt3B4L-0Nyra7IpO_pad-13" x="-41910" y="1270"/><use xlink:href="#sb5nBt3B4L-0Nyra7IpO_pad-13" x="-41910" y="3810"/><use xlink:href="#sb5nBt3B4L-0Nyra7IpO_pad-13" x="-41910" y="6350"/><use xlink:href="#sb5nBt3B4L-0Nyra7IpO_pad-13" x="-41910" y="-1270"/><use xlink:href="#sb5nBt3B4L-0Nyra7IpO_pad-13" x="-41910" y="-3810"/><use xlink:href="#sb5nBt3B4L-0Nyra7IpO_pad-12" x="-41910" y="-6350"/><use xlink:href="#sb5nBt3B4L-0Nyra7IpO_pad-13" x="-43180" y="24130"/><use xlink:href="#sb5nBt3B4L-0Nyra7IpO_pad-13" x="-43180" y="21590"/><use xlink:href="#sb5nBt3B4L-0Nyra7IpO_pad-12" x="-43180" y="19050"/><use xlink:href="#sb5nBt3B4L-0Nyra7IpO_pad-13" x="-43180" y="16510"/><use xlink:href="#sb5nBt3B4L-0Nyra7IpO_pad-14" x="3849.87" y="-6499.86"/><use xlink:href="#sb5nBt3B4L-0Nyra7IpO_pad-14" x="-2540" y="-3919.98"/><use xlink:href="#sb5nBt3B4L-0Nyra7IpO_pad-14" x="-3810" y="6459.98"/><use xlink:href="#sb5nBt3B4L-0Nyra7IpO_pad-14" x="2540" y="3919.98"/><use xlink:href="#sb5nBt3B4L-0Nyra7IpO_pad-15" x="24999.95" y="5999.98"/><use xlink:href="#sb5nBt3B4L-0Nyra7IpO_pad-16" x="24999.95" y="3999.99"/><use xlink:href="#sb5nBt3B4L-0Nyra7IpO_pad-15" x="24999.95" y="11999.97"/><use xlink:href="#sb5nBt3B4L-0Nyra7IpO_pad-15" x="24999.95" y="9999.97"/><use xlink:href="#sb5nBt3B4L-0Nyra7IpO_pad-12" x="-40640" y="25400"/><use xlink:href="#sb5nBt3B4L-0Nyra7IpO_pad-13" x="-38100" y="25400"/><use xlink:href="#sb5nBt3B4L-0Nyra7IpO_pad-13" x="-35560" y="25400"/><use xlink:href="#sb5nBt3B4L-0Nyra7IpO_pad-13" x="-33020" y="25400"/><use xlink:href="#sb5nBt3B4L-0Nyra7IpO_pad-13" x="-30480" y="25400"/><use xlink:href="#sb5nBt3B4L-0Nyra7IpO_pad-17" x="34999.93" y="0"/><use xlink:href="#sb5nBt3B4L-0Nyra7IpO_pad-18" x="35124.89" y="15999.96"/><use xlink:href="#sb5nBt3B4L-0Nyra7IpO_pad-18" x="35124.89" y="-15999.96"/><use xlink:href="#sb5nBt3B4L-0Nyra7IpO_pad-18" x="-35625.02" y="-15999.96"/><use xlink:href="#sb5nBt3B4L-0Nyra7IpO_pad-18" x="-35625.02" y="15999.96"/><use xlink:href="#sb5nBt3B4L-0Nyra7IpO_pad-13" x="40640" y="6539.99"/><use xlink:href="#sb5nBt3B4L-0Nyra7IpO_pad-17" x="-34999.93" y="0"/><use xlink:href="#sb5nBt3B4L-0Nyra7IpO_pad-19" x="-22249.89" y="23499.82"/><use xlink:href="#sb5nBt3B4L-0Nyra7IpO_pad-20" x="20249.89" y="23499.82"/><use xlink:href="#sb5nBt3B4L-0Nyra7IpO_pad-21" x="-22249.89" y="-20750.02"/><use xlink:href="#sb5nBt3B4L-0Nyra7IpO_pad-22" x="20249.89" y="-20750.02"/><use xlink:href="#sb5nBt3B4L-0Nyra7IpO_pad-23" x="-39129.71" y="-28610.05"/><use xlink:href="#sb5nBt3B4L-0Nyra7IpO_pad-23" x="-36589.71" y="-28610.05"/><use xlink:href="#sb5nBt3B4L-0Nyra7IpO_pad-24" x="-34049.96" y="-28610.05"/><use xlink:href="#sb5nBt3B4L-0Nyra7IpO_pad-23" x="-31509.71" y="-28610.05"/><use xlink:href="#sb5nBt3B4L-0Nyra7IpO_pad-23" x="-28969.71" y="-28610.05"/><use xlink:href="#sb5nBt3B4L-0Nyra7IpO_pad-23" x="-26429.71" y="-28610.05"/><use xlink:href="#sb5nBt3B4L-0Nyra7IpO_pad-23" x="-23889.71" y="-28610.05"/><use xlink:href="#sb5nBt3B4L-0Nyra7IpO_pad-24" x="-21349.96" y="-28610.05"/><use xlink:href="#sb5nBt3B4L-0Nyra7IpO_pad-23" x="-18809.96" y="-28610.05"/><use xlink:href="#sb5nBt3B4L-0Nyra7IpO_pad-23" x="-16269.96" y="-28610.05"/><use xlink:href="#sb5nBt3B4L-0Nyra7IpO_pad-23" x="9130.03" y="-28610.05"/><use xlink:href="#sb5nBt3B4L-0Nyra7IpO_pad-23" x="6590.03" y="-28610.05"/><use xlink:href="#sb5nBt3B4L-0Nyra7IpO_pad-24" x="4050.03" y="-28610.05"/><use xlink:href="#sb5nBt3B4L-0Nyra7IpO_pad-23" x="1510.03" y="-28610.05"/><use xlink:href="#sb5nBt3B4L-0Nyra7IpO_pad-23" x="-1029.96" y="-28610.05"/><use xlink:href="#sb5nBt3B4L-0Nyra7IpO_pad-23" x="-3569.96" y="-28610.05"/><use xlink:href="#sb5nBt3B4L-0Nyra7IpO_pad-23" x="-6109.96" y="-28610.05"/><use xlink:href="#sb5nBt3B4L-0Nyra7IpO_pad-24" x="-8649.96" y="-28610.05"/><use xlink:href="#sb5nBt3B4L-0Nyra7IpO_pad-23" x="-11189.96" y="-28610.05"/><use xlink:href="#sb5nBt3B4L-0Nyra7IpO_pad-23" x="-13729.96" y="-28610.05"/><use xlink:href="#sb5nBt3B4L-0Nyra7IpO_pad-23" x="-13729.96" y="-46389.79"/><use xlink:href="#sb5nBt3B4L-0Nyra7IpO_pad-23" x="-11189.96" y="-46389.79"/><use xlink:href="#sb5nBt3B4L-0Nyra7IpO_pad-24" x="-8649.96" y="-46389.79"/><use xlink:href="#sb5nBt3B4L-0Nyra7IpO_pad-23" x="-6109.96" y="-46389.79"/><use xlink:href="#sb5nBt3B4L-0Nyra7IpO_pad-23" x="-3569.96" y="-46389.79"/><use xlink:href="#sb5nBt3B4L-0Nyra7IpO_pad-23" x="-1029.96" y="-46389.79"/><use xlink:href="#sb5nBt3B4L-0Nyra7IpO_pad-23" x="1510.03" y="-46389.79"/><use xlink:href="#sb5nBt3B4L-0Nyra7IpO_pad-24" x="4050.03" y="-46389.79"/><use xlink:href="#sb5nBt3B4L-0Nyra7IpO_pad-23" x="6590.03" y="-46389.79"/><use xlink:href="#sb5nBt3B4L-0Nyra7IpO_pad-23" x="9130.03" y="-46389.79"/><use xlink:href="#sb5nBt3B4L-0Nyra7IpO_pad-23" x="-16269.96" y="-46389.79"/><use xlink:href="#sb5nBt3B4L-0Nyra7IpO_pad-23" x="-18809.96" y="-46389.79"/><use xlink:href="#sb5nBt3B4L-0Nyra7IpO_pad-24" x="-21349.96" y="-46389.79"/><use xlink:href="#sb5nBt3B4L-0Nyra7IpO_pad-23" x="-23889.71" y="-46389.79"/><use xlink:href="#sb5nBt3B4L-0Nyra7IpO_pad-23" x="-26429.71" y="-46389.79"/><use xlink:href="#sb5nBt3B4L-0Nyra7IpO_pad-23" x="-28969.71" y="-46389.79"/><use xlink:href="#sb5nBt3B4L-0Nyra7IpO_pad-23" x="-31509.71" y="-46389.79"/><use xlink:href="#sb5nBt3B4L-0Nyra7IpO_pad-24" x="-34049.96" y="-46389.79"/><use xlink:href="#sb5nBt3B4L-0Nyra7IpO_pad-23" x="-36589.71" y="-46389.79"/><use xlink:href="#sb5nBt3B4L-0Nyra7IpO_pad-23" x="-39129.71" y="-46389.79"/><use xlink:href="#sb5nBt3B4L-0Nyra7IpO_pad-12" x="40639.74" y="3999.99"/><use xlink:href="#sb5nBt3B4L-0Nyra7IpO_pad-25" x="28499.94" y="-30399.93"/><use xlink:href="#sb5nBt3B4L-0Nyra7IpO_pad-25" x="28499.94" y="-44399.91"/><use xlink:href="#sb5nBt3B4L-0Nyra7IpO_pad-26" x="-40640" y="20320"/><use xlink:href="#sb5nBt3B4L-0Nyra7IpO_pad-26" x="1270" y="-30480"/><use xlink:href="#sb5nBt3B4L-0Nyra7IpO_pad-26" x="-2540" y="-30480"/></g></svg>